<?xml version="1.0" encoding="utf-8"?>
<!-- Generator: Adobe Illustrator 15.1.0, SVG Export Plug-In . SVG Version: 6.00 Build 0)  -->
<!DOCTYPE svg PUBLIC "-//W3C//DTD SVG 1.1//EN" "http://www.w3.org/Graphics/SVG/1.1/DTD/svg11.dtd">
<svg version="1.1" id="Layer_1" xmlns="http://www.w3.org/2000/svg" xmlns:xlink="http://www.w3.org/1999/xlink" x="0px" y="0px"
	 width="825px" height="525px" viewBox="0 0 825 525" enable-background="new 0 0 825 525" xml:space="preserve">
<g id="Black">
	<polygon points="-0.001,0 825,0 825.013,525.169 0,525.169 	"/>
</g>
<g>
	<path fill="none" d="M203.052,195.512c0.022-0.063,0.049-0.12,0.075-0.181C203.101,195.392,203.076,195.452,203.052,195.512z"/>
	<path fill="none" d="M202.544,194.871c0.013,0.051,0.021,0.104,0.032,0.152C202.565,194.972,202.555,194.922,202.544,194.871z"/>
	<path fill="none" d="M202.844,196.216c0.018-0.079,0.035-0.161,0.058-0.242C202.881,196.052,202.863,196.135,202.844,196.216z"/>
	<path fill="none" d="M202.943,195.835c0.018-0.063,0.038-0.124,0.059-0.186C202.981,195.711,202.961,195.771,202.943,195.835z"/>
	<path fill="none" d="M203.188,195.209c0.033-0.065,0.068-0.13,0.106-0.189C203.258,195.079,203.22,195.141,203.188,195.209z"/>
	<path fill="none" d="M203.352,194.922c0.059-0.09,0.124-0.178,0.193-0.259C203.476,194.744,203.411,194.832,203.352,194.922z"/>
	<path fill="none" d="M204.547,193.969c0.125-0.05,0.259-0.095,0.4-0.129C204.804,193.874,204.672,193.919,204.547,193.969z"/>
	<path fill="none" d="M204.196,194.135c0.076-0.04,0.156-0.079,0.239-0.116C204.351,194.055,204.271,194.094,204.196,194.135z"/>
	<path fill="none" d="M203.889,194.341c0.06-0.047,0.123-0.09,0.188-0.132C204.012,194.251,203.949,194.294,203.889,194.341z"/>
	<path fill="none" d="M205.027,193.823c0.122-0.028,0.25-0.051,0.386-0.069C205.277,193.772,205.149,193.795,205.027,193.823z"/>
	<path fill="none" d="M203.613,194.594c0.055-0.062,0.113-0.116,0.175-0.173C203.726,194.477,203.668,194.534,203.613,194.594z"/>
	<path fill="#FFFFFF" d="M691.393,445.784c14.241,12.781,27.192,26.906,43.218,37.83c1.058,2.568-0.509,4.68,2.062,6.425
		c8.358-1.099,12.898-9.834,21.267-8.563c-5.609,11.771-14.76,19.855-23.326,28.552c-4.12-1.897-4.909-7.266-7.545-10.708
		c-4.204,2.053-6.223,6.373-10.978,7.854c-9.576-12.164-28.881-14.206-37.044-27.841c-10.206-1.038-17.47-5.141-24.697-9.278
		c-2.975,4.009-2.652,8.377-3.429,15.704c-0.479,4.474-3.343,7.978-4.118,12.135c-0.486,2.605,0.283,5.208,0,7.852
		c-0.319,3.004-2.084,5.545-2.742,8.565c-0.611,2.803-0.373,6.093-0.71,10.69l181.665,0.166l0.06-114.589
		c-32.737,4.756-34.482,6.943-35.737,7.423C759.669,429.335,723.669,437.283,691.393,445.784z"/>
	<path fill="none" d="M652.694,452.924c-10.34,0.408-22.894-0.183-30.185-4.995c-1.114,7.649-1.412,20.453,0.686,27.123
		c-3.741,15.146-0.121,34.309-4.135,48.278h23.042c2.915-17.176,5.401-38.848,11.276-53.988
		C651.87,465.198,653.084,458.227,652.694,452.924z"/>
	<path fill="none" d="M201.01,189.388c0.043,0.116,0.077,0.232,0.118,0.353C201.089,189.623,201.053,189.507,201.01,189.388z"/>
	<path fill="#FFFFFF" d="M619.764,452.21c-20.068-0.771-39.312-2.402-53.509-9.279c-6.994,4.517-14.735,10.799-26.759,7.852
		c1.939,20.587,24.186,20.047,28.13,38.545c12.146,1.935,9.357-11.677,13.032-18.557c11.21,8.16,0.814,29.889-10.975,27.123
		c0.505,11.006-2.638,18.213-5.765,27.106h54.083C619.776,500.01,620.85,474.363,619.764,452.21z"/>
	<path fill="#FFFFFF" d="M532.638,515.022c-3.131-0.426-4.227,4.38-5.979,9.978h10.729
		C535.868,519.524,534.419,515.264,532.638,515.022z"/>
	<path fill="none" d="M199.899,186.638c0.054,0.116,0.1,0.232,0.15,0.353C199.999,186.873,199.953,186.757,199.899,186.638z"/>
	<path fill="none" d="M201.469,190.756c0.032,0.108,0.063,0.218,0.097,0.324C201.532,190.971,201.503,190.864,201.469,190.756z"/>
	<path fill="none" d="M200.49,188.015c0.05,0.127,0.094,0.252,0.143,0.378C200.584,188.267,200.54,188.142,200.49,188.015z"/>
	<path fill="none" d="M201.872,192.121c0.026,0.094,0.048,0.188,0.073,0.277C201.921,192.306,201.898,192.215,201.872,192.121z"/>
	<path fill="#FFFFFF" d="M537,246.062c4.335,0.415,8.547,0.584,12.745,0.68c-3.976-0.418-8.155-0.624-12.433-0.727
		C537.209,246.033,537.103,246.044,537,246.062z"/>
	<path fill="#FFFFFF" d="M0,0v525h143.288c1.231-11.5,2.135-23.951-1.683-31.391c-3.257-2.146-6.091-5.524-9.604-7.14
		c-6.169-2.831-13.627-3.619-21.267-6.424c-3.479-1.276-5.358-5.442-9.604-7.853c-3.738-2.122-9.691-1.619-12.349-3.569
		c-3.643-2.676-5.893-12.147-4.802-15.702c0.955-3.112,4.483-3.915,6.859-6.426c6.259-6.604,9.21-16,11.662-27.124
		c-6.412,3.087-13.964,11.165-20.581,16.418c1.416,3.071,2.729,5.432,0,7.853c-3.102,0.373-4.942-0.566-5.486-2.855
		c-3.11,4.81-9.97,2.501-10.291-2.14c-0.336-4.835,13.452-14.114,18.521-18.561c8.194-7.184,15.727-11.54,19.896-17.131
		c1.406-12.647-11.771-10.117-17.836-14.99c7.682-19.686-0.462-42.072,4.114-64.956c-3.739-5.104-14.726-17.76-15.093-25.693
		c-0.263-5.684,9.137-22.354,12.35-27.839c13.641-23.288,30.314-37.479,52.138-54.25c15.448-11.87,32.241-19.079,50.766-24.27
		c3.136-3.875,6.265-7.76,9.604-11.42c-1.264-6.341-1.244-9.327-0.688-15.704c1.742,0.413,0.528,5.419,4.116,5.71
		c-0.747,2.317-4.945,1.042-4.116,4.997c2.979,2.495,9.268-2.938,12.35-4.997c0.086-3.183-4.201-1.813-4.804-4.281
		c-1.209-8.635,7.137-7.328,8.918-12.85c-2.805-1.784-7.313-4.176-10.291-3.567c1.658-0.894,1.572-3.602,4.117-3.569
		c-0.511-2.086-3.704-1.381-3.431-4.282c4.462-0.83,9.048-1.531,11.663-4.283c0.438-8.583,5.515-12.344,11.662-14.987
		c7.986-7.295,20.313-14.885,33.613-13.563c5.645,0.563,10.579,4.107,16.466,3.569c6.813-0.624,10.979-3.383,17.149-5.711
		c6.561,2.796,14.58,2.542,21.269,6.424c1.171,3.302,2.615,6.32,5.487,7.852c0.207,3.312-0.007,6.181-1.372,7.854
		c2.73-0.013,4.831-0.685,6.175-2.144c1.857,3.151-5.752,2.563-6.86,4.998c1.507,0.614,5.142,2.688,6.174,1.429
		c-1.47,6.369,7.935,9.684,5.487,17.132c1.718,1.066,3.09,2.496,4.117,4.282c0.506,3.382-0.772,4.907-0.688,7.852
		c5.144,4.53,13.16,7.019,13.722,14.276c0.766,9.927-9.382,14.651-15.779,19.985c20.286,2.028,34.184,16.088,46.65,28.553
		c1.408,8.051,7.018,11.729,11.66,16.417c9.09-3.396,18.674-6.271,25.385-12.135c2.04-9.812,7.419-17.406,14.403-23.558
		c7.287-6.409,15.638-8.415,24.697-11.419c13.956-4.627,29.188-11.597,44.592-17.131c7.402-2.66,14.981-6.123,22.642-8.566
		c11.511-3.67,20.136-9.251,32.929-6.424c5.263,4.368,9.354,10.174,17.838,16.417c1.063,2.285,0.24,3.141-2.745,2.854
		c1.005,2.049,4.497,1.509,4.116,4.998c-2.619,1.797-7.207,1.541-10.29,2.854c3.521,2.303,10.066-1.676,12.348-0.715
		c-3.468,3.119-11.101,1.903-16.139,3.388c4.848-0.453,15.036,1.192,17.516,0.182c-0.502,1.11-1.405,1.731-2.565,2.035
		c0.908,0.019,1.771,0.053,2.565,0.108c1.731,1.275,0.472,3.479-0.293,4.909c0.198-0.047,0.419-0.07,0.694-0.037
		c-0.783,2.093-0.119,6.342,1.657,7.261c-0.3,1.998-2.562,3.862-2.363,6.494c0.322-0.032,0.65-0.058,0.992-0.068
		c-1.243,0.809-2.987,2.265-4.941,3.198c2.104,0.021,3.845,0.545,4.941,2.512c-1.576-1.08-5.112,0.962-7.53,2.229
		c3.035-0.687,6.104-1.326,8.903,1.339c-2.003,0.184-4.119,0.354-6.285,0.52c-1.205,1.1-8.115,4.317-8.122,5.189
		c4.639,0.336,11.872-2.004,15.778,0.713c-1.673,1.927-4.474-1.015-7.546,0c-0.35,4.17,3.358,4.119,4.804,6.425
		c-3.377-1.063-7.792-0.563-9.606,0c1.961,1.771,7.502-0.188,9.606,1.431c-1.78,0.059-3.529,0.056-5.265,0.028
		c0.977,0.216,1.878,0.528,2.727,0.917c0.229,6.221-3.177,10.4-6.384,14.048c-1.146-0.715-0.486-3.301-2.062-3.568
		c-7.145-0.491-13.866-0.457-20.622-0.612c6.418,0.674,12.305,1.901,17.191,4.169c-24.373-5.063-59.063-4.266-83.696,0
		c-7.147,1.239-14.07,4.206-20.578,4.997c-18.528,2.252-32.957-1.973-41.849-12.849c-8.879,1.47-17.884,3.099-24.012,7.852
		c-2.631,2.042-3.658,5.863-6.174,7.854c-6.97,5.51-15.127,3.373-24.014,5.709c-1.002-0.621-2.654-0.566-2.057-2.854
		c-25.174,9.021-47.564,20.938-71.348,31.406c3.447,1.646,8.957,1.148,12.349,2.854c2.299,5.273-1.208,9.328-2.745,12.849
		c18.061,10.224,39.953,22.2,65.173,18.56c0.697,16.852-1.09,32.968-6.174,46.396c4.221,7.479,14.15,14.242,21.267,19.985
		c6.278,5.065,13.696,7.805,19.21,12.85c1.456-0.313,3.057-0.89,4.803,0c7.1,4.983,13.896,10.282,23.325,12.848
		c2.433-5.64,7.64-5.267,15.776-6.424c13.771-1.961,26.913-9.696,32.243,2.854c-0.925,6.985-2.761,11.757-6.858,14.987
		c-7.659,6.041-19.928,5.961-28.813,10.709c-8.235,4.397-12.057,17.674-25.385,14.274c-4.523-2.565-7.878-8.886-5.486-16.417
		c-2-1.488-4.563-2.389-6.174-4.282c0.271-8.852-5.31-11.607-11.664-13.563c-0.945-0.922-0.679-3.104-0.687-4.998
		c-14.95-4.904-32.385-7.229-40.477-19.271c-6.423,10.925-12.786,21.912-19.209,32.835c-16.719,21.376-43.354,40.602-72.718,51.396
		c-3.753,1.378-8.103,1.977-11.663,3.566c-4.376,1.957-7.513,5.375-11.663,6.427c-2.557,0.646-5.521-0.028-8.232,0.713
		c-3.79,1.038-6.909,3.626-10.976,4.281c-16.323,2.639-33.198,2.684-49.396,0c-1.34,9.246-4.865,16.221-4.857,28.536h342.89
		c-1.926-10.376,0.045-21.646,1.561-29.957c-3.255-6.367-9.385-9.745-10.289-18.56c7.188,12.745,15.65,24.163,30.185,29.267
		c-1.013-4.183-3.459-6.87-4.803-10.707c-0.322-2.921,1.726,0.021,2.744,0c0.146-6.469-3.461-10.395-2.06-15.702
		c2.407-9.1,13.487-4.022,17.836,0.714c4.63-0.418,4.728-5.554,6.86-8.564c-10.354-6.249-14.036-25.499-13.72-36.403
		c-5.876-0.073-8.898,7.969-14.406,8.564c-3.501,0.381-2.785-2.348-5.488-2.854c-3.847-0.723-7.188,3.419-11.661,1.43
		c0.284,3.104,2.434,5.375,0.687,8.563c-2.189,2.044-6.767,1.975-8.918,2.144c-1.649,4.286-0.313,11.127,0,15.704
		c-2.069-2.131-2.146-6.337-2.06-10.706c-6.539,5.696-18.004,1.307-26.757,7.138c-1.938,1.292-2.65,5.148-5.487,7.138
		c-5.926,4.157-14.854,2.344-15.777-2.854c-0.778-4.385,7.912-13.146,9.604-14.275c2.976-1.985,6.721-1.826,10.291-2.854
		c12.896-3.717,25.539-11.079,32.932-18.562c-9.909-7.185-3.354-23.861,2.059-34.975c3.589-7.374,10.271-14.146,12.35-20.701
		c0.995-3.146,0.185-6.64,0.686-9.279c1.616-8.494,5.26-14.341,8.919-21.412c8.649,1.705,6.739,14.398,8.918,22.842
		c10.895,3.653,18.298,10.938,26.068,17.845c8.891,0.029,17.886-0.05,21.952,4.997c-3.932,6.954-10.706,11.538-19.207,14.273
		c-2.824,0.909-6.788,0.189-9.604,1.43c-6.427,2.827-8.176,11.674-14.407,13.563c4.835,4.929,10.229,11.004,17.152,11.42
		c11.335,0.685,18.944-18.388,30.869-14.273c3.438,1.187,5.728,6.168,4.803,12.136c-10.053-0.229-17.23,2.533-20.581,9.277
		c13.908,7.29,32.295,9.96,52.14,7.853c-3.097-2.393-3.459-8.115-0.688-11.421c-0.065-1.835-2.677-1.021-2.744-2.854
		c1.135-3.815,3.294-6.567,5.489-9.278c-5.055-8.854,0.497-20.022,4.802-25.696c-10.03-9.884-23.704-13.109-34.987-20.702
		c-11.048-7.433-19.694-18.643-32.241-23.555c0.278-1.72-1.256-1.551-0.688-3.568c-8.849-0.551-16.966-1.857-21.952-6.425
		c-0.313-2.229,1.465-2.28,3.43-2.14c1.291-2.092-4.594-2.813-3.43-7.142c1.59-0.227,2.633,0.116,3.43,0.717
		c1.618-1.049-2.703-1.893-1.373-4.997c2.128-0.071,3.277,0.871,4.804,1.429c1.797-0.776-3.867-3.493-1.373-4.997
		c4.833-0.864,7.721,6.155,11.664,8.565c3.584-0.554,0.52-8.025,5.488-7.141c2.502,2.867,0.97,9.938,4.114,12.135
		c2.089,0.202,2.667-2.286,4.115-0.713c17.345,14.073,37.869,24.841,63.114,30.692c-7.396-6.423-20.064-33.479-6.86-44.255
		c1.889-3.336-2.68-3.09-2.744-6.425c-0.358-7.988,7.938-6.97,13.036-9.279c-11.163-30.889,38.123-37.097,56.252-29.979
		c1.811-0.216,2.253,0.988,2.061,2.855c10.771,1.111,21.355,10.478,26.757,19.985c2.714,4.782,2.662,12.631,9.604,13.563
		c-0.452,0.958-1.469,1.329-2.743,1.427c0.675,0.966,1.827,1.428,2.743,2.144c-2.828,6.832,0.848,19.104-2.743,26.409
		c8.875-2.66,13.917-9.313,21.951-12.849c0.048-6.138,1.393-10.925,2.06-16.418c3.27-0.546,3.147,2.436,4.115,4.282
		c2.98-2.13,4.359-5.929,7.547-7.853c1.835,0.911,3.262,1.142,2.059,3.568c2.438-0.079,2.493-2.639,5.487-2.142
		c1.479,1.528,0.352,3.986-0.688,4.997c1.101,1.177,2.564-0.319,4.118,1.427c0.049,2.67-1.104,4.089-2.745,4.998
		c0.178,1.479,3.015,0.193,3.431,1.427c-3.856,8.835-15.104,9.982-21.95,15.703c0,1.666,0,3.333,0,4.998
		c-14.734,22.501-39.654,34.403-63.802,47.107c8.105,8.396,13.529,24.548,2.741,34.266c0.634,4.545,1.736,6.54,0.688,11.419
		c34.063-6.038,67.759-21.046,133.177-35.229V0H0z M201.976,161.693c-0.097-1.329-0.451-2.384-1.372-2.855
		c2.092-2.127,3.669,2.334,6.174,2.144C206.482,162.576,203.397,161.269,201.976,161.693z M208.836,153.844
		c-2.844,0.191-2.673-0.938-4.802,0c0.952-0.912,0.419-3.37,1.372-4.282C206.142,151.411,208.389,151.69,208.836,153.844z
		 M405.039,71.042c-3.383,4.283-8.531,5.71-15.092,7.854c2.086,4.292,9.137,7.968,10.977,13.562
		c6.585,20.029-21.016,31.281-39.788,22.128c-0.691-11.755,2.421-25.49,3.431-37.832c-2.086-0.923-4.527-1.476-6.175-2.854
		c-1.336-6.699-3.543-12.493-7.546-16.417c-1.672-27.345,25.908-30.666,45.963-27.125C402.855,41.732,416.121,57.016,405.039,71.042
		z M424.249,116.725c-17.458-12.104-8.294-60.333,10.978-64.241c20.354-4.129,25.044,34.583,17.151,52.82
		C448.189,114.975,433.392,123.064,424.249,116.725z M624.568,139.566c-4.943,0.147-6.771-2.946-10.29-4.283
		c3.104-12.783-2.186-36.421,3.43-49.965c-3.475-0.51-9.619,2.351-13.72,3.569c-2.137,27.997-15.912,43.879-37.047,52.106
		c-3.264-17.065-6.139-34.536-8.919-52.105c-13.683-1.229-28.6-1.177-37.045-7.854c-4.71,11.52-8.374,24.12-12.351,36.404
		c0.313,2.943,5.729,2.595,2.06,5.709c2.278,5.005,10.055,4.29,13.721,7.852c-1.044,5.829-14.847,7.823-17.835,2.855
		c-0.844,1.264-1.339,2.892-2.744,3.567c-2.021-15.979-8.085-27.755-15.094-38.545c-4.82,14.021-11.142,26.479-14.405,42.114
		c-3.562,1.086-1.897-3.261-4.116-3.569c-3.069,5.053-17.229,3.426-18.523-2.142c4.699-2.249,10.896-2.939,14.408-6.424
		c0.269-2.187-1.433-3.771,2.744-4.282c-0.689-1.424-3.033-1.127-2.744-3.568c-0.107-6.636,3.267-12.472,4.115-19.271
		c2.655-21.27,3.085-43.965,8.919-62.813c4.211-1.812,10.75-0.381,13.72,1.429c1.181,19.945,3.544,38.666,7.548,55.676
		c4.037-7.219,7.638-14.896,8.23-25.697c7.541-7.38,4.775-25.481,15.777-29.266c2.889,9.438-0.841,23.687-2.744,32.835
		c8.438,6.45,20.526,9.098,34.303,9.993c0.854-11.396-4.47-22.448-3.433-36.404c28.983-3.023,47.43,11.083,52.142,35.69
		c8.687-1.907,17.106-4.091,20.577-11.422c2.229-0.412,3.193,0.485,4.806,0.715c1.299,2.452,0.298,7.305,1.371,9.991
		C623.488,95.318,628.482,124.83,624.568,139.566z M621.822,67.474c-3.395-12.694,12.106-16.073,13.725-7.141
		C636.839,67.484,628.155,74.193,621.822,67.474z M735.015,48.914c-4.745,2.354-6.086,3.913-11.66,4.995
		c-1.123-3.353-2.714-6.216-4.118-9.278c-0.721-2.653,2.314-1.397,2.744-2.854c-2.681-6.15-11.511-9.248-19.894-7.138
		c0.881,3.739,2.039,0.633,4.801,0.714c-1.467,4.869,0.586,6.097-4.116,8.563c0.993,3.096,1.533-0.752,4.116,0
		c-0.532,0.638-0.736,1.612-0.688,2.855c2.903,0.165,1.556-4.093,5.489-2.855c-3.326,3.622,0.396,3.646,0,6.424
		c-2.94,0.685-2.647-2.001-4.804-2.141c-2.35,0.699,1.836,4.119-0.688,4.997c-3.896-0.365-0.308-4.081-2.743-5.711
		c-2.508,0.008-3.676,1.41-4.802,2.854c1.344,2.886,5.03,3.331,6.174,6.426c1.021,12.113-3.904,18.887-17.149,17.846
		c1.939,20.22,15.736,46.239-0.688,59.245c-4.262-10.558-4.437-25.362-6.173-38.545c-7.396,2.061-11.762,7.271-17.838,10.707
		c-2.089,9.482-3.067,20.125-4.801,29.979c-4.73,2.479-14.399,1.748-17.838-1.427c3.891-25.22,11.909-46.142,22.639-64.242
		c-3.622-4.248-13.726-5-11.66-12.848c5.499-2.842,14.204-2.353,16.464-8.565c-7.166,2.576-23.851,5.67-33.615,0.713
		c4.277-17.235,28.763-22.426,45.968-15.703c-5.82-8.695-16.884-11.937-22.641-20.698c16.356-2.711,34.446,1.863,30.871,19.984
		c0.619,1.496,3.87,0.254,4.115,2.144c8.054-4.903,24.705-5.148,29.498,2.854c0.806-0.115,0.58-1.301,0.688-2.141
		c0.922,0.469,1.277,1.523,1.372,2.854c0.642-0.522,1.039-1.298,1.371-2.142c0.818,3.363,2.896,1.171,6.175,1.428
		C730.648,42.664,735.808,42.742,735.015,48.914z"/>
	<path fill="#FFFFFF" d="M574.486,246.637c1.01-2.716-3.063-0.143-2.056-2.855c-0.373-2.766,3.979-0.617,4.114-2.854
		c-2.133-3.491-10.005-1.013-13.721-2.855c3.145-1.3,5.763-2.01,8.017-2.292c-14.373-0.762-27.765-3.25-43.689,0.149
		c9.229,2.089,18.334,0.297,31.558,1.427c-11.834,3.151-29.33,0.411-40.475,4.281c-0.222-3.319,4.745-1.247,6.173-2.854
		c-6.48-2.012-10.042,0.878-17.835,0c17.993-7.688,47.705-3.184,68.604-7.854c-34.964-6.938-70.414,4.166-97.416,14.275
		c4.637-5.882,15.777-4.992,21.953-9.277c-7.485-0.243-18.235,2.988-26.071,6.424c17.019-8.67,41.554-11.721,63.803-14.277
		c9.377-1.077,30.356-2.209,38.606-5.873c-19.91,1.512-45.791,2.549-63.99,7.305c17.082-6.621,38.41-6.902,58.31-8.567
		c0.631-0.053,1.269-0.162,1.91-0.292c0.051-1.21-0.07-3.853-0.539-3.991c-1.6,0-3.201,0-4.801,0
		c-1.627,0.59-3.16-1.007-0.686-0.713c2.687,0.4,5.377-0.02,7.778-0.249c1.653-1.13,3.73-2.865,5.463-3.139
		c-0.608-0.208-0.979-0.66-1.179-1.295c2.808-2.985,0.721-7.857,0-11.858c0.198,0.015,0.364-0.005,0.52-0.036
		c-0.326-0.511,1.196-1.902-0.233-2.695c-18.145-0.881-28.257,1.543-42.535,2.142c11.257-2.702,26.47-4.725,37.351-5.069
		c-3.855-0.533-8.355-1.922-11.501-1.813c-0.695,0.305-1.318,0.686-1.841,1.171c-2.143,0.339-3.321-0.893-2.061-2.144
		c-31.604,5.492-59.003,10.959-86.438,20.699c25.146-12.14,58.352-15.896,88.496-22.841c-4.678-1.76-10.771,1.159-15.779,1.428
		c6.685-5.418,20.221-3.708,30.185-5.711c-11.938-1.476-24.672,2.403-35.672,4.283c0.544-1.574,3.225-0.928,3.429-2.854
		c-27.033,4.467-51.404,11.705-74.774,19.986c0.299-0.878,0.88-1.468,2.059-1.429c-1.896-2.156-3.813,1.702-6.174,1.429
		c0.293,1.359,1.479,1.792,1.371,3.568c18.236-5.563,40.452-16.072,63.116-17.134c-22.746,4.41-42.657,11.771-62.432,19.272
		c0.577,0.829,0.905,1.914,0.688,3.568c16.516-4.942,32.482-10.455,50.766-13.563c-16.725,4.729-33.263,9.646-49.395,14.99
		c0.185,5.045,1.647,8.754,2.744,12.849c11.81-5.794,23.666-11.542,37.73-14.988c2.474-0.292,0.938,1.305-0.687,0.713
		c-13.058,4.498-25.379,9.761-37.046,15.704c2.116,6.813,1.896,11.752,3.43,19.271c6.466-6.357,17.049-8.436,28.128-9.993
		c-0.882,1.938-3.408,2.163-6.174,2.145c6.21,1.694,13.738-1.4,21.267-0.717c-0.3,0.88-0.878,1.469-2.059,1.43
		c11.876,0.296,28.175-4.251,42.534-1.43c2.345-0.569,3.916,1.063,0.686,0.717c-9.787,0.269-22.871-0.65-29.499,0.713
		c0.277,1.378,3.143,0.062,2.059,2.854c2.262,0.016,4.511,0.045,6.735,0.1C549.749,243.878,563.534,247.33,574.486,246.637z
		 M575.177,198.81c-6.611,1.691-15.12,1.402-22.644,2.143C558.412,199.015,567.952,198.887,575.177,198.81z M523.72,200.239
		c-1.181,1.39-3.551,1.539-6.174,1.427C518.725,200.276,521.099,200.127,523.72,200.239z M474.329,223.795
		c8.661-6.451,20.435-9.67,32.243-12.85c-11.444,0.551-21.605,5.471-34.303,7.854c8.527-4.454,22.376-7.173,31.559-8.565
		c10.251-6.701,25.886-7.806,40.476-9.993c-7.871,2.754-17.845,3.322-25.383,6.425c7.713,0.979,14.149-1.574,26.067-2.143
		C519.57,210.579,495.465,213.633,474.329,223.795z M474.329,231.645c6.166-4.423,22.554-10.013,32.93-14.275
		c2.667-1.095,16.31-5.344,6.858-4.281c16.233-1.71,32.854-7.801,52.141-8.565c3.728,1.052-2.16,0.617-2.745,0.713
		c-6.563,1.091-19.333,3.367-26.756,4.998c10.374-0.563,17.508-0.978,25.383-2.854c-0.789,2.965-6.392,3.996-8.916,2.854
		c0.62,3.495,16.942-1.025,10.289,1.427c-5.455,0.748-10.869,1.541-16.464,2.144c-1.409,0.199-1.368,1.904-2.061,2.854
		c-21.921,1.272-43.246,9.215-61.743,16.418c20.316-4.322,42.396-12.993,66.546-15.704c2.407,0.126,2.258-2.41,4.115-2.854
		c6.319-0.563,12.147-1.638,18.524-2.143c-4.813,2.371-13.016,1.214-17.838,3.569c2.012,1.579,5.936-0.938,9.604,0
		c-8.971,3.514-21.592,3.23-31.559,5.709c-0.468,0.681-1.272,2.217-4.115,2.855c-17.231,3.873-39.354,7.586-54.883,14.275
		c10.629-11.785,31.667-12.732,45.278-21.415C505.22,220.486,487.75,225.863,474.329,231.645z M571.741,242.353
		c-3.349,1.498-6.694,0.367-9.604,0C563.899,241.035,569.933,241.354,571.741,242.353z"/>
	<path fill="none" d="M202.228,193.493c0.019,0.073,0.034,0.146,0.052,0.22C202.261,193.639,202.246,193.566,202.228,193.493z"/>
	<path fill="none" d="M206.153,193.709c0.133,0.002,0.274,0.006,0.418,0.017C206.427,193.715,206.286,193.711,206.153,193.709z"/>
	<path fill="none" d="M206.776,193.735c0.218,0.019,0.445,0.043,0.688,0.08C207.221,193.778,206.994,193.754,206.776,193.735z"/>
	<path fill="none" d="M202.831,196.273l-0.001-0.004L202.831,196.273z"/>
	<path fill="none" d="M510.686,497.178c-3.349,6.729-2.9,16.967-2.004,26.149h15.622c1.825-4.474,4.891-7.655,6.963-11.877
		C525.596,505.457,516.316,503.219,510.686,497.178z"/>
	<path fill="none" d="M205.802,198.124c-0.064,0.002-0.13,0.002-0.19,0.002C205.675,198.126,205.739,198.124,205.802,198.124z"/>
	<path fill="none" d="M204.304,205.084c0.13,0.754,0.265,1.517,0.417,2.294C204.569,206.598,204.434,205.838,204.304,205.084z"/>
	<path fill="none" d="M163.558,512.882c-1.189-2.315-1.799,1.854-4.116,0.716c4-4.818,8.88-11.118,6.174-20.701
		c-6.129-3.378-17.497-1.305-22.639-5.709c1.787,8.362,6.859,25.874,1.536,36.146h17.735
		C161.668,520.28,163.448,515.259,163.558,512.882z"/>
	<path fill="none" d="M205.183,198.122c-0.068-0.002-0.137-0.005-0.201-0.007C205.048,198.117,205.115,198.12,205.183,198.122z"/>
	<path fill="none" d="M204.577,198.094c-0.062-0.007-0.12-0.015-0.18-0.021C204.457,198.079,204.515,198.087,204.577,198.094z"/>
	<path fill="none" d="M203.103,197.755c-0.002-0.013-0.004-0.022-0.006-0.035l0,0C203.099,197.73,203.101,197.742,203.103,197.755z"
		/>
	<path fill="none" d="M203.902,202.663c0.104,0.646,0.21,1.3,0.322,1.96C204.112,203.963,204.006,203.308,203.902,202.663z"/>
	<path fill="none" d="M204.008,198.021c-0.037-0.008-0.072-0.02-0.111-0.026C203.934,198.004,203.969,198.013,204.008,198.021z"/>
	<path fill="none" d="M205.586,193.735c0.116-0.01,0.235-0.02,0.361-0.022C205.821,193.719,205.701,193.725,205.586,193.735z"/>
	<path fill="#FFFFFF" d="M680.821,26.073c-1.773-4.102-8.999-2.533-10.976-6.424c2.227-1.239,5.403,1.722,8.229,2.141
		c-1.46-6.854-10.917-10.383-17.836-7.138C667.031,18.25,672.811,28.213,680.821,26.073z"/>
	<path fill="#FFFFFF" d="M682.193,21.075c-0.984,2.173-0.7,4.869,1.371,5.711c3.503-5.128-0.148-8.662-5.487-9.993
		C678.38,19.733,680.862,21.192,682.193,21.075z"/>
	<path fill="#FFFFFF" d="M684.937,33.924c3.115,0.004,2.585-7.576,0.686-8.563C684.26,28.25,684.23,30.231,684.937,33.924z"/>
	<path fill="#FFFFFF" d="M682.881,34.638c1.738-0.951-1.008-3.168-0.688-4.997c-1.752,0.551-3.155-2.793-4.116-0.713
		C680.438,30.039,680.412,33.637,682.881,34.638z"/>
	<path fill="#FFFFFF" d="M383.773,31.783c-16.957-5.483-42.593,17.008-26.07,29.266C363.26,48.033,373.363,39.749,383.773,31.783z"
		/>
	<path fill="#FFFFFF" d="M388.574,31.069c-9.371,2.59-29.369,24.229-30.185,32.834c-0.355,3.735,1.105,6.756,2.058,9.28
		c11.725,1.251,8.949-12.578,12.351-19.986c1.349-0.214,1.358,0.964,2.059,1.428c5.931-8.104,14.896-13.055,22.638-19.271
		C396.305,32.635,393.354,29.748,388.574,31.069z"/>
	<path fill="#FFFFFF" d="M664.356,56.052c2.609,1.806,5.644,3.168,8.919,4.28c2.113-4.038,8.151-8.146,13.034-4.995
		c2.54-2.592,6.026-4.199,10.289-4.997c0-7.612-2.729-12.389-7.545-14.988C678.687,40.032,670.709,47.197,664.356,56.052z"/>
	<path fill="#FFFFFF" d="M486.677,46.059c2.128,0.401,1.805,3.355,4.118,3.567c1.616-2.383,0.086-6.42-0.688-8.564
		c-7.965-3.656-15.042,1.426-9.604,8.564C484.181,50.125,483.51,46.094,486.677,46.059z"/>
	<path fill="#FFFFFF" d="M656.811,47.486c0.509-2.085,3.702-1.38,3.43-4.282c-5.788,0.878-9.665,3.746-13.036,7.138
		c13.002-0.271,22.908-3.766,29.5-10.705C667.598,39.205,661.482,45.68,656.811,47.486z"/>
	<path fill="#FFFFFF" d="M730.901,40.348c-2.154-0.338-2.804,0.891-3.431,2.142C729.195,43.105,731.145,43.424,730.901,40.348z"/>
	<path fill="#FFFFFF" d="M520.291,73.897c1.144-8.842,4.745-22.612,2.061-30.693c-2.949,3.414-2.745,7.777-1.372,12.85
		C520.052,60.693,512.875,70.979,520.291,73.897z"/>
	<path fill="#FFFFFF" d="M728.844,45.346c1.369,0.717,1.083,3.153,3.43,2.854c0.938-0.912,0.938-3.37,0-4.283
		C731.052,44.313,729.426,44.284,728.844,45.346z"/>
	<path fill="#FFFFFF" d="M726.786,50.344c-0.39-1.739-0.588-3.673-2.745-3.569c-0.979,0.953-0.979,4.043,0,4.998
		C725.912,52.29,725.424,50.351,726.786,50.344z"/>
	<path fill="#FFFFFF" d="M491.478,63.19c0.954-2.941,1.357-9.44-0.686-11.419c-2.716,2.772-2.813-3.228-4.805-3.57
		c-1.313,1.966-2.672,3.881-4.802,4.997c-1.978-0.086-1.19-3.043-3.43-2.854c0.163,4.692-1.209,7.783-0.688,12.848
		C481.071,64.231,487.477,64.231,491.478,63.19z"/>
	<path fill="#FFFFFF" d="M600.556,74.612c-6.104-15.689-21.343-26.606-44.593-25.697c-1.122,29.275,8.711,59.438,11.663,89.226
		C589.473,131.215,610.469,100.091,600.556,74.612z M573.115,113.869c-3.222-12.644-4.618-32.719-4.803-46.396
		c6.675,2.53,14.416,1.878,17.837,7.852C593.437,88.055,583.466,112.022,573.115,113.869z"/>
	<path fill="#FFFFFF" d="M383.088,51.77c0,7.156,0.178,13.702,0.688,18.557C398.469,73.284,403.98,45.969,383.088,51.77z"/>
	<path fill="#FFFFFF" d="M517.549,57.48c1.295-1.658,2.813-3.018,0.688-4.996C517.878,53.607,515.594,56.306,517.549,57.48z"/>
	<path fill="#FFFFFF" d="M435.909,54.625c-23.272,3.996-27.376,74.815,4.118,60.672C458.304,107.09,459.01,50.659,435.909,54.625z
		 M429.051,111.728c-3.143-0.85-6.155-6.334-6.859-9.993c-2.476-12.867,3.301-35.027,13.035-36.403
		C454.481,62.609,451.808,117.868,429.051,111.728z"/>
	<path fill="#FFFFFF" d="M633.485,59.621c-4.294-4.955-10.188-0.002-10.29,5.711c1.646,1.621,3.781,2.729,6.86,2.855
		C631.948,66.111,633.269,63.442,633.485,59.621z"/>
	<path fill="#FFFFFF" d="M517.549,62.476c-0.012-1.895,0.382-4.203-1.371-4.283c-0.498,1.625-0.611,3.646-1.373,4.997
		C516.1,63.351,516.316,62.386,517.549,62.476z"/>
	<path fill="#FFFFFF" d="M655.438,58.193c-0.687,0-1.371,0-2.06,0c-0.804,10.98,44.004,22.471,48.709,7.852
		C688.058,72.053,663.774,68.725,655.438,58.193z"/>
	<path fill="#FFFFFF" d="M665.045,58.193c-2.238-0.187-3.304,0.847-3.433,2.854C663.283,60.646,665.14,60.438,665.045,58.193z"/>
	<path fill="#FFFFFF" d="M670.532,61.049c-2.063-1-4.981-1.042-5.489,1.43C667.07,63.73,670.428,64.784,670.532,61.049z"/>
	<path fill="#FFFFFF" d="M492.164,65.332c-3.771-0.206-10.164,1.229-15.776,0C476.663,70.43,491.973,70.906,492.164,65.332z"/>
	<path fill="#FFFFFF" d="M514.802,70.327c1.13-1.108,0.293-3.331-0.688-4.282C512.885,67.885,512.404,69.475,514.802,70.327z"/>
	<path fill="#FFFFFF" d="M425.62,103.876c5.245-10.574,10.31-22.37,10.289-36.401C425.739,69.178,421.616,91.827,425.62,103.876z"/>
	<path fill="#FFFFFF" d="M440.715,73.183c-0.092-1.761-0.104-3.438,0.686-4.282c-1.307-0.306-1.724-1.538-3.43-1.428
		C438.052,70.242,437.136,74.049,440.715,73.183z"/>
	<path fill="#FFFFFF" d="M475.7,70.327c-3.266,16.114-3.853,35.015-7.546,50.681c3.351,0.083,7.229-0.385,9.604,0.715
		c6.955-14.891,10.063-33.782,14.403-51.396C487.229,71.814,480.881,70.733,475.7,70.327z"/>
	<path fill="#FFFFFF" d="M510.004,71.042c10.239,9.359,27.689,18.733,46.647,14.276c-20.183,0.297-34.137-5.881-45.278-14.991
		C510.844,70.489,510.021,70.348,510.004,71.042z"/>
	<path fill="#FFFFFF" d="M569.686,70.327c2.157,13.219,1.971,28.878,4.8,41.401C586.115,105.816,593.815,67.882,569.686,70.327z"/>
	<path fill="#FFFFFF" d="M663.674,71.756c2.219,0.813,7.979,5.99,8.917,1.429C670.209,72.487,665.31,68.693,663.674,71.756z"/>
	<path fill="#FFFFFF" d="M493.537,71.042c1.227,8.264-5.396,15.161-4.803,22.841c0.256,3.322,3.649,8.873,5.489,12.136
		c2.019,3.583,5.062,8.735,7.545,7.852C498.989,99.632,496.594,84.99,493.537,71.042z"/>
	<path fill="#FFFFFF" d="M442.771,72.469c-2.502,13.34-5.893,25.754-10.292,37.115C446.217,107.802,449.719,85.047,442.771,72.469z"
		/>
	<path fill="#FFFFFF" d="M679.449,83.89c-0.626-4.584,0.543-11.036-4.803-10.708c-1.479,5.124-4.487,8.654-5.489,14.274
		C673.383,87.094,675.7,84.747,679.449,83.89z"/>
	<path fill="#FFFFFF" d="M628.684,78.18c0-1.431,0-2.855,0-4.283c-4.127-0.938-6.343,3.841-4.804,6.423
		C624.942,79.047,627.998,79.847,628.684,78.18z"/>
	<path fill="#FFFFFF" d="M670.532,77.466c-2.995-0.931-4.771-3.125-8.231-3.567c-1.736,4.143-4.398,7.318-5.487,12.134
		c2.942,1.221,5.941,2.383,9.604,2.855C667.698,84.989,669.86,82.001,670.532,77.466z"/>
	<path fill="#FFFFFF" d="M680.135,73.897c1.644,18.984,4.567,36.646,6.856,54.961c13.818-12.396-0.248-35.566-0.685-54.247
		C683.809,74.832,681.844,74.497,680.135,73.897z"/>
	<path fill="#FFFFFF" d="M440.027,78.894c0.625-3.031-1.121-3.593-2.745-4.282c0.498,2.183-1.182,2.099-0.685,4.282
		C438.785,78.47,438.719,80.233,440.027,78.894z"/>
	<path fill="#FFFFFF" d="M511.373,81.749c2.768,6.463-4.504,6.053-2.058,12.85c-0.502,1.62-2.063,2.134-3.43,2.854
		c-0.151,2.298,1.212,3.021,0.687,5.71c-1.222,0.635-1.744,1.993-4.118,1.429c0.974,3.271,1.79,6.704,2.061,10.707
		c8.052-8.277,9.494-23.433,13.722-35.688c-1.838-0.468-2.607-2.044-4.117-2.855C514.135,79.387,513.809,81.668,511.373,81.749z"/>
	<path fill="#FFFFFF" d="M437.969,86.031c1.457-1.726,0.813-5.593-2.062-4.997C434.591,83.557,435.556,85.542,437.969,86.031z"/>
	<path fill="#FFFFFF" d="M630.055,81.749c-1.619-0.985-6.839-0.785-7.546,1.428C624.193,84.65,629.997,84.336,630.055,81.749z"/>
	<path fill="#FFFFFF" d="M604.675,86.031c4.587-0.461,8.913-1.194,11.662-3.569C612.518,83.728,607.492,83.73,604.675,86.031z"/>
	<path fill="#FFFFFF" d="M625.939,93.883c0.901-2.153,0.471-5.694,1.372-7.852c-3.273,0.551-4.416-1.116-7.547-0.713
		c-0.836,2.221-1.599,4.522-1.373,7.851C621.524,92.767,622.664,94.434,625.939,93.883z"/>
	<path fill="#FFFFFF" d="M678.761,86.031c-2.855,2.262-7.53,2.631-10.977,4.283c-0.749,3.754-4.253,8.407-2.742,12.134
		c4.466-3.919,10.078-6.642,15.093-9.993C679.842,90.146,681.038,86.282,678.761,86.031z"/>
	<path fill="#FFFFFF" d="M437.282,91.742c0.535-3.175-0.646-4.561-3.429-4.283c0.565,2.02-0.968,1.852-0.688,3.57
		C434.783,91.012,435.186,92.258,437.282,91.742z"/>
	<path fill="#FFFFFF" d="M372.109,107.446c7.799,2.186,15.111-1.729,17.838-7.139c-0.063-4.931-1.932-7.984-3.43-11.42
		C375.123,85.493,376.371,101.074,372.109,107.446z"/>
	<path fill="#FFFFFF" d="M655.438,88.174c0.104,1.775-1.077,2.209-1.371,3.568c2.66,1.989,6.356,2.903,10.289,3.569
		c0.226-1.669,0.825-2.949,1.372-4.282C661.949,90.44,659.314,88.66,655.438,88.174z"/>
	<path fill="#FFFFFF" d="M431.108,98.166c1.311,0.306,1.242,2.039,3.43,1.428c0.12-2.104,1.848-4.419,0.688-5.711
		C432.118,93.505,430.747,94.934,431.108,98.166z"/>
	<path fill="#FFFFFF" d="M649.263,107.446c4.014,0.344,7.535,1.201,10.978,2.14c0.864-4.097,2.431-7.464,2.742-12.134
		c-3.154-1-5.786-2.544-9.604-2.854C652.016,98.887,650.384,102.899,649.263,107.446z"/>
	<path fill="#FFFFFF" d="M617.02,134.57c2.197,0.57,3.462,2.108,6.175,2.141c0.742-13.265,2.01-25.982,2.059-39.973
		c-2.328-0.667-5.026-0.954-7.548-1.427C615.372,109.024,619.186,121.144,617.02,134.57z"/>
	<path fill="#FFFFFF" d="M429.051,100.307c0.498,2.184-1.184,2.1-0.687,4.281c1.653-0.292,1.49,1.305,3.432,0.715
		c-0.105-1.775,1.075-2.209,1.369-3.569C431.157,101.921,431.057,100.121,429.051,100.307z"/>
	<path fill="#FFFFFF" d="M430.425,107.446c-1.708,0.11-2.125-1.122-3.432-1.429C426.719,108.304,429.912,110.094,430.425,107.446z"
		/>
	<path fill="#FFFFFF" d="M648.578,108.873c-0.761,1.352-0.875,3.373-1.373,4.997c3.475,1.146,7.387,1.835,11.663,2.143
		c-0.017-1.684,1.184-2.104,0.688-4.282C656.268,110.389,651.959,110.114,648.578,108.873z"/>
	<path fill="#FFFFFF" d="M643.092,127.432c4.3,0.282,8.29,0.795,14.405,0.713c0.876-2.896,0.364-7.233,1.371-9.993
		c-4.037-0.797-8.555-1.093-12.35-2.142C644.881,119.3,644.73,124.142,643.092,127.432z"/>
	<path fill="#FFFFFF" d="M505.199,123.149c-1.01-2.714,3.067-0.14,2.06-2.855c0.458-3.095-3.185-1.921-5.488-2.141
		c0.515,4.936,2.736,8.097,2.06,14.275c4.344-1.196,10.615,2.805,17.149-1.429c-4.986-0.403-8.284-4.333-13.034-2.854
		c-0.332-2.248,2.104-1.616,1.372-4.282C508.25,121.819,506.112,125.349,505.199,123.149z"/>
	<path fill="#FFFFFF" d="M470.896,123.864c-0.768,2.248-0.061,1.615,0,4.282c-4.347-0.968-1.428,3.5-2.742,4.282
		c-4.994,0.518-8.729,2.34-12.35,4.281c7.66,0.937,11.284,1.497,15.779-2.141c1.895-0.306,0.643,2.661,2.057,2.854
		c0.179-4.424,4.002-11.565,1.373-14.275C474.927,124.725,472.103,123.451,470.896,123.864z"/>
	<path fill="#FFFFFF" d="M319.972,131.714c-1.784-0.283-2.069-2.13-4.116-2.141c-0.699,0.938-0.673,2.631-1.372,3.569
		C316.885,133.26,318.874,132.952,319.972,131.714z"/>
	<path fill="#FFFFFF" d="M643.092,129.573c0,1.189,0,2.38,0,3.569c3.521,1.189,14.908,5.413,13.722-2.854
		C651.802,130.501,648.422,129.024,643.092,129.573z"/>
	<path fill="#FFFFFF" d="M326.834,155.983c2.604,1.096,4.555,2.875,7.545,3.569c0-1.43,0-2.854,0-4.283
		C331.661,154.379,328.622,153.177,326.834,155.983z"/>
	<path fill="#FFFFFF" d="M287.043,177.397c-2.377-0.62-1.502-4.624-3.43-5.711c-0.958,2.052,1.87,3.626,0,4.283
		c-2.744-4.389,0.665-11.029-3.43-14.276c0.016,1.682-1.183,2.102-0.688,4.283c2.857,1.891-1.442,5.834-0.687,9.993
		C280.502,178.432,284.531,177.962,287.043,177.397z"/>
	<path fill="#FFFFFF" d="M319.972,169.545c0.909-1.192,1.815-2.392,1.372-4.997C315.306,158.895,311.358,170.341,319.972,169.545z"
		/>
	<path fill="#FFFFFF" d="M563.51,169.545c-1.941,0.123-4.707-0.612-4.805,1.43C560.837,171.044,562.513,170.649,563.51,169.545z"/>
	<path fill="#FFFFFF" d="M544.302,175.255c6.839-1.213-2.265-1.412-5.487,0.716C542.219,176.289,542.532,175.569,544.302,175.255z"
		/>
	<path fill="#FFFFFF" d="M557.339,179.539c5.274-1.741,9.727,0.082,13.721-2.854C565.323,177.601,560.079,175.098,557.339,179.539z"
		/>
	<path fill="#FFFFFF" d="M555.277,178.111c-3.588,1.977-10.197,0.811-13.034,3.569C547.019,181.404,556.104,181.84,555.277,178.111z
		"/>
	<path fill="#FFFFFF" d="M212.952,232.36c-4.896-5.377-10.852-13.449-10.29-22.128c3.875,8.576,5.854,19.13,15.779,21.413
		c-3.796-6.757-6.529-14.62-8.918-22.842c-2.127,0.069-3.808-0.322-4.802-1.428c-0.152-0.777-0.287-1.54-0.417-2.294
		c-0.027-0.15-0.056-0.308-0.08-0.461c-0.112-0.66-0.22-1.313-0.322-1.96c-0.27-1.678-0.52-3.309-0.799-4.908
		c-0.002-0.013-0.004-0.022-0.006-0.037c-0.165-0.092-0.314-0.197-0.438-0.334c0.043-0.36,0.091-0.74,0.169-1.108
		c0-0.002,0-0.004-0.001-0.004c-0.081-0.416-0.166-0.832-0.254-1.246c-0.011-0.051-0.021-0.104-0.032-0.152
		c-0.083-0.388-0.172-0.771-0.264-1.158c-0.018-0.071-0.033-0.146-0.052-0.22c-0.089-0.365-0.186-0.729-0.283-1.095
		c-0.025-0.092-0.047-0.186-0.073-0.277c-0.096-0.346-0.2-0.692-0.307-1.041c-0.033-0.106-0.063-0.216-0.099-0.324
		c-0.104-0.338-0.222-0.677-0.339-1.015c-0.041-0.118-0.076-0.234-0.119-0.353c-0.117-0.33-0.248-0.663-0.377-0.995
		c-0.049-0.126-0.093-0.251-0.143-0.378c-0.138-0.342-0.288-0.685-0.439-1.024c-0.052-0.118-0.098-0.234-0.15-0.353
		c-0.209-0.461-0.432-0.926-0.667-1.392c2.431-0.148,1.354,3.35,4.116,2.854c0.464-1.657,2.278-1.909,2.742-3.568
		c-1.517-0.563-1.716-2.497-2.742-3.569c-23.013,12.302-4.878,42.707-3.432,62.102C206.555,241.885,208.935,236.269,212.952,232.36z
		"/>
	<path fill="#FFFFFF" d="M97.014,335.146c5.892,14.295,17.863,21.722,32.93,25.695c6.769-3.427,12.81-7.607,14.406-16.417
		c-4.085-2.297-4.834-7.728-8.918-9.278c-2.224-0.844-4.902,0.391-7.546-0.714c-5.337-2.229-11.366-11.297-14.407-17.132
		c-3.821-7.333-6.522-15.723-10.29-22.128c-1.934-1.927-2.814,1.267-5.488,0.715c21.364-17.744,34.897-43.636,58.999-58.531
		c-18.646,17.715-36.286,36.479-52.139,57.104c7.858,12.996,13.456,28.352,24.012,38.545c13.146-1.97,15.542,13.347,25.382,14.987
		c6.77,1.132,13.728-5.67,21.953-1.427c18.498-13.351,38.98-24.637,60.37-34.978c-2.337-12.445-3.404-26.449-1.372-39.973
		c-5.118-1.935-6.244-10.217-2.058-14.276c-5.947-6.882-6.686-23.597-15.779-23.556c-7.585,0.035-7.222,12.794-17.836,11.422
		c-1.357-16.688-11.823-28.409-10.291-44.97c0.225-2.425,2.426-5.016,0.686-7.138c-23.922,6.329-46.651,21.517-63.8,36.402
		c-14.771,12.825-24.769,21.31-34.987,39.26c-2.959,5.196-13.227,22.261-13.033,27.837c0.376,10.933,13.896,21.361,17.149,29.266
		C96.166,328.807,95.791,332.18,97.014,335.146z M184.138,248.062c1.848,13.886-1.36,34.608,10.977,38.545
		c13.926,4.445,24.07-11.304,33.615-17.844c-7.532,8.85-18.659,24.052-32.931,21.412C181.93,287.612,181.9,262.824,184.138,248.062z
		"/>
	<path fill="#FFFFFF" d="M202.831,196.273L202.831,196.273L202.831,196.273z"/>
	<polygon fill="#FFFFFF" points="203.096,197.719 203.097,197.719 203.097,197.719 	"/>
	<path fill="#FFFFFF" d="M202.831,196.273c-0.078,0.368-0.126,0.748-0.169,1.108C202.705,197.021,202.753,196.641,202.831,196.273
		L202.831,196.273z"/>
	<path fill="#FFFFFF" d="M202.662,197.385c0.122,0.136,0.271,0.241,0.438,0.335h-0.001
		C202.933,197.626,202.783,197.518,202.662,197.385z"/>
	<path fill="#FFFFFF" d="M202.835,196.296c0.09,0.469,0.178,0.936,0.261,1.404C203.011,197.229,202.925,196.762,202.835,196.296z"/>
	<path fill="#FFFFFF" d="M267.834,196.671c1.974,0.146,3.485-0.182,4.116-1.429c-0.534-0.157-0.797-0.598-0.686-1.427
		C268.645,193.232,268.608,195.334,267.834,196.671z"/>
	<path fill="#FFFFFF" d="M481.875,194.528c-5.886,3.873-14.605,4.788-19.895,9.28c6.661-0.031,12.963-6.451,20.579-7.854
		C482.712,195.058,483.631,194.498,481.875,194.528z"/>
	<path fill="#FFFFFF" d="M458.552,202.382c-2.081-2.116-2.823-5.63-6.174-6.425c-7.255,2.409-14.641,8-20.582,14.275
		c-4.487,4.738-14.168,14.859-8.233,21.413C432.728,219.295,443.539,208.652,458.552,202.382z"/>
	<path fill="#FFFFFF" d="M319.286,200.953c-3.796-0.097-6.217-1.621-8.918-2.854c-0.455,3.805,0.531,6.108,2.06,7.853
		C316.009,205.632,318.24,203.908,319.286,200.953z"/>
	<path fill="#FFFFFF" d="M333.008,199.526c-5.525,5.91-11.652,11.193-17.837,16.417c11.853,1.567,25.874,1.382,35.674,1.427
		c-1.895,1.123-5.916,0.03-6.86,2.144c9.689,2.527,12.969,11.728,20.582,16.418c4.826-2.831,11.662-3.569,15.778-7.139
		C370.197,213.997,354.049,198.27,333.008,199.526z"/>
	<path fill="#FFFFFF" d="M423.56,243.066c8.057,10.483,31.164,13.227,47.336,8.565c-1.289-17.933-5.198-33.137-10.29-47.11
		C442.384,211.255,428.336,222.336,423.56,243.066z"/>
	<path fill="#FFFFFF" d="M532.638,214.514c3.727-0.886,10.733-2.075,9.604-3.569c-7.122,2.104-16.293,2.081-21.951,5.711
		C522.931,216.98,528.009,215.615,532.638,214.514z"/>
	<path fill="#FFFFFF" d="M245.881,224.51c-8.796,0.521-12.185-0.2-21.267-1.429c-2.214-4.835-8.345-5.593-10.976-9.992
		c1.505,14.154,12.334,24.744,18.521,36.402C234.287,238.617,239.107,230.546,245.881,224.51z"/>
	<path fill="#FFFFFF" d="M270.578,245.21c3.414,8.313,16.435,6.021,17.151,15.701c0.819,11.061-13.926,15.552-22.641,20.701
		c7.579,8.646,12.539,7.672,23.325,3.568c25.979-9.884,53.202-23.896,76.149-32.834c0.688-3.567,2.055-6.43,2.743-9.993
		c-0.985-5.075-6.354-4.642-9.604-7.854c-1.969-1.943-2.137-5.189-4.114-7.138c-6.658-6.549-15.951-8.283-27.441-9.28
		c-21.577-1.868-32.949,8.206-51.452,8.566c1.817,5.016,1.764,12.774,0,17.844C273.489,244.905,270.664,243.633,270.578,245.21z"/>
	<path fill="#FFFFFF" d="M234.219,255.915c7.922-8.888,11.563-22.229,21.267-29.266
		C240.385,222.997,235.338,240.437,234.219,255.915z"/>
	<path fill="#FFFFFF" d="M248.625,238.785c8.102-5.117,18.924-2.104,24.013,3.568c2.837-4.382,1.733-11.418-0.688-15.704
		C259.853,224.048,252.924,228.618,248.625,238.785z"/>
	<path fill="#FFFFFF" d="M367.307,238.069c0.063,1.125,1.75,0.562,1.372,2.143c4.54-2.415,8.088-5.858,15.094-5.71
		C381.59,227.615,370.635,235.091,367.307,238.069z"/>
	<path fill="#FFFFFF" d="M418.76,240.927c5.854,0.492,3.309-5.628,2.744-9.279c-1.653,0.293-1.49-1.303-3.433-0.714
		C416.282,233.878,419.84,236.447,418.76,240.927z"/>
	<path fill="#FFFFFF" d="M415.33,235.217c-7.346,2.11-14.098,4.842-20.582,7.852c0,1.904,0,3.809,0,5.711
		c8.107-1.559,13.396-6.049,21.27-7.853C416.315,238.47,415.745,236.925,415.33,235.217z"/>
	<path fill="#FFFFFF" d="M252.056,302.311c7.188-4.181,15.264-7.438,21.95-12.136c-5.451-1.938-9.367-5.479-13.032-9.277
		c-5.292,0.023-11.518-2.757-10.979-6.424c8.88,10.676,38.912-1.769,34.988-14.99c-1.938-6.53-19.613-7.115-18.523-19.273
		c-15.259-5.563-25.537,4.91-28.813,16.419c3.177,1.69,5.739,4.022,4.803,9.992c-0.549,2.76-4.251,2.239-4.803,4.997
		C240.745,283.627,244.488,294.959,252.056,302.311z"/>
	<path fill="#FFFFFF" d="M478.444,249.491c4.648-1.823,12.042-0.795,15.779-3.568C488.773,246.915,482.115,246.647,478.444,249.491z
		"/>
	<path fill="#FFFFFF" d="M370.052,252.346c-17.216,6.913-35.273,15.062-53.513,22.841c-43.265,18.456-84.638,38.703-123.482,62.101
		c-2.438,1.471-21.415,12.206-19.896,16.417c2.008,5.563,9.648-1.221,10.978-2.142c12.576-8.729,24.364-14.896,36.358-20.699
		c16.949-8.206,33.604-18.356,49.395-27.124c28.396-15.765,59.322-30.688,89.87-42.829c4.05-1.606,10.951-1.71,11.662-7.852
		C371.272,252.505,370.849,252.23,370.052,252.346z"/>
	<path fill="#FFFFFF" d="M239.707,265.908c-2.551,0.752-1.345-2.406-2.743-2.854c-0.227,1.669-0.823,2.948-1.373,4.281
		C237.409,267.325,239.631,267.732,239.707,265.908z"/>
	<path fill="#FFFFFF" d="M249.997,303.025c-6.145-6.93-9.393-16.876-13.72-25.695c-1.691,9.626-1.245,22.974,2.058,32.834
		C242.546,308.12,246.929,306.259,249.997,303.025z"/>
	<path fill="#FFFFFF" d="M260.287,310.879c3.703,4.712,8.736,8.039,14.407,10.705c6.852-7.621,10.32-18.767,17.837-25.694
		C280.15,296.354,271.756,307.09,260.287,310.879z"/>
	<path fill="#FFFFFF" d="M284.985,325.866c6.365-9.08,11.182-19.771,17.15-29.266c-2.923-0.052-4.8-1.192-8.231-0.713
		c-6.768,7.947-11.44,18.077-17.151,27.122C279.872,323.573,281.534,325.65,284.985,325.866z"/>
	<path fill="#FFFFFF" d="M299.391,308.022c2.945-0.446,6.412-7.357,3.429-9.279C302.327,302.234,297.972,304.846,299.391,308.022z"
		/>
	<path fill="#FFFFFF" d="M673.964,377.973c1.896,6.527,12.657,8.492,12.348-1.428c-1.779-1.769-3.366,0.692-6.174,0
		c14.051-19.063-1.06-43.938-7.547-60.675c-2.626,3.104,0.193,11.058-2.059,12.851c-7.901-3.134-13.307-12.095-10.291-24.27
		c-18.882-0.137-28.427,9.444-33.616,23.556c8.099,2.178,17.365-2.962,20.58-5.711c-2.229,10.214-16.771,6.651-24.693,9.278
		c-1.208,8.635,6.017,8.493,9.604,12.136c-4.351,1.729-8.604-2.335-10.979-4.997C617.012,366.613,652.134,388.109,673.964,377.973z
		 M632.802,323.726c-0.642-5.187,1.091-7.906,6.174-7.141C644.385,320.632,637.617,328.436,632.802,323.726z M641.719,362.985
		c-5.902-0.155-5.487-7.305-9.604-11.422c4.112,1.594,16.113,5.47,21.267,2.142C649.195,356.556,646.443,363.107,641.719,362.985z
		 M660.241,338.716C644.052,346.098,658.7,319.782,660.241,338.716L660.241,338.716z"/>
	<path fill="#FFFFFF" d="M202.662,491.469c3.127-0.3,6.335-2.265,9.604-2.855c3.123-0.564,6.162,0.049,8.918-0.714
		c3.038-0.842,5.577-3.328,8.918-4.284c3.322-0.947,7.1-0.411,10.29-1.427c3.761-1.194,7.041-4.588,10.977-5.711
		c4.12-1.176,8.007-0.617,11.662-2.14c15.378-6.414,30.081-18.07,41.161-26.41c8.795-12.288,20.078-19.784,28.813-31.408
		c9.235-12.29,12.52-26.554,18.521-42.114c5.487-14.222,14.037-28.209,14.406-45.683c-29.481,5.104-46.912-11.178-67.917-19.272
		c-5.757,5.434-7.573,14.962-14.406,19.272c-7.65-3.461-14.545-7.708-21.267-12.136c-6.058,4.646-13.145,8.217-19.209,12.85
		c3.012,5.434,6.896,9.956,10.977,14.275c-30.937,29.677-72.189,48.611-126.915,53.533c-7.814,6.147-15.147,12.792-22.639,19.272
		c-1.333,8.838-3.223,17.005-6.86,23.555c-3.006,5.412-8.635,8.075-10.29,12.851c2.44,2.454,2.105,7.313,4.802,9.991
		c2.024,2.014,5.85,1.68,9.604,3.569c3.788,1.909,6.591,5.184,9.604,6.424c2.208,0.911,4.499,0.559,6.86,1.431
		c5.56,2.053,8.943,7.398,13.721,8.563c2.242,0.546,5.018-0.504,7.546,0c5.388,1.072,10.034,5.603,15.094,6.424
		C170.215,491.863,187.015,492.969,202.662,491.469z"/>
	<path fill="#FFFFFF" d="M241.079,321.584c-0.495,2.183,0.702,2.603,0.688,4.282c6.799,0.004,12.612-6.735,18.521-9.993
		C256.183,307.981,248.164,321.3,241.079,321.584z"/>
	<path fill="#FFFFFF" d="M631.427,314.446c-6.12-1.308-9.347,4.513-6.175,8.564C628.725,321.628,629.972,317.929,631.427,314.446z"
		/>
	<path fill="#FFFFFF" d="M752.171,343c6.354-4.098,13.552-7.313,19.206-12.136c-3.367-0.864-5.811,4.32-7.546,0.713
		c2.321-2.58,5.729-4.032,7.546-7.138c-4.729-0.163-5.045,4.27-9.604,4.282c1.741-3.195,6.695-6.819,6.174-9.993
		c-3.396,2.175-4.93,6.292-8.919,7.854c-0.46-4.305,5.033-6.163,3.433-9.278c-2.018,3.376-5.794,4.918-6.859,9.278
		c1.443,1.379,4.165,5.146,2.058,7.853c-1.958-4.389-3.82-8.872-6.174-12.85c0.208,7.594-0.604,14.125-4.117,17.845
		C748.978,340.606,749.784,342.625,752.171,343z"/>
	<path fill="#FFFFFF" d="M184.138,354.42c3.314,5.114-1.593,8.367-3.432,12.136c24.579-7.738,44.909-19.896,61.743-35.689
		c-1.021-2.269-2.537-4.021-2.745-7.138C220.142,332.871,199.976,341.392,184.138,354.42z"/>
	<path fill="#FFFFFF" d="M146.407,367.267c-5.485-6.11-12.811-3.809-19.208-4.998c-18.677-3.474-30.353-19.126-35.673-37.116
		c-2.313,15.624,0.742,31.489,0.686,47.109C105.3,379.389,139.548,384.024,146.407,367.267z"/>
	<path fill="#FFFFFF" d="M132.001,395.104c47.939-5.383,89.066-23.867,119.369-49.966c-2.621-4.412-4.83-9.251-9.604-11.419
		c-17.456,16.099-37.754,29.24-64.486,35.688c-4.96,5.615-14.363,10.286-23.325,5.709c-3.809,2.46-8.183,6.53-12.349,9.993
		C137.779,388.296,131.561,391.709,132.001,395.104z"/>
	<path fill="#FFFFFF" d="M747.365,353.705c7.488-5.01-2.394-19.171-7.546-10.705C743.266,345.595,746.183,348.75,747.365,353.705z"
		/>
	<path fill="#FFFFFF" d="M561.453,352.992c1.582,0.733,2.213,2.456,4.805,2.141c0.136-4.376,3.061-5.854,4.113-9.278
		C567.17,338.164,561.366,346.788,561.453,352.992z"/>
	<path fill="#FFFFFF" d="M148.466,346.567c-5.399,3.659-7.415,10.844-13.032,14.274C143.66,363.24,149.113,353.378,148.466,346.567z
		"/>
	<path fill="#FFFFFF" d="M166.303,374.404c-1.203-1.604-5.279-0.218-5.489-2.854c4.762,0.347,10.063,3.285,11.663-2.142
		c-1.724-0.589-5.908,1.387-5.488-1.429c4.394,0.053,9.072,0.396,10.29-2.855c-1.949-0.932-4.882,0.114-7.546-1.427
		c5.979,0.052,17.545-1.512,11.662-8.565c-2.242,1.401,0.225,3.568-2.06,4.283c-6.729,0.813-7.82-4.233-8.917-9.277
		c0.429-2.698,2.866,0.771,2.744-2.855c-8.771,0.13-11.934,3.995-21.267,2.143c-2.36,4.922-5.735,8.785-8.233,13.563
		C151.194,366.337,154.328,378.056,166.303,374.404z"/>
	<path fill="#FFFFFF" d="M637.6,375.118c-26.551-4.494-45.447-16.953-66.543-27.124c-0.979,2.788-2.748,4.758-2.745,8.566
		c17.395,16.75,39.558,27.86,60.372,40.686C632.631,390.884,636.975,384.935,637.6,375.118z"/>
	<path fill="#FFFFFF" d="M354.962,373.691c1.6,0,3.199,0,4.802,0c2.77-5.925,4.791-16.424,4.116-23.555
		C360.885,357.968,357.285,365.166,354.962,373.691z"/>
	<path fill="#FFFFFF" d="M646.518,357.274c-2.456-1.015-6.712-0.153-8.918-1.429C637.271,361.382,645.766,362.511,646.518,357.274z"
		/>
	<path fill="#FFFFFF" d="M525.779,372.262c-1.858-2.823-1.063-8.409-3.43-10.706c-0.047,5.67-5.141,9.867-4.115,14.276
		C520.419,374.3,523.651,373.856,525.779,372.262z"/>
	<path fill="#FFFFFF" d="M147.093,370.123c-15.884,14.302-36.789,31.883-54.881,47.109c-2.063,1.738-17.494,13.271-16.465,15.704
		c2.358,5.58,8.433-2.583,9.604-3.569c22.852-19.209,46.045-37.268,66.545-56.389C149.848,372.491,149.864,369.857,147.093,370.123z
		"/>
	<path fill="#FFFFFF" d="M536.069,414.378c-3.447,1.646-4.2,6.101-6.857,8.565c7.765-2.389,13.206-7.197,17.147-13.563
		c-7.967-0.629-18.646-0.975-19.895-9.278c-1.388-9.232,7.387-19.553,17.837-19.986c-4.038-3.175-8.187-6.233-13.723-7.853
		c-5.065,2.104-9.106,5.272-15.776,5.711c-7.438,11.536-15.646,22.267-18.521,38.545c2.546-0.527,6.608,1.672,6.86,5.711
		c3.038-1.375,8.09-0.917,8.918,2.141c0.497,3.609-0.756,5.4-2.058,7.142c12.192-1.233,22.176-11.17,22.637-19.988
		C534.879,411.337,535.943,412.369,536.069,414.378z M516.861,380.829c0.686-3.825,6.93-0.551,9.604,0
		C527.353,389.86,517.141,386.178,516.861,380.829z"/>
	<path fill="#FFFFFF" d="M131.315,380.115c-12.448,1.788-28.144-1.005-39.104-4.997c-2.055,2.859-1.65,8.274-3.431,11.422
		c7.245,4.357,17.047,6.057,27.441,7.14C121.575,389.491,127.154,385.541,131.315,380.115z"/>
	<path fill="#FFFFFF" d="M346.727,394.39c1.375,0.733,5.632-0.472,8.918,0c3.587,14.902,28.118,13.991,40.476,22.128
		c2.564-1.854,5.003-3.833,5.488-7.852c-13.93-8.11-23.781-20.464-39.104-27.127c0.305-3.171-1.858-3.774-2.744-5.707
		C349.395,373.334,350.994,388.289,346.727,394.39z"/>
	<path fill="#FFFFFF" d="M642.403,378.686c-1.396-0.21-1.345-1.931-2.744-2.141c-1.377,17.664-18.682,26.16-15.776,43.541
		C627.272,403.391,639.822,396.227,642.403,378.686z"/>
	<path fill="#FFFFFF" d="M689.739,440.073c0.533-7.643-2.55-13.359-2.059-19.271c0.304-3.64,2.751-5.825,2.059-9.279
		c-0.63-3.149-5.563-5.996-7.546-9.277c-3.064-5.084-4.15-9.271-4.803-15.703c-9.807,7.858-31.086,8.006-32.928-7.139
		c-1.896,14.12-13.864,23.249-17.838,35.688c-2.592,8.105-2.235,13.653-7.547,17.846
		C633.22,444.641,669.312,448.131,689.739,440.073z M686.309,409.382c-1.301,11.974-9.692,22.749-19.208,28.554
		C674.359,429.306,682.571,421.671,686.309,409.382z M680.821,405.812c-2.598,13.953-17.848,20.926-29.498,27.837
		C661.175,424.385,675.419,419.698,680.821,405.812z"/>
	<path fill="#FFFFFF" d="M647.205,380.115c1.327,12.736,22.573,11.954,28.13,3.569c-6.13-1.286-9.813,5.898-19.209,3.566
		C652.141,385.926,652.014,380.584,647.205,380.115z"/>
	<path fill="#FFFFFF" d="M668.472,382.259c-5.11,1.978-10.428-1.597-15.778,0C655.924,385.934,665.486,387.381,668.472,382.259z"/>
	<path fill="#FFFFFF" d="M680.135,385.111c-3.067,11.396,6.693,21.5,14.407,26.41c-4.331-8.342-10.628-14.644-12.352-25.695
		C681.316,385.786,681.244,384.911,680.135,385.111z"/>
	<path fill="#FFFFFF" d="M105.932,401.528c3.306-1.317,6.313-2.944,7.546-6.424c-3.464,0.958-6.595-2.142-8.918,0
		C105.897,396.331,106.039,398.802,105.932,401.528z"/>
	<path fill="#FFFFFF" d="M555.966,395.104c-1.043,2.248-2.047,4.532-2.742,7.14c6.618-1.203,12.507-3.166,16.465-7.14
		C566.894,393.82,561.689,395.594,555.966,395.104z"/>
	<path fill="#FFFFFF" d="M180.023,495.036c5.505,0.514,11.626,2.126,18.521,1.429c7.957-0.807,17.556-1.157,24.012-2.854
		c2.725-0.717,4.878-2.869,7.547-3.57c3.427-0.896,6.654-0.402,9.604-1.427c3.697-1.282,6.487-4.209,10.291-5.711
		c7.285-2.876,13.737-4.747,19.209-7.138c20.268-8.855,42.424-22.197,54.883-37.116c2.488-2.982,3.354-7.578,7.548-9.28
		c3.456-8.37,10.146-15.5,14.405-23.555c1.416-2.684,3.859-6.978,2.743-9.279c-0.914,0-1.83,0-2.743,0
		c-8.533,18.38-23.981,39.057-41.162,53.533c-7.261,6.121-17.627,15.925-26.068,19.273c-2.181,0.861-4.728,0.625-6.86,1.429
		c-3.479,1.306-6.269,3.771-9.604,4.995c-3.887,1.429-8.156,1.447-12.351,2.854c-3.633,1.223-6.554,4.665-10.291,5.711
		c-2.646,0.739-6.092-0.049-8.918,0.715c-3.649,0.982-6.525,4.059-10.291,4.994c-2.918,0.729-6.378,0.15-9.604,0.717
		c-3.994,0.695-7.452,2.646-10.978,2.854c-10.726,0.63-21.035-1.307-32.243,0C171.155,496.824,176.141,494.677,180.023,495.036z"/>
	<path fill="#FFFFFF" d="M395.435,420.089c4.532,1.634,6.91-3.894,10.291-5.711c0.13,4.421-4.246,4.148-5.489,7.141
		c0.987,0.397,1.674,1.112,2.061,2.14c3.314,1.038,4.23-4.109,6.175-2.14c-0.557,2.517-4.189,1.828-4.117,4.995
		c2.293,2.057,7.781-1.082,8.232,1.427c-0.471,1.417-4.088-0.444-3.432,2.144c6.517,2.526,15.874,1.274,21.269-1.428
		c0-2.143,0-4.284,0-6.425c-10.196-3.43-16.942-10.449-26.757-14.277C402.861,414.015,398.781,416.673,395.435,420.089z"/>
	<path fill="#FFFFFF" d="M412.588,445.071c0.709,2.82,2.528,7.991,7.546,8.564c9.682,1.104,15.47-10.307,21.267-13.563
		c5.53-3.104,12.467-3.921,17.151-5.71c9.604-3.667,23.434-11.956,15.091-22.842c-13.459-2.438-29.153,2.124-39.787,5.711
		c-3.813,6.778,0.744,12.23,2.744,17.131C430.644,440.067,421.528,442.476,412.588,445.071z M461.293,422.229
		c-0.381-4.616,3.657-4.742,6.176-2.854C466.639,422.984,464.154,423.432,461.293,422.229z M460.606,412.95
		c2.07-0.844,4.088-1.737,6.174-0.714c0.679,4.274-2.604,4.425-6.174,4.282C460.606,415.329,460.606,414.14,460.606,412.95z
		 M457.177,416.518c-1.624,1.305-3.966,1.862-6.173,0.714C450.466,413.22,457.28,412.185,457.177,416.518z M455.118,421.516
		c0.397,2.313-0.467,3.32-0.687,4.995c-1.602,0-3.2,0-4.8,0C448.836,421.946,451.839,419.735,455.118,421.516z M446.201,415.805
		c-0.109,0.828,0.151,1.27,0.688,1.427c-0.383,3.006-4.144,3.597-6.175,2.854C440.389,416.422,442.999,415.805,446.201,415.805z
		 M446.887,424.37c-1.329,3.664-3.941,4.81-6.86,3.568C438.697,422.315,445.038,420.607,446.887,424.37z"/>
	<path fill="#FFFFFF" d="M690.427,427.225c3.412-2.036,6.516-7.818,4.803-12.85c-0.686,0-1.373,0-2.059,0
		C694.004,420.479,690.021,421.571,690.427,427.225z"/>
	<path fill="#FFFFFF" d="M510.686,426.511c-0.799-0.12-0.744-1.129-0.685-2.144c-2.529-1.258-6.243-0.616-8.921,0
		c-1.268-1.297,0.059-5.291-2.06-5.709C485.364,424.633,508.279,440.927,510.686,426.511z"/>
	<path fill="#FFFFFF" d="M443.46,423.656C439.472,428.426,447.361,426.554,443.46,423.656L443.46,423.656z"/>
	<path fill="#FFFFFF" d="M520.977,437.219c-1.378-0.795-0.786-5.521,0-6.425c-6.139-1.112-5.656,8.444-2.743,10.709
		c8.409,1.781,10.141-10.774,7.545-15.704C522.634,427.996,521.903,432.712,520.977,437.219z"/>
	<path fill="#FFFFFF" d="M529.212,427.938c-0.341,2.505-1.023,4.647-0.688,7.854c4.271-1.745,9.201-2.803,8.231-9.993
		C533.321,425.555,532.969,428.517,529.212,427.938z"/>
	<path fill="#FFFFFF" d="M549.791,433.649c-4.26-1.278-7.238-3.887-10.977-5.711C538.423,433.392,546.469,436.717,549.791,433.649z"
		/>
	<path fill="#FFFFFF" d="M431.108,435.078c1.69,0.096,3.306,0.108,4.116-0.715c-0.062-3.031-1.62-4.501-4.802-4.282
		C430.428,431.976,430.162,434.157,431.108,435.078z"/>
	<path fill="#FFFFFF" d="M427.677,431.51c-4.865,2.099-15.029,2.099-19.896,0C408.633,440.901,424.971,435.378,427.677,431.51z"/>
	<path fill="#FFFFFF" d="M514.802,438.647c0-1.904,0-3.808,0-5.711c-5.017,0.85-11.104,1.512-14.405,2.142
		C499.245,442.268,511.385,440.646,514.802,438.647z"/>
	<path fill="#FFFFFF" d="M554.594,440.073c-5.413-0.505-11.378-4.817-17.149-7.137c-0.479,5.492,0.687,9.279,0.687,14.274
		c2.908,4.22,10.027,2.497,15.094,1.429C552.411,444.468,554.939,443.764,554.594,440.073z"/>
	<path fill="#FFFFFF" d="M68.201,438.647c0.988,0.399,1.674,1.112,2.058,2.14c3.577,0.394,5.155-1.298,6.177-3.566
		C74.642,431.986,69.254,434.024,68.201,438.647z"/>
	<path fill="#FFFFFF" d="M413.957,440.073c4.76,3.912,11.892-1.192,15.094-3.566c0.038-1.229-0.525-1.83-1.371-2.144
		C424.693,437.921,416.497,436.054,413.957,440.073z"/>
	<path fill="#FFFFFF" d="M497.652,436.507c-4.462,5.658-12.437,9.18-20.582,12.849c-7.374,3.322-16.723,4.314-21.952,7.851
		c-2.743,1.859-10.474,9.147-5.484,14.277c1.434-1.838,1.665-4.928,4.113-5.711c1.035,3.83-3.354,4.554-1.369,7.138
		c3.889,0.479,5.315-1.604,8.229-2.14c3.18-13.352,24.549-7.771,32.931-15.704c0.915-3.932-0.104-5.441,0-9.993
		c1.416-1.854,3.056-3.483,6.177-3.566C499.469,439.375,499.313,437.155,497.652,436.507z"/>
	<path fill="#FFFFFF" d="M621.822,437.219c-1.156,1.889-1.587,4.534-2.742,6.424c1.65-0.292,1.49,1.305,3.432,0.713
		C621.87,442.034,625.176,437.787,621.822,437.219z"/>
	<path fill="#FFFFFF" d="M630.74,440.787c-1.716-0.591-2.691-1.955-4.801-2.14c-0.18,2.904-1.29,4.842-2.059,7.137
		c1.928,0.853,3.944,1.606,6.175,2.145C629.575,444.808,631.222,443.905,630.74,440.787z"/>
	<path fill="#FFFFFF" d="M638.289,443.642c-2.118-0.176-3.88-0.724-5.487-1.427c0.473,2.87-0.659,4.072-0.688,6.424
		c2.456,0.06,3.962,1.107,6.175,1.427C638.193,447.072,639.534,446.08,638.289,443.642z"/>
	<path fill="#FFFFFF" d="M494.908,448.639c1.475,1.949,6.362,3.313,8.233,0.714C504.934,441.975,493.844,441.875,494.908,448.639z"
		/>
	<path fill="#FFFFFF" d="M687.68,443.642c-0.576,0.829-0.905,1.914-0.688,3.568c2.538,0.5,3.032-1.131,2.745-3.568
		C689.053,443.642,688.368,443.642,687.68,443.642z"/>
	<path fill="#FFFFFF" d="M641.033,445.071c0,1.665,0,3.33,0,4.995c2.165-0.349,2.421,1.286,4.803,0.714
		c0.944-0.919,0.68-3.101,0.685-4.996C645.521,444.679,643.009,445.157,641.033,445.071z"/>
	<path fill="#FFFFFF" d="M681.509,445.784c0,0.714,0,1.429,0,2.145c1.606,1.461,5.063,0.521,4.114-2.855
		C683.931,444.977,682.317,444.965,681.509,445.784z"/>
	<path fill="#FFFFFF" d="M649.263,450.78c1.822-0.006,3.917,0.271,4.804-0.714c0-1.188,0-2.378,0-3.568
		c-1.678-0.711-1.463-0.234-4.118-0.714C649.008,446.704,649.272,448.885,649.263,450.78z"/>
	<path fill="#FFFFFF" d="M679.449,449.353c0-1.19,0-2.379,0-3.569c-1.69-0.094-3.306-0.105-4.116,0.714
		c-1.288,1.361,0.406,1.293,0,3.568C677.432,450.585,677.351,448.838,679.449,449.353z"/>
	<path fill="#FFFFFF" d="M656.125,450.78c2.743,0,5.487,0,8.231,0c0-1.427,0-2.854,0-4.282c-2.744,0-5.488,0-8.231,0
		C656.125,447.927,656.125,449.353,656.125,450.78z"/>
	<path fill="#FFFFFF" d="M667.101,450.78c3.226,0.026,6.437,0.036,5.487-4.282c-2.059,0-4.116,0-6.176,0
		C666.324,448.26,666.311,449.938,667.101,450.78z"/>
	<path fill="#FFFFFF" d="M654.754,452.924c0.167,3.779-1.851,9.691,0.687,13.563c3.961-1.352,0.609-10.312,4.115-12.134
		c1.149,4.947,0.272,11.075-2.742,14.989c9.223,4.264,20.548,10.064,31.557,6.424c-1.344,1.459-3.442,2.13-6.175,2.142
		c5.499,12.121,20.146,14.729,30.87,21.413c5.613-4.864,10.385-10.604,15.094-16.417c-11.729-12.541-23.978-24.541-38.418-34.262
		C681.088,453.197,667.969,453.109,654.754,452.924z"/>
	<path fill="#FFFFFF" d="M86.038,454.35c-2.168,12.727,9.173,15.194,16.464,15.702C94.491,467.444,88.13,463.117,86.038,454.35z"/>
	<path fill="#FFFFFF" d="M735.015,507.174c8.272-6.856,13.791-16.585,21.269-24.271c-10.95,3.597-18.416,10.818-24.695,19.272
		C731.882,504.723,733.31,506.093,735.015,507.174z"/>
	<path fill="#FFFFFF" d="M722.67,492.894c-2.935,3.375-10.082,6.96-6.86,11.422c7.421-1.623,15.454-12.411,17.152-19.986
		C728.271,482.234,725.48,489.66,722.67,492.894z"/>
	<path fill="#FFFFFF" d="M134.06,484.33c0.341,2.978,3.101,3.437,5.486,4.282c-0.226-1.67-0.823-2.949-1.372-4.282
		C136.803,484.33,135.431,484.33,134.06,484.33z"/>
	<path fill="#FFFFFF" d="M728.157,497.891c3.521,2.906,8.38-1.213,8.232-6.424c-1.31-0.308-1.726-1.539-3.432-1.431
		C732.467,493.807,728.928,494.413,728.157,497.891z"/>
	<path fill="#FFFFFF" d="M700.717,43.917c-0.018-2.599-3.57-1.517-2.742-4.996c1.563-0.979,2.578,1.841,2.742,0
		c-1.934-0.722,0.188-3.031,0-4.281c-2.109,0.896-5.199,0.773-6.172,2.854C696.783,39.444,696.927,43.577,700.717,43.917z"/>
	<path fill="#FFFFFF" d="M373.482,59.621c-1.057,2.281-0.777,5.609-2.059,8.566c-1.492,3.44-4.781,5.536-5.488,8.563
		c-0.688,2.945,0.215,6.477,0,9.28c-0.695,9.065-4.671,17.778-3.43,27.125c10.497,3.244,26.098,3.388,32.93-3.57
		c10.021-10.207-1.332-27.919-11.662-31.404c7.63-2.813,14.994-2.737,19.896-8.566c7.512-8.935,2.563-24.391-6.177-30.692
		C389.558,43.813,378.123,49.599,373.482,59.621z M387.888,87.459c10.515,7.483-1.371,28.219-17.15,22.127
		C370.787,101.344,377.161,79.825,387.888,87.459z M400.237,61.049c-0.999,7.822-11.517,11.496-19.209,11.423
		c0.146-7.466,1.108-14.075,0.688-22.128C391.312,45.556,401.469,51.414,400.237,61.049z"/>
	<path fill="#FFFFFF" d="M675.334,65.332c1.965,0.991,3.618-0.538,5.487,1.428c1.903-1.067-1.189-2.919,0.688-3.568
		c1.001,0.91,1.095,6.41,3.431,3.568c-0.81-0.347-1.556-0.761-2.059-1.428c1.222-1.333,1.742,0.579,4.113,0
		c0.661-2.59-3.082-0.599-2.741-2.854c1.282-0.807,3.304-0.846,2.741-3.569c-1.537-0.546-2.185,3.296-3.43,0.713
		c0.604-1.261,2.175-2.083,0.688-3.567c-2.584,1.997-3.404,1.522-6.86,2.141c-0.604,2.294,2.262,0.979,2.059,2.854
		c-0.574,0.829-0.902,1.914-0.688,3.569C677.888,63.644,675.403,63.516,675.334,65.332z"/>
	<path fill="#FFFFFF" d="M697.285,56.765c0.611-2.13-0.698-5.845-2.058-3.568c1.813,3.854-3.691-1.967-4.803,0.713
		c1.093,0.135,3.601,2.33,2.059,2.855c-0.811-0.821-2.425-0.809-4.115-0.713c-0.814,2.989,2.894,1.272,3.432,2.854
		c-1.371,0.069-4.412,1.979-2.061,3.569c0.622-1.236,2.525-1.973,2.744,0c-1.313,1.25-4.226,0.84-4.115,3.567
		c3.244,0.284,4.512-1.512,6.177,0.714c1.688-0.845-1.407-2.695,0.685-3.568c0.623,1.254,2.404,1.307,3.431,2.142
		c1.313-2.438,4.543-2.888,4.114-7.139c-4.874,2.725,0.351-4.285-4.114-4.283C698.85,55.539,698.491,56.594,697.285,56.765z"/>
	<path fill="#FFFFFF" d="M503.828,102.448c2.044-1.49-0.912-3.754,0-6.424c0.981-1.117,3.573-0.563,3.431-2.855
		c-1.938-5.093,1.258-5.393,2.743-8.563c-2.735-4.797,3.591-4.294,2.06-9.993c-4.349,2.495-4.105,9.377-6.174,14.988
		C504.312,93.863,499.132,100.498,503.828,102.448z"/>
	<path fill="#FFFFFF" d="M278.81,177.397c-4.639-0.171-17.029,11.585-6.174,14.989C270.38,184.899,274.461,180.135,278.81,177.397z"
		/>
	<path fill="#FFFFFF" d="M299.391,140.994c-0.318,2.287-2.612,2.519-2.744,4.997c1.024,0.121,2.532-0.256,2.744,0.714
		c-3.574,7.023-17.827,6.623-15.779,17.13c2.286-0.236,3.043-2.066,6.175-1.428c-0.03,0.982,0.322,1.567,0.688,2.141
		c-0.322,3.711-7.293,0.501-6.176,5.712c2.275,0.095,5.745-3.696,6.176,0.714c-0.161,2.448-4.451,0.604-4.117,3.567
		c7.782,0.192,16.036-5.165,23.325-7.851c-0.723-8.128,8.378-6.035,10.291-11.422C315.054,148.49,308.897,142.999,299.391,140.994z
		 M310.367,161.693c-0.609,0.315-1.227,0.628-1.372,1.429c-3.675,0.255-5.15-1.777-4.802-5.711
		C306.83,154.794,310.768,157.146,310.367,161.693z M315.856,157.411c-3.812,0.396-4.813-2.129-4.802-5.71
		C314.449,147.592,319.464,154.413,315.856,157.411z"/>
	<path fill="#FFFFFF" d="M313.112,163.122C310.531,169.263,314.931,171.27,313.112,163.122L313.112,163.122z"/>
	<path fill="#FFFFFF" d="M573.802,178.825c-5.837,0.578-13.379,0.771-15.778,2.854C562.564,179.982,570.978,182.313,573.802,178.825
		z"/>
	<path fill="#FFFFFF" d="M528.523,183.821c4.184,0.076-2.054-3.716,0-1.428c1.113,0.803-2.883,1.754-2.059,2.854
		c-8.528-1.02-18.853,2.271-26.067,4.997c15.136-0.878,33.746-3.114,48.706-7.853C541.664,181.796,534.257,185.02,528.523,183.821z"
		/>
	<path fill="#FFFFFF" d="M346.732,171.688c-2.99-5.616-19.829-14.939-24.701-12.851c8.227,9.074-4.237,20.273-11.663,12.137
		c-5.912,5.029-18.459,3.157-20.58,12.135c-3.09-3.336-12.229-4.187-15.093,0c-3.306,9.659,6.371,9.339,10.977,12.849
		c-1.241,1.704-5.372,0.401-6.859,0c-0.914,1.904-1.007,4.661-3.432,4.996c0.61-1.271,1.916-1.813,1.372-4.282
		c-1.14-1.431-1.842-3.316-4.114-3.567c1.052,4.9-4.066,3.382-4.116,7.138c0.7,2.126,4.886,0.626,6.174,2.144
		c-1.541,1.393-5.16,0.62-6.86,0c-0.402,3.987,4.244,2.722,6.175,4.282c-4.547,1.721-6.279,0.247-7.191-2.277
		c0.42,4.791-4.426,6.721-3.548,11.714c-0.016-0.022-0.03-0.042-0.045-0.064c0.723,1.863-0.501,4.706-0.874,7.043
		c31.798,4.427,57.821-9.233,71.346-28.553c-7.354-0.199-16.175,1.127-19.208-3.568c12.665,4.522,26.748,1.571,32.93-7.852
		C348.314,179.035,348.464,174.945,346.732,171.688z M326.834,198.81c-6.037,0.926-6.393,9.943-15.778,9.278
		c-3.487-3.271-2.505-11.192-4.117-16.418C310.471,197.276,318.537,198.162,326.834,198.81z"/>
	<path fill="#FFFFFF" d="M367.994,250.919c2.17,0.117,2.293-1.896,4.804-1.428c1.726,3.919-0.321,8.214-0.688,12.136
		c6.79-0.072,5.636-8.413,8.919-12.136c1.682,3.303-3.14,8.191-2.059,10.706c4.263-1.512,4.65-7.056,6.858-10.706
		c2.938,2.048-1.254,7.268-2.057,9.993c4.848-0.429,4.295-6.476,6.859-9.28c1.711,0.676-1.848,3.681,1.372,3.569
		C398.26,233.571,366.428,231.312,367.994,250.919z"/>
	<path fill="#FFFFFF" d="M239.707,263.052c0.107,0.84-0.118,2.024,0.688,2.143c0.227-2.615-0.763-3.967-1.372-5.711
		c-3.204-0.687-7.376,1.324-6.174,2.854c1.353-2.696-0.169,3.402,1.372,2.854C233.116,262.261,237.636,259.767,239.707,263.052z"/>
	<path fill="#FFFFFF" d="M638.973,301.598c0.604,2.577-2.677,4.763-0.687,6.424c6.545-2.707,13.563-4.924,22.641-4.997
		c0.613-2.006,2.097-6.815,3.429-5.709c-2.846,5.668-4.98,20.053,0.688,24.269c0.159-4.591-0.65-10.193,1.372-12.85
		c0.022,6.162-0.619,13.017,2.74,15.704c1.608-5.704,1.904-12.771,5.489-16.417c0.211,21.093,20.823,42.147,9.604,64.24
		c3.726-3.497,4.958-9.593,7.547-14.275c0.127,5.615-4.374,10.188-4.117,13.563c2.031-2.42,5.651-6.949,7.547-7.139
		c-1.632,3.061-4.55,4.783-6.174,7.853c3.192-0.03,5.834-4.368,7.545-3.568c-1.694,3.244-8.805,4.624-7.545,8.564
		c4.499-2.691,7.655-6.783,12.349-9.278c-1.965,4.38-7.171,5.387-8.919,9.993c8.23-5.081,13.736-4.758,20.58-10.706
		c0.108,0.839-0.117,2.024,0.688,2.142c1.696-1.635,2.218-5.599,5.484-3.566c18.236-33.23,0.691-72.523-28.127-81.373
		c-17.731-5.448-35.337-4.79-48.707,4.994c-2.176,4.09-7.453,10.605-6.174,17.848C636.617,304.857,637.52,302.941,638.973,301.598z"
		/>
	<path fill="#FFFFFF" d="M562.137,340.857c-2.326-2.232-2.854-7.222-2.742-9.993c-0.853,4.586-2.3,8.552-4.803,11.419
		c0.017-4.313-4.149-8.036-6.175-7.851c1.881,0.015,1.63,3.366,0.686,4.281c-2.141-1.358-5.535-5.155-7.545-4.281
		c2.077,2.359,5.997,2.801,6.174,7.138c-2.744-0.475-4.701-1.771-6.859-2.854c0.949,3.059,5.265,2.612,5.486,6.425
		c-1.007,2.13-6.754-1.414-5.486,0.714C548.191,348.233,562.69,355.343,562.137,340.857z"/>
	<path fill="#FFFFFF" d="M684.253,384.397c0.354,4.151,1.949,7.014,2.741,10.707c8.726-1.631,11.729-9.211,17.838-13.563
		c0.048,2.466-4.051,4.307-2.742,5.711c15.636-5.414,29.423-18.853,42.53-29.266c0.934-7.867-2.458-11.242-6.857-13.563
		c-3.174,2.646-7.201,4.403-10.977,6.425C723.728,376.379,699.845,373.243,684.253,384.397z"/>
	<path fill="#FFFFFF" d="M121.025,478.619c-3.11-3.194-12.306-3.842-15.092-4.998C108.982,476.883,116.05,479.74,121.025,478.619z"
		/>
	<path fill="#FFFFFF" d="M648.578,46.773c-3.122-0.366-6.935,2.265-8.919,0.713c6.047-1.797,11.767-3.938,18.523-4.996
		c0.368-3.24-3.658-1.906-3.431-4.998c4.339,0.878,7.858,5.85,11.661,1.429c-1.735-0.81-3.89-1.188-4.803-2.854
		c4.201-0.438,12.124,4.794,17.149,0c-15.729-6.541-38.354-2.086-41.848,12.849C641.019,50.365,647.218,51.558,648.578,46.773z"/>
	<path fill="#FFFFFF" d="M323.403,145.276c0.765-3.013,5.957-1.415,6.174-4.996c-3.1-4.027-7.134,5.83-10.977,0.713
		c1.144-3.093,5.418-2.929,8.231-4.283c-3.219-5.261-14.134-2.961-16.465,2.143c5.012,0.691,6.521-2.258,9.604-3.569
		c-1.782,2.798-7.785,6.74-10.979,3.569c0.165-1.02,1.13-1.204,1.372-2.143c-2.759-0.489-3.916,0.686-6.174,0.714
		c-0.2-0.438-1.706-2.746,0-2.854c3.042,3.421,9.512-0.071,9.604-4.282c-3.689-0.723-6.524,3.171-8.231,2.142
		c3.143-1.579,7.393-3.966,4.802-5.711c4.033,1.606,6.679,0.972,10.979,1.429c1.583-3.324,3.08-7.537-1.372-8.566
		c-1.079,0.544-1.025,2.267-2.744,2.144c0.037-0.913,0.879-0.989,0.686-2.144c-2.563,0.425-5.121,0.858-5.486,3.569
		c1.501,2.373,3.69-2.18,4.803,0c-1.097,0.582-4.188,2.706-5.489,0.715c-0.113-4.403,3.134-5.308,6.86-5.711
		c0.469-3.581-1.65-4.47-4.116-4.997c-1.854,0.213-1.229,3.003-2.744,3.569c0-0.952,0-1.904,0-2.855
		c-1.69,0.251-3.282,0.008-4.513,0.434c1.214-0.685,2.569-1.223,3.826-1.864c-0.124-3.677-4.698-2.727-8.233-2.855
		c-1.175,1.158-0.264,4.484-2.743,4.283c1.022-2.683,0.521-3.205-2.059-2.141c0.301-1.659,3.029-1.911,1.373-3.569
		c-3.081-0.351-5.143,0.362-7.546,0.713c-0.773,3.915-4.767,3.382-4.804,6.424c-2.832-0.671,1.031-3.879-3.43-2.854
		c0.563,2.365,2.231,3.579,3.818,4.879c-2.492-1.29-5.574-1.799-7.249-2.022c1.771,0.339,3.059,4.854,1.372,6.426
		c-0.495-2.817-1.908-4.68-3.432-6.426c-12.725-7.653-48.23,10.284-27.438,19.271c2.035-8.827,8.097-13.466,17.837-14.276
		c0.036,0.405,0.124,0.714,0.234,0.979c-8.074,1.11-14.855,4.992-16.013,13.298c1.703,0.928,2.846-2.094,3.43,0
		c-1.708-0.11-2.125,1.121-3.43,1.427c0.511,2.798,2.953,3.589,4.802,4.996c0.151-0.557,0.574-0.83,1.372-0.713
		c0.563-2.325,2.717-7.166,0-8.566c3.725-2.539,8.127-5.795,9.847-10.423c1.057,2.464,5.11-0.589,6.616,1.145
		c-10.18,1.945-14.939,10.296-14.404,21.415c2.3,1.317,2.48-0.681,5.011-0.726c-3.198,1.478-5.424,4.063-8.443,5.724
		c0.084-2.061,2.928-1.242,2.745-3.573c-0.038-0.912-0.878-0.989-0.686-2.141c-2.588,0.077-4.656,0.694-6.361,1.69
		c1.242-0.944,2.478-1.942,3.618-3.118c-1.61-0.703-3.371-1.251-5.488-1.427c0.784-2.094,0.404-2.652-1.373-3.57
		c-6.026,2.294-14.229,2.325-13.034,12.136c1.706-0.11,2.123,1.12,3.431,1.429c1.517-2.23,1.773-5.769,4.802-6.424
		c-1.574,2.298-6.224,9.563-0.688,10.707c1.229-3.778,3.771-5.985,6.556-8.097c-2.009,1.929-3.37,4.534-4.497,7.382
		c0.911,1.746,2.552-0.785,2.744,0.713c-3.106,1.043-1.769,3.668,0.686,4.28c-3.629-0.264-5.544,1.256-7.104,3.146
		c1.167-1.823,2.396-3.611,1.7-6.44c-1,0.355-1.74,0.183-2.462-0.031c0.107-0.081,0.205-0.17,0.321-0.241
		c-1.382,0.191-0.932-1.525-1.659-2.016c0.044-0.12,0.097-0.231,0.134-0.357c-4.06-0.931-7.015,0.313-9.474,2.538
		c1.395-2.01,2.708-4.463,4.824-5.162c-3.043-9.321,5.704-11.999,11.663-14.277c-3.026-1.134-4.571-3.809-6.174-6.423
		c-3.859,0.838-5.785-0.334-7.309-1.926c1.562,0.259,3.329,0.324,4.902,0.567c0.679,0.105,1.457,0.107,2.407-0.069
		c2.972-11.421,16.149-12.225,25.383-17.13c-9.479-2.633-19.771,1.933-26.755,4.996c-3.083,1.352-8.77,1.649-7.546,7.138
		c2.357,0.502,4.133-3.249,6.174-0.715c0.318,3.061-5.041,1.819-5.006,4.729c-1.347-1.532-2.481-3.285-4.601-4.014
		c-4.896,2.236-10.233,7.167-8.918,13.562c1.372,0,2.744,0,4.116,0c0.762-3.729,3.333-5.571,6.174-7.138
		c1.303,1.344,0.083,3.708-1.372,4.283c0.101-0.844,1.223-1.618,0-2.144c-2.345,3.158-0.538,3.437-3.43,7.14
		c4.545,3.098,6.778-5.64,9.604-4.282c-1.601,2.503-2.243,6.062-2.058,8.563c-1.043-5.17-8.706,0.636-9.604-4.995
		c-6.613-0.695-8.75,3.268-13.722,4.28c2.754,2.375,7.809-2.319,8.918,0.714c-1.696,2.992-8.328,0.854-8.918,4.997
		c2.54,0.454,4.086,1.938,7.548,1.43c1.104-1.733,3.242-6.107,5.488-4.283c-4.204,0.697-6.126,8.195-5.2,11.196
		c-0.731-0.454-1.469-0.9-2.347-1.201c-2.733,1.916-5.887,3.394-7.547,6.424c0.115,4.57,3.77,6.013,6.176,2.854
		c2.595,2.762,8.787-0.354,11.803-2.797c-3.257,3.302-8.462,4.578-13.175,6.365c0.723,1.748,1.786,2.72,3.017,3.118
		c-4.06-0.509-9.566,1.323-11.124,6.131c4.492,1.176,9.279-1.102,13.093-3.179c-1.164,1.589-3.98,2.3-4.299,4.638
		c1.207,0.172,1.563,1.229,1.372,2.854c-1.349,1.217-3.431,1.667-4.117,3.569c5.418,1.926,9.618-2.564,11.662-6.424
		c-2.672,0.272-2.428-4.054-4.168-4.884c0.539-0.296,1.057-0.586,1.549-0.857c-0.623-0.796-1.67-1.35-2.924-1.658
		c1.94,0.146,4.142-0.855,6.05-2.342c1.721-0.203,3.452-0.396,4.94-0.87c-3.162,1.422-5.57,3.629-6.819,7.041
		c3.556,3.156,6.424,1.731,9.034-0.884c1.799,1.992,4.905-3.509,6.059-1.971c-1.856,3.488-10.083,4.872-6.174,9.993
		c11.054,2.219,10.391-11.549,17.149-11.42c-4.361,3.235-6.226,6.2-6.859,12.135c0.906,4.247,6.505,1.643,8.23,2.141
		c-2.25,1.229-4.695,2.251-8.23,2.144c-1.836,2.373-3.362,5.065-4.804,7.852c3.873-0.031,5.438-6.219,7.548-5.709
		c-1.687,4.194-6.548,5.083-8.232,9.277c0.752,0.146,0.81,1.014,1.078,1.664c-0.171-0.107-0.339-0.217-0.504-0.33
		c-1.678,3.319-5.136,4.785-6.812,8.103c1.626,1.343,3.26,2.685,6.812,2.025c0.314-3.721,2.401-5.601,2.92-9.113
		c-0.354,0.011-0.666-0.02-0.954-0.078c2.444-0.051,4.808-1.92,5.691-0.843c-3.193,1.912-3.063,7.282-6.175,9.279
		c0.997,1.104,3.514,0.628,5.488,0.714c-0.083-1.328,0.034-2.448,0.263-3.451c-0.073,1.212,0.185,2.546,0.807,3.904
		c0.838,0.167,1.56,0.212,2.193,0.165c-2.349,0.623-4.786,1.155-7.381,1.522c-0.103,0.685-0.259,1.313-0.439,1.916
		c-0.036-0.727-0.585-1.456-1.96-2.165c-0.958,1.046-3.234,2.855-4.372,4.6c0.995-2.223,1.857-4.628,2.657-5.781
		c-1.394,0.558-2.342,1.58-3.191,2.704c0.284-0.813,0.261-1.902-0.239-3.417c-2.023-0.993-4.067-0.9-5.325,0.308
		c0.791-1.127,1.672-2.16,2.58-3.163c-0.178-0.014-0.34-0.011-0.51-0.017c2.904-1.161,3.556-7.602,5.888-9.58
		c-0.336,0.079-0.637,0.195-0.952,0.296c3.16-3.308,5.375-8.183,7.922-12.114c-1.206-0.174-1.563-1.229-1.372-2.854
		c-3.792-0.97-5.002,0.343-7.545,2.139c-1.345-2.41-4.206-3.235-4.804-6.424c-1.166,6.399-10.615,4.18-10.291,12.135
		c1.278,1.191,2.811,1.795,4.369,1.941c-3.902,0.853-7.964,4.428-9.494,6.51c-0.428-0.497-0.989-0.95-1.732-1.312
		c-0.203-0.003-0.407,0.036-0.609,0.094c0.502-1.845,0.142-3.141-0.329-4.769c0.446,0.115,0.898,0.193,1.34,0.237
		c-0.261,0.395-0.418,0.898-0.402,1.581c3.123,2.653,7.649-4.642,4.116-6.424c0.304,1.955-0.559,2.697-1.571,3.282
		c-0.437-3.094-4.171-5.092-7.444-4.436c-1.025,2.498,0.439,4.278,2.478,5.232c-0.052,0-0.105,0.001-0.156,0.003
		c-0.126,0.006-0.246,0.015-0.361,0.022c-0.059,0.007-0.118,0.011-0.173,0.019c-0.135,0.021-0.264,0.041-0.386,0.069
		c-0.025,0.006-0.054,0.01-0.079,0.017c-0.143,0.034-0.275,0.079-0.4,0.129c-0.04,0.016-0.074,0.032-0.111,0.052
		c-0.083,0.037-0.163,0.075-0.239,0.115c-0.041,0.023-0.08,0.05-0.119,0.073c-0.063,0.042-0.128,0.085-0.188,0.133
		c-0.034,0.025-0.069,0.054-0.103,0.081c-0.063,0.057-0.12,0.111-0.175,0.172c-0.021,0.023-0.045,0.046-0.066,0.068
		c-0.069,0.081-0.136,0.169-0.193,0.259c-0.021,0.03-0.038,0.063-0.059,0.098c-0.038,0.062-0.073,0.124-0.106,0.189
		c-0.021,0.041-0.04,0.082-0.061,0.125c-0.025,0.061-0.053,0.118-0.077,0.181c-0.017,0.045-0.033,0.092-0.05,0.137
		c-0.021,0.062-0.041,0.122-0.059,0.186c-0.015,0.046-0.028,0.091-0.041,0.139c-0.021,0.08-0.04,0.162-0.06,0.243
		c-0.005,0.02-0.01,0.039-0.013,0.059c0.004,0.004,0.006,0.012,0.007,0.019c0.09,0.469,0.178,0.936,0.261,1.404
		c0.001,0.006,0.002,0.012,0.004,0.019c0.229,0.13,0.503,0.216,0.797,0.276c0.039,0.009,0.074,0.021,0.111,0.026
		c0.125,0.021,0.258,0.037,0.391,0.052c0.06,0.006,0.118,0.014,0.18,0.021c0.131,0.012,0.452-0.107,0.405,0.021
		c-0.108,0.301-0.031,0.466,0.038,0.468c0.141,0.002,0.249,0.083,0.396,0.083c0.063,0,0.373,0.21,0.438,0.208
		c0.457-0.006,1.158,0.188,1.698,0.259c-2.307,1.052-4.208,5.641-1.774,8.343c4.34-0.39,6.459-3.988,4.912-6.647
		c1.088,0.919,2.64,1.006,4.245,0.564c-1.014,3.208-3.558,5.509-5.039,8.225c1.35,1.209,1.572,3.596,4.801,2.854
		c0.082-1.943,0.864-3.161,1.751-4.269c-0.395,0.865-0.199,2.059,0.993,3.555c1.125-0.18,2.118-0.417,2.862-0.879
		c-1.318,1.343-2.472,2.856-4.236,3.736c1.444,1.59,2.284,3.808,5.489,3.567c0.377-2.072,1.082-3.803,1.97-5.344
		c-0.396,1.141-0.424,2.679,0.089,4.63c1.805-0.521,4.121-0.672,5.475-1.714c-1.303,1.829-2.673,3.588-5.475,3.857
		c2.666,4.681,4.69,2.515,6.351-0.806c-0.236,0.92,0.061,1.758,1.311,2.374c0.608-1.226,3.842-2.892,5.111-4.66
		c-1.117,2.632-2.896,4.576-4.54,6.661c2.429,1.732,4.813,1.13,6.858-0.715c0.143-4.612,0.435-9.064,4.802-9.277
		c1.776,4.609-0.597,6.454-2.058,10.706c2.092-0.565,4.021-3.125,5.129-5.899c-0.243,0.876-0.384,1.858-0.327,3.045
		c0.892-0.224,2.097-1.602,2.794-3.101c0.17,2.582-2.241,3.655-1.465,6.593c2.118,0.323,3.189-0.834,3.477-2.284
		c0,0.073-0.002,0.144-0.001,0.216c3.057-0.987,4.171-4,4.678-7.641c0.258,5.299-1.862,7.648-3.989,10.5
		c2.687,0.415,3.983-0.613,5.488-1.429c0.527-2.607,0.053-7.213,3.43-8.564c0.259,0.108,0.473,0.24,0.668,0.381
		c-1.27-1.369-2.583-1.599-5.525-1.426c0.016-0.129,0.037-0.253,0.051-0.384c-0.462,0.031-0.879,0.108-1.259,0.224
		c1.476-2.849,3.443-7.667,2.597-11.088c1.251,0.46,2.696,0.415,3.469,0.875c-1.458,2.525-2.167,5.835-3.43,8.563
		c1.143,0,2.287,0,3.43,0c1.396-2.305,1.121-8.142,4.918-7.995c-0.85-2.955-0.936-6.934-2.861-9.137
		c0.688-0.947,0.646-2.655,2.058-2.854c-0.617,2.093-0.617,2.192,0,4.283c5.208-0.979,0.749-4.468,0.687-7.854
		c-0.184-3.141,3.866-4.559,2.059-7.137c-3.991,1.137-4.208,2.721-6.86,4.281c-0.5,3.128,1.363-0.574,1.372,1.43
		c-2.901,1.779-2.193,5.125-2.058,7.139c-2.168,0.353-0.255-3.543-2.744-2.855c-2.552,1.866-6.806,1.961-9.604,3.568
		c0.609-1.27,1.914-1.813,1.371-4.282c-4.665,0.936-2.1,6.886-4.115,9.28c3.902-0.7,1.29,1.302,3.186,2.05
		c-2.228-0.048-3.922,0.665-5,1.852c0.355-0.608,0.739-1.187,1.123-1.765c-3.885-6.769,5.398-15.066,8.918-16.417
		c-1.939,1.074-2.127,3.974-2.744,6.426c6.683,0.526,8.211-4.305,10.29-8.564c-2.104-2.071-6.284,0.398-3.43-2.855
		c-1.316-0.104-2.321-0.352-3.087-0.713c6.34,0.288,4.657-7.77,8.576-9.998c-1.085,3.87-2.903,6.974-2.743,12.136
		c3.456,0.503,4.713-1.282,6.858-2.143c-0.129-4.179,1.408-6.625,3.432-8.564c-2.158,4.425-0.648,6.149-2.06,9.278
		c7.677,0.137,8.143-7.231,8.918-14.274c-0.311-0.087-0.577-0.128-0.824-0.149c0.75-4.561,2.731-7.84,4.413-11.427
		c-3.628-3.409-8.92-2.512-7.389-6.151c-4.005,0.835-5.36-1.086-7.387-2.306c-2.236,3.578-8.153,7.391-6.649,12.298
		c0.806-0.771,3.625-3.302,4.431-1.536c-2.375,1.114-4.14,2.866-6.649,3.843c0.001,1.536,0.001,3.074,0.001,4.611
		c2.405,2.446,6.835,1.309,8.866-0.768c0.395-5.236,3.181-12.049,5.911-12.301c-1.809,3.247-3.124,7-4.433,10.764
		c2.782,1.286,3.365-3.577,4.433-1.538c-1.549,1.46-3.898,2.092-3.696,5.382c2.435,1.335,4.27-0.242,6.936-0.668
		c-1.198,0.646-1.23,2.503-2.766,2.798c-1.185-1.146-4.241-0.345-4.802-2.141c-2.274-0.646-2.978,3.965-4.117,2.141
		c0.165-1.019,1.13-1.204,1.373-2.141c-2.744,0-5.489,0-8.232,0c-1.966,2.798-6.162,8.292-2.971,12.535
		c-4.576-3.043,3.039-11.816,2.969-17.529c-1.83,0-3.657,0-5.486,0c-2.979-4.482,1.413-10.574,5.486-12.134
		c-1.936,3.219-5.466,4.782-4.802,10.707c1.372,0,2.744,0,4.116,0c1.596-6.819,9.415-10.973,9.505-17.135
		c0.034,0.002,0.064,0,0.099,0.002c1.101-9.326,4.553-16.202,13.035-17.847c-7.897,2.347-16.12,18.633-6.175,22.842
		c-0.594-4.93,0.203-9.282,2.091-12.812c-3.283,6.993,0.877,18.023,8.886,19.236c-1.72,1.093-5.408,3.852-3.431,6.424
		c1.752-4.602,5.271-7.366,9.605-9.279c-1.997-1.175-4.964-2.132-7.548-0.713c-5.939-1.61-5.893-11.617-0.687-14.276
		c-2.182,2.428-5.369,11.7,1.372,11.421c0.733-7.089,3.928-11.615,8.918-14.273c-3.9,3.793-7.472,7.929-8.232,14.989
		c1.938-0.591,1.777,1.007,3.432,0.714c0.34-5.415,0.893-12.987,5.486-12.851c-3.273,2.302-5.351,7.634-2.058,11.421
		c-0.439-3.695,3.269,0.86,3.431-1.427c-1.208-0.173-1.563-1.229-1.373-2.854c9.185-1.211,5.751-12.73,1.373-16.417
		c-3.435-0.481-5.311,0.661-8.231,0.713c-0.206,1.401,0.926,1.416,1.372,2.142c-0.599,1.043-1.027,2.265-2.744,2.142
		c0.216-0.968,0.978-1.366,0.687-2.858c-4.148-0.028-7.05,1.395-8.887,3.574c3.018-4.039,7.753-6.618,13.688-7.143
		c1.029-2.308,0.984-4.118,0.308-5.542c1.124,0.81,0.726,3.203,2.437,3.401c1.538-2.445,5.876-1.977,6.86-4.998
		c-1.837-3.063-7.861-0.623-9.469,1.272c-0.28-0.494-0.637-0.94-1.054-1.339c2.458-0.354,3.441-2.247,5.034-3.502
		c4.341-0.021,6.282,1.237,8.918,4.282c0.216-2.222,1.259-3.582,2.644-4.588c-0.661,0.678-1.116,1.836-1.27,3.875
		c1.741,1.455,3.82-1.311,6.175-1.427c-0.598,1.043-1.027,2.262-2.744,2.14c-0.18,2.091,1.551,2.194,1.372,4.284
		c-1.978,0.084-1.191,3.042-3.431,2.854c6.122-8.527-7.797-6.438-10.291-1.428c1.14,5.271,7.11,6.758,4.804,13.563
		c10.905,1.264,14.139,10.509,22.639,14.274c2.308-2.121,5.828-2.978,8.919-4.281c0-1.429,0-2.854,0-4.282
		C329.4,142.25,325.791,149.406,323.403,145.276z M237.649,168.117c-2.029,1.483-4.241,3.043-6.1,4.815
		c2.308-2.665,4.461-5.835,6.783-6.955c-3.332,0.244-6.407,0.755-9.05,1.718c0.646-0.336,1.216-0.758,1.667-1.321
		c-2.143-1.543-4.649,0.031-6.551,1.538c2.591-2.532,4.213-5.807,2.959-7.646c-0.081,0.118-0.172,0.226-0.257,0.34
		c-4.573-2.272-9.461,1.355-12.09,3.229c1.528-2.688,4.398-3.984,6.857-5.711c-1.279-0.186-2.251-0.693-3.173-1.251
		c0.974-0.208,2.399-0.89,3.175-0.89c1.69-4.905,2.969-10.236,9.605-9.993c0.07,0.433,0.286,0.713,0.528,0.967
		c-3.83-1.575-8.125,4.403-6.52,7.99c3.44-1.349,6.958-2.616,6.859-7.645c0.217,0.226,0.413,0.473,0.505,0.828
		c0.539,6.033-4.83,5.922-6.176,9.993c1.645,0.506,2.83-0.263,3.879-1.494c2.05,1.123,5.669,1.151,8.119-0.587
		c-2.188,2.342-5.582,3.426-7.882,5.65c0.279,1.614,4.021-0.376,2.745,2.855c6.315,0.653,5.275-6.351,8.472-8.944
		c0,2.273-2.383,6.243-0.175,7.752c-0.673,0.911-1.337,1.829-2.124,2.621c0.833,1.986,2.891,2.704,4.802,3.567
		C241.152,170.076,239.856,170.008,237.649,168.117z M222.171,209.245c0.485-0.723,0.659-1.757,0.385-3.295
		c-1.639-0.418-3.407-0.19-4.429,0.61c0.351-0.424,0.696-0.854,0.999-1.326c-0.829-0.073-1.063-1.068-1.273-2.126
		c4.709,2.773,9.349-5.527,7.447-9.293c0.217,5.11-5.758,5.821-7.51,8.973c-0.234-1.182-0.51-2.336-1.613-2.28
		c3.536-1.088,7.23-4.678,6.767-7.702c2.438-0.43,4.674-1.9,5.787-3.988c1.671,3.867-1.908,2.812-1.373,7.139
		c2.529-0.653,2.317,2.417,4.431,2.333c-3.834,1.484-6.041,4.665-7.85,8.256c0.727,0.491,1.369,0.778,1.945,0.91
		C224.315,207.708,223.159,208.389,222.171,209.245z M251.887,201.986c-0.784-0.204-1.513-0.313-2.205-0.369
		c5.024-0.604,5.433-9.081,9.239-8.51c-0.088,2.936-2.531,3.421-2.743,6.23c-0.228-0.146-0.458-0.289-0.728-0.406
		c-0.65,5.715-4.83,7.766-6.504,12.417c1.773,0.923,2.623,2.806,5.663,2.408c-1.773,1.095-2.375,3.408-2.517,6.2
		c-0.178-1.325-0.891-2.572-1.983-2.964c0.721-1.63,0.812-3.367-0.797-3.904c-0.408,0.973-0.896,1.864-1.298,2.845
		c0.674-2.231,0.769-4.432-0.075-5.702c-0.138,0.041-0.28,0.077-0.418,0.117C250.241,208.877,250.28,204.615,251.887,201.986z
		 M295.276,135.996c0.11-0.835,1.25-0.601,2.058-0.713c0.139,3.711-0.008,7.129-4.114,6.424
		C294.24,140.289,298.709,137.652,295.276,135.996z"/>
	<path fill="#FFFFFF" d="M142.977,487.185c0,0,7.263,22.752,1.536,36.145c12.156,0,17.735,0,17.735,0s-0.832-1.77,1.31-10.448
		c-0.534-0.855-1.203-1.377-2.206,0.361c-1.17,1.043-1.731,0.617-1.911,0.354c0.866-1.136,8.095-8.658,6.841-17.225
		c-0.334-2.824-0.459-3.392-1.044-3.693c-0.585-0.308-1.672-1.351-13.122-2.522C148.398,489.677,145.246,489.087,142.977,487.185z"
		/>
	<path fill="#FFFFFF" d="M495.594,452.924c0,0-3.734,15.58,5.919,28.885c5.642,8.349,11.396,17.87,27.01,23.937
		c-2.062-5.544-3.064-7.631-4.569-9.719c-1.505-2.087-0.377-2.348,1.506-1.304c1.129,0.913,2.257,0.913-0.503-7.696
		c-1.254-5.87-1.254-13.044,6.521-12.651c7.396,1.825,9.5,4.175,10.767,5.675c2.271-0.326,4.528-2.807,5.154-5.544
		c1.254-2.739,2.759-2.087-1.128-5.22c-2.131-2.348-10.111-8.931-10.886-34.206c-3.656,0.292-5.538,2.381-8.547,5.118
		c-3.009,2.739-5.895,4.437-9.15,1.956c-2.884-1.956-4.891-1.435-7.647-0.261c-2.758,1.174-4.648,1.301-6.211,0.324
		c0.568,1.894,2.575,6.979,0.192,8.807C501.638,452.848,498.825,452.215,495.594,452.924z"/>
	<path fill="#FFFFFF" d="M510.686,497.178c0,0-4.101,5.986-2.004,26.149c5.485,0,15.622,0,15.622,0s-0.979,1.264,2.909-5.13
		c3.134-4.694,2.844-4.102,4.054-6.747c-2.048-1.993-7.438-6.298-12.202-8.254C515.93,501.505,511.713,498.201,510.686,497.178z"/>
	<path fill="#FFFFFF" d="M550.157,472.46c0,0-1.882,3.868-4.263,7.131c-1.253,0.913-2.591,3.217-6.604,0.347
		c-4.012-2.869-9.693-7.217-12.452-2.782c-1.555,3.135-2.76,4.001,0.754,13.654c-0.126,2.739,0.166,5.479,0.166,5.479
		c-1.761-1.488-3.89-1.044-1.17,2.35c2.257,4.693,3.565,6.326,3.637,7.435c1.572,2.806,3.885,7.175,6.392,12.132
		c2.508,4.956,1.055,3.995,2.811,5.302c3.175,0,7.323-0.333,22.905-0.333c0,0,5.627-10.445,6.003-17.883
		c0.375-7.436,0.502-7.436,0.502-8.868c1.629,0.781,4.807,3.347,11.239-3.521c2.177-2.958,6.104-9.564,4.433-14.958
		c-0.752-2.958-1.921-4.521-3.342-5.392c-0.755,1.737-1.425,5.65-2.344,9.478c-0.918,3.828-3.092,8.176-7.854,8.523
		c-4.768,0.347-4.097-0.263-4.433-1.306c-0.335-1.044-0.584-4.87-6.185-9.914C554.755,474.284,552.948,473.829,550.157,472.46z"/>
	<path fill="#FFFFFF" d="M550.824,434.457c0,0-2.173,1.219-4.179,1.392c2.758,1.74,6.267,2.348,8.44,3.131
		c2.173,0.782,0.837,1.826,0.586,2.696c-0.25,0.87-2.175,4.779-1.255,6.521c2.508-0.782,9.525-3.736,12.451-7.478
		c2.929-3.74,6.188-8.782,12.621-9.652c6.437-0.87,7.522-0.783,8.524-0.437c0.251-2.089,0.418-10.264-5.603-10.869
		c-2.005,0-4.177-1.565-13.956,6.261C564.53,430.368,557.76,436.456,550.824,434.457z"/>
	<path fill="#FFFFFF" d="M622.51,447.927c0,0-2.58,15.975,0.686,27.123c-0.912,4.188-1.915,9.843-1.999,26.539
		c-0.418,11.306,1.291,21.236-0.88,23.409c7.414,0,4.182,0,20.663,0c0,0,1.444-2.104,3.117-13.932
		c1.671-11.827,4.012-25.045,5.767-30.696c1.756-5.652,3.021-9.021,3.518-11.03c-0.675-3.23-0.863-6.563-0.687-16.418
		C648.275,452.891,628.088,451.307,622.51,447.927z"/>
	<path fill="#FFFFFF" d="M544.806,381.933c0,0-10.363-1.394-15.545,10.781c-0.669,2.263-3.678,10.609,6.352,13.74
		c7.021,0.868,9.528,2.436,12.37,0.348c2.841-2.088,3.511-4.869,4.847-8.521c1.339-3.651,2.176-5.563,2.176-6.956
		C555.006,389.933,554.337,384.02,544.806,381.933z M544.988,401.528c1.123-3.289-0.302-8.233-2.745-9.993
		c-7.214,1.785-1.185,8.705,1.374,10.709c-12.974,2.508-11.689-17.06,1.371-13.563C548.783,390.803,549.676,399.398,544.988,401.528
		z"/>
</g>
</svg>
