<?xml version="1.0" encoding="utf-8"?>
<!-- Generator: Adobe Illustrator 15.1.0, SVG Export Plug-In . SVG Version: 6.00 Build 0)  -->
<!DOCTYPE svg PUBLIC "-//W3C//DTD SVG 1.1//EN" "http://www.w3.org/Graphics/SVG/1.1/DTD/svg11.dtd">
<svg version="1.1" id="Layer_1" xmlns="http://www.w3.org/2000/svg" xmlns:xlink="http://www.w3.org/1999/xlink" x="0px" y="0px"
	 width="825px" height="525px" viewBox="0 0 825 525" enable-background="new 0 0 825 525" xml:space="preserve">
<g id="Black">
	<polygon points="0,0 825.001,0 825.014,525.168 0.001,525.168 	"/>
</g>
<g>
	<path fill-rule="evenodd" clip-rule="evenodd" fill="#FFFFFF" d="M516.918,92.938c15.412,1.541,30.854,2.828,46.331,3.806
		c-18.184,7.403-31.58,19.108-38.569,36.572C521.944,119.569,518.971,107.411,516.918,92.938z"/>
	<path fill-rule="evenodd" clip-rule="evenodd" fill="#FFFFFF" d="M656.379,96.744c0.2-0.039,0.222,0.083,0.236,0.211
		c8.142,8.05,15.752,16.445,23.517,24.945c3.862,4.228,7.221,8.85,10.817,13.318c3.567,4.433,7.48,8.623,11.524,12.684
		c-11.35,2.902-27.901,1.056-36.218-4.862c-4.014-2.856-6.395-6.756-9.172-10.781C653.981,123.025,652.587,106.4,656.379,96.744z"/>
	<path fill-rule="evenodd" clip-rule="evenodd" fill="#FFFFFF" d="M650.264,133.95c-9.857,10.219-17.281,22.011-27.282,31.921
		c-10.015,9.926-20.994,18.731-31.277,28.327c-5.335-4.194-10.427-8.951-15.522-13.529c-5.188-4.665-9.795-9.711-14.815-14.164
		c-1.779-1.578-4.419-2.847-5.175-5.073c2.377-1.418,2.356,1.429,3.999,1.902c0.619-1.253-0.657-2.464-1.41-3.17
		c0.895-1.658,2.947-0.763,4.938-1.058c-0.215-0.934-1.518-0.892-2.588-1.057c0.937-2.144-0.16-3.794-1.176-5.285
		c-2.98,1.338-0.806,7.309-4.231,8.245c-2.521-1.238-3.879-3.477-6.116-5.074c-5.772-4.12-12.86-6.524-20.461-9.09
		c-0.703-3.556-4.02-6.285-3.762-10.147c0.093-1.389,1.67-4.154,2.821-6.131c3.295-5.658,7.692-10.363,11.759-14.798
		c3.037-3.313,6.037-5.604,10.348-7.821c4.063-2.091,7.825-4.692,11.994-6.131c4.15-1.432,10.095-4.047,14.11-4.016
		c3.32,0.025,6.747,0.488,9.878,0.845c7.291,0.83,15.191,3.447,21.636,6.342c11.719,5.264,21.759,11.055,30.809,18.604
		C642.852,127.022,646.351,130.858,650.264,133.95z M560.427,127.82c2.656-0.9,4.382-2.918,6.585-4.44
		c3.921-2.708,8.8-4.62,11.759-8.245c-0.05-0.237-0.261-0.329-0.47-0.422C570.679,117.588,564.543,121.796,560.427,127.82z
		 M587.238,133.316c-1.827,2.381-7.238,0.271-9.174,1.903c0.407,0.762,1.906,0.541,2.587,1.057c0.441,1.436,0.601,3.125,1.88,3.805
		c0.247-0.753,0.291-2.039,0-3.594c1.139-0.106,2.077-0.389,3.059-0.634c1.105,0.84,1.701,2.136,3.293,2.537
		c0.207-1.946-1.676-2.017-1.881-3.594c1.438-0.469,2.009-1.717,3.292-2.325c0.977,0.178,1.746,0.545,3.058,0.423
		c-0.133-1.291-2.359-0.698-2.822-1.692c0.482-0.948,0.378-1.624,0-2.537c0.346-0.466,1.862,0.124,1.881-0.635
		c-0.575-0.397-1.685-0.316-2.351-0.633c0.035-1.089-0.631-1.548-0.706-2.537c-0.234,0-0.471,0-0.707,0
		C587.876,127.407,587.878,130.651,587.238,133.316z M582.767,161.855c2.432,0.828,7.188,0.116,8.468-1.268
		c2.677-2.899-1.45-7.318-3.997-8.456c-0.158,0-0.315,0-0.473,0c-1.225,3.459,2.005,6.451-0.939,8.456
		c-2.391-0.609-5.251-4.066-7.525-2.114C579.594,159.27,580.783,161.179,582.767,161.855z"/>
	<path fill-rule="evenodd" clip-rule="evenodd" fill="#FFFFFF" d="M483.524,137.755c-2.977-4.688-5.091-15.998,0-20.083
		c3.314,0.499,7.086,0.825,9.877,2.537c2.17,1.332,4.734,4.336,5.174,6.342c0.774,3.542-1.453,6.563-2.821,9.302
		C493.16,137.77,487.329,138.881,483.524,137.755z M489.873,128.031c1.518-0.546,0.639-3.556-0.704-4.016
		C488.43,124.715,488.535,127.837,489.873,128.031z"/>
	<path fill-rule="evenodd" clip-rule="evenodd" fill="#FFFFFF" d="M652.617,136.276c4.673,6.016,10.319,11.158,14.58,17.547
		c-10.4,9.694-21.357,19.768-32.455,29.172c-9.394,7.96-17.989,16.792-28.222,23.889c-4.964-3.5-9.933-6.996-13.876-11.416
		c12.994-10.993,26.209-21.699,38.805-33.19c4.156-3.791,8.286-7.773,11.288-12.473c2.677-1.682,3.827-4.735,6.116-6.765
		C649.744,140.459,650.963,138.173,652.617,136.276z"/>
	<path fill-rule="evenodd" clip-rule="evenodd" fill="#FFFFFF" d="M480.936,137.755c0.186,0.826,1.216,2,1.176,2.326
		c-5.164,0.854-11.973,2.791-18.344,2.959c-4.106,0.109-8.549,2.138-11.288,0C460.342,139.403,472.408,140.469,480.936,137.755z"/>
	<path fill-rule="evenodd" clip-rule="evenodd" fill="#FFFFFF" d="M479.055,142.617c0.668,2.007,2.075,3.35,2.821,5.285
		c-1.177-0.072-1.646,0.495-2.821,0.423c-0.563-1.889-1.985-3.007-2.353-5.073C477.458,143.015,478.098,142.674,479.055,142.617z"/>
	<path fill-rule="evenodd" clip-rule="evenodd" fill="#FFFFFF" d="M475.292,143.675c0.561,1.891,1.519,3.428,2.353,5.073
		c-1.963,0.067-3.236,0.754-4.938,1.057c-0.799-1.784-1.363-3.778-1.646-5.496C472.485,144.112,473.593,143.626,475.292,143.675z"/>
	<path fill-rule="evenodd" clip-rule="evenodd" fill="#FFFFFF" d="M469.648,144.732c0.678,2.058,0.938,3.583,1.646,5.284
		c-1.244,0.645-2.92,0.899-4.232,1.48c-1.328-1.272-0.491-4.491-1.411-6.131C466.983,145.156,467.956,144.62,469.648,144.732z"/>
	<path fill-rule="evenodd" clip-rule="evenodd" fill="#FFFFFF" d="M465.416,151.92c-0.983,0.314-1.944,0.649-3.06,0.845
		c0.166-2.566,0.377-4.739-0.469-6.764C465.609,144.056,464.379,149.63,465.416,151.92z"/>
	<path fill-rule="evenodd" clip-rule="evenodd" fill="#FFFFFF" d="M459.064,146.211c0.236,0,0.471,0,0.707,0
		c1.834,1.446,0.27,4.668,1.409,6.765c-0.626,0.564-1.603,0.813-2.82,0.846C458.352,151.069,459.289,149.162,459.064,146.211z"/>
	<path fill-rule="evenodd" clip-rule="evenodd" fill="#FFFFFF" d="M566.777,228.869c-1.639,1.53-3.925,1.279-6.586,2.537
		c-1.659-8.007-0.546-17.461-1.882-26.214c-2.037-13.352-8.364-24.863-16.227-33.401c-2.331-2.532-5.512-4.66-8.231-6.765
		c-4.787-3.705-10.294-6.271-14.816-10.359c-6.789-1.218-14.677-2.381-22.106-1.903c-14.281,0.92-27.05,6.56-39.274,11.205
		c-12.204,4.637-24.558,9.342-33.159,16.912c-18.003,15.84-34.499,32.618-39.981,57.078c-1.077-0.371-2.063-0.822-3.057-1.269
		c2.56-8.449,5.721-16.767,9.878-24.311c8.169-14.828,18.646-26.998,31.985-37.206c14.361-10.994,31.622-19.886,52.914-24.945
		c13.73-1.875,23.772-4.667,39.51-3.594c16.608,1.133,29.376,7.28,36.452,16.912c2.334,3.178,3.974,7.164,5.644,11.416
		C564,190.64,565.742,210.146,566.777,228.869z"/>
	<path fill-rule="evenodd" clip-rule="evenodd" fill="#FFFFFF" d="M668.136,155.302c1.746,1.885,2.924,4.278,4.47,6.342
		c-17.258,12.646-33.039,27.898-50.093,41.857c-2.464,2.016-5.033,4.524-7.997,7.188c-2.263,2.034-6.88,5.447-7.524,7.61
		c-1.009,3.376,1.053,7.497-1.411,9.513c-0.878-1.749-0.62-4.518-0.94-6.765c-3.638,0.114-2.174,4.812-4.938,5.708
		c-0.546-2.109,0.442-4.654,0-6.553c-4.065,0.364-3.396,4.981-7.058,5.708c-0.104-2.841,1.48-4.166,1.883-6.553
		c-3.047-1.24-4.22,2.102-6.585,1.48c1.155-3.331,4.377-4.805,6.585-7.188c-1.08-1.143-3.939-0.688-5.174-1.691
		c-0.071-0.77,0.038-1.376,0.235-1.903c4.25,0.246,9.107,2.012,13.405,0.846c3.106-0.844,5.604-3.556,8.465-5.708
		c2.862-2.152,5.681-4.116,7.996-5.919c10.359-8.067,20.238-17.184,30.104-25.369c5.313-4.407,9.777-9.122,14.581-13.106
		C665.073,158.609,666.696,157.036,668.136,155.302z"/>
	<path fill-rule="evenodd" clip-rule="evenodd" fill="#FFFFFF" d="M673.782,163.969c2.297,3.341,3.871,7.042,5.646,10.993
		c3.306,7.373,8.341,14.122,11.758,21.774c0.73,1.639,1.524,3.873,2.586,5.919c1.007,1.942,2.567,4.139,2.587,5.708
		c0.023,1.708-1.389,3.627-2.117,5.285c-2.847,6.48-6.289,13.434-9.171,19.871c-4.542-3.073-9.918-4.583-15.756-6.13
		c-5.119-2.74-16.458-5.62-20.225-0.212c0.103,1.738-0.244,3.881,0.232,5.285c-4.421,1.016-7.937,3.38-7.053,8.034
		c-0.837,0.332-1.467-0.862-2.117-1.479c-2.009-1.903-4.646-4.329-6.587-6.342c-7.316-5.612-13.467-12.276-20.695-17.969
		C633.219,197.833,654.048,181.393,673.782,163.969z"/>
	<path fill-rule="evenodd" clip-rule="evenodd" fill="#FFFFFF" d="M265.515,180.247c0.199-0.038,0.222,0.083,0.235,0.212
		c-1.207,20.801-0.134,43.24,3.057,61.305c0.714,4.04,1.056,8.067,1.882,11.839c1.634,7.461,3.83,14.576,5.644,21.562
		c1.736,6.689,5.078,13.294,7.761,19.661c9.382,22.265,27.767,38.468,43.743,55.176c1.144,1.195,2.36,2.427,3.528,3.594
		c5.687,5.682,11.702,12.065,18.813,16.699c0.896,0.731-1.552,0.372-0.705,1.059c0.368,0.941,2.67,1.257,2.587,1.902
		c-6.158-1.271-16.144-1.321-23.752-2.326c-4.885-0.646-9.535-1.891-14.346-2.747c-3.649-0.65-8.232-2.313-12.229-3.806
		c-13.909-5.193-22.418-12.939-31.514-23.255c-6.135-6.957-11.187-14.557-15.522-22.619c-6.742-12.538-11.788-25.44-14.11-40.8
		c-1.343-8.877-3.075-18.26-2.353-30.02c0.394-6.396,1.868-12.851,3.293-18.814c4.12-17.243,11.763-33.792,22.106-46.931
		C264.332,181.439,265.385,181.257,265.515,180.247z"/>
	<path fill-rule="evenodd" clip-rule="evenodd" fill="#FFFFFF" d="M666.02,238.382c-1.024-1.475-1.52-3.426-2.821-4.65
		c-1.93,1.623,0.945,3.39,0.704,5.497c2.834,4.714,4.438,10.32,8.231,15.22c1.313,1.697,2.512,7.232,2.587,9.725
		c0.069,2.233-0.365,5.296-1.175,7.61c-2.619-0.849-2.721-3.835-3.293-6.554c-0.838-3.98-2.667-7.834-2.117-12.261
		c-3.993-4.965-10.816-10.124-14.108-16.7c-1.138-2.267-2.561-5.165-2.354-7.61c0.247-2.903,2.28-3.768,5.88-2.959
		c3.163,0.71,7.61,2.667,11.76,4.228c5.516,2.076,9.765,3.504,13.641,5.708c0.229,0.99,1.349,1.182,1.644,2.113
		c-0.379,2.972-0.761,6.745-3.291,7.188c-2.328,0.407-5.121-2.248-7.525-3.382C670.769,240.131,668.321,239.014,666.02,238.382z"/>
	<path fill-rule="evenodd" clip-rule="evenodd" fill="#FFFFFF" d="M649.793,234.787c1.939,5.912,6.323,10.365,10.582,15.011
		c4.556,4.965,7.803,12.813,7.525,20.716c-0.06,1.708,0.035,2.907-2.114,3.595c-0.958-3.597-2.835-7.436-2.824-11.205
		c-5.874-6.486-12.225-12.545-18.106-19.026C644.072,239.767,643.645,234.565,649.793,234.787z"/>
	<path fill-rule="evenodd" clip-rule="evenodd" fill="#FFFFFF" d="M668.136,241.553c3.577,1.154,6.707,3.836,9.878,4.651
		c-0.126,1.862-1.951,4.022-3.293,5.497C672.255,248.562,670.317,244.95,668.136,241.553z"/>
	<path fill-rule="evenodd" clip-rule="evenodd" fill="#FFFFFF" d="M465.886,255.927c0.77,2.139,1.325,5.886,2.114,8.668
		c-4.262-1.211-6.89-1.733-11.287-2.537C459.311,259.602,463.353,258.443,465.886,255.927z"/>
	<path fill-rule="evenodd" clip-rule="evenodd" fill="#FFFFFF" d="M451.07,262.904c1.039-0.019-0.293,1.06,0.704,1.269
		c1.399,0.271,1.167-0.923,2.116-1.057c6.097,1.118,12.221,0.993,16.934,5.073c0.856-0.065,1.531,0.034,2.116,0.212
		c7.966,5.921,10.213,16.783,6.115,27.271c-1.775-7.785-3.45-15.971-8.938-20.928c-0.551-0.069-0.882-0.336-1.645-0.213
		c-2.896-2.682-8.795-2.664-12.936-4.228c-18.15-2.665-32.248,4.762-43.507,11.204c0.767-3.187,2.66-5.36,3.527-8.456
		c0.521-0.116,0.335,0.403,0.705,0.423C424.475,266.775,437.124,262.017,451.07,262.904z"/>
	<path fill-rule="evenodd" clip-rule="evenodd" fill="#FFFFFF" d="M634.508,286.582c0.462,4.638,2.763,9.245,3.291,13.528
		c0.354,2.853-0.218,6.18,0,9.514c0.228,3.462,1.184,7.2,1.178,10.358c-0.011,4.135-1.611,11.501-5.175,13.317
		c-2.569,1.311-9.8,2.252-14.581,1.903c-2.131-0.154-4.141-0.756-6.115-1.057c-4.71-0.721-12.391-0.94-15.756-4.017
		c-0.992-0.905-2.171-2.766-2.822-4.018c-5.518-10.589-4.008-27.392-4.468-42.701c0.685-0.711,1.136-1.206,1.881-2.114
		c0.574-0.7,1.183-1.481,1.646-2.326c3.233-2.545,7.361-5.169,12.464-4.018c2.121,0.48,4.393,2.259,7.055,3.173
		C620.18,280.55,630.51,282.272,634.508,286.582z"/>
	<path fill-rule="evenodd" clip-rule="evenodd" fill="#FFFFFF" d="M415.793,293.769c0.532,2.572-1.97,4.111-2.823,6.13
		c-0.626,0-1.253,0-1.881,0c0.93-2.405,3.174-3.631,3.998-6.13C415.322,293.769,415.557,293.769,415.793,293.769z"/>
	<path fill-rule="evenodd" clip-rule="evenodd" fill="#FFFFFF" d="M417.439,295.037c0.189,0.112,0.381,0.221,0.705,0.211
		c0.405,0.729,0.261,1.611,0,2.327c-0.556,1.522-2.419,3.666-4.233,3.804C415.151,299.322,416.928,297.749,417.439,295.037z"/>
	<path fill-rule="evenodd" clip-rule="evenodd" fill="#FFFFFF" d="M419.791,296.727c2.221,1.555-0.758,5.604-2.823,5.286
		C417.281,300.51,419.725,299.153,419.791,296.727z"/>
	<path fill-rule="evenodd" clip-rule="evenodd" fill="#FFFFFF" d="M407.561,298.843c0.819,0.32,1.366,0.886,2.822,0.636
		c0.139,1.776,2.926,1.172,3.057,2.958c4.282,0.351,6.457,2.517,8.232-1.691c8.42,3.142,13.04,9.7,21.4,12.896
		c-0.085,0.921,0.896,0.885,1.411,1.268c-0.252,0.547-0.57,1.035-0.471,1.902c-0.499,0.811,0.961,0.672,1.646,1.691
		c0.605,0.901-0.025,1.838,0.94,2.324c0.507,0.258,1.402,0.404,2.117,0c-0.242,1.85,1.604,1.456,3.292,2.114
		c1.56,0.611,0.872,1.294,2.117,1.271c1.586-0.033,1.839-1.537,3.057-2.114c2.811,0.784,4.383,2.684,6.818,3.805
		c0,0.563,0,1.127,0,1.691c0.231,1.118,1.753,0.855,2.589,1.479c0.277,0.206,0.01,0.778,0.236,1.057
		c0.402,0.497,2.033,0.626,3.057,1.268c0.525,0.331,0.604,0.902,0.94,1.059c1.67,0.765,3.364,0.803,5.175,1.056
		c4.904,3.739,9.964,6.501,14.58,10.146c0.064,0.72-0.183,1.716,0.234,2.114c3.489,1.163,5.821,3.366,7.996,5.709
		c0.858,0.608,2.381-0.625,2.588,0.634c0.833-0.023-0.5-0.7,0.234-0.634c2.526,1.609,6.539,4.602,9.406,7.188
		c2.494,2.248,3.293,3.415,0.473,5.92c-0.274-0.035-0.418,0.046-0.473,0.209c-7.509-0.413-15.386,0.57-23.986,1.059
		c-10.753,0.609-21.81,2.649-32.689,3.172c-1.316,0.062-2.711-0.275-3.999-0.213c-14.037,0.689-27.852,2.799-40.685,4.44
		c0.229-3.46,0.625-8.935-0.235-11.416c-0.251-0.79,0.583-0.603,0.471-1.268c-1.944-14.035-2.459-30.14-3.527-45.24
		C405.996,309.833,407.594,304.176,407.561,298.843z"/>
	<path fill-rule="evenodd" clip-rule="evenodd" fill="#FFFFFF" d="M514.332,301.802c0.988,2.333-1.398,4.844-1.177,7.399
		c-2.132-1.747-3.368-4.302-5.879-5.708C509.386,302.374,511.98,302.283,514.332,301.802z"/>
	<path fill-rule="evenodd" clip-rule="evenodd" fill="#FFFFFF" d="M450.598,314.063c-0.361,2.212-2.822,2.537-4.938,3.17
		C446.054,315.052,447.973,314.24,450.598,314.063z"/>
	<path fill-rule="evenodd" clip-rule="evenodd" fill="#FFFFFF" d="M452.01,314.909c0.348,0.11,0.593,0.313,0.941,0.423
		c-1.172,2.118-2.205,4.36-5.644,4.439C448.373,317.698,451.418,317.407,452.01,314.909z"/>
	<path fill-rule="evenodd" clip-rule="evenodd" fill="#FFFFFF" d="M514.095,314.909c0.376,0.31,0.743,1.159-0.232,1.057
		C513.785,315.475,513.898,315.154,514.095,314.909z"/>
	<path fill-rule="evenodd" clip-rule="evenodd" fill="#FFFFFF" d="M454.127,317.233c0.273-0.032,0.417,0.049,0.47,0.211
		c-0.72,2.174-1.586,4.214-4.468,4.441C450.863,319.799,453.32,319.259,454.127,317.233z"/>
	<path fill-rule="evenodd" clip-rule="evenodd" fill="#FFFFFF" d="M456.243,318.292c0.313,0.211,0.875,0.199,0.94,0.634
		c-1.299,1.088-1.598,3.073-3.527,3.592C454.334,320.943,455.841,320.113,456.243,318.292z"/>
	<path fill-rule="evenodd" clip-rule="evenodd" fill="#FFFFFF" d="M473.176,324.844c-1.164,2.126-2.519,4.078-5.409,4.652
		c0.5-2.089,3.328-2.084,3.058-4.863c-2.25,0.585-2.709,2.779-5.174,3.171C466.4,325.023,470.35,322.861,473.176,324.844z"/>
	<path fill-rule="evenodd" clip-rule="evenodd" fill="#FFFFFF" d="M475.292,327.382c-0.411,1.393-1.72,1.977-2.586,2.959
		c-0.419-0.648-0.685-0.631-1.646-0.423C472.482,329.201,473.291,326.884,475.292,327.382z"/>
	<path fill-rule="evenodd" clip-rule="evenodd" fill="#FFFFFF" d="M475.292,330.341c0.492,0.193,0.716,0.625,0.707,1.268
		c-1.272-0.229-1.577,0.57-3.059,0.636C473.666,331.555,474.768,331.208,475.292,330.341z"/>
	<path fill-rule="evenodd" clip-rule="evenodd" fill="#FFFFFF" d="M175.442,346.831c-2.671,0.181-6.881-1.04-9.407-0.423
		c0.987-2.574,4.757-4.455,6.35-7.188c0.235,0,0.47,0,0.706,0C173.753,341.866,174.973,344.01,175.442,346.831z"/>
	<path fill-rule="evenodd" clip-rule="evenodd" fill="#FFFFFF" d="M498.339,342.601c0.471,0,0.941,0,1.413,0
		c-0.069,1.865-2.637,4.188-5.175,3.807C495.66,344.985,497.954,344.652,498.339,342.601z"/>
	<path fill-rule="evenodd" clip-rule="evenodd" fill="#FFFFFF" d="M496.457,343.236c-1.295,0.949-2.274,2.182-4.702,2.116
		C492.091,343.502,494.216,342.743,496.457,343.236z"/>
	<path fill-rule="evenodd" clip-rule="evenodd" fill="#FFFFFF" d="M501.632,344.294c0.576,1.595-1.888,4.065-3.997,4.65
		C497.558,346.972,500.647,346.016,501.632,344.294z"/>
	<path fill-rule="evenodd" clip-rule="evenodd" fill="#FFFFFF" d="M170.267,348.521c-1.24,0.928-2.53,1.813-4.232,2.325
		C164.858,348.193,168.327,348.148,170.267,348.521z"/>
	<path fill-rule="evenodd" clip-rule="evenodd" fill="#FFFFFF" d="M177.793,349.367c1.021,1.229-0.108,3.159,0.235,5.073
		c-4.915,1.572-8.766,4.1-12.699,6.555c0.552-2.041-0.044-5.115,0.47-7.188C169.292,352.002,172.259,347.987,177.793,349.367z"/>
	<path fill-rule="evenodd" clip-rule="evenodd" fill="#FFFFFF" d="M177.793,360.359c-5.088,1.91-8.811,6.174-12.699,8.456
		c0.475-2.166-0.471-4.014,0.236-5.708c0.847-2.031,10.514-6.675,12.463-6.976C178.017,356.964,177.645,358.91,177.793,360.359z"/>
	<path fill-rule="evenodd" clip-rule="evenodd" fill="#FFFFFF" d="M177.558,361.84c0.638,2.485,0.4,4.534,0.47,7.61
		c-5.454,1.861-9.582,4.917-13.169,8.455c0.406-2.513-0.028-4.874,0.235-7.188C169.227,367.739,173.177,364.596,177.558,361.84z"/>
	<path fill-rule="evenodd" clip-rule="evenodd" fill="#FFFFFF" d="M177.793,370.506c0.888,0.814,0.267,2.804,0.47,4.653
		c-5.404,2.188-8.216,6.705-13.404,9.089c0.468-1.544-0.167-2.687,0-4.862C168.323,375.664,173.339,373.338,177.793,370.506z"/>
	<path fill-rule="evenodd" clip-rule="evenodd" fill="#FFFFFF" d="M178.969,385.516c-5.022,2.813-9.529,6.09-14.346,9.09
		c0.489-3.079-0.631-5.457,0.236-7.821c0.631-1.724,4.352-3.196,5.879-4.861c0.328-0.36,0.458-1.253,0.706-1.48
		c2.07-1.904,4.906-2.92,6.585-4.44C179.255,377.845,178.792,382.132,178.969,385.516z"/>
	<path fill-rule="evenodd" clip-rule="evenodd" fill="#FFFFFF" d="M677.074,377.694c2.553,3.55,3.236,9.314,3.058,14.375
		c-0.089,2.556-0.097,5.116-0.235,7.611c-0.703,12.677-1.218,24.805-1.882,35.093c-0.174,2.713-0.218,4.869-0.47,7.398
		c-1.019,10.205-1.625,20.896-2.352,31.921c-2.558-0.114-4.141,0.648-6.585,0.635c-1.206-9.528-0.745-22.759-0.94-32.556
		c-0.023-1.151,0.288-2.832-0.707-3.594c1.159-1.46,0.62-4.055,0.707-6.555c0.212-6.144-0.184-17.222,0.704-24.521
		c0.516-4.237,0.581-9.333,1.412-14.376c0.952-5.781,2.565-13.701,6.819-15.432C676.76,377.694,676.917,377.694,677.074,377.694z"/>
	<path fill-rule="evenodd" clip-rule="evenodd" fill="#FFFFFF" d="M178.735,387.42c1.114,1.488,0.29,3.646,0.706,5.496
		c-6.208,2.664-10.828,6.756-15.052,11.204c-0.614-2.458,0.337-5.333,0-8.244C169.325,393.197,174.079,390.35,178.735,387.42z"/>
	<path fill-rule="evenodd" clip-rule="evenodd" fill="#FFFFFF" d="M179.675,404.331c-6.371,2.659-11.295,7.745-15.992,11.205
		c0.883-3.874-0.84-7.395,0.471-9.937c0.375-0.726,2.425-2.263,3.292-2.96c3.37-2.707,8.191-6.005,11.523-8.033
		C180.423,397.159,178.989,401.158,179.675,404.331z"/>
	<path fill-rule="evenodd" clip-rule="evenodd" fill="#FFFFFF" d="M179.44,404.966c0.424,1.718,0.044,5.082,0.47,7.397
		c-6.923,2.729-11.713,8.498-16.698,12.264c0.851-2.89-0.486-5.607,0.471-7.823c0.357-0.827,2.5-2.575,3.528-3.383
		C170.91,410.52,175.816,407.545,179.44,404.966z"/>
	<path fill-rule="evenodd" clip-rule="evenodd" fill="#FFFFFF" d="M180.145,422.511c-5.885,2.884-9.959,7.396-14.815,11.204
		c-0.464,1.627-2.159,2.147-2.118,4.228c-0.582-1.711-0.31-3.709-0.235-5.707c0.067-1.802-0.295-4.05,0.235-5.497
		c0.586-1.6,5.917-5.302,7.526-6.554c2.958-2.302,5.798-4.281,7.997-6.129c0.058-0.23,0.467-0.145,0.47-0.423
		C180.633,415.807,179.464,419.425,180.145,422.511z"/>
	<path fill-rule="evenodd" clip-rule="evenodd" fill="#FFFFFF" d="M179.91,424.415c0.74,3.28,0.753,7.215,0.94,10.991
		c-7.002,3.501-12.311,8.524-18.108,13.107c-0.105-3.129,0.079-7.063,0-9.936C167.898,433.346,173.736,428.729,179.91,424.415z"/>
	<path fill-rule="evenodd" clip-rule="evenodd" fill="#FFFFFF" d="M181.086,437.309c0.415,2.447,0.167,6.56,0.236,9.936
		c-7.329,2.996-13.368,8.279-18.815,12.263c-0.461-1.991,0.479-6.891,0-8.88C168.782,446.262,174.157,441.089,181.086,437.309z"/>
	<path fill-rule="evenodd" clip-rule="evenodd" fill="#FFFFFF" d="M606.755,447.88c-2.077,5.954-3.596,12.412-5.408,18.604
		c-1.838-1.502-1.527-3.951-2.116-5.921c-0.543-1.818-1.632-3.513-2.116-5.285c-1.041-3.802-1.785-7.79-3.527-11.627
		C598.424,440.289,605.708,443.815,606.755,447.88z"/>
	<path fill-rule="evenodd" clip-rule="evenodd" fill="#FFFFFF" d="M146.75,443.651c0.201-0.039,0.222,0.084,0.236,0.212
		c3.623,11.677,2.41,25.802-4.468,34.881c-5.997,7.915-15.355,13.057-26.811,16.278c-7.011,1.972-14.93,2.151-22.341,3.383
		c2.277-2.11,5.54-2.945,7.995-4.864c0.665-0.518,0.958-1.402,1.647-1.903c0.825-0.595,2.147-0.808,3.058-1.267
		c1.962-0.988,3.882-2.416,5.879-3.594c5.78-3.412,10.847-7.386,15.521-12.05c2.994-2.988,5.374-6.539,8.23-9.936
		c1.328-1.579,2.835-3.183,3.999-5.073C142.672,454.874,144.765,450.181,146.75,443.651z"/>
	<path fill-rule="evenodd" clip-rule="evenodd" fill="#FFFFFF" d="M591.705,444.708c2.094,6.644,3.752,14.808,5.645,20.929
		c-1.256,1.478-2.025,3.394-2.589,5.497c-5.28-1.806-9.819-4.278-14.814-6.342C582.399,456.779,585.448,449.302,591.705,444.708z"/>
	<path fill-rule="evenodd" clip-rule="evenodd" fill="#FFFFFF" d="M181.556,459.084c-7.232,3.574-12.981,8.482-19.284,12.896
		c0.905-4.877-1.426-8.839,1.881-11.629c2.19-1.845,5.587-3.462,8.466-5.284c3-1.897,5.741-3.857,8.23-5.284
		C181.848,452.338,181.383,455.493,181.556,459.084z"/>
	<path fill-rule="evenodd" clip-rule="evenodd" fill="#FFFFFF" d="M607.931,450.417c1.941,3.891,2.315,9.192,3.527,13.74
		c-1.945,2.55-5.896,3.297-8.231,5.496c-0.836-2.725,0.566-5.559,1.413-8.243C605.773,457.811,606.848,453.867,607.931,450.417z"/>
	<path fill-rule="evenodd" clip-rule="evenodd" fill="#FFFFFF" d="M659.672,475.784c-2.386-1.345-2.352-4.508-3.057-7.187
		c-0.619-2.337-1.938-4.546-2.354-6.767c-0.262-0.678-0.946-0.98-1.175-1.691c2.028-1.25,5.095-0.775,6.82,0.424
		c2.555,1.776,4.778,8.376,4.233,10.781C663.662,473.451,660.808,474.487,659.672,475.784z"/>
	<path fill-rule="evenodd" clip-rule="evenodd" fill="#FFFFFF" d="M656.849,475.361c-0.484,0.622-1.065,1.158-1.412,1.903
		c-2.805-1.355-3.87-4.272-7.291-5.073c0.753,3.838,7.285,4.299,7.058,9.724c-2.447,1.396-5.961,1.829-7.762,3.806
		c3.19,0.542,4.958-2.024,7.995-2.326c0.923,1.313-0.361,2.62-0.705,3.806c-1.258,4.334-2.332,8.819-3.292,13.952
		c-1.209-0.183-1.312-1.357-2.351-1.69c-3.476-10.467-3.491-28.105,2.351-38.264C654.558,465.197,654.42,470.956,656.849,475.361z"
		/>
	<path fill-rule="evenodd" clip-rule="evenodd" fill="#FFFFFF" d="M181.322,461.831c1.365,2.744,0.321,6.902,0.94,9.937
		c-8.296,3.395-14.425,8.737-20.225,14.376c-0.06-3.771,0.064-7.552,0.235-11.416C168.227,470.074,174.654,465.844,181.322,461.831z
		"/>
	<path fill-rule="evenodd" clip-rule="evenodd" fill="#FFFFFF" d="M579.477,466.059c4.838,2.486,10.161,4.534,15.05,6.977
		c0.185,1.082-0.33,1.536-0.236,2.538c-5.635,1.345-9.957,3.872-15.285,5.494C578.504,475.892,578.913,471.267,579.477,466.059z"/>
	<path fill-rule="evenodd" clip-rule="evenodd" fill="#FFFFFF" d="M611.929,474.303c-2.226-0.119-7.168-0.404-9.407,0
		c-0.01-1.066,0.093-2.032,0.472-2.747c2.144-2.23,5.846-3.061,8.229-5.072C612.644,468.485,611.671,471.48,611.929,474.303z"/>
	<path fill-rule="evenodd" clip-rule="evenodd" fill="#FFFFFF" d="M599.23,467.327c1.176,3.746-0.305,7.543-1.646,10.149
		c-2.013-2.67-0.404-7.853,0.941-10.149C598.759,467.327,598.996,467.327,599.23,467.327z"/>
	<path fill-rule="evenodd" clip-rule="evenodd" fill="#FFFFFF" d="M664.374,473.672c0.966,2.076,0.641,4.286,0.706,7.608
		c-1.754-0.678-3.02-1.796-4.468-2.748C661.239,476.35,663.373,475.518,664.374,473.672z"/>
	<path fill-rule="evenodd" clip-rule="evenodd" fill="#FFFFFF" d="M182.026,474.303c0.415,3.235,0.372,6.765,0.707,10.781
		c-4.134,0.866-6.058,3.717-8.231,6.344c-3.674-0.505-7.969-0.447-12.229-0.424c-1.25-2.966-0.052-3.542,2.351-5.284
		c4.142-3.002,12.372-9.137,16.699-11.417C181.496,474.213,181.84,474.378,182.026,474.303z"/>
	<path fill-rule="evenodd" clip-rule="evenodd" fill="#FFFFFF" d="M611.695,475.784c-0.544,6.143-0.274,12.028-3.998,15.645
		c-1.953-4.799-4.563-9.006-6.82-13.531C601.429,474.232,607.828,476.414,611.695,475.784z"/>
	<path fill-rule="evenodd" clip-rule="evenodd" fill="#FFFFFF" d="M657.789,476.841c0.382-0.06,0.405,0.2,0.707,0.213
		c-0.136,1.5-0.342,2.935-0.237,4.65C655.833,481.142,657.827,478.57,657.789,476.841z"/>
	<path fill-rule="evenodd" clip-rule="evenodd" fill="#FFFFFF" d="M438.84,477.264c0.033,6.001-2.655,9.435-6.115,13.106
		c-3.675,3.901-4.962,4.815-10.582,6.764c-2.421,0.84-4.412,1.714-7.29,1.271c-3.594-0.555-4.864-3.848-7.291-5.497
		c-2.173-4.432-4.121-8.928-5.644-15.011C414.636,477.996,426.791,478,438.84,477.264z"/>
	<path fill-rule="evenodd" clip-rule="evenodd" fill="#FFFFFF" d="M588.177,501.999c-6.541-3.513-8.179-11.509-8.937-19.661
		c5.004-1.634,9.868-3.392,14.817-5.073c2.392,0.962,0.255,4.548-0.706,6.977C591.291,489.445,590.129,496.721,588.177,501.999z"/>
	<path fill-rule="evenodd" clip-rule="evenodd" fill="#FFFFFF" d="M598.996,479.378c2.249,5.448,4.567,10.834,7.524,15.645
		c-3.028,4.352-10.013,10.604-17.638,7.608c3.223-7.319,4.924-16.009,7.996-23.464C597.653,479.177,598.05,479.523,598.996,479.378z
		"/>
	<path fill-rule="evenodd" clip-rule="evenodd" fill="#FFFFFF" d="M660.14,480.223c1.775,0.731,2.947,2,4.939,2.537
		c-0.189,3.861-0.958,6.003-1.646,9.514C662.571,488.16,659.739,484.777,660.14,480.223z"/>
	<path fill-rule="evenodd" clip-rule="evenodd" fill="#FFFFFF" d="M658.259,484.452c1.311,0.42,1.555,3.336,2.354,5.707
		c0.627,1.863,2.158,3.707,2.117,4.863c-0.121,3.322-6.639,5.803-10.112,6.765C654.037,495.595,655.585,489.515,658.259,484.452z"/>
	<path fill-rule="evenodd" clip-rule="evenodd" fill="#FFFFFF" d="M182.498,486.988c0.993,1.357,0.897,3.948,0.705,5.286
		c-2.161-0.313-4.417-0.54-6.821-0.637C177.831,489.165,179.941,488.53,182.498,486.988z"/>
	<path fill-rule="evenodd" clip-rule="evenodd" fill="#FFFFFF" d="M825,492.061c-3.666-0.495-8.144-1.513-12.463-1.69
		c-4.688-0.193-9.615,0.498-14.111,0c-2.478-0.273-4.699-1.233-7.055-1.479c-2.759-0.288-5.37-0.344-8.232-0.424
		c-5.207-0.146-10.362-0.827-15.757-0.633c-30.449,1.092-65.469-1.088-99.714,0.845c0.418-2.916,0.595-6.004,1.175-9.725
		c7.178-2.054,17.395-0.325,24.929-1.901c0.683-0.548,0.563-2.348,0.236-3.171c1.002,0.084,2.137-0.462,1.646-1.059
		c0.631-6.204,1.841-12.266,2.353-18.391c0.522-6.28,0.229-12.483,0.704-18.604c0.371-4.786,0.523-10.825,0.706-15.856
		c0.609-16.796-0.21-38.44-0.706-58.979c-0.326-13.581-2.594-27.771-2.586-43.127c0.196-0.944,1.506,0.372,2.352,0.212
		c-1.125-3.9-3.738-7.295-5.881-10.993c-6.386-11.033-13.631-22.252-20.225-33.189c2.234-0.434,3.208-1.466,3.764-2.96
		c1.37-3.688,1.458-10.221,0.235-14.164c-0.266-0.854-0.979-2.341-0.94-2.959c0.133-2.168,4.345-4.233,4.468-6.766
		c5.244-0.862,7.597-5.707,6.82-11.203c2.646-4.327,5.013-8.991,7.291-13.741c1.105-2.311,2.504-4.636,3.527-6.977
		c1.086-2.483,0.831-5.229,2.587-7.399c-11.393-23.178-22.516-46.885-39.274-65.745c7.774,6.276,24.492,11.615,40.686,8.032
		c0.786-0.174,1.619-0.827,2.587-1.057c1.396-0.331,3.485,0.271,2.822-1.48c-0.104-0.272-1.858-1.999-2.352-2.537
		c-6.655-7.25-15.242-16.054-22.343-23.254c-8.799-8.922-16.854-19.431-25.869-26.636c-4.187,5.018-3.989,13.6-3.998,20.928
		c-0.01,7.552,1.514,15.812,4.938,21.563c-0.486,0.326-1.705-1.095-2.351-1.902c-0.948-1.188-0.896-1.569-0.707-2.748
		c-2.276-1.62-3.727-3.855-5.643-5.708c-5.709-5.524-12.349-10.057-19.755-14.375c-9.605-5.6-20.481-10.236-32.455-13.53
		c-6.167-1.696-12.913-3.099-19.99-3.594c-7.125-0.498-14.288-1.807-21.4-2.114c-7.021-0.303-13.605-0.583-19.989-1.268
		c-7.073-0.76-13.8-0.978-20.462-0.846c-0.555,9.559,2.57,18.86,4.234,27.904c1.749,9.498,2.854,18.913,6.349,27.059
		c-14.196-1.956-28.613-1.628-41.391,1.057c-1.322-0.735-2.439-3.429-3.292-5.285c8.184-2.508,18.502-3.099,19.988-11.627
		c2.021-0.747,5.392-0.063,5.882-1.691c0.67-2.231-3.31-2.576-5.646-3.171c-1.851-5.735-6.227-9.2-12.229-11.204
		c-0.296-1.08-0.215-2.504-0.47-4.228c-0.201-1.35-1.158-3.312-0.94-4.017c0.457-1.488,2.156-0.355,2.352-2.114
		c-0.84-1.334-3.393-1.861-5.409-1.479c0.626,1.563,1.749,2.741,2.353,5.285c0.48,2.026,0.629,4.295,0.94,6.342
		c-1.733-0.151-3.327-0.083-4.939,0.634c-1.325-2.291-4.043-4.633-4.938-7.188c-0.497-1.414,0.382-2.219-0.236-3.594
		c-1.307-0.379-3.449-0.114-4.233,0.634c-0.23,2.068,2.482,1.012,2.821,2.114c0.841,3.474,2.99,5.77,4.938,8.245
		c-5.191,4.326-2.388,13.5-0.47,19.66c-5.766,1.919-15.629,3.103-23.517,4.862c-2.864,0.639-6.07,0.725-6.585,2.326
		c-1.132,3.506,3.129,4.586,7.055,4.438c0.006,1.293-0.69,2.367-0.705,4.228c-0.009,1.119,0.759,2.562,0.471,3.383
		c-0.393,1.112-4.645,2.397-7.057,3.382c-16.882,6.898-30.752,17.187-42.096,28.75c-6.749,6.88-12.122,13.888-16.933,23.042
		c-2.011,3.827-4.632,8.034-6.82,12.896c-0.952,2.115-1.45,4.447-2.587,7.188c-0.808,1.946-2.877,5.451-2.587,7.187
		c0.366,2.186,3.017,1.533,4.469,3.383c-4.015,18.145-9.834,36.698-14.347,56.023c-1.141,4.885-1.505,9.946-2.586,15.007
		c-1.03,4.823-2.021,9.71-3.058,14.588c-0.987,4.647-1.246,9.657-2.117,14.587c-1.823,10.316-2.462,19.587-3.763,30.651
		c-0.627,5.345-0.745,10.778-1.41,16.067c-1.306,10.381-3.048,20.313-4.234,28.116c-2.088,13.76-4.267,28.108-4.468,45.449
		c-0.029,2.468-0.365,5.066-0.235,7.612c0.118,2.293-0.134,5.902,0.47,7.188c0.692,1.472,4.125,3.867,6.115,4.017
		c1.461,0.108,3.38-0.713,5.41-0.846c11.587-0.754,28.202-0.327,38.569-0.424c1.901,6.404,4.125,13.074,7.76,17.546
		c-6.196-0.976-12.555,0.53-18.108,1.27c-2.326,0.311-4.079,0.771-3.997,2.324c0.153,2.972,11.941,2.215,15.051,2.327
		c6.227,0.224,11.296-0.438,16.932-0.424c1.487,0.004,2.913,0.651,4.469,0.635c24.913-0.256,53.207,0.052,80.195,0.424
		c21.6,0.296,42.668,0.877,63.967,1.479c3.549,0.1,7.185-0.031,10.818,0.211c3.614,0.241,7.253-0.181,10.584,0.212
		c3.272,0.383,5.45,1.52,8.702,1.48c1.603-0.022,3.154-0.138,4.468-0.424c1.264-0.275,2.43-1.135,3.762-1.269
		c4.169-0.423,9.326,0.038,13.877,0.212c13.406,0.508,27.628-0.028,40.686,0.21c18.047,0.328,36.364-0.363,54.089-1.48
		c17.187-1.081,34.637-1.615,51.505-4.015c12.975-1.848,25.669-1.02,39.511-2.114c5.663-0.448,12.332-0.046,16.932-1.479
		c2.07-0.645,3.862-2.195,6.114-2.326c0,10.852,0,21.704,0,32.556c-275.034,0-549.953,0-825,0C0,350.495,0,175.736,0,0.98
		c275.035,0,549.953,0,825,0C825,164.665,825,328.387,825,492.061z M507.512,33.113c-1.623-1.234-4.055-2.82-6.586-2.537
		c0,0.282,0,0.564,0,0.846c1.732,1.049,3.908,1.702,5.41,2.959c-1.071,0.661-2.987,0.558-3.059,2.114
		c1.338,1.11,2.825-0.487,4.234-0.634c0.237,1.125,0.705,2.044,2.115,2.114c0.839-0.859-0.674-2.274-0.235-2.749
		c1.346,0.286,3.768,0.487,4.234-0.634c-0.805-1.057-3.397-0.337-4.47-0.634c0.534-1.61,2.615-2.561,2.117-4.439
		C508.687,28.7,509.179,32.407,507.512,33.113z M371.11,34.593c-0.523-0.463-1.553-1.302-2.588-0.634
		c0.077,1.34,1.677,1.311,1.882,2.537c-1.343,0.485-3.501,0.235-3.528,1.903c2.123,0.005,3.219-0.912,4.938-1.269
		c0.397,1.334,0.413,3.013,2.117,3.172c0.853-0.91-0.475-2.754-0.94-3.806c0.972,0.494,2.321-0.239,3.293-0.423
		c0-0.352,0-0.704,0-1.057c-1.365-0.723-2.576,0.305-3.764,0.423c0.703-1.13,2.328-1.432,2.352-3.172
		C372.704,31.415,372.6,34.142,371.11,34.593z M220.125,49.602c-0.277-0.244-0.832-0.24-1.411-0.212
		c-0.416,1.458-0.307,3.389-0.94,4.65c-1.2-0.401-2.604-0.619-3.528-1.269c-1.257,1.591,2.151,1.788,3.292,2.537
		c-0.125,1.157-1.284,1.382-1.411,2.537c1.974,0.813,1.978-1.854,3.058-2.537c1.153,0.373,1.972,1.047,3.762,0.846
		c0.5-1.649-1.937-0.656-2.117-1.691c1.044-0.119,1.733-0.557,2.587-0.846c0-0.352,0-0.705,0-1.057
		c-1.542-0.836-3.36,0.882-4.232,0.634C219.619,52.106,219.832,50.818,220.125,49.602z M741.043,65.668
		c-1.364-0.748-1.43-2.661-3.293-2.959c-0.271,1.959,2.343,3.091,3.058,4.862c-1.305,0.448-3.736-0.117-3.527,1.691
		c1.377,0.543,3.367-0.027,4.468-0.423c0.27,1.026,0.665,1.94,2.116,1.903c0.875-0.776-0.511-2.122-0.235-2.326
		c1.045-0.119,2.762,0.368,2.822-0.634c-0.952-0.836-3.401-0.325-3.997-1.48c0.729-1.248,2.221-1.809,2.116-3.805
		C742.165,61.636,742.219,64.729,741.043,65.668z M65.379,120.421c1.73,1.344,2.788-1.009,3.998-1.48
		c1.014,0.473,2.317,1.661,3.527,1.269c0.209-1.737-2.188-1.133-2.586-2.325c1.253-0.565,3.439-0.292,3.998-1.48
		c-1.245-1.281-3.943,0.596-4.704,0.423c0.263-1.732,0.868-3.241,0-4.651c-0.392,0-0.783,0-1.175,0
		c-0.373,1.639-0.301,3.676-0.471,5.496c-1.205-0.108-4.164-1.324-4.704,0c0.777,1.017,3.75,0.623,4.704,0.846
		C66.986,119.048,66.063,119.627,65.379,120.421z M335.833,146c-1.585-0.23-3.13-1.51-4.939-0.846
		c-0.416,2.558,3.988,0.785,4.939,2.114c-1.073,0.585-2.492,0.86-3.058,1.902c-0.075,0.49,0.039,0.812,0.235,1.057
		c2.399,0.042,2.568-1.92,4.469-2.326c0.99,1.107,2.355,2.923,4.468,2.326c0.04-2.291-2.865-1.935-3.527-3.594
		c1.459-0.52,4.655,0.521,4.233-1.691c-1.934-0.708-3.539,0.593-5.174,0.846c0.183-1.851,0.728-3.785-0.236-5.074
		c-0.392,0-0.784,0-1.176,0C335.617,142.423,336.184,144.016,335.833,146z M257.283,185.955
		c-5.217,7.013-9.374,14.378-12.464,22.408c-2.095,5.44-4.448,10.95-5.88,17.124c-1.418,6.117-3.466,12.449-3.998,17.968
		c-1.564,16.272,0.735,30.396,4.233,45.24c3.169,13.447,9.188,24.528,15.757,35.726c4.302,7.336,10.156,13.366,15.521,19.449
		c5.57,6.317,11.154,13.136,17.874,17.546c2.086,1.372,4.933,2.528,7.761,3.807c2.852,1.288,5.867,3.063,8.232,3.593
		c0.977,0.219,2.078,0.028,3.058,0.213c2.281,0.427,4.491,1.539,6.82,2.114c9.759,2.405,20.775,4.138,32.924,3.169
		c2.365-0.188,5.392,0.454,7.525-1.056c-1.449-2.363-4.892-3.651-7.055-5.496c-1.427-1.219-2.638-2.978-3.998-4.441
		c-1.389-1.49-3.095-2.761-4.469-4.227c-2.704-2.887-5.236-6.095-8.231-8.879c-2.906-2.7-5.532-5.88-8.231-8.879
		c-13.645-15.163-28.075-29.548-36.216-48.832c-3.307-7.834-7.128-15.433-9.643-23.89c-5.178-17.418-8.954-36.119-9.407-54.964
		c-0.279-11.612-0.248-24.768-0.706-35.092c-0.156,0-0.314,0-0.47,0C260.888,179.365,260.041,182.248,257.283,185.955z
		 M736.339,192.93c-0.671-0.678-2.785-2.821-3.527-0.845c0.612,0.858,1.87,1.138,2.586,1.903c-0.706,0.563-2.284,0.342-2.352,1.48
		c1.066,0.667,2.421-0.215,3.059-0.635c0.24,1.334,0.641,2.524,1.88,2.96c1.568-0.626-0.073-1.995-0.234-2.96
		c0.924-0.156,2.69,0.446,2.587-0.634c-0.167-0.766-1.713-0.291-2.587-0.422c0.476-1.333,2.285-1.469,2.351-3.171
		C738.054,189.862,737.525,192.206,736.339,192.93z M163.448,225.487c-0.865-0.262-3.166-1.31-3.998-0.211
		c0.636,1.612,3.811,0.943,4.468,2.537c-0.437,1.791-2.115,2.467-2.116,4.65c3.281,0.486,1.502-3.973,4.233-4.65
		c1.129,0.225,4.12,1.435,4.468-0.212c-0.256-1.179-2.715-0.378-3.292-1.268c1.02-1.323,4.68-1.214,3.763-3.594
		c-0.182-0.048-0.463-0.006-0.471-0.211c-1.753,0.185-2.147,1.593-3.762,1.902c-0.081-1.9,0.417-4.32-0.941-5.074
		C161.3,218.94,164.483,223.266,163.448,225.487z M54.091,296.516c-0.278-0.243-0.833-0.239-1.412-0.211
		c-0.417,1.458-0.306,3.389-0.941,4.651c-1.436-0.33-2.613-0.893-3.998-1.27c0,1.973,2.531,1.67,3.763,2.537
		c-0.125,1.156-1.284,1.384-1.411,2.537c1.974,0.813,1.977-1.854,3.057-2.537c0.916,0.218,2.854,1.59,3.763,0.423
		c0.081-1.129-2.03-0.29-2.117-1.269c1.044-0.117,1.732-0.556,2.586-0.845c0-0.353,0-0.705,0-1.056
		c-1.541-0.838-3.36,0.88-4.233,0.632C53.584,299.022,53.797,297.733,54.091,296.516z M172.15,337.528
		c-2.96,1.873-6.85,6.22-8.938,9.091c-0.05,1.103,2.188,1.036,1.647,1.902c-2.495,18.563-1.523,37.603-3.293,56.444
		c-2.735,29.108-4.928,60.184-0.941,86.039c-9.869,0.869-20.712,0.847-30.102,2.326c4.316-2.47,7.551-5.567,10.818-9.09
		c1.353-1.461,2.741-3.064,3.763-4.651c6.492-10.082,8.681-27.077,1.646-38.476c-2.87,2.258-3.799,5.586-5.173,8.455
		c-4.374,9.14-10.836,16.806-17.873,23.678c-4.687,4.577-10.43,8.223-15.757,12.262c-5.335,4.045-10.789,7.962-16.462,11.626
		c-13.369,0.3-28.769,0.72-41.626,1.691c-1.042,0.079-3.295-0.592-3.292,0.847c-0.03,1.154,2.027,0.432,3.058,0.635
		c0.032,0.676-0.232,1.617,0.705,1.479c19.264,0.147,38.052-2.15,55.032-1.691c7.707,0.208,15.555-0.404,23.283-0.847
		c4.535,1.297,8.532-0.144,12.935-0.423c1.239-0.077,2.67-0.167,3.998-0.21c1.581-0.054,3.351-0.495,4.703-0.423
		c0.494,0.026,1.088,0.572,1.646,0.633c1.204,0.135,2.039-0.342,3.292-0.21c0.896-0.172,0.722,0.62,1.411,0.633
		c10.775,0.141,22.641-0.29,32.69-1.479c1.008-1.772,4.493-1.316,5.409-3.172c-0.469-2.257-5.172-0.706-7.291-1.479
		c-0.918-18.125-0.913-40.155-2.352-60.249c-0.667-9.313-1.312-18.665-1.881-27.904c-0.407-6.6-1.041-14.142-0.705-20.084
		c-1.447-3.104-0.809-6.568-0.942-9.935c-0.363-9.164-1.596-18.729,0-27.695C177.941,346.291,176.535,334.756,172.15,337.528z
		 M734.692,361.416c-1.139-0.95-1.755-2.366-3.998-2.324c-0.932,2.193,2.868,1.727,3.293,3.383
		c-0.785,0.985-3.479,0.255-3.058,2.323c1.699,0.7,2.913-0.726,4.468-0.845c-0.016,1.424-0.278,3.07,1.412,2.959
		c1.034-0.448-0.323-1.803,0.471-2.535c0.518,0.23,2.354,0.969,2.351-0.211c-0.973-0.747-2.511-0.986-3.526-1.691
		c1.227-0.872,2.471-1.724,3.057-3.172C736.921,357.827,736.521,361.166,734.692,361.416z M135.697,391.858
		c-0.827-0.64-1.567-2.335-3.292-1.479c-0.416,1.994,1.891,1.541,2.117,2.959c-1.069,0.238-2.118,0.492-2.352,1.48
		c1.179,1.654,2.907-0.447,4.233-0.635c0.306,1.063,0.541,2.192,1.646,2.536c0.934-0.689-0.287-1.803-0.47-2.747
		c1.521-0.112,3.844,0.496,3.528-1.269c-1.419,0.134-2.802,0.3-4.469,0.212c0.894-1.241,2.252-2.064,2.587-3.806
		C137.014,388.35,136.826,390.97,135.697,391.858z M260.575,412.153c-0.523-0.462-1.552-1.302-2.587-0.634
		c0.077,1.34,1.677,1.31,1.882,2.537c-1.343,0.482-3.503,0.233-3.528,1.901c2.122,0.006,3.219-0.911,4.938-1.269
		c0.397,1.335,0.412,3.013,2.116,3.17c0.854-0.907-0.474-2.752-0.94-3.803c0.972,0.494,2.321-0.239,3.292-0.423
		c0-0.353,0-0.706,0-1.059c-1.364-0.723-2.574,0.306-3.763,0.424c0.703-1.129,2.327-1.432,2.351-3.172
		C262.171,408.976,262.067,411.703,260.575,412.153z M55.971,443.44c-0.721-0.87-1.462-2.72-3.292-1.903
		c0.064,1.634,2.216,1.391,2.352,2.96c-1.114,1.041-4.769-0.199-5.409,1.27c0.741,0.963,2.997,0.154,4.233,0.21
		c0.077,0.776-0.2,1.871,0.236,2.326c1.832,0.098,0.846-2.339,2.351-2.536c1.449-0.117,1.525,1.931,3.058,1.057
		c-0.044-1.582-2.056-1.395-2.353-2.75c1.416-1.052,3.469-1.533,3.764-3.593C58.57,440.021,57.806,442.746,55.971,443.44z
		 M748.333,463.101c-0.771,0.042-1.592-2.036-2.822-1.48c-0.432,1.727,1.578,1.258,1.882,2.324
		c-0.719,0.411-2.266,0.078-2.351,1.059c0.691,1.071,2.285-0.021,3.291,0c-0.52,1.67-0.115,3.38,1.646,3.594
		c0.048-0.237,0.26-0.33,0.47-0.423c0.119-1.095-1.012-1.064-0.705-2.327c0.671,0.385,1.043,1.037,2.351,0.848
		c0.059-1.675-2.025-1.42-2.351-2.75c0.788-1.265,3.208-1.061,3.057-3.17C750.14,459.607,749.769,463.018,748.333,463.101z"/>
	<path fill-rule="evenodd" clip-rule="evenodd" fill="#FFFFFF" d="M505.16,128.454c-0.677,0.942-2.507,0.848-4.233,0.845
		c0-0.493,0-0.987,0-1.479C503.39,127.165,503.75,129.413,505.16,128.454z"/>
	<path fill-rule="evenodd" clip-rule="evenodd" fill="#FFFFFF" d="M570.774,231.194c1.278-7.037,1.198-12.706,0.47-21.351
		c-1.206-14.314-4.522-29.834-9.877-39.532c14.457,12.655,28.473,25.707,43.508,37.841c-1.383,0.605-1.986,1.625-4.469,1.902
		c-4.062,0.455-9.047-1.757-11.287-0.422c-2.097,1.247-1.423,4.043,1.879,4.228c-0.9,3.122-6.389,3.943-4.702,8.033
		c1.189,1.03,4.422,0.529,4.939,0c0.018,1.824-1.735,2.479-1.176,4.229c0.984,3.086,6.742,0.28,7.524-1.691
		c-0.545,2.066,0.235,3.823,1.882,4.017c2.208,0.26,2.393-1.669,3.762-2.748c-0.408,2.437,1.001,3.414,2.589,3.383
		c3.831-0.079,3.257-6.717,2.822-10.359c0.943-0.983,1.97-1.892,2.82-2.96c18.059,15.479,35.265,31.72,50.799,49.467
		c-0.521,2.823,0.309,5.008,0.941,7.188c0.383,1.324,0.16,2.56,0.704,3.17c1.166,1.31,4.606,1.271,5.411-0.844
		c6.787,12.369,14.849,23.81,22.105,36.571c0.11,0.257,1.598,0.795,0.472,0.845C652.775,284.041,613.508,256.061,570.774,231.194z"
		/>
	<path fill-rule="evenodd" clip-rule="evenodd" fill="#FFFFFF" d="M575.242,473.883c-0.93,0.162-3.202-0.688-4.938-0.847
		c-3.037-0.279-6.455,0.501-9.172-0.212c-3.253-14.314-1.258-28.522,0-42.702c0.602-6.78-0.273-14.195,0-21.351
		c0.266-6.92-0.13-13.764-0.235-20.296c-0.127-7.866,0.744-15.242,0.235-22.196c-0.459-6.278-0.211-12.111-0.235-17.546
		c-0.024-5.515,1.146-10.753,0.941-16.277c-0.191-5.111-0.759-10.341-0.235-15.855c-0.985-7.687-0.981-15.849-1.176-25.157
		c-0.358-17.287,0.979-36.091-0.235-57.5c3.049-0.402,6.364-2.017,9.173-1.269c2.083,0.555,5.548,3.445,7.995,5.073
		c2.802,1.865,5.763,3.497,7.996,4.863c16.108,9.859,30.479,21.471,46.801,30.864c11.061,6.366,20.362,14.263,30.337,21.352
		c10.227,7.267,19.763,14.829,30.572,20.929c-0.223,11.272,0.941,22.763,1.413,34.458c0.443,11.033,1.105,20.818,1.175,32.555
		c0.062,10.584,0.531,19.862,0.235,29.386c-0.395,12.681-0.876,25.772-1.881,38.052c-0.263,3.195-0.064,6.464-0.471,9.724
		c-0.568,4.556-2.484,8.743-1.412,13.107c-4.336,1.003-7.857,0.811-12.229,0.847c0.598-10.123,1.288-18.083,1.882-27.906
		c0.28-5.701,0.659-12.852,0.703-16.912c0.024-1.909-0.294-2.935,0.237-4.438c-0.219-1.901-0.251-4.055-0.237-6.344
		c0.016-1.979,0.601-3.92,0.707-5.708c0.292-4.858,0.258-10.236,0.236-15.22c-0.026-5.025,0.285-10.026-0.706-14.8
		c-0.595-2.854-2.87-7.199-7.525-6.553c-3.147,0.438-5.112,5.494-6.115,9.303c-2.067,7.847-1.66,13.988-2.351,23.254
		c-0.749,10.025,0.059,20.03-0.236,28.961c-0.223,6.744-0.289,17.068-0.235,26.848c-2.074-4.123-7.003-7.565-13.17-6.553
		c-1.455,0.237-3.882,1.494-4.939,2.535c-3.481,3.443-2.895,10.024-4.231,14.8c-8.462-0.698-20.213-0.659-27.517,0
		c0.256-0.542-0.715-1.008,0-1.268c-0.547-1.16-0.069-0.154,0-2.115c0.121-3.452-0.961-7.349-1.412-11.204
		c-0.429-3.682-1.953-7.198-2.82-10.358c-2.335-5.303-9.168-11.77-17.875-9.302c-1.17,0.332-2.06,1.152-3.293,1.902
		c-1.161,0.708-2.561,1.106-3.292,1.691c-1.565,1.253-3.14,3.965-4.466,6.131C579.512,456.703,575.731,465.585,575.242,473.883z
		 M590.059,278.97c-0.925,1.714-1.098,4.933-1.413,7.823c-0.314,2.888-1.205,5.458-1.408,8.032
		c-0.601,7.548-0.536,17.561,0.468,22.618c0.997,5.025,3.292,11.109,7.291,13.744c4.085,2.688,10.472,2.975,16.227,3.803
		c2.284,0.329,4.776,1.301,7.528,1.481c5.879,0.384,15.896-0.644,19.283-2.749c4.6-2.858,4.444-9.253,5.409-15.644
		c0.485-3.223,1.146-7.162,0.704-10.358c-0.232-1.693-1.239-4.163-1.411-5.497c-0.203-1.596,0.232-3.01,0-5.497
		c-0.239-2.585-0.916-7.147-1.88-8.878c-0.902-1.62-3.566-3.497-5.879-4.649c-4.91-2.447-13.236-4.081-19.757-6.345
		c-2.341-0.811-4.932-2.637-7.29-3.169c-1.9-0.429-5.624-0.577-7.289-0.425C596.055,273.686,591.63,276.052,590.059,278.97z"/>
	<path fill-rule="evenodd" clip-rule="evenodd" fill="#FFFFFF" d="M515.036,300.534c-3.818-0.09-7.268,1.498-10.583,1.479
		c-0.926-0.006-1.23-0.465-2.116-0.635c-2.096-0.399-5.446-0.009-8.23,0.211c-4.871,0.388-9.835,1.135-14.816,2.326
		c1.222-4.805,3.984-10.016,3.292-15.643c-0.103-0.837,0.366-2.617,0.236-3.807c-0.936-8.513-5.644-14.982-13.17-19.237
		c-0.262-2.626-1.472-8.063-2.117-11.415c-2.89,0.135-4.63,2.211-7.055,3.594c-1.006,0.573-2.374,1.176-3.527,1.901
		c-1.207,0.761-2.127,1.834-3.293,2.115c-1.058,0.254-2.242-0.174-3.058-0.212c-14.146-0.641-24.888,2.688-33.396,9.514
		c6.709-11.798,20.464-19.093,34.571-24.945c7.066-1.54,12.678-3.636,22.106-2.959c2.528,0.181,4.98,0.584,7.292,0.845
		c8.443,0.955,15.595,2.381,20.459,6.766c6.572,5.924,11.786,17.148,13.875,26.214c1.368,5.939,1.713,13.421,2.354,20.081
		c0.195,2.039,0.654,4.93,0.704,8.457c0.135,9.292-1.093,18.859-1.411,27.694c-0.141,3.947-0.814,7.669-1.41,11.203
		c-0.867,5.147-0.152,10.221-1.647,14.587c-3.932-2.666-7.288-5.852-11.053-8.667c2.429-1.92,1.394-4.968-0.706-6.553
		c-0.118-0.821,0.804-0.917,1.178-1.691c0.184-0.387-0.037-1.08,0.235-1.481c-0.054,0.08,1.717-0.657,1.41-1.479
		c-0.083-0.223,3.754-5.816,4.232-6.977c1.285-3.114,5.961-7.596,6.82-12.049c0.182-0.938,0.118-2.071,0-2.96
		c-0.344-2.585-2.21-4.507-1.646-7.821C515.036,306.221,517.491,302.5,515.036,300.534z"/>
	<path fill-rule="evenodd" clip-rule="evenodd" fill="#FFFFFF" d="M461.652,321.885c-1.291-0.178-1.766-1.091-3.057-1.268
		c0.504-1.648-0.93-2.825-2.822-2.961c-1.534-2.357-3.747-4.102-7.056-4.862c-0.861-0.069-1.307,0.233-1.882,0.423
		c-2.78-2.503-6.762-5.056-10.113-6.343c-4.426-2.995-9.179-5.699-14.58-7.821c-0.267-2.578-2.226-3.636-4.703-4.228
		c-0.834-1.224-2.189-1.979-3.528-2.748c-0.618,2.324-2.041,5.588-5.174,6.342c0.593-2.922,2.867-4.329,4.233-6.554
		c-2.264-0.527-2.713,2.333-4.468,2.96c0.489-3.198,1.354-7.039,2.116-9.303c0.567-0.086,0.511,0.388,1.177,0.212
		c0.279-0.396,1.912-0.661,1.41-1.057c2.904-0.632,6.388-3.831,10.349-4.861c-0.282-0.243-0.092-0.537,0-0.212
		c6.615-2.267,14.829-6.102,23.519-6.976c1.297-0.132,2.589,0.265,3.998,0.211c1.032-0.04,1.937-0.455,3.057-0.423
		c2.553,0.076,5.139,0.911,7.995,0.844c1.637-0.035,5.301,2.086,7.762,2.539c5.122,5.513,5.035,14.627,4.703,23.042
		c-0.146,3.68,0.422,7.488-0.472,9.724c-0.631,1.584-3.277,3.229-4.938,4.651c-3.031,2.597-4.645,4.745-7.289,7.188
		C461.812,320.9,461.515,321.199,461.652,321.885z M433.432,285.523c-1.254,0.193-2.878,1.013-2.59,1.902
		c1.403,0.064,1.813-0.767,3.058-0.844c0.429,1.166,1.057,2.152,2.117,2.747c-0.301,0.788-0.751,1.438-0.94,2.325
		c1.5,0.012,1.291-1.517,2.352-1.902c1.668,0.09,2.954-0.164,4.231-0.423c0.058,1.007-0.297,2.383,0.709,2.537
		c0.521-0.658-0.02-2.272,0.47-2.958c0.81-0.753,3.096-0.178,3.292-1.482c-3.157-0.812-5.79,0.916-8.467,0.635
		c-3.035-0.317-2.984-2.26-4.469-4.649C433.031,284.333,433.596,284.601,433.432,285.523z M461.417,299.264
		c0.962,0.513,1.324-0.211,2.352-0.211c0.119,0.882,0.904,1.16,0.941,2.115c-0.273,0.741-0.925,1.14-0.941,2.112
		c1.492,0.143,1.068-1.436,2.118-1.691c0.753,0.797,2.875,0.165,3.762,0.424c-0.166,0.833-0.142,2.063,0.939,2.325
		c0-0.916,0-1.831,0-2.749c0.788-0.349,1.521-0.747,2.824-0.633c-1.027-3.057-6.76-0.126-8.468-2.114
		c-0.506-1.578,0.799-2.883-0.942-3.595C464.032,297.695,463.179,298.267,461.417,299.264z M442.602,304.972
		c1.479,1.537,5.567,4.456,7.29,1.481c-0.73-2.008-3.218-0.864-5.408-0.847c-0.89-0.82,0.003-3.245-1.411-3.594
		C442.455,302.586,442.606,303.848,442.602,304.972z"/>
	<path fill-rule="evenodd" clip-rule="evenodd" fill="#FFFFFF" d="M505.394,330.764c0.431,0.719,0.976-0.135,0.942,0.844
		c0.979-0.034,0.819-1.094,1.411-1.479c-1.722,4.066-6.137,8.273-8.703,11.628c-2.226-0.867-5.844-0.289-7.055,1.057
		c-4.511-3.627-9.207-7.087-14.58-9.936c-0.258-0.538,1.101-0.821,0-0.848c0.12-0.521,1.329-0.223,1.411-1.267
		c0.038-0.601-0.796-0.412-0.472-1.269c-0.379-0.387-0.744,0.148-1.176-0.423c-0.313-1.481-1.141-2.498-2.587-2.961
		c-0.293-3.582-6.944-4.359-8.937-1.691c-1.269-0.409-2.065-1.245-3.058-1.903c2.692-3.921,7.156-6.249,9.878-10.146
		c0.479-0.425,0.46,0.094,0.941,0.212c1.996-3.279,5.286-5.396,9.877-6.343c-0.828,0.947-1.726,1.831-2.116,3.171
		c2.051-0.48,4.801-2.166,7.523-2.748c-1.243,1.63-3.208,2.61-3.762,4.863c3.358-1.07,5.304-3.407,8.702-4.44
		c-0.931,1.137-2.058,2.097-2.587,3.594c1.441,0.027,1.521-1.171,3.057-1.057c0.063,0.619-0.532,0.648-0.47,1.268
		c1.257,0.073,1.651-0.629,2.588-0.844c0.263,0.598-1.497,1.186-1.647,2.112c3.6-0.852,7.407-3.347,11.76-4.227
		c-1.26,1.899-4.659,3.703-5.41,6.765c2.15-0.606,3.904-3.396,6.114-4.65c-0.347,1.944-3.228,4.564-2.588,7.396
		c1.699-1.01,1.907-3.359,3.764-4.227c0.668,3.119-2.39,4.45-2.116,7.4c1.629-0.722,2.025-2.55,3.292-3.594
		c-0.57,2.104-3.5,5.015-3.292,7.819c2.169-1.783,3.517-4.307,5.41-6.341C510.248,321.601,506.503,326.119,505.394,330.764z
		 M475.528,313.851c-1.895,0.271-4.198,1.299-4.234,2.537c1.634-0.574,2.846-1.529,4.705-1.902c0.158,0.492,0.781,0.565,0.939,1.056
		c-0.747,0.603-1.637,1.707-1.177,2.75c1.382-1.19,2.851-3.315,5.175-1.903c0.142,0.788-0.601,1.337,0,1.903
		c0.99-0.238,0.963-1.391,1.411-2.114c1.593-0.476,2.645,0.396,3.999-0.423c-2.969-0.927-7.915-0.073-9.879-1.903
		c-0.354-0.739,0.188-2.281-0.706-2.536C475.16,311.647,475.103,313.264,475.528,313.851z M496.928,328.226
		c-1.424,0.271-2.852,0.538-2.822,2.114c1.171,0.206,1.401-0.432,2.118-0.635c0.354,0.734,1.553,0.079,1.88,0.424
		c-0.459,0.619-1.442,1.646-0.47,2.326c1.041-0.123,0.702-1.482,1.881-1.48c1.462,0.025,1.787,1.07,2.352,1.903
		c0.496-0.473,0.048-1.791,1.411-1.481c0.379,1.187-0.585,1.165-0.705,1.902c0.563-0.127,1.071-0.303,1.88-0.212
		c-0.767-1.095,0.39-1.39,0.472-2.323c-4.03-0.438-8.324-1.133-7.056-5.709c-0.413-0.19-0.388-0.777-0.94-0.844
		C495.992,325.741,496.119,326.794,496.928,328.226z M479.526,330.13c-0.914,4.708,3.744,3.723,7.289,2.958
		c0.11-2.21-3.934-0.689-5.408-1.479c-0.246-0.804,0.945-0.648,0.234-1.268c1.405-0.216,2.471-0.739,2.823-1.903
		C482.594,327.537,481.082,330.002,479.526,330.13z"/>
	<path fill-rule="evenodd" clip-rule="evenodd" fill="#FFFFFF" d="M433.9,495.232c-0.726-0.063,1.586-2.387,2.354-3.382
		c3.295-4.277,6.271-8.827,7.289-15.01c29.616-0.237,60.609-1.288,95.952-0.423c6.878,0.17,13.977,0.212,23.987,0.212
		c4.401,0,7.561,0.014,11.524-1.691c0.63,5.084,0.193,11.236,2.118,16.066c-0.105,0.308-0.206-0.021-0.472,0
		c-20.685-0.132-41.157,0.846-63.733,0.846C486.395,491.85,459.94,494.753,433.9,495.232z"/>
	<path fill-rule="evenodd" clip-rule="evenodd" fill="#FFFFFF" d="M616.164,478.109c10.847-0.429,17.532,0.676,27.28,0.212
		c0.047,4.226-0.206,7.425,0,11.416c-10.457,0.938-19.643,1.535-30.574,1.9C613.739,487.506,615.38,482.748,616.164,478.109z"/>
	<path fill-rule="evenodd" clip-rule="evenodd" fill="#FFFFFF" d="M558.309,473.036c-15.84-0.258-31.819-0.954-47.975-0.635
		c-8.169,0.162-15.423,0.704-23.283,0.635c-8.328-0.074-16.268,0.636-25.635,0.636c-16.861,0-33.334,1.14-50.799,1.056
		c-17.237-0.082-34.58,1.053-50.092,0.634c-2.315,0.949-7.148,1.408-8.702-0.423c-1.994-10.169-0.362-20.088,0.236-28.538
		c0.637-9.007,1.917-18.407,3.293-28.329c1.418-10.239,3.611-20.421,4.703-30.863c1.561-14.925,2.017-30.918,4.704-46.086
		c1.783-10.066,2.676-20.232,4.939-29.807c4.403-18.63,8.601-39.865,13.17-58.347c0.472-1.906,1.193-4.249,2.116-6.553
		c0.806-2.005,2.582-4.695,2.587-6.131c0.005-1.854-1.426-1.17-1.412-2.748c0.028-3.067,2.266-6.946,3.763-10.359
		c0.666-1.519,1.549-3.21,2.351-4.65c7.688-13.804,19.735-24.642,30.809-35.515c3.245-3.186,7.665-5.217,11.758-8.033
		c7.746-5.327,18.135-9.394,27.516-12.896c4.985-1.861,9.627-4.197,14.817-5.497c5.648-1.414,11.563-3.128,17.638-3.594
		c3.641-0.279,8.052,0.178,10.583,0.211c3.362,0.044,6.567-0.481,9.879,0.211c1.473,0.308,3.119,1.32,4.938,2.114
		c1.744,0.762,3.738,1.174,5.175,1.903c3.401,1.727,7.044,5.054,10.346,7.821c6.839,5.733,11.306,11.539,15.053,20.506
		c1.752,4.188,3.533,9.173,3.999,13.318c0.822,7.335,0.779,15.047,0.704,22.62c-0.07,7.435,0.239,14.792,0.471,21.985
		c0.456,14.121,0.126,28.37,0.941,40.166c1.777,25.797,1.563,54.094,2.115,73.99c0.383,13.855-0.254,39.482,0.47,56.443
		c0.308,7.186-0.305,14.277-0.703,21.986C558.227,450.955,556.682,463.079,558.309,473.036z M518.564,366.068
		c0.688-4.283,0.61-8.576,0.706-12.896c0.116-5.215,2.174-10.492,2.587-16.066c0.384-5.178,0.762-10.457,1.175-15.644
		c0.664-8.304,1.183-16.419,0.472-24.099c-0.869-9.383-1.965-19.291-5.174-27.06c-1.4-3.391-3.229-6.733-4.939-9.725
		c-1.563-2.733-4.454-6.446-7.054-9.09c-6.157-6.259-15.662-7.831-27.047-8.667c-2.65-0.195-8.561-1.212-8.702-1.269
		c1.003,0.744-3.021,0.467-2.351,0.21c0.409,0.017,0.73-0.046,0.939-0.21c-8.329,1.009-15.947,1.864-22.576,4.439
		c-6.563,2.55-12.331,6.599-17.639,10.147c-5.37,3.59-10.183,8.313-13.404,13.953c-3.146,5.506-6.274,11.897-7.996,18.392
		c-1.52,5.732-2.037,11.997-3.057,18.18c-1.001,6.069-1.411,12.437-1.411,18.604c0,10.077,0.298,18.995,0.941,27.059
		c0.588,7.378,0.413,15.642,3.998,21.773c11.665-1.111,24.02-0.652,39.04-1.479c6.975-0.385,13.993-0.355,20.694-0.637
		c13.634-0.568,26.835-1.105,38.804-2.112c2.882,0.9,7.057-0.479,10.113-1.058C517.514,367.927,517.656,366.323,518.564,366.068z"/>
</g>
</svg>
