<?xml version="1.0" encoding="utf-8"?>
<!-- Generator: Adobe Illustrator 23.1.0, SVG Export Plug-In . SVG Version: 6.00 Build 0)  -->
<svg version="1.1" id="Capa_1" xmlns="http://www.w3.org/2000/svg" xmlns:xlink="http://www.w3.org/1999/xlink" x="0px" y="0px"
	 viewBox="0 0 842 595" style="enable-background:new 0 0 842 595;" xml:space="preserve">
<style type="text/css">
	.st0{fill:#FFFFFF;}
</style>
<g>
	<path d="M352.42,395.53c-9.06-10.67-18.19-21.3-27.17-32.03c-9.73-11.63-19.2-23.47-25.76-37.29
		c-10.4-21.91-16.8-44.98-19.96-68.99c-2.31-17.55-2.59-35.18-2.29-52.85c0.04-2.56-0.35-5.12-0.54-7.68
		c-0.34-0.2-0.67-0.4-1.01-0.6c-1.85,1.68-4.13,3.07-5.5,5.08c-14.16,20.75-21.26,44.03-23.27,68.81
		c-0.72,8.87,0.12,17.98,1.21,26.86c1.7,13.82,4.96,27.26,10.72,40.13c6.5,14.53,15.69,27.17,25.42,39.56
		c8.68,11.04,19.08,19.07,33.05,22.78c9.77,2.6,19.5,4.67,29.54,5.09c4,0.17,8.05-0.68,12.07-1.06
		C356.76,400.73,354.59,398.13,352.42,395.53z"/>
	<path d="M649.29,152.16c-2.15-3.08-4.08-6.36-6.5-9.22c-8.16-9.66-18.72-16.1-29.71-22.03c-11.79-6.36-24.16-10.83-37.46-12.16
		c-18.58-1.86-37.2-3.33-55.81-4.89c-6.28-0.53-6.59-0.37-5.66,5.93c1.49,10.14,3.38,20.23,5.18,30.32
		c1.31,7.33,2.74,14.63,4.15,22.1c-0.83-0.06-1.73-0.08-2.61-0.19c-10.79-1.3-21.55-1.65-32.27,0.75c-5.16,1.16-5.81,0.57-7.17-5.31
		c3.1-0.98,6.17-2.23,9.37-2.9c6.7-1.4,8.93-6.42,10.57-12.55c0.9,0.43,1.74,0.82,2.57,1.23c0.42,0.21,0.83,0.47,1.24,0.71
		c-0.4-0.93-0.74-2.62-1.21-2.66c-2.93-0.24-3.54-2.62-5.02-4.43c-2.31-2.82-5.31-5.09-8.07-7.54c-0.84-0.75-1.84-1.32-2.77-1.98
		c0,0.28-0.01,0.57-0.01,0.85c-2-0.24-4.9,0.26-5.82-0.86c-2.23-2.73-3.54-6.22-5.53-9.98c-0.08,0.02-1.13,0.24-1.81,0.38
		c2.19,3.71,4.19,7.03,6.09,10.4c0.2,0.35-0.11,1-0.2,1.51c-0.56,3.18-1.62,6.36-1.57,9.52c0.05,3.58,1.09,7.14,1.76,11
		c-1.26,0.34-2.43,0.72-3.63,0.97c-7.35,1.59-14.72,3.06-22.02,4.81c-1.08,0.26-1.85,1.78-2.76,2.71c1.06,1,2,2.18,3.22,2.93
		c0.77,0.47,1.95,0.3,3.05,0.43c0,2.37,0.2,4.54-0.08,6.65c-0.15,1.1-0.96,2.35-1.85,3.05c-1.23,0.96-2.8,1.49-4.26,2.14
		c-13.39,5.98-24.96,14.53-35.36,24.77c-11.55,11.37-19.92,24.85-25.99,39.78c-2.36,5.79-4.38,11.73-6.28,17.7
		c-0.31,0.99,0.46,3.09,1.31,3.52c2.04,1.02,2.13,2.24,1.69,4.13c-3.41,14.76-6.91,29.51-10.07,44.33
		c-2.18,10.23-4.03,20.54-5.71,30.87c-2.45,15.06-4.99,30.12-6.81,45.26c-3.23,26.92-6.21,53.87-8.79,80.86
		c-1.36,14.27-1.64,28.65-2.44,42.98c-0.27,4.78,2.97,6.79,5.7,7.35c1.56,0.32,3.31-0.47,4.98-0.51c11.85-0.24,23.7-0.44,35.54-0.53
		c0.86-0.01,2.25,0.79,2.52,1.54c2.07,5.7,3.92,11.48,5.72,16.85c-4.97,0.63-10.55,1.22-16.08,2.11c-1.29,0.21-2.41,1.43-3.62,2.18
		c1.2,0.6,2.39,1.7,3.6,1.72c8.77,0.2,17.54,0.14,26.3,0.26c18.67,0.27,37.34,0.59,56,0.9c30.76,0.52,61.52,0.97,92.27,1.64
		c6.55,0.14,13.07,1.25,19.62,1.67c2.69,0.17,5.42-0.25,8.12-0.51c1.9-0.18,3.79-0.74,5.68-0.77c33.26-0.49,66.54-0.38,99.77-1.57
		c20.11-0.72,40.12-3.66,60.21-5.2c12.71-0.97,25.48-1.16,38.22-1.8c2.25-0.11,4.5-0.64,6.67-1.25c0.61-0.17,1.2-1.28,1.31-2.04
		c0.05-0.36-1.01-1.19-1.64-1.27c-2.7-0.36-5.43-0.62-8.15-0.73c-4.31-0.18-8.65-0.03-12.94-0.37c-4.4-0.35-8.76-1.47-13.16-1.61
		c-9.66-0.32-19.34-0.24-29.01-0.31c-20.51-0.15-41.03-0.3-61.54-0.43c-6.68-0.04-13.36-0.01-20.23-0.01
		c0.15-1.58,0.34-3.36,0.47-5.15c0.41-5.42,0.47-5.47,5.78-5.68c5.46-0.21,10.92-0.44,16.38-0.76c0.82-0.05,2.09-0.38,2.32-0.93
		c0.86-2.02,1.75-4.15,1.95-6.3c0.95-9.97,1.87-19.95,2.45-29.95c1.74-29.95,1.27-59.92,0.02-89.87
		c-0.54-13.09-1.53-26.16-2.2-39.25c-0.07-1.35,0.59-2.74,0.91-4.12c0.41-0.05,0.83-0.09,1.24-0.14
		c-8.23-15.07-16.46-30.13-24.53-44.91c1.18-1.5,2.96-2.73,3.07-4.1c0.4-5.04,0.51-10.14,0.18-15.18
		c-0.18-2.81,1.99-9.19,4.65-10.34c4.34-1.87,5.25-5.57,5.68-9.66c0.11-1.09,0.19-2.26,0.63-3.24c2.96-6.66,6.07-13.26,9.01-19.93
		c2.21-5.01,3.23-10.06-0.05-15.15c-1.03-1.6-1.47-3.57-2.33-5.29c-6.78-13.53-13.42-27.12-20.48-40.5
		c-2.88-5.46-6.69-10.43-10.55-16.34c13.87,8.41,27.77,10.51,43.14,5.37c-16.19-19.06-31.99-37.65-47.78-56.24
		c-0.49,0.17-0.98,0.34-1.47,0.51C644.15,122.82,644.96,137.39,649.29,152.16z"/>
	<path d="M207.85,533.63c-0.02-0.61-0.04-1.22-0.05-1.83c-0.9-0.19-1.83-0.64-2.69-0.53c-3.38,0.45-4.12-1.05-4.18-4.23
		c-0.26-14.01-0.65-28.01-1.28-42.01c-0.91-20.37-2.13-40.73-3.11-61.1c-0.64-13.31-1.78-26.65-1.34-39.93
		c0.22-6.69-2.23-11.7-5.02-17.03c-0.92-1.76-2.22-2.8-4-0.98c-2.31,2.36-4.58,4.77-6.73,7.27c-0.46,0.53-0.49,1.58-0.43,2.37
		c0.09,1.27,0.67,2.54,0.61,3.79c-0.41,8.64-0.97,17.28-1.4,25.92c-0.42,8.41-0.52,16.85-1.16,25.25
		c-1.84,24.09-3.7,48.18-3.02,72.36c0.24,8.5,0.91,16.99,1.4,25.74c-9.05,0.65-18.25,1.32-28.32,2.05
		c8.9-6.76,15.01-14.63,17.9-24.72c2.94-10.28,1.27-20.16-2.64-30.03c-1.18,1.19-2.05,2.44-2.6,3.81
		c-4.5,11.12-10.49,21.45-19.21,29.62c-9.45,8.85-19.83,16.72-29.85,24.97c-0.55,0.45-1.48,0.56-2.25,0.61
		c-8.52,0.49-17.05,0.88-25.57,1.45c-1.06,0.07-2.07,0.99-3.1,1.52c1.09,0.49,2.14,1.31,3.27,1.41c2.03,0.18,4.09-0.03,6.14-0.13
		c10-0.51,20-1.17,30.01-1.54c13.62-0.51,27.25-0.91,40.88-1.17c11.81-0.23,23.63,0.02,35.43-0.39
		C199.66,535.98,203.74,534.5,207.85,533.63z"/>
	<path d="M177.56,253.44c1.14-3.69,2.92-5.9,6.85-5.06c-0.78-0.44-1.55-0.88-2.35-1.33c1.24-1.12,2.26-2.03,3.28-2.95
		c-0.17-0.17-0.34-0.35-0.5-0.52c-0.98,0.45-1.95,0.9-3.25,1.49c-0.13-1.17-0.05-2.09-0.36-2.86c-0.32-0.78-1.03-1.41-1.57-2.1
		c-0.36,0.83-0.92,1.64-1.02,2.51c-0.13,1.08,0.13,2.2,0.24,3.48c-1.31-0.06-2.29-0.11-3.27-0.15
		C180.73,247.16,178.46,250.32,177.56,253.44z"/>
	<path d="M340.51,165.1c0.17,0.23,0.34,0.46,0.51,0.69c1.17-0.72,2.33-1.45,3.43-2.13c1.27,0.91,2.39,1.71,3.5,2.51
		c0.18-0.2,0.35-0.41,0.53-0.61c-0.9-0.97-1.8-1.93-2.84-3.05c1.34-0.47,2.38-0.84,3.42-1.2c-0.06-0.19-0.11-0.38-0.17-0.57
		c-1.35,0.2-2.7,0.4-4.06,0.6c-0.16-1.66-0.29-3.07-0.43-4.48c-0.23,0.02-0.47,0.04-0.7,0.06c-0.17,1.49-0.34,2.99-0.54,4.68
		c-1.57-0.27-2.83-0.49-4.09-0.7c-0.05,0.2-0.11,0.4-0.16,0.6c1.29,0.42,2.57,0.85,4.23,1.39
		C341.99,163.85,341.25,164.48,340.51,165.1z"/>
	<path d="M508.74,45.5c-1.13-2.68,2.1-1.09,3.39-2.32c-1.37-0.21-2.3-0.36-3.45-0.54c0.69-1.55,1.28-2.88,1.87-4.21
		c-0.23-0.13-0.45-0.25-0.68-0.38c-0.84,1.21-1.68,2.42-2.45,3.53c-2.07-0.92-3.86-1.72-5.65-2.52c-0.11,0.2-0.23,0.39-0.34,0.59
		c1.48,1.03,2.96,2.06,4.77,3.31c-1.14,0.77-1.89,1.27-2.78,1.87C505.55,45.09,507.12,45.29,508.74,45.5z"/>
	<path d="M732.73,80.55c0.18-0.38,0.61-1.27,1.05-2.19c-0.56-0.3-1.29-0.69-2.12-1.13c0.59-1.35,1.1-2.53,1.61-3.71
		c-0.23-0.1-0.46-0.2-0.69-0.31c-0.76,1.01-1.51,2.01-2.32,3.09c-0.82-0.68-1.46-1.21-2.53-2.1c0.98,1.65,1.64,2.77,2.32,3.93
		c-1.11,0.57-1.94,0.99-3.05,1.57C729.11,80.01,730.82,80.26,732.73,80.55z"/>
	<path d="M724.66,393.38c0.4,0.95,0.74,1.73,1.07,2.5c-0.28-0.35-0.55-0.71-0.83-1.06c0.57-0.79,1.14-1.58,1.71-2.37
		c0.49,0.43,0.98,0.86,1.47,1.29c-0.74-0.62-1.49-1.23-2.22-1.84c0.76-1.15,1.41-2.15,2.06-3.14c-0.19-0.13-0.37-0.25-0.56-0.38
		c-2.07,1.78-4.15,3.56-7,6C722.34,393.91,723.38,393.67,724.66,393.38z"/>
	<path d="M274.58,442.43c-1.99,1.03-3.41,1.76-4.85,2.51c1.97,1.24,0.08,2.05-1.76,3.32c1.76-0.45,2.71-0.69,3.66-0.93
		c0.62,0.93,1.17,1.77,1.72,2.6c0.16-0.08,0.31-0.16,0.47-0.23c-0.21-0.91-0.42-1.82-0.62-2.68c0.99-0.46,1.74-0.81,2.49-1.16
		c-0.05-0.19-0.1-0.37-0.15-0.56c-0.85,0-1.71,0-2.72,0C273.43,444.3,273.88,443.57,274.58,442.43z"/>
	<path d="M149.91,421.65c0,1.72,0,3.21,0,4.8c1.7-0.48,3.9-1.1,6.5-1.83c-1.42-0.23-2.35-0.39-3.4-0.56
		c0.63-1.27,1.14-2.28,1.65-3.3c-0.17-0.1-0.34-0.2-0.51-0.31c-0.74,0.89-1.48,1.78-2.2,2.65
		C151.08,422.48,150.38,421.99,149.91,421.65z"/>
	<path d="M741.23,497.13c-0.11-0.19-0.22-0.37-0.34-0.56c-1.68,0.76-3.36,1.52-5.38,2.43c0.78,1.49,1.7,3.23,2.45,4.64
		c0.73-0.68,1.75-1.2,1.73-1.69c-0.03-0.84-0.7-1.67-1.07-2.42C739.63,498.61,740.43,497.87,741.23,497.13z"/>
	<path d="M88.75,126.49c-0.25-0.07-0.5-0.14-0.75-0.21c-0.28,1.73-0.57,3.45-0.84,5.13c-1.07,0.05-1.91,0.08-2.17,0.1
		c0.52,0.82,1.08,1.71,1.64,2.6c1.62-1.11,3.51-2.41,5.82-4c-1.52,0.22-2.48,0.36-3.7,0.54C88.75,129.12,88.75,127.81,88.75,126.49z
		"/>
	<path d="M723.2,210.03c0.51,1.5,0.87,2.57,1.26,3.72c0.75,0.6,1.81,1.44,2.75,2.18c0.4-2.07,0.81-4.24,1.26-6.63
		c-0.97,0.82-1.8,1.52-2.61,2.2C724.97,211,724.22,210.59,723.2,210.03z"/>
	<path class="st0" d="M649.29,152.16c-4.33-14.77-5.14-29.34-0.7-43.94c0.49-0.17,0.98-0.34,1.47-0.51
		c15.79,18.59,31.59,37.18,47.78,56.24c-15.37,5.14-29.27,3.04-43.14-5.37c3.86,5.91,7.67,10.88,10.55,16.34
		c7.06,13.38,13.7,26.97,20.48,40.5c0.86,1.72,1.3,3.69,2.33,5.29c3.28,5.09,2.25,10.14,0.05,15.15
		c-2.94,6.67-6.05,13.27-9.01,19.93c-0.44,0.98-0.51,2.14-0.63,3.24c-0.43,4.09-1.33,7.79-5.68,9.66
		c-2.66,1.14-4.83,7.52-4.65,10.34c0.32,5.04,0.21,10.14-0.18,15.18c-0.11,1.36-1.89,2.59-3.07,4.1
		c8.07,14.78,16.3,29.85,24.53,44.91c-0.41,0.05-0.83,0.09-1.24,0.14c-0.32,1.37-0.98,2.76-0.91,4.12
		c0.68,13.09,1.66,26.16,2.2,39.25c1.24,29.95,1.72,59.92-0.02,89.87c-0.58,10-1.5,19.98-2.45,29.95c-0.21,2.15-1.09,4.28-1.95,6.3
		c-0.24,0.55-1.51,0.89-2.32,0.93c-5.46,0.31-10.92,0.54-16.38,0.76c-5.32,0.21-5.38,0.26-5.78,5.68c-0.13,1.79-0.33,3.57-0.47,5.15
		c6.87,0,13.55-0.03,20.23,0.01c20.51,0.13,41.03,0.28,61.54,0.43c9.67,0.07,19.35-0.01,29.01,0.31c4.4,0.14,8.75,1.27,13.16,1.61
		c4.3,0.34,8.63,0.19,12.94,0.37c2.72,0.11,5.45,0.37,8.15,0.73c0.63,0.08,1.69,0.91,1.64,1.27c-0.11,0.75-0.69,1.86-1.31,2.04
		c-2.17,0.61-4.43,1.14-6.67,1.25c-12.74,0.65-25.51,0.83-38.22,1.8c-20.09,1.54-40.11,4.48-60.21,5.2
		c-33.23,1.19-66.51,1.08-99.77,1.57c-1.9,0.03-3.78,0.59-5.68,0.77c-2.7,0.25-5.43,0.68-8.12,0.51
		c-6.55-0.42-13.07-1.52-19.62-1.67c-30.75-0.67-61.51-1.12-92.27-1.64c-18.67-0.31-37.34-0.64-56-0.9
		c-8.77-0.12-17.54-0.06-26.3-0.26c-1.21-0.03-2.4-1.12-3.6-1.72c1.2-0.75,2.33-1.97,3.62-2.18c5.54-0.89,11.12-1.49,16.08-2.11
		c-1.79-5.37-3.65-11.15-5.72-16.85c-0.27-0.74-1.66-1.54-2.52-1.54c-11.85,0.09-23.7,0.29-35.54,0.53
		c-1.67,0.03-3.42,0.83-4.98,0.51c-2.74-0.56-5.97-2.57-5.7-7.35c0.8-14.33,1.07-28.71,2.44-42.98c2.58-26.99,5.55-53.94,8.79-80.86
		c1.82-15.14,4.36-30.2,6.81-45.26c1.68-10.33,3.53-20.64,5.71-30.87c3.16-14.82,6.66-29.56,10.07-44.33
		c0.44-1.89,0.34-3.11-1.69-4.13c-0.85-0.43-1.63-2.53-1.31-3.52c1.9-5.96,3.92-11.9,6.28-17.7c6.07-14.93,14.44-28.4,25.99-39.78
		c10.4-10.24,21.98-18.79,35.36-24.77c1.46-0.65,3.03-1.18,4.26-2.14c0.89-0.69,1.7-1.95,1.85-3.05c0.29-2.1,0.08-4.28,0.08-6.65
		c-1.1-0.13-2.28,0.05-3.05-0.43c-1.21-0.75-2.16-1.93-3.22-2.93c0.91-0.94,1.69-2.45,2.76-2.71c7.31-1.75,14.68-3.23,22.02-4.81
		c1.2-0.26,2.37-0.63,3.63-0.97c-0.66-3.87-1.7-7.43-1.76-11c-0.05-3.17,1.01-6.35,1.57-9.52c0.09-0.51,0.4-1.16,0.2-1.51
		c-1.91-3.37-3.9-6.69-6.09-10.4c0.68-0.14,1.73-0.36,1.81-0.38c1.99,3.76,3.3,7.24,5.53,9.98c0.92,1.12,3.82,0.62,5.82,0.86
		c0-0.28,0.01-0.57,0.01-0.85c0.93,0.65,1.93,1.23,2.77,1.98c2.75,2.45,5.75,4.72,8.07,7.54c1.49,1.81,2.09,4.18,5.02,4.43
		c0.47,0.04,0.81,1.73,1.21,2.66c-0.41-0.24-0.81-0.5-1.24-0.71c-0.83-0.41-1.67-0.8-2.57-1.23c-1.64,6.13-3.87,11.15-10.57,12.55
		c-3.19,0.67-6.27,1.92-9.37,2.9c1.36,5.87,2.01,6.46,7.17,5.31c10.72-2.4,21.48-2.04,32.27-0.75c0.89,0.11,1.78,0.13,2.61,0.19
		c-1.41-7.47-2.85-14.77-4.15-22.1c-1.8-10.09-3.69-20.18-5.18-30.32c-0.93-6.3-0.62-6.45,5.66-5.93
		c18.61,1.56,37.23,3.03,55.81,4.89c13.31,1.34,25.68,5.81,37.46,12.16c11,5.93,21.56,12.37,29.71,22.03
		C645.21,145.8,647.14,149.08,649.29,152.16z M584.6,539.87c1.07,0.65,2.11,1.77,3.23,1.87c5.25,0.45,11.44-3.48,13.34-8.33
		c0.27-0.7,0.09-1.73-0.21-2.47c-1.57-3.77-3.17-7.53-4.93-11.21c-0.66-1.38-1.8-2.53-2.72-3.79c-0.77,1.41-1.77,2.74-2.26,4.23
		c-2.04,6.24-3.92,12.52-5.85,18.79c0.68-3.11,1.26-6.24,2.06-9.32c1.12-4.29,2.47-8.52,3.58-12.82c0.42-1.64,0.43-3.59-2.21-2.69
		c-3.88,1.32-7.71,2.81-11.46,4.47c-0.75,0.33-1.63,1.87-1.44,2.58c1.37,5.24,2.79,10.5,4.69,15.56
		C580.93,538.12,583.16,538.85,584.6,539.87z M556.01,509.15c-0.11-1.54-0.25-2.99-0.3-4.43c-0.16-4.66-0.49-9.33-0.39-13.99
		c0.36-16.28,1.01-32.55,1.27-48.83c0.21-12.99,0.04-25.98-0.04-38.97c-0.09-14.93-0.1-29.86-0.45-44.78
		c-0.56-23.57-1.49-47.14-2.05-70.72c-0.44-18.45-0.31-36.91-0.92-55.35c-0.6-18.38-5.89-34.95-20.43-47.45
		c-5.84-5.02-11.93-9.98-19.67-11.01c-6.59-0.88-13.47-0.71-20.1,0.07c-16.13,1.91-30.48,9.18-44.58,16.63
		c-7.39,3.9-14.64,8.54-20.85,14.08c-7.01,6.25-12.78,13.88-19.09,20.92c-7.67,8.56-12.4,18.76-16.3,29.4
		c-0.63,1.71-0.58,3.71-0.68,5.58c-0.07,1.21,0.5,2.54,0.19,3.64c-1.13,3.93-2.91,7.7-3.73,11.68
		c-4.68,22.76-9.74,45.46-13.52,68.37c-3.24,19.64-5.02,39.52-7.28,59.31c-1.22,10.63-1.68,21.37-3.25,31.95
		c-3.31,22.45-6.09,44.94-6.56,67.65c-0.2,9.85-0.02,9.75,9.53,9.51c18.21-0.45,36.43-0.74,54.64-1.14
		c17.2-0.37,34.4-0.86,51.61-1.17c20.84-0.38,41.67-0.65,62.51-0.92C542.26,509.08,548.94,509.15,556.01,509.15z M658.81,500.13
		c0.38-22.34,0.46-43.99,1.27-65.6c0.3-7.99,2.17-15.95,3.62-23.87c0.4-2.21,1.82-4.34,4.68-4.2c2.78,0.13,4.39,1.99,5.07,4.41
		c0.73,2.61,1.39,5.36,1.38,8.04c-0.03,10.7-0.14,21.41-0.56,32.1c-0.71,18.43-1.65,36.86-2.56,55.29c-0.2,4.14-0.13,4.36,3.89,4.15
		c1.94-0.1,3.92,0.01,5.78-0.4c0.91-0.2,2.19-1.3,2.3-2.13c0.66-4.82,1.13-9.67,1.47-14.52c2.21-31.5,2.91-63.04,1.89-94.61
		c-0.59-18.22-1.53-36.43-2.43-54.64c-0.06-1.14-0.87-2.58-1.79-3.31c-13.53-10.79-27.01-21.66-40.77-32.14
		c-9.69-7.38-19.85-14.14-29.69-21.32c-14.35-10.47-28.66-21.01-42.87-31.69c-3.01-2.26-5.9-2.29-9.27-1.5
		c-2.16,0.51-2.85,1.38-2.79,3.68c0.24,9.11,0.28,18.23,0.26,27.34c-0.02,7.63-0.4,15.27-0.35,22.9
		c0.17,24.59,0.43,49.19,0.71,73.78c0.07,6.26,0.52,12.53,0.49,18.79c-0.07,16.63-0.21,33.26-0.51,49.89
		c-0.2,11.16-0.89,22.31-1.01,33.47c-0.08,7.71,0.39,15.43,0.82,23.13c0.05,0.85,1.41,2.28,2.23,2.33
		c3.91,0.25,7.84,0.11,11.96,0.11c0.91-10.06,4.45-19.68,10.41-28.18c6.05-8.63,16.77-8.78,21.83-0.4c2.46,4.06,3.85,8.94,4.9,13.63
		c1.22,5.49,1.54,11.18,2.24,16.78c8.62,0,17.24,0,26.1,0c0.6-3.14,1.19-6.36,1.84-9.57c0.85-4.18,2.75-7.62,7.33-8.41
		c4.59-0.79,8.28,0.87,10.74,4.96C657.72,498.9,658.11,499.28,658.81,500.13z M643.07,148.55c0.06,0.11-0.06-0.22-0.29-0.46
		c-2.03-2.15-4.02-4.35-6.13-6.43c-13.77-13.57-29.49-23.96-48.31-29.14c-9.44-2.6-18.85-3.3-27.9,1.51
		c-3.8,2.02-7.56,4.13-11.31,6.26c-11.85,6.75-18.79,17.63-24.29,29.54c-2.21,4.78,2.27,12.68,7.14,14.77
		c4.98,2.14,9.94,4.55,14.41,7.58c3.41,2.31,6.08,5.73,9.01,8.72c7.96,8.14,15.85,16.35,23.83,24.48c2.61,2.66,5.4,5.14,7.97,7.57
		C608.86,193.93,627.66,172.84,643.07,148.55z M588.27,246.35c0.32,0.16,0.63,0.32,0.95,0.48c1.73-2.02,3.47-4.05,5.2-6.07
		c0.27,0.12,0.53,0.23,0.8,0.35c0,2.02,0,4.04,0,6.06c0.25,0.05,0.51,0.11,0.76,0.16c0.95-1.81,1.9-3.62,3.24-6.17
		c0.61,3,1.04,5.15,1.59,7.89c0.67-0.98,0.93-1.23,1.03-1.53c0.17-0.54,0.42-1.14,0.32-1.66c-1.24-6.83,2.85-11.03,7.31-15.1
		c1.77-1.61,3.36-3.41,5.09-5.06c16.64-15.88,33.29-31.75,50.22-47.9c-1.1-1.84-2.39-4-3.88-6.49c-2.78,3.41-4.86,6.59-7.54,9.13
		c-15.87,15.05-32.02,29.8-47.76,44.97c-5.52,5.32-11.26,6.71-19.13,3.65c3.06,0.35,5.2,0.87,7.31,0.77
		c2.09-0.1,4.16-0.82,6.91-1.41c-14.22-13.86-27.64-26.94-40.58-39.55c2.07,9.36,4.87,18.99,6.19,28.82
		c1.34,10,1.57,20.19,1.55,30.3c-0.01,3.46,0.61,5.29,3.47,7.12c8.92,5.71,17.95,11.32,26.4,17.68
		c24.48,18.44,48.7,37.23,73.02,55.88c3.89,2.98,7.8,5.93,11.7,8.9c0.18-0.18,0.37-0.35,0.55-0.53c-7-12.69-14-25.39-21.07-38.21
		c-1.99,1.18-4.23,2.46-5.24-0.37c-1.02-2.86-1.25-6-1.82-9.02c0.27-0.06,0.53-0.12,0.8-0.18c0.88,2.93,1.76,5.85,2.64,8.78
		c0.32,0,0.63,0,0.95,0c0.39-0.85,1.09-1.69,1.13-2.56c0.38-7.94-1.34-15.34-5.89-21.98c-3.46-5.05-6.87-10.15-10.33-15.2
		c-0.58-0.85-1.4-2.3-1.96-2.23c-1.19,0.14-2.59,0.85-3.34,1.78c-1.96,2.44-1.42,7,0.96,9.8c4.65,5.47,9.37,10.87,14,16.36
		c0.68,0.8,1.01,1.9,1.82,3.48c-16.47-17.78-32.37-34.94-48.09-51.92c-5.11,2.33-3.34,6.3-3.89,9.57c-0.27,1.6-1.44,3.05-2.2,4.56
		c-1.19-0.77-2.38-1.54-3.63-2.36c-2.8,2.74-3.31,2.6-4.8-1.07c-2.05,0.48-3.97,0.94-5.89,1.39c-0.17-1.62-0.35-3.25-0.49-4.55
		c-1.3-0.45-2.69-0.94-4.08-1.42c0.64-1.44,1.16-2.96,1.97-4.31c0.68-1.13,1.7-2.05,2.49-2.98c-1.14-1.21-2.07-2.21-3.01-3.2
		c0.16-0.04,0.32-0.09,0.48-0.13c1.64,0.88,3.29,1.77,4.93,2.65c-1.89,2.3-3.85,4.67-5.8,7.05c0.26,0.24,0.52,0.49,0.78,0.73
		c1.74-0.65,3.48-1.3,5.58-2.09C589.32,242.18,588.8,244.27,588.27,246.35z M677.31,254.18c3.29-7.99,6.78-16.25,10.01-24.62
		c0.48-1.26,0.06-3.16-0.54-4.49c-5.66-12.67-11.43-25.29-17.21-37.91c-0.98-2.13-2.15-4.17-3.3-6.37
		c-19.68,18.1-39.05,35.9-57.89,53.22c9.25,9.41,18.34,18.66,27.52,28c-0.3-4.81,2.81-7.06,6.67-8.33c0.15-7.57,2.17-9.37,9.26-8.58
		c1.13,0.13,2.28,0.3,3.34,0.69C662.39,248.48,669.58,251.24,677.31,254.18z M571.87,512.05c-4.57,0.36-8.84,1-13.11,0.98
		c-20.6-0.06-41.2-0.42-61.8-0.43c-15.94,0-31.88,0.42-47.82,0.51c-2.53,0.01-3.34,1-4.18,3.25c-1.58,4.21-3.73,8.2-5.74,12.23
		c-0.68,1.37-1.67,2.58-2.67,4.1c45.91-1.57,91.3-3.13,136.68-4.69C572.79,522.85,572.32,517.34,571.87,512.05z M389.67,259.26
		c2.8-10.61,6.5-20.63,12.23-29.76c7.5-11.95,16.87-22.46,27.4-31.66c6.14-5.36,13.77-9.3,21.25-12.78
		c12.35-5.76,24.57-12.29,38.2-14.51c12.93-2.11,26.13-4.06,36.88,6.67c0.47,0.47,1.13,0.77,1.69,1.15
		c13.65,9.22,22.62,21.93,26.12,37.89c1.98,9.02,2.06,18.47,2.99,27.72c0.28,2.77,0.55,5.54,0.82,8.33c7-1.34,7-1.34,6.49-7.67
		c-0.09-1.14-0.14-2.27-0.22-3.41c-1.05-16.17-2.72-32.22-7.64-47.79c-3.74-11.84-10.11-21.41-21.86-26.49
		c-10.45-4.52-21.49-5.82-32.74-4.76c-5.99,0.57-11.91,1.89-17.86,2.86c-14.24,2.34-27.25,7.8-39.68,15.01
		c-13.94,8.08-25.29,19-35.23,31.44c-10.4,13.02-16.65,28.16-21.38,43.99C386.5,257.62,386.81,259.12,389.67,259.26z M587.98,214.5
		c4.21,3.87,8.24,7.64,12.4,11.26c0.48,0.42,2,0.29,2.57-0.17c3.27-2.65,6.53-5.34,9.55-8.27c9.16-8.88,18.25-17.83,27.3-26.82
		c6.76-6.71,13.42-13.51,20.46-20.6c-4.9-6.4-9.52-12.42-14.47-18.87c-0.97,1.64-1.69,2.88-2.41,4.1c-1.45,2.44-2.75,4.99-4.39,7.3
		c-10.42,14.71-23.46,26.92-36.93,38.74C597.37,205.28,593,209.73,587.98,214.5z M693.29,163.69
		c-14.63-18.29-27.28-37.76-44.19-54.46c-0.59,2.46-1.49,4.44-1.46,6.41c0.11,8.62-0.16,17.33,0.95,25.84
		c1.15,8.8,6.32,15.8,14.44,19.57C672.52,165.46,682.56,167.15,693.29,163.69z M667.21,510.63c0.34-3.78,0.73-7.06,0.92-10.35
		c1.21-21.03,2.52-42.05,3.47-63.09c0.36-8.04-0.01-16.13-0.35-24.19c-0.07-1.68-1.49-3.3-2.28-4.95c-1.32,1.41-3.3,2.6-3.82,4.26
		c-1.4,4.42-2.72,8.99-3.09,13.58c-0.9,10.98-1.47,22-1.73,33.01c-0.3,12.97-0.2,25.95-0.13,38.92c0.03,4.39,0.51,8.78,0.8,13.48
		C663.33,511.04,665.22,510.84,667.21,510.63z M523.03,147.49c0.37,0.07,0.73,0.14,1.1,0.22c3.03-8.63,7.61-16.25,13.94-22.77
		c6.26-6.43,13.62-11.32,21.54-15.74c-14.4-1.32-28.8-2.64-43.92-4.03C518.2,119.59,520.61,133.54,523.03,147.49z M405.51,514.24
		c2.18,5.81,3.68,11.08,6.13,15.85c1.77,3.45,4.44,7.02,9.24,6.37c9.11-1.24,15.29-6.7,19.3-14.62c1.15-2.27,1.11-5.14,1.58-7.6
		C429.64,514.24,418.09,514.24,405.51,514.24z M655.12,256.31c0.37-0.14,0.74-0.28,1.12-0.42c0.81,1.33,1.3,3.18,2.48,3.9
		c4.15,2.56,8.5,4.81,12.88,6.96c0.72,0.35,2.32-0.13,2.96-0.77c3.04-3.04,2.52-8.3-1.34-10.06c-7.65-3.47-15.47-6.61-23.34-9.55
		c-3.45-1.29-5.73,0.78-4.87,4.44c0.81,3.48,2.06,7.04,3.95,10.04c2.58,4.12,6.03,7.68,8.92,11.62c1.06,1.45,1.84,3.25,2.25,5.01
		c1.06,4.54,1.72,9.17,2.79,13.7c0.36,1.53,1.49,2.87,2.26,4.3c0.33-0.15,0.65-0.31,0.98-0.46c1.55-6.69,0.8-13.03-2.38-19.32
		C660.59,269.4,657.98,262.79,655.12,256.31z M607.56,529.54c9.81-0.72,19.08-1.37,28.33-2.12c0.46-0.04,1.21-0.83,1.23-1.29
		c0.1-3.6,0.06-7.21,0.06-11.29c-8.93,0-17.52,0-26.29,0C609.84,519.46,608.8,524.05,607.56,529.54z M481.01,141.27
		c0.3,1.77,0.56,4.5,1.26,7.11c0.44,1.67,1.13,3.65,2.38,4.64c2.46,1.95,10.26-0.28,12.03-3.06c3.82-5.99,2.24-13.04-4.09-16.26
		C483.69,129.19,481.61,131.63,481.01,141.27z M587.99,479.48c-0.57,0.14-0.84,0.12-0.99,0.25c-6.13,5.08-8.13,12.39-10.45,19.51
		c-0.17,0.53,0.3,1.68,0.79,1.93c4.27,2.22,8.62,4.31,12.63,6.28c3.51-4.2,3-8.19,1.7-12.5
		C590.14,489.89,589.19,484.65,587.99,479.48z M642.19,522.72c-0.07-0.2-0.14-0.39-0.21-0.59c0.9-0.47,1.79-0.95,2.71-1.4
		c4.7-2.28,4.91-3.95,1.01-7.54c-1.25-1.15-2.4-2.42-3.6-3.63c0.17-0.16,0.33-0.32,0.5-0.48c1.92,1.61,3.84,3.22,5.76,4.82
		c0.35-0.19,0.69-0.38,1.04-0.56c-0.08-5.75-2.21-11.04-4.34-17.39c-1.07,1.91-1.94,2.96-2.27,4.15
		c-3.14,11.39-3.65,22.91-1.31,34.5c0.33,1.62,1.47,3.07,2.24,4.6c0.31-0.07,0.63-0.14,0.94-0.21c1.49-6.13,2.99-12.27,4.68-19.21
		C646.27,521.03,644.23,521.88,642.19,522.72z M596.12,502.36c0.3,0,0.6,0,0.9,0c0.31-1.01,0.66-2.01,0.92-3.04
		c1.08-4.3,2.07-8.62,3.21-12.9c1.64-6.17-2.8-10.93-9.12-9.75c-2.13,0.4-2.97,1.29-2.1,3.52c0.65,1.68,0.95,3.5,1.44,5.26
		C592.94,491.09,594.53,496.73,596.12,502.36z M575.56,518.12c4.77-1.99,9.2-3.74,13.53-5.69c1.97-0.89,2-2.77,0.35-3.71
		c-4.3-2.45-8.81-4.5-13.89-7.03C575.56,507.43,575.56,512.49,575.56,518.12z M646.48,495.37c1.45,5.03,2.75,9.84,4.29,14.58
		c0.28,0.87,1.54,1.42,2.35,2.12c1.28-1.89,3.57-3.77,3.6-5.68c0.05-2.79-1.22-5.76-2.48-8.38
		C652.73,494.9,650.15,494.25,646.48,495.37z M602.97,529.11c4.02-5.42,3.71-11.02,3.59-16.89c-2.68,0-5.15-0.08-7.61,0.02
		c-2.27,0.09-3.06,1.42-2.16,3.45C598.69,520.02,600.73,524.29,602.97,529.11z M645.39,539.49c0.3,0.24,0.59,0.48,0.89,0.72
		c2.05-1.05,4.29-1.86,6.09-3.23c1.36-1.03,3.25-3.01,3.02-4.19c-0.75-3.85-2.37-7.53-3.66-11.27c-0.4,0.01-0.8,0.02-1.2,0.03
		C648.82,527.53,647.11,533.51,645.39,539.49z M597.75,504.96c0.41,0.27,0.83,0.54,1.24,0.81c2.48-1.86,6.86-3.56,7.04-5.63
		c0.41-4.62-1.28-9.42-2.12-14.15c-0.41,0.05-0.83,0.09-1.24,0.14C601.03,492.41,599.39,498.68,597.75,504.96z M455.06,157.72
		c0.05,0.56,0.1,1.11,0.15,1.67c9.41,0.59,18.45-1.98,27.78-3.67c-0.46-2.25-1.15-2.98-3.32-2.54c-4.78,0.97-9.65,1.45-14.45,2.3
		C461.8,156.07,458.44,156.96,455.06,157.72z M606.93,501.75c-3.63,3.22-8.69,3.35-9.2,8.97c3.25,0,6.13,0,9.2,0
		C606.93,508,606.93,505.45,606.93,501.75z M670.65,268.55c-3.45-1.9-6.45-3.55-9.44-5.19c-0.15,0.24-0.3,0.48-0.45,0.72
		c1.96,3.35,3.91,6.69,6.22,10.64C668.38,272.36,669.39,270.66,670.65,268.55z M652.3,517.57c1.13,3.84,2.27,7.69,3.59,12.16
		C659.05,521.52,658.63,519.83,652.3,517.57z M467.86,168.03c1.89-0.94,4.18-1.44,4.33-2.3c0.27-1.61-0.41-3.61-1.29-5.09
		c-0.32-0.54-2.33-0.09-3.78-0.09c0.2,1.61,0.33,2.49,0.42,3.38C467.63,164.93,467.69,165.94,467.86,168.03z M472.44,159.97
		c0.46,6.24,1.07,6.69,5.83,4.44C476.88,158.63,476.74,158.52,472.44,159.97z M591.99,513.25c0.39,0.06,0.78,0.13,1.16,0.19
		c2.56-3.38,3-8.2,0.26-10.49C592.9,506.68,592.45,509.97,591.99,513.25z M657.56,518.04c0-2.58,0-4.96,0-7.61
		C652.24,514.06,652.24,515.32,657.56,518.04z M464.1,169.68c1.3-1.17,2.76-1.89,2.75-2.58c-0.04-1.86-0.7-3.7-1.12-5.55
		c-0.69,0.4-1.96,0.78-1.98,1.22C463.65,164.76,463.91,166.76,464.1,169.68z M460.06,169.64c0.3,0.22,0.59,0.44,0.89,0.65
		c0.64-0.58,1.89-1.27,1.8-1.71c-0.43-2.18,0.95-4.87-1.81-7.21C460.6,164.59,460.33,167.12,460.06,169.64z M482.28,164.06
		c0.13-0.3,0.26-0.61,0.39-0.91c-0.73-1.4-1.38-2.84-2.23-4.16c-0.28-0.44-1.06-0.66-1.65-0.74c-0.28-0.04-0.96,0.61-0.91,0.77
		c0.48,1.48,0.88,3.05,1.74,4.31C480.02,163.91,481.37,163.84,482.28,164.06z"/>
	<path d="M352.42,395.53c2.17,2.6,4.34,5.2,6.5,7.8c-1.64-0.28-3.28-0.78-4.92-0.81c-10.07-0.19-19.91-1.64-29.69-4.15
		c-9.23-2.37-18.28-5.2-25.9-10.94c-19.44-14.63-31.37-34.83-39.29-57.22c-8.37-23.65-12.06-48.09-7.64-73.29
		c3.55-20.25,10.19-39.19,21.93-56.2c0.57-0.83,0.83-1.88,1.23-2.82c0.49,0.37,0.97,0.74,1.46,1.12c0,5.41,0.06,10.83-0.01,16.24
		c-0.21,15.4,0.47,30.71,2.78,45.99c2.25,14.9,5.06,29.65,9.68,43.99c4.34,13.48,9.15,26.9,18.19,38.03
		c13.07,16.08,26.66,31.72,40.12,47.48C348.44,392.59,350.56,393.95,352.42,395.53z"/>
	<path class="st0" d="M207.85,533.63c-4.1,0.87-8.18,2.35-12.31,2.5c-11.8,0.41-23.62,0.17-35.43,0.39
		c-13.63,0.26-27.26,0.66-40.88,1.17c-10.01,0.37-20.01,1.03-30.01,1.54c-2.05,0.1-4.11,0.32-6.14,0.13
		c-1.12-0.1-2.18-0.92-3.27-1.41c1.03-0.53,2.04-1.44,3.1-1.52c8.52-0.57,17.05-0.96,25.57-1.45c0.77-0.04,1.7-0.15,2.25-0.61
		c10.02-8.25,20.39-16.11,29.85-24.97c8.72-8.17,14.71-18.5,19.21-29.62c0.56-1.37,1.43-2.62,2.6-3.81
		c3.91,9.87,5.58,19.75,2.64,30.03c-2.89,10.09-9,17.96-17.9,24.72c10.07-0.73,19.27-1.39,28.32-2.05
		c-0.49-8.74-1.16-17.23-1.4-25.74c-0.68-24.19,1.18-48.27,3.02-72.36c0.64-8.4,0.74-16.83,1.16-25.25
		c0.43-8.64,0.99-17.28,1.4-25.92c0.06-1.25-0.52-2.51-0.61-3.79c-0.06-0.79-0.02-1.84,0.43-2.37c2.15-2.51,4.41-4.92,6.73-7.27
		c1.78-1.81,3.07-0.78,4,0.98c2.79,5.33,5.24,10.34,5.02,17.03c-0.44,13.28,0.7,26.62,1.34,39.93c0.98,20.37,2.19,40.73,3.11,61.1
		c0.63,13.99,1.02,28,1.28,42.01c0.06,3.18,0.81,4.68,4.18,4.23c0.86-0.11,1.79,0.34,2.69,0.53
		C207.81,532.42,207.83,533.02,207.85,533.63z M180.77,399.28c3.05-2.77,5.87-5.87,9.21-8.22c2.58-1.82,2.88-3.57,1.72-6.68
		c-3.31,2.11-6.41,3.94-9.34,6.01c-2.88,2.04-3.4,5.59-1.56,8.83c-0.12,3.07-0.24,6.15-0.37,9.22c-0.33,2.03-0.65,4.06-0.98,6.09
		c0.28,0.14,0.57,0.28,0.85,0.41c1.61-1.11,3.21-2.21,5.47-3.77c-1.08,1.24-1.53,2.09-2.23,2.51c-3.76,2.21-4.46,5.65-4.24,9.62
		c0.11,2-0.18,4.02-0.23,6.03c-0.05,2.07-0.01,4.14-0.01,6.43c4.13-3.5,7.54-7.15,11.66-9.65c3.53-2.13,3.44-4.45,2.48-7.97
		c-3.32,2.13-6.43,4.12-9.53,6.11c-0.15-0.24-0.3-0.48-0.45-0.73c2.69-1.89,5.43-3.7,8.03-5.7c0.9-0.69,2.04-1.86,2.03-2.8
		c-0.07-4.79-0.48-9.57-0.81-14.9c-1.48,0.73-2.45,1.2-3.42,1.68c4.19-2.59,4.03-6.3,2.77-10.75
		C187.95,393.95,184.36,396.63,180.77,399.28z M178.76,471.22c-2.33,3.77-0.63,7.7-1.26,11.99c6-4.79,11.33-9.02,16.63-13.29
		c0.48-0.38,1.05-1.06,1.03-1.58c-0.13-3.45-0.41-6.9-0.64-10.35c-0.31-0.17-0.62-0.34-0.93-0.52c-4.95,4.58-9.91,9.17-14.86,13.75
		c2.71-6.25,8.44-9.64,13.26-13.85c2.72-2.38,3.42-8.57,0.87-11.53c0.43-0.5,1.23-0.99,1.24-1.5c0.09-6.05,0.06-12.11,0.06-18.16
		c-0.41-0.19-0.83-0.38-1.24-0.57c-4.47,3.78-8.94,7.55-13.4,11.35c-0.24,0.2-0.43,0.59-0.44,0.9c-0.35,6.46-0.68,12.92-1.02,19.66
		c5.33-4.21,10.1-7.98,14.85-11.73c-3.19,3.03-6.12,6.45-9.65,9.01c-4.61,3.34-6.14,7.58-5.47,12.92
		C177.93,468.92,178.43,470.06,178.76,471.22z M177.58,523.5c-1.74,4.38-1.18,5.2,3.38,5.23c2.04,0.01,4.09,0.29,6.12,0.18
		c0.98-0.05,2.09-0.52,2.87-1.14c2.03-1.59,3.93-3.34,5.83-5.07c0.46-0.42,1.06-1.04,1.05-1.55c-0.08-3.44-0.3-6.88-0.51-11.03
		c-2.03,1.38-3.33,2.23-4.59,3.14c-4.77,3.45-9.52,6.91-14.27,10.37c5.65-4.88,11.31-9.74,16.93-14.65
		c0.77-0.67,1.89-1.51,1.96-2.34c0.24-2.99,0.09-6,0.09-9.01c-0.39-0.15-0.78-0.3-1.18-0.45c-4.42,3.3-8.87,6.58-13.26,9.92
		c-2.38,1.81-5.45,3.1-5.04,7.02C177.28,517.23,177.37,520.37,177.58,523.5z M162.33,477.8c-1.45,4.57-2.11,8.48-3.85,11.81
		c-8.57,16.36-20.13,29.96-36.69,38.9c-3.48,1.88-6.39,4.8-10.22,7.74c1.49,0,2.15,0.09,2.77-0.01c9.17-1.61,18.34-2.83,27.1-6.62
		C161.42,520.97,168.97,498.91,162.33,477.8z M177.39,507.99c6.04-4.41,11.89-8.66,17.7-12.95c0.4-0.29,0.73-0.94,0.74-1.44
		c0.07-2.91,0.03-5.82,0.03-9.72c-4.97,3.47-8.82,6.71-13.15,9.06C176.16,496.5,176.9,502.08,177.39,507.99z M195.67,471.64
		c-0.4-0.13-0.8-0.27-1.2-0.4c-4.37,3.61-8.73,7.23-13.09,10.84c-3.94,3.27-5.19,7.77-3.66,12.42c5.53-3.95,11.17-7.96,16.77-12
		c0.49-0.36,1.12-0.97,1.13-1.49C195.72,477.9,195.67,474.77,195.67,471.64z M180.62,389.82c3.68-2.05,7.34-3.71,10.49-6.05
		c1.12-0.83,1.33-3.31,1.27-5.01c-0.02-0.51-2.46-1.54-3.6-1.32C182.5,378.65,179.55,383.27,180.62,389.82z M187.57,366.46
		c-2.57,2.87-4.68,5.22-7.26,8.08c3.62,0.31,6.44,0.56,9.99,0.86C189.37,372.37,188.58,369.77,187.57,366.46z M197.19,524.57
		c-0.34-0.17-0.68-0.34-1.02-0.51c-1.78,1.46-3.56,2.93-5.34,4.39c0.15,0.29,0.29,0.59,0.44,0.88c1.96,0.14,3.91,0.29,6.29,0.46
		C197.42,527.78,197.31,526.18,197.19,524.57z"/>
	<path class="st0" d="M352.42,395.53c-1.86-1.58-3.99-2.94-5.55-4.78c-13.46-15.76-27.05-31.41-40.12-47.48
		c-9.04-11.12-13.85-24.55-18.19-38.03c-4.62-14.34-7.42-29.08-9.68-43.99c-2.31-15.28-3-30.59-2.78-45.99
		c0.08-5.41,0.01-10.83,0.01-16.24c-0.49-0.37-0.97-0.74-1.46-1.12c-0.4,0.95-0.66,1.99-1.23,2.82
		c-11.75,17.01-18.39,35.95-21.93,56.2c-4.42,25.2-0.73,49.64,7.64,73.29c7.93,22.39,19.85,42.59,39.29,57.22
		c7.63,5.74,16.67,8.57,25.9,10.94c9.78,2.51,19.62,3.97,29.69,4.15c1.64,0.03,3.28,0.53,4.92,0.81c-4.03,0.39-8.07,1.23-12.07,1.07
		c-10.04-0.42-19.77-2.49-29.54-5.09c-13.97-3.71-24.37-11.74-33.05-22.78c-9.73-12.39-18.92-25.02-25.42-39.56
		c-5.76-12.87-9.02-26.31-10.72-40.13c-1.09-8.88-1.93-17.99-1.21-26.86c2.01-24.77,9.11-48.06,23.27-68.81
		c1.37-2.01,3.64-3.4,5.5-5.08c0.34,0.2,0.67,0.4,1.01,0.6c0.19,2.56,0.58,5.13,0.54,7.68c-0.3,17.67-0.02,35.3,2.29,52.85
		c3.16,24.01,9.56,47.08,19.96,68.99c6.56,13.82,16.03,25.66,25.76,37.29C334.24,374.24,343.36,384.86,352.42,395.53z"/>
	<path class="st0" d="M177.56,253.44c0.9-3.12,3.17-6.28-1.96-7.49c0.98,0.05,1.97,0.09,3.27,0.15c-0.11-1.28-0.36-2.4-0.24-3.48
		c0.1-0.86,0.66-1.67,1.02-2.51c0.54,0.69,1.24,1.32,1.57,2.1c0.31,0.77,0.23,1.69,0.36,2.86c1.3-0.6,2.27-1.04,3.25-1.49
		c0.17,0.17,0.34,0.35,0.5,0.52c-1.02,0.92-2.04,1.83-3.28,2.95c0.79,0.45,1.57,0.89,2.35,1.33
		C180.48,247.54,178.7,249.75,177.56,253.44z"/>
	<path class="st0" d="M340.51,165.1c0.74-0.62,1.48-1.24,2.63-2.21c-1.66-0.55-2.95-0.97-4.23-1.39c0.05-0.2,0.11-0.4,0.16-0.6
		c1.26,0.22,2.52,0.43,4.09,0.7c0.19-1.69,0.37-3.18,0.54-4.68c0.23-0.02,0.47-0.04,0.7-0.06c0.14,1.41,0.27,2.82,0.43,4.48
		c1.36-0.2,2.71-0.4,4.06-0.6c0.06,0.19,0.11,0.38,0.17,0.57c-1.04,0.36-2.08,0.73-3.42,1.2c1.04,1.12,1.94,2.09,2.84,3.05
		c-0.18,0.2-0.35,0.41-0.53,0.61c-1.11-0.8-2.23-1.6-3.5-2.51c-1.1,0.68-2.26,1.4-3.43,2.13
		C340.85,165.56,340.68,165.33,340.51,165.1z"/>
	<path class="st0" d="M508.74,45.5c-1.61-0.2-3.19-0.4-5.33-0.67c0.89-0.6,1.64-1.11,2.78-1.87c-1.81-1.25-3.29-2.28-4.77-3.31
		c0.11-0.2,0.23-0.39,0.34-0.59c1.79,0.8,3.59,1.6,5.65,2.52c0.77-1.11,1.61-2.32,2.45-3.53c0.23,0.13,0.45,0.25,0.68,0.38
		c-0.59,1.33-1.18,2.66-1.87,4.21c1.15,0.18,2.09,0.33,3.45,0.54C510.84,44.4,507.61,42.82,508.74,45.5z"/>
	<path class="st0" d="M732.73,80.55c-1.91-0.29-3.62-0.54-5.73-0.86c1.12-0.57,1.95-1,3.05-1.57c-0.68-1.16-1.35-2.28-2.32-3.93
		c1.07,0.89,1.71,1.42,2.53,2.1c0.81-1.07,1.56-2.08,2.32-3.09c0.23,0.1,0.46,0.2,0.69,0.31c-0.51,1.18-1.02,2.36-1.61,3.71
		c0.83,0.44,1.57,0.83,2.12,1.13C733.33,79.28,732.91,80.17,732.73,80.55z"/>
	<path class="st0" d="M724.66,393.38c-1.28,0.29-2.32,0.53-4.31,0.99c2.85-2.44,4.92-4.22,7-6c0.19,0.13,0.37,0.25,0.56,0.38
		c-0.65,0.99-1.3,1.99-2.06,3.14c0.73,0.61,1.48,1.23,2.22,1.84c-0.49-0.43-0.98-0.86-1.47-1.29c-0.57,0.79-1.14,1.58-1.71,2.37
		c0.28,0.35,0.55,0.71,0.83,1.06C725.39,395.11,725.06,394.33,724.66,393.38z"/>
	<path class="st0" d="M274.58,442.43c-0.7,1.14-1.15,1.86-1.77,2.87c1.02,0,1.87,0,2.72,0c0.05,0.19,0.1,0.37,0.15,0.56
		c-0.75,0.35-1.5,0.7-2.49,1.16c0.2,0.86,0.41,1.77,0.62,2.68c-0.16,0.08-0.31,0.16-0.47,0.23c-0.55-0.83-1.1-1.67-1.72-2.6
		c-0.94,0.24-1.9,0.48-3.66,0.93c1.84-1.27,3.72-2.08,1.76-3.32C271.17,444.19,272.59,443.46,274.58,442.43z"/>
	<path class="st0" d="M149.91,421.65c0.48,0.34,1.17,0.84,2.04,1.46c0.73-0.87,1.47-1.76,2.2-2.65c0.17,0.1,0.34,0.2,0.51,0.31
		c-0.51,1.01-1.01,2.03-1.65,3.3c1.05,0.17,1.98,0.33,3.4,0.56c-2.6,0.73-4.8,1.35-6.5,1.83
		C149.91,424.85,149.91,423.37,149.91,421.65z"/>
	<path class="st0" d="M741.23,497.13c-0.8,0.74-1.6,1.48-2.61,2.41c0.37,0.76,1.04,1.58,1.07,2.42c0.02,0.49-1,1.01-1.73,1.69
		c-0.74-1.41-1.66-3.16-2.45-4.64c2.02-0.91,3.7-1.67,5.38-2.43C741.01,496.76,741.12,496.94,741.23,497.13z"/>
	<path class="st0" d="M88.75,126.49c0,1.31,0,2.63,0,4.16c1.22-0.18,2.18-0.32,3.7-0.54c-2.32,1.59-4.2,2.88-5.82,4
		c-0.56-0.89-1.12-1.78-1.64-2.6c0.27-0.01,1.1-0.05,2.17-0.1c0.28-1.68,0.56-3.41,0.84-5.13C88.25,126.36,88.5,126.42,88.75,126.49
		z"/>
	<path class="st0" d="M723.2,210.03c1.01,0.56,1.77,0.97,2.66,1.46c0.81-0.68,1.64-1.38,2.61-2.2c-0.46,2.39-0.87,4.56-1.26,6.63
		c-0.94-0.75-2-1.59-2.75-2.18C724.07,212.6,723.71,211.53,723.2,210.03z"/>
	<path d="M556.01,509.15c-7.06,0-13.75-0.07-20.43,0.01c-20.84,0.27-41.68,0.54-62.51,0.92c-17.2,0.31-34.4,0.8-51.61,1.17
		c-18.21,0.39-36.43,0.69-54.64,1.14c-9.56,0.24-9.74,0.34-9.53-9.51c0.47-22.71,3.24-45.2,6.56-67.65
		c1.56-10.58,2.03-21.31,3.25-31.95c2.27-19.79,4.04-39.68,7.28-59.31c3.78-22.91,8.84-45.61,13.52-68.37
		c0.82-3.98,2.6-7.75,3.73-11.68c0.32-1.1-0.25-2.43-0.19-3.64c0.1-1.87,0.05-3.86,0.68-5.58c3.9-10.63,8.63-20.84,16.3-29.4
		c6.31-7.03,12.08-14.67,19.09-20.92c6.21-5.54,13.46-10.18,20.85-14.08c14.1-7.44,28.44-14.72,44.58-16.63
		c6.62-0.78,13.51-0.95,20.1-0.07c7.74,1.03,13.83,6,19.67,11.01c14.55,12.5,19.84,29.07,20.43,47.45
		c0.6,18.44,0.47,36.9,0.92,55.35c0.57,23.57,1.49,47.14,2.05,70.72c0.35,14.92,0.36,29.85,0.45,44.78
		c0.08,12.99,0.24,25.98,0.04,38.97c-0.26,16.28-0.91,32.55-1.27,48.83c-0.1,4.66,0.23,9.33,0.39,13.99
		C555.75,506.16,555.9,507.61,556.01,509.15z M420.48,327.69c1-2.04,2-4.08,2.99-6.12c-0.19-0.1-0.38-0.21-0.57-0.31
		c-1.34,1.95-2.67,3.9-4.01,5.84c-0.26-0.18-0.53-0.36-0.79-0.54c1-2.22,1.99-4.45,2.99-6.67c-0.22-0.1-0.45-0.2-0.67-0.3
		c-1.37,2.21-2.74,4.42-4.43,7.15c1.43,0.27,3.01,0.56,4.6,0.86c0.91,2.34,1.92,1.31,3.27,0.3c0.85-0.64,2.65-1.3,3.16-0.88
		c7.34,6.02,17.23,9.21,21.31,18.89c0.09,0.21,0.13,0.55,0.28,0.6c1.62,0.56,2.95,3.25,5.01,0.72c0.23,0.88,0.19,2.24,0.73,2.54
		c0.88,0.48,2.65,0.75,3.15,0.23c1.55-1.58,2.85-1.14,4.09,0.02c2.56,2.38,4.99,4.89,7.48,7.35l-0.09-0.1
		c1.62,0.98,3.13,2.35,4.89,2.87c6.72,1.98,11.18,7.2,16.53,11.13c1.31,0.96,2.1,2.62,3.35,3.69c2.83,2.44,5.71,4.63,9.28,6.25
		c3.44,1.56,6.01,5.12,8.83,7.93c0.6,0.59,1.2,2.07,0.89,2.51c-0.76,1.08-1.92,2.15-3.14,2.55c-1.34,0.44-2.93,0.01-4.4,0.14
		c-24.5,2.2-49.01,4.41-73.5,6.69c-5.28,0.49-10.53,1.28-15.8,1.94c2.89,0.49,5.69,0.15,8.5,0.08c12.75-0.32,25.51-0.38,38.25-0.88
		c15.47-0.6,30.92-1.49,46.38-2.37c7.09-0.41,8.04-1.42,8.73-8.6c0.38-3.96,0.37-7.95,0.84-11.89c2.6-21.38,5.1-42.74,2.91-64.34
		c-1.48-14.56-5.54-28.13-14.82-39.76c-3.05-3.82-6.8-6.56-11.79-7.37c5.62,2.67,9.18,7.33,12.18,12.48
		c1.54,2.65,2.96,5.41,4.11,8.25c5.73,14.12,6.74,29.08,6.37,43.99c-0.43,17.63-2.11,35.22-3.28,52.83
		c-0.05,0.78-0.49,1.54-0.9,2.78c-3.82-3.39-7.21-6.39-10.59-9.38c0.34-0.12,0.67-0.24,1.01-0.36c-0.34-1.88-0.72-3.75-1.02-5.64
		c-0.13-0.82-0.39-1.84-0.05-2.48c2.56-4.81,5.34-9.5,7.89-14.32c1.64-3.11,4.18-6.33,4.26-9.55c0.16-6.52-2.16-13.04,0.8-20.07
		c-12.49,0.88-23.81,1.67-35.47,2.49c0.71-2.56,1.55-5.25,2.18-7.99c1.67-7.25,1.75-14.39-1.81-21.21c-2-2.69-4-5.37-6-8.06
		c-3.1-1.81-4.43-4.5-4.6-8.08c-0.11-2.31-0.87-4.59-1.46-7.42c-3.63,2.41-6.72,4.71-10.06,6.59c-1.75,0.99-3.95,1.83-5.89,1.71
		c-8.51-0.5-16.59,0.69-24.09,4.93c-2.4,1.36-4.74,2.81-7.78,4.61c3.03-5.94,7.03-9.98,11.61-13.38c4.47-3.31,9.02-6.64,13.92-9.23
		c4.85-2.56,10.19-4.21,14.99-6.13c-9.57,0.48-17.48,5.61-25.32,10.99c-8.78,6.02-15.27,13.68-19.4,23.65
		c-4.65,11.23-6.38,22.99-7.9,34.84c-2,15.58-0.9,31.18,0.02,46.76c0.38,6.46,1.32,12.88,2.16,19.3c0.16,1.2,1.06,2.31,1.62,3.46
		c0.31-0.12,0.61-0.25,0.92-0.37c0.07-0.4,0.21-0.81,0.19-1.21c-0.34-8.64-0.65-17.28-1.07-25.92c-0.62-12.86-1.46-25.7-1.91-38.56
		c-0.15-4.48,0.6-9,0.93-13.46c3.9,0.01,6.65-2.91,6.7-6.45c-1.45,1.83-2.99,3.76-4.53,5.69c-0.33-0.26-0.66-0.53-1-0.79
		c0.72-1.47,1.45-2.94,2.28-4.64c-0.88,0.33-1.49,0.56-2.35,0.88c0.42-5.02,0.65-9.64,6.33-11.4c1.69-0.53,3.11-1.89,4.73-2.71
		c14.52-7.35,29.34-12.66,45.81-6.68c1.18,0.78,2.36,1.57,3.55,2.35c0.69,2.38,1.48,4.74,2.06,7.15c2.01,8.31,0.85,16.7,0.49,25.06
		c-0.05,1.18-0.99,2.48-1.85,3.43c-3.62,4.01-7.37,7.9-11.39,12.17c-0.93-0.97-1.99-2.09-2.97-3.12c-0.98,1.2-1.96,2.41-2.94,3.61
		c0.03-1.38,0.78-2.29,1.02-3.32c0.13-0.59-0.58-1.37-0.91-2.07c-0.26-0.63-0.52-1.26-0.84-2.05c-3.44,4.55-3.44,4.55-5.77,4.1
		c1.44-1.59,2.87-3.17,4.31-4.75c-0.16-0.11-0.32-0.23-0.48-0.34c-1.74,1.02-3.48,2.05-5.22,3.07c-0.23-0.35-0.45-0.71-0.68-1.06
		c1.29-1.05,2.58-2.09,3.32-2.69c-8.79-5.51-17.7-11.1-26.01-16.31C423.62,325.08,422.05,326.38,420.48,327.69z M466.02,322.02
		c-0.33,0.15-0.65,0.3-0.98,0.45c0.54,1.46,0.68,3.7,1.7,4.21c2.19,1.11,4.87,1.61,6.79-0.79
		C471.6,323.44,466.4,327.74,466.02,322.02z M444.77,314.39c0.71-0.64,1.53-1.38,2.6-2.34c-3.2,0.37-6.04,0.7-8.89,1.02
		c-0.02,0.34-0.04,0.68-0.06,1.03C440.5,314.19,442.57,314.29,444.77,314.39z"/>
	<path d="M658.81,500.13c-0.69-0.85-1.08-1.23-1.36-1.68c-2.46-4.09-6.15-5.75-10.74-4.96c-4.58,0.79-6.48,4.23-7.33,8.41
		c-0.65,3.21-1.24,6.43-1.84,9.57c-8.86,0-17.48,0-26.1,0c-0.71-5.6-1.02-11.29-2.24-16.78c-1.04-4.69-2.44-9.57-4.9-13.63
		c-5.06-8.38-15.78-8.23-21.83,0.4c-5.96,8.5-9.5,18.11-10.41,28.18c-4.12,0-8.05,0.14-11.96-0.11c-0.82-0.05-2.18-1.48-2.23-2.33
		c-0.43-7.7-0.9-15.42-0.82-23.13c0.11-11.16,0.81-22.31,1.01-33.47c0.29-16.63,0.44-33.26,0.51-49.89
		c0.03-6.26-0.42-12.53-0.49-18.79c-0.28-24.59-0.55-49.19-0.71-73.78c-0.05-7.63,0.33-15.27,0.35-22.9
		c0.03-9.11-0.02-18.23-0.26-27.34c-0.06-2.3,0.63-3.17,2.79-3.68c3.36-0.8,6.26-0.76,9.27,1.5c14.2,10.68,28.51,21.21,42.87,31.69
		c9.84,7.18,20,13.94,29.69,21.32c13.76,10.49,27.24,21.35,40.77,32.14c0.91,0.73,1.73,2.16,1.79,3.31
		c0.9,18.21,1.84,36.42,2.43,54.64c1.02,31.56,0.32,63.1-1.89,94.61c-0.34,4.85-0.81,9.71-1.47,14.52c-0.11,0.83-1.39,1.93-2.3,2.13
		c-1.87,0.41-3.85,0.3-5.78,0.4c-4.02,0.21-4.1-0.02-3.89-4.15c0.91-18.43,1.84-36.85,2.56-55.29c0.41-10.69,0.53-21.4,0.56-32.1
		c0.01-2.69-0.65-5.43-1.38-8.04c-0.68-2.42-2.29-4.27-5.07-4.41c-2.86-0.14-4.27,1.99-4.68,4.2c-1.45,7.92-3.32,15.87-3.62,23.87
		C659.27,456.14,659.19,477.78,658.81,500.13z M582.84,331.53c0.86,5.31,1.68,12.29,3.19,19.12c1.06,4.81,4.27,8.35,9.25,9.61
		c4.28,1.08,8.73,1.54,12.98,2.71c6.99,1.94,13.87,1.14,20.52-0.95c2.38-0.75,5.35-3.21,5.92-5.43c2.1-8.13,3.74-16.44,2.28-24.97
		c-0.44-2.56-0.53-5.18-0.8-7.77c-1.18-11.28-0.72-13.46-11.45-17.75c-6.87-2.74-13.74-5.47-20.71-7.92
		c-2.3-0.81-4.92-1.11-7.38-1.05c-5.67,0.14-10.59,4.06-11.15,8.83C584.55,313.87,583.83,321.8,582.84,331.53z"/>
	<path d="M643.07,148.55c-15.4,24.29-34.2,45.38-55.87,64.4c-2.57-2.43-5.36-4.91-7.97-7.57c-7.98-8.13-15.87-16.34-23.83-24.48
		c-2.93-3-5.6-6.41-9.01-8.72c-4.47-3.03-9.43-5.44-14.41-7.58c-4.86-2.09-9.35-9.99-7.14-14.77c5.5-11.91,12.44-22.79,24.29-29.54
		c3.74-2.13,7.5-4.24,11.31-6.26c9.05-4.81,18.46-4.11,27.9-1.51c18.82,5.18,34.54,15.57,48.31,29.14c2.11,2.08,4.1,4.27,6.13,6.43
		C643,148.33,643.13,148.66,643.07,148.55z M582.81,167.9c0.23,2.71,0.47,4.63,0.53,6.54c0.07,2.22-0.72,3.28-3.07,2.02
		c-1.46-0.79-3-1.43-4.51-2.13c1.92,3.22,4.48,5.15,8.08,3.9c1.33-0.46,3.1-1.54,3.42-2.69
		C588.19,172.33,585.79,170.43,582.81,167.9z M584.76,139.74c-0.58,5.96-0.58,12.22-9.35,9.74c1.21,1.69,2.01,2.82,2.81,3.94
		c1.41-3.02,2.47-3.2,5.31-1.3c0.29-1.1,0.24-2.67,1.01-3.52C587.07,145.8,587.37,143.81,584.76,139.74z M574.84,129.69
		c-0.18-0.28-0.35-0.55-0.53-0.83c-6.25,2.6-11.4,6.63-15.21,12.38C564.34,137.39,569.59,133.54,574.84,129.69z M556.71,179
		c0.09-1.26-0.21-2.67,0.3-3.1c2.67-2.21,1.47-4.17-0.12-6.21C556.19,172.76,553.43,175.8,556.71,179z"/>
	<path d="M588.27,246.35c0.52-2.08,1.05-4.16,1.75-6.94c-2.11,0.79-3.84,1.44-5.58,2.09c-0.26-0.24-0.52-0.49-0.78-0.73
		c1.96-2.37,3.91-4.75,5.8-7.05c-1.64-0.88-3.28-1.76-4.93-2.65c-0.16,0.04-0.32,0.09-0.48,0.13c0.93,1,1.87,1.99,3.01,3.2
		c-0.79,0.92-1.81,1.85-2.49,2.98c-0.81,1.34-1.33,2.86-1.97,4.31c1.39,0.48,2.78,0.97,4.08,1.42c0.14,1.3,0.31,2.92,0.49,4.55
		c1.92-0.45,3.84-0.91,5.89-1.39c1.49,3.67,1.99,3.81,4.8,1.07c1.26,0.82,2.45,1.59,3.63,2.36c0.76-1.52,1.93-2.96,2.2-4.56
		c0.55-3.28-1.22-7.24,3.89-9.57c15.73,16.98,31.63,34.14,48.09,51.92c-0.81-1.58-1.15-2.67-1.82-3.48
		c-4.63-5.48-9.35-10.89-14-16.36c-2.38-2.8-2.92-7.36-0.96-9.8c0.75-0.93,2.15-1.64,3.34-1.78c0.56-0.07,1.38,1.38,1.96,2.23
		c3.46,5.06,6.87,10.15,10.33,15.2c4.55,6.64,6.27,14.04,5.89,21.98c-0.04,0.87-0.74,1.71-1.13,2.56c-0.32,0-0.63,0-0.95,0
		c-0.88-2.93-1.76-5.85-2.64-8.78c-0.27,0.06-0.53,0.12-0.8,0.18c0.58,3.02,0.8,6.16,1.82,9.02c1.01,2.83,3.24,1.55,5.24,0.37
		C669,311.65,676,324.35,683,337.04c-0.18,0.18-0.37,0.35-0.55,0.53c-3.9-2.97-7.81-5.92-11.7-8.9
		c-24.32-18.65-48.54-37.44-73.02-55.88c-8.45-6.36-17.48-11.98-26.4-17.68c-2.86-1.83-3.48-3.66-3.47-7.12
		c0.03-10.11-0.21-20.3-1.55-30.3c-1.32-9.83-4.12-19.46-6.19-28.82c12.94,12.61,26.36,25.69,40.58,39.55
		c-2.75,0.59-4.82,1.31-6.91,1.41c-2.11,0.1-4.25-0.42-7.31-0.77c7.87,3.05,13.61,1.67,19.13-3.65
		c15.74-15.18,31.89-29.93,47.76-44.97c2.68-2.54,4.75-5.72,7.54-9.13c1.49,2.5,2.78,4.65,3.88,6.49
		c-16.93,16.15-33.58,32.01-50.22,47.9c-1.73,1.65-3.32,3.45-5.09,5.06c-4.46,4.07-8.55,8.27-7.31,15.1
		c0.09,0.52-0.15,1.12-0.32,1.66c-0.09,0.3-0.35,0.55-1.03,1.53c-0.55-2.74-0.99-4.89-1.59-7.89c-1.34,2.55-2.29,4.36-3.24,6.17
		c-0.25-0.05-0.51-0.11-0.76-0.16c0-2.02,0-4.04,0-6.06c-0.27-0.12-0.53-0.23-0.8-0.35c-1.73,2.02-3.47,4.05-5.2,6.07
		C588.91,246.67,588.59,246.51,588.27,246.35z"/>
	<path d="M677.31,254.18c-7.73-2.94-14.92-5.69-22.14-8.39c-1.05-0.39-2.21-0.57-3.34-0.69c-7.09-0.79-9.11,1.01-9.26,8.58
		c-3.87,1.27-6.97,3.52-6.67,8.33c-9.18-9.34-18.27-18.59-27.52-28c18.84-17.32,38.21-35.13,57.89-53.22
		c1.15,2.2,2.33,4.24,3.3,6.37c5.78,12.62,11.55,25.24,17.21,37.91c0.6,1.34,1.02,3.24,0.54,4.49
		C684.09,237.92,680.59,246.19,677.31,254.18z"/>
	<path d="M571.87,512.05c0.45,5.29,0.91,10.8,1.35,15.95c-45.38,1.56-90.77,3.11-136.68,4.69c1-1.51,1.99-2.73,2.67-4.1
		c2.01-4.03,4.17-8.03,5.74-12.23c0.84-2.25,1.65-3.23,4.18-3.25c15.94-0.09,31.88-0.51,47.82-0.51c20.6,0,41.2,0.37,61.8,0.43
		C563.03,513.04,567.3,512.41,571.87,512.05z"/>
	<path d="M389.67,259.26c-2.86-0.15-3.17-1.64-2.54-3.74c4.74-15.83,10.98-30.97,21.38-43.99c9.94-12.44,21.29-23.36,35.23-31.44
		c12.43-7.21,25.44-12.68,39.68-15.01c5.95-0.98,11.87-2.3,17.86-2.86c11.25-1.07,22.29,0.23,32.74,4.76
		c11.75,5.08,18.12,14.66,21.86,26.49c4.92,15.57,6.59,31.62,7.64,47.79c0.07,1.14,0.12,2.28,0.22,3.41
		c0.51,6.33,0.51,6.33-6.49,7.67c-0.28-2.8-0.54-5.57-0.82-8.33c-0.93-9.25-1-18.7-2.99-27.72c-3.51-15.96-12.47-28.67-26.12-37.89
		c-0.57-0.38-1.22-0.68-1.69-1.15c-10.75-10.73-23.96-8.78-36.88-6.67c-13.63,2.22-25.85,8.75-38.2,14.51
		c-7.47,3.48-15.11,7.42-21.25,12.78c-10.52,9.19-19.9,19.71-27.4,31.66C396.17,238.64,392.47,248.66,389.67,259.26z"/>
	<path d="M587.98,214.5c5.02-4.77,9.4-9.22,14.07-13.32c13.47-11.82,26.51-24.03,36.93-38.74c1.64-2.31,2.94-4.86,4.39-7.3
		c0.73-1.23,1.45-2.46,2.41-4.1c4.94,6.45,9.56,12.47,14.47,18.87c-7.04,7.1-13.7,13.9-20.46,20.6
		c-9.05,8.99-18.14,17.95-27.3,26.82c-3.02,2.93-6.28,5.62-9.55,8.27c-0.57,0.46-2.09,0.58-2.57,0.17
		C596.21,222.15,592.19,218.37,587.98,214.5z"/>
	<path d="M693.29,163.69c-10.73,3.46-20.77,1.77-30.25-2.64c-8.13-3.77-13.29-10.77-14.44-19.57c-1.12-8.51-0.84-17.21-0.95-25.84
		c-0.03-1.97,0.87-3.95,1.46-6.41C666.01,125.93,678.66,145.41,693.29,163.69z"/>
	<path d="M667.21,510.63c-2,0.21-3.88,0.42-6.22,0.67c-0.29-4.69-0.78-9.08-0.8-13.48c-0.08-12.97-0.18-25.95,0.13-38.92
		c0.26-11.01,0.83-22.03,1.73-33.01c0.37-4.59,1.69-9.16,3.09-13.58c0.53-1.66,2.51-2.85,3.82-4.26c0.8,1.65,2.21,3.27,2.28,4.95
		c0.34,8.06,0.72,16.14,0.35,24.19c-0.95,21.04-2.26,42.06-3.47,63.09C667.94,503.57,667.55,506.85,667.21,510.63z"/>
	<path d="M523.03,147.49c-2.42-13.95-4.83-27.9-7.33-42.32c15.12,1.39,29.52,2.71,43.92,4.03c-7.92,4.43-15.28,9.31-21.54,15.74
		c-6.34,6.52-10.91,14.15-13.94,22.77C523.76,147.63,523.4,147.56,523.03,147.49z"/>
	<path d="M405.51,514.24c12.58,0,24.13,0,36.25,0c-0.48,2.46-0.43,5.33-1.58,7.6c-4.01,7.92-10.19,13.38-19.3,14.62
		c-4.81,0.66-7.48-2.92-9.24-6.37C409.19,525.32,407.69,520.05,405.51,514.24z"/>
	<path d="M655.12,256.31c2.86,6.48,5.47,13.09,8.66,19.4c3.18,6.29,3.93,12.63,2.38,19.32c-0.33,0.15-0.65,0.31-0.98,0.46
		c-0.78-1.43-1.9-2.78-2.26-4.3c-1.07-4.53-1.74-9.16-2.79-13.7c-0.41-1.76-1.19-3.56-2.25-5.01c-2.88-3.94-6.34-7.5-8.92-11.62
		c-1.88-3.01-3.13-6.56-3.95-10.04c-0.86-3.66,1.42-5.73,4.87-4.44c7.87,2.94,15.69,6.07,23.34,9.55c3.86,1.75,4.38,7.02,1.34,10.06
		c-0.64,0.64-2.24,1.12-2.96,0.77c-4.38-2.14-8.73-4.4-12.88-6.96c-1.18-0.73-1.68-2.57-2.48-3.9
		C655.87,256.03,655.49,256.17,655.12,256.31z"/>
	<path d="M607.56,529.54c1.24-5.49,2.28-10.08,3.32-14.71c8.77,0,17.36,0,26.29,0c0,4.08,0.05,7.69-0.06,11.29
		c-0.01,0.46-0.77,1.26-1.23,1.29C626.64,528.17,617.38,528.83,607.56,529.54z"/>
	<path d="M481.01,141.27c0.6-9.64,2.68-12.08,11.58-7.56c6.33,3.22,7.91,10.26,4.09,16.26c-1.77,2.78-9.57,5.01-12.03,3.06
		c-1.25-0.99-1.94-2.97-2.38-4.64C481.57,145.77,481.3,143.04,481.01,141.27z"/>
	<path d="M587.99,479.48c1.2,5.17,2.15,10.41,3.68,15.48c1.3,4.31,1.82,8.29-1.7,12.5c-4.01-1.97-8.36-4.06-12.63-6.28
		c-0.49-0.25-0.96-1.41-0.79-1.93c2.32-7.12,4.31-14.44,10.45-19.51C587.15,479.6,587.43,479.62,587.99,479.48z"/>
	<path d="M642.19,522.72c2.04-0.84,4.09-1.68,7.13-2.94c-1.69,6.94-3.19,13.07-4.68,19.21c-0.31,0.07-0.63,0.14-0.94,0.21
		c-0.77-1.53-1.91-2.98-2.24-4.6c-2.34-11.59-1.82-23.11,1.31-34.5c0.33-1.19,1.2-2.23,2.27-4.15c2.13,6.35,4.26,11.64,4.34,17.39
		c-0.35,0.19-0.69,0.38-1.04,0.56c-1.92-1.61-3.84-3.22-5.76-4.82c-0.17,0.16-0.33,0.32-0.5,0.48c1.2,1.21,2.35,2.48,3.6,3.63
		c3.9,3.59,3.69,5.26-1.01,7.54c-0.91,0.44-1.8,0.93-2.71,1.4C642.05,522.32,642.12,522.52,642.19,522.72z"/>
	<path d="M585.19,538.97c1.94-6.27,3.82-12.56,5.85-18.79c0.49-1.5,1.49-2.83,2.26-4.23c0.92,1.26,2.06,2.41,2.72,3.79
		c1.77,3.68,3.36,7.44,4.93,11.21c0.31,0.74,0.49,1.77,0.21,2.47c-1.9,4.85-8.09,8.77-13.34,8.33c-1.12-0.1-2.15-1.22-3.23-1.87
		C584.8,539.57,584.99,539.27,585.19,538.97z"/>
	<path d="M585.19,538.97c-0.2,0.3-0.39,0.6-0.59,0.89c-1.44-1.02-3.67-1.75-4.18-3.12c-1.9-5.06-3.32-10.32-4.69-15.56
		c-0.19-0.72,0.69-2.25,1.44-2.58c3.75-1.65,7.58-3.14,11.46-4.47c2.64-0.9,2.63,1.05,2.21,2.69c-1.11,4.29-2.46,8.53-3.58,12.82
		C586.45,532.73,585.87,535.87,585.19,538.97z"/>
	<path d="M596.12,502.36c-1.58-5.64-3.17-11.27-4.75-16.91c-0.49-1.75-0.79-3.57-1.44-5.26c-0.87-2.23-0.03-3.12,2.1-3.52
		c6.32-1.18,10.76,3.58,9.12,9.75c-1.14,4.28-2.13,8.6-3.21,12.9c-0.26,1.03-0.61,2.03-0.92,3.04
		C596.71,502.36,596.41,502.36,596.12,502.36z"/>
	<path d="M575.56,518.12c0-5.63,0-10.69,0-16.43c5.07,2.53,9.59,4.59,13.89,7.03c1.65,0.94,1.62,2.82-0.35,3.71
		C584.76,514.38,580.33,516.13,575.56,518.12z"/>
	<path d="M646.48,495.37c3.68-1.12,6.26-0.48,7.76,2.63c1.27,2.62,2.53,5.59,2.48,8.38c-0.03,1.91-2.32,3.79-3.6,5.68
		c-0.81-0.7-2.07-1.25-2.35-2.12C649.23,505.22,647.93,500.4,646.48,495.37z"/>
	<path d="M602.97,529.11c-2.23-4.82-4.28-9.09-6.19-13.42c-0.89-2.03-0.1-3.36,2.16-3.45c2.46-0.1,4.93-0.02,7.61-0.02
		C606.68,518.09,606.98,523.69,602.97,529.11z"/>
	<path d="M645.39,539.49c1.71-5.98,3.43-11.96,5.14-17.94c0.4-0.01,0.8-0.02,1.2-0.03c1.29,3.74,2.91,7.42,3.66,11.27
		c0.23,1.19-1.66,3.16-3.02,4.19c-1.8,1.37-4.04,2.18-6.09,3.23C645.99,539.97,645.69,539.73,645.39,539.49z"/>
	<path d="M597.75,504.96c1.64-6.28,3.28-12.55,4.92-18.83c0.41-0.05,0.83-0.09,1.24-0.14c0.84,4.73,2.52,9.53,2.12,14.15
		c-0.18,2.07-4.56,3.76-7.04,5.63C598.58,505.49,598.16,505.23,597.75,504.96z"/>
	<path d="M455.06,157.72c3.38-0.76,6.74-1.64,10.15-2.25c4.8-0.85,9.68-1.33,14.45-2.3c2.17-0.44,2.86,0.29,3.32,2.54
		c-9.32,1.69-18.36,4.26-27.78,3.67C455.16,158.83,455.11,158.27,455.06,157.72z"/>
	<path d="M606.93,501.75c0,3.7,0,6.25,0,8.97c-3.07,0-5.95,0-9.2,0C598.24,505.1,603.3,504.96,606.93,501.75z"/>
	<path d="M670.65,268.55c-1.26,2.11-2.28,3.82-3.67,6.16c-2.31-3.94-4.26-7.29-6.22-10.64c0.15-0.24,0.3-0.48,0.45-0.72
		C664.2,265,667.2,266.65,670.65,268.55z"/>
	<path d="M652.3,517.57c6.33,2.26,6.75,3.95,3.59,12.16C654.57,525.26,653.43,521.41,652.3,517.57z"/>
	<path d="M467.86,168.03c-0.16-2.09-0.22-3.1-0.32-4.1c-0.09-0.89-0.22-1.77-0.42-3.38c1.45,0,3.45-0.46,3.78,0.09
		c0.88,1.48,1.56,3.48,1.29,5.09C472.04,166.59,469.75,167.09,467.86,168.03z"/>
	<path d="M472.44,159.97c4.3-1.44,4.44-1.33,5.83,4.44C473.51,166.65,472.9,166.21,472.44,159.97z"/>
	<path d="M591.99,513.25c0.45-3.28,0.91-6.57,1.42-10.3c2.74,2.29,2.3,7.1-0.26,10.49C592.77,513.38,592.38,513.31,591.99,513.25z"
		/>
	<path d="M657.56,518.04c-5.32-2.72-5.32-3.99,0-7.61C657.56,513.08,657.56,515.47,657.56,518.04z"/>
	<path d="M464.1,169.68c-0.19-2.92-0.45-4.93-0.35-6.91c0.02-0.44,1.29-0.81,1.98-1.22c0.42,1.85,1.08,3.69,1.12,5.55
		C466.86,167.79,465.41,168.51,464.1,169.68z"/>
	<path d="M460.06,169.64c0.27-2.53,0.54-5.05,0.88-8.27c2.76,2.34,1.38,5.03,1.81,7.21c0.09,0.43-1.17,1.13-1.8,1.71
		C460.65,170.08,460.36,169.86,460.06,169.64z"/>
	<path d="M482.28,164.06c-0.92-0.22-2.27-0.15-2.66-0.73c-0.86-1.25-1.26-2.83-1.74-4.31c-0.05-0.16,0.63-0.81,0.91-0.77
		c0.58,0.07,1.37,0.3,1.65,0.74c0.85,1.32,1.5,2.77,2.23,4.16C482.55,163.46,482.41,163.76,482.28,164.06z"/>
	<path d="M162.33,477.8c6.64,21.11-0.91,43.17-20.9,51.82c-8.76,3.79-17.93,5.01-27.1,6.62c-0.62,0.11-1.27,0.01-2.77,0.01
		c3.83-2.94,6.74-5.86,10.22-7.74c16.56-8.94,28.12-22.54,36.69-38.9C160.23,486.27,160.88,482.36,162.33,477.8z"/>
	<path d="M189.06,401.82c0.97-0.48,1.94-0.95,3.42-1.68c0.32,5.33,0.74,10.11,0.81,14.9c0.01,0.94-1.13,2.11-2.03,2.8
		c-2.6,2-5.35,3.81-8.03,5.7c0.15,0.24,0.3,0.48,0.45,0.73c3.1-1.99,6.21-3.98,9.53-6.11c0.96,3.53,1.05,5.84-2.48,7.97
		c-4.12,2.49-7.53,6.15-11.66,9.65c0-2.28-0.04-4.36,0.01-6.43c0.04-2.01,0.34-4.03,0.23-6.03c-0.22-3.97,0.48-7.41,4.24-9.62
		c0.7-0.41,1.15-1.26,2.23-2.51c-2.26,1.56-3.87,2.66-5.47,3.77c-0.28-0.14-0.57-0.28-0.85-0.41c0.33-2.03,0.65-4.06,0.98-6.09
		C183.31,406.24,186.19,404.03,189.06,401.82z"/>
	<path d="M192.92,445.79c-4.77,3.77-9.53,7.53-14.87,11.75c0.34-6.74,0.67-13.2,1.02-19.66c0.02-0.31,0.2-0.7,0.44-0.9
		c4.45-3.8,8.93-7.57,13.4-11.35c0.41,0.19,0.83,0.38,1.24,0.57c0,6.05,0.03,12.11-0.06,18.16c-0.01,0.51-0.8,1-1.25,1.51
		C192.84,445.88,192.92,445.79,192.92,445.79z"/>
	<path d="M177.57,523.5c-0.2-3.13-0.29-6.27-0.62-9.38c-0.42-3.92,2.66-5.21,5.04-7.02c4.4-3.34,8.84-6.62,13.26-9.92
		c0.39,0.15,0.78,0.3,1.18,0.45c0,3.01,0.14,6.02-0.09,9.01c-0.07,0.83-1.18,1.66-1.96,2.34c-5.62,4.91-11.28,9.77-16.93,14.65
		L177.57,523.5z"/>
	<path d="M178.73,471.23c4.95-4.58,9.91-9.17,14.86-13.75c0.31,0.17,0.62,0.34,0.93,0.52c0.23,3.45,0.51,6.9,0.64,10.35
		c0.02,0.52-0.55,1.19-1.03,1.58c-5.3,4.27-10.63,8.51-16.63,13.29c0.63-4.28-1.08-8.22,1.26-11.99
		C178.76,471.23,178.73,471.23,178.73,471.23z"/>
	<path d="M177.44,523.62c4.76-3.46,9.51-6.93,14.27-10.37c1.26-0.91,2.57-1.76,4.59-3.14c0.21,4.15,0.44,7.59,0.51,11.03
		c0.01,0.52-0.59,1.14-1.05,1.55c-1.9,1.74-3.8,3.49-5.83,5.07c-0.79,0.62-1.89,1.08-2.87,1.14c-2.03,0.11-4.08-0.17-6.12-0.18
		c-4.57-0.02-5.12-0.85-3.38-5.22C177.57,523.5,177.44,523.62,177.44,523.62z"/>
	<path d="M177.39,507.99c-0.49-5.9-1.23-11.49,5.33-15.05c4.34-2.35,8.19-5.59,13.15-9.06c0,3.9,0.04,6.81-0.03,9.72
		c-0.01,0.49-0.35,1.14-0.74,1.44C189.28,499.33,183.43,503.58,177.39,507.99z"/>
	<path d="M195.67,471.64c0,3.13,0.05,6.25-0.05,9.38c-0.02,0.51-0.64,1.13-1.13,1.49c-5.6,4.05-11.24,8.05-16.77,12
		c-1.52-4.65-0.28-9.15,3.66-12.42c4.36-3.62,8.73-7.23,13.09-10.84C194.87,471.37,195.27,471.51,195.67,471.64z"/>
	<path d="M178.73,471.23l0.03-0.01c-0.34-1.16-0.83-2.3-0.98-3.49c-0.67-5.33,0.86-9.57,5.47-12.92c3.54-2.56,6.46-5.98,9.66-9.02
		c0.01-0.01-0.06,0.08-0.05,0.07c2.56,2.96,1.86,9.14-0.86,11.52C187.17,461.6,181.43,464.98,178.73,471.23z"/>
	<path d="M189.06,401.82c-2.88,2.21-5.75,4.42-8.63,6.63c0.12-3.07,0.24-6.15,0.37-9.22l-0.04,0.08c3.6-2.68,7.2-5.35,11.07-8.23
		C193.09,395.53,193.25,399.23,189.06,401.82z"/>
	<path d="M180.62,389.82c-1.07-6.56,1.88-11.17,8.16-12.38c1.14-0.22,3.58,0.8,3.6,1.32c0.06,1.7-0.16,4.19-1.27,5.01
		C187.96,386.11,184.31,387.77,180.62,389.82z"/>
	<path d="M180.8,399.23c-1.85-3.24-1.33-6.79,1.56-8.83c2.93-2.07,6.04-3.9,9.34-6.01c1.17,3.11,0.87,4.86-1.72,6.68
		c-3.34,2.35-6.16,5.44-9.22,8.23C180.76,399.31,180.8,399.23,180.8,399.23z"/>
	<path d="M187.57,366.46c1.01,3.31,1.8,5.9,2.74,8.95c-3.55-0.31-6.38-0.55-9.99-0.86C182.88,371.68,184.99,369.33,187.57,366.46z"
		/>
	<path d="M197.19,524.57c0.11,1.6,0.23,3.21,0.37,5.22c-2.37-0.17-4.33-0.32-6.29-0.46c-0.15-0.29-0.29-0.59-0.44-0.88
		c1.78-1.46,3.56-2.93,5.34-4.39C196.51,524.23,196.85,524.4,197.19,524.57z"/>
	<path class="st0" d="M469.08,357.35c-2.49-2.46-4.92-4.97-7.48-7.35c-1.24-1.16-2.54-1.6-4.09-0.02c-0.51,0.51-2.27,0.24-3.15-0.23
		c-0.54-0.29-0.51-1.65-0.75-2.52c0.97-1.12,1.96-2.26,2.94-3.4c0.33,0.7,1.04,1.48,0.91,2.07c-0.23,1.03-0.99,1.94-1.02,3.32
		c0.98-1.2,1.96-2.41,2.94-3.61c0.98,1.03,2.04,2.15,2.97,3.12c4.02-4.27,7.77-8.17,11.39-12.17c0.86-0.95,1.8-2.25,1.85-3.43
		c0.36-8.36,1.52-16.75-0.49-25.06c-0.58-2.41-1.37-4.77-2.06-7.15c2.47,6.19,4.93,12.38,7.35,18.44
		c2.53-6.33,1.87-13.02,0.21-19.73c3.56,6.81,3.49,13.96,1.81,21.21c-0.63,2.74-1.48,5.43-2.18,7.99
		c11.65-0.82,22.98-1.61,35.47-2.49c-2.96,7.03-0.64,13.55-0.8,20.07c-0.08,3.22-2.61,6.44-4.26,9.55
		c-2.55,4.82-5.33,9.51-7.89,14.32c-0.34,0.64-0.07,1.66,0.05,2.48c0.29,1.89,0.67,3.76,1.02,5.64c-0.34,0.12-0.67,0.24-1.01,0.36
		c3.38,3,6.76,5.99,10.59,9.38c0.41-1.24,0.85-2,0.9-2.78c1.17-17.61,2.85-35.2,3.28-52.83c0.37-14.9-0.64-29.86-6.37-43.99
		c-1.15-2.84-2.57-5.6-4.11-8.25c-2.99-5.15-6.56-9.81-12.18-12.48c4.99,0.8,8.74,3.55,11.79,7.37
		c9.28,11.63,13.34,25.2,14.82,39.76c2.19,21.6-0.31,42.96-2.91,64.34c-0.48,3.94-0.46,7.94-0.84,11.89
		c-0.69,7.18-1.63,8.19-8.73,8.6c-15.45,0.89-30.91,1.77-46.38,2.37c-12.74,0.5-25.5,0.56-38.25,0.88c-2.81,0.07-5.61,0.41-8.5-0.08
		c5.27-0.65,10.52-1.44,15.8-1.94c24.5-2.28,49-4.48,73.5-6.69c1.47-0.13,3.06,0.3,4.4-0.14c1.22-0.4,2.38-1.47,3.14-2.55
		c0.31-0.43-0.3-1.92-0.89-2.51c-2.83-2.8-5.39-6.37-8.83-7.93c-3.58-1.62-6.45-3.8-9.28-6.25c-1.25-1.08-2.03-2.73-3.35-3.69
		c-5.35-3.92-9.82-9.15-16.53-11.13c-1.76-0.52-3.27-1.89-4.89-2.87c2.07-1.6,4.14-3.19,6.23-4.8c1.03,2.38,5.3,3.73,3.33,7.83
		c4.23,3.25,8.06,7.07,12.65,9.36c2.28,1.13,6.7,0.42,8.83-1.2c3.03-2.3,4.84-6.2,6.74-8.83c-2.16-5.27,2.52-8.3,2.95-12.77
		c-1.28,1.44-2.18,2.46-3.09,3.47c-0.11-0.09-0.22-0.17-0.34-0.26c0.54-1.43,1.08-2.85,1.72-4.55c-0.83,0.38-1.31,0.6-1.88,0.86
		c0.73-2.17,1.42-4.23,2.12-6.29c-0.37-0.26-0.74-0.52-1.12-0.78c-0.6,1.14-1.19,2.29-1.79,3.43c-0.24-0.2-0.48-0.4-0.72-0.6
		c0.54-1.69,1.09-3.38,1.9-5.94c-1.94,1.53-3.09,2.45-4.25,3.37c-0.11-0.13-0.22-0.26-0.33-0.39c1.27-1.62,2.54-3.24,3.81-4.86
		c-2.73,0.45-5.12,1.41-7.48,2.43c-2.34,1.02-5.37-0.78-5.52-3.5c-2.07,1.23-4.07,2.42-6.91,4.11c1.33-2.06,2.11-3.27,3.25-5.03
		c-2.47,0.95-4.23,1.62-6.14,2.36c0.19-0.98,0.32-1.67,0.47-2.46c-4.19,0.98-16.85,12.44-18.96,16.81c1.47,5.62,5.28-1.02,7.2,1.18
		c-1.66,1.43-3.17,2.74-4.69,4.06c0.23,0.27,0.46,0.55,0.69,0.82c1.21-0.84,2.42-1.68,4.1-2.84
		C470.67,354.3,469.87,355.83,469.08,357.35z M512.52,335.53c0.74-3.21,1.28-5.55,1.98-8.57c-2.94,0.65-5.06,1.11-7.71,1.69
		C508.81,331.07,510.42,333.01,512.52,335.53z"/>
	<path class="st0" d="M469.5,298.57c-16.47-5.98-31.29-0.67-45.81,6.68c-1.62,0.82-3.04,2.19-4.73,2.71
		c-5.68,1.76-5.92,6.38-6.33,11.4c0.86-0.32,1.47-0.55,2.35-0.88c-0.84,1.7-1.56,3.17-2.28,4.64c0.33,0.26,0.67,0.53,1,0.79
		c1.54-1.93,3.08-3.87,4.53-5.69c-0.05,3.53-2.8,6.45-6.7,6.45c-0.33,4.46-1.09,8.98-0.93,13.46c0.44,12.86,1.29,25.71,1.91,38.56
		c0.42,8.64,0.72,17.28,1.07,25.92c0.02,0.4-0.12,0.81-0.19,1.21c-0.31,0.12-0.61,0.25-0.92,0.37c-0.56-1.15-1.46-2.26-1.62-3.46
		c-0.84-6.42-1.78-12.85-2.16-19.3c-0.92-15.58-2.02-31.18-0.02-46.76c1.52-11.85,3.25-23.62,7.9-34.84
		c4.13-9.97,10.62-17.63,19.4-23.65c7.85-5.38,15.75-10.51,25.32-10.99c-4.8,1.92-10.14,3.56-14.99,6.13
		c-4.9,2.59-9.44,5.92-13.92,9.23c-4.59,3.4-8.58,7.44-11.61,13.38c3.04-1.8,5.38-3.25,7.78-4.61c7.49-4.24,15.57-5.43,24.09-4.93
		c1.94,0.11,4.14-0.73,5.89-1.71c3.33-1.88,6.42-4.17,10.06-6.59c0.58,2.83,1.35,5.11,1.46,7.42c0.17,3.58,1.5,6.28,4.6,8.08
		c-2.14-0.95-4.19-2.33-6.43-2.77c-6.38-1.26-12.81-2.77-19.27-3.03c-9.49-0.38-17.91,3.55-25.88,8.43
		c-4.3,2.63-5.87,6.78-7.29,12.01c1.74-1.12,2.84-1.88,3.99-2.56c9.77-5.84,19.89-10.85,31.67-10.11
		C457.69,293.94,464.05,294.78,469.5,298.57z M458,285.06c4.39,1.05,7.82,1.87,11.6,2.78c-0.73-3.47-1.32-6.28-1.98-9.42
		C464.41,280.63,461.59,282.58,458,285.06z"/>
	<path d="M469.5,298.57c-5.44-3.79-11.81-4.64-18.11-5.03c-11.78-0.74-21.9,4.27-31.67,10.11c-1.15,0.68-2.25,1.44-3.99,2.56
		c1.41-5.23,2.99-9.39,7.29-12.01c7.98-4.87,16.39-8.81,25.88-8.43c6.46,0.26,12.89,1.77,19.27,3.03c2.24,0.44,4.29,1.82,6.43,2.77
		c2,2.69,4,5.37,6,8.06c1.66,6.72,2.31,13.41-0.21,19.73c-2.41-6.06-4.88-12.25-7.35-18.44
		C471.86,300.14,470.68,299.36,469.5,298.57z"/>
	<path class="st0" d="M456.55,343.83c-0.98,1.14-1.97,2.28-2.94,3.4c-2.05,2.51-3.38-0.18-5-0.74c-0.14-0.05-0.19-0.39-0.28-0.6
		c-4.08-9.68-13.97-12.87-21.31-18.89c-0.5-0.41-2.31,0.25-3.16,0.88c-1.34,1.01-2.36,2.05-3.27-0.3l-0.11,0.1
		c1.57-1.3,3.14-2.6,4.7-3.9c8.31,5.21,17.22,10.8,26.01,16.31c-0.74,0.6-2.03,1.65-3.32,2.69c0.23,0.35,0.45,0.71,0.68,1.06
		c1.74-1.02,3.48-2.05,5.22-3.07c0.16,0.11,0.32,0.23,0.48,0.34c-1.43,1.58-2.87,3.16-4.31,4.75c2.33,0.46,2.33,0.46,5.77-4.1
		C456.03,342.57,456.29,343.2,456.55,343.83z"/>
	<path class="st0" d="M420.59,327.59c-1.59-0.3-3.17-0.59-4.6-0.86c1.69-2.73,3.06-4.94,4.43-7.15c0.22,0.1,0.45,0.2,0.67,0.3
		c-1,2.22-1.99,4.45-2.99,6.67c0.26,0.18,0.53,0.36,0.79,0.54c1.34-1.95,2.67-3.9,4.01-5.84c0.19,0.1,0.38,0.21,0.57,0.31
		c-1,2.04-2,4.08-2.99,6.12C420.49,327.68,420.59,327.59,420.59,327.59z"/>
	<path class="st0" d="M466.02,322.02c0.38,5.72,5.58,1.42,7.5,3.87c-1.92,2.41-4.6,1.91-6.79,0.79c-1.02-0.52-1.16-2.76-1.7-4.21
		C465.37,322.32,465.7,322.17,466.02,322.02z"/>
	<path class="st0" d="M444.77,314.39c-2.2-0.1-4.28-0.2-6.35-0.29c0.02-0.34,0.04-0.68,0.06-1.03c2.84-0.33,5.68-0.65,8.89-1.02
		C446.31,313.01,445.48,313.75,444.77,314.39z"/>
	<path class="st0" d="M582.84,331.53c0.99-9.73,1.71-17.66,2.64-25.56c0.56-4.77,5.48-8.69,11.15-8.83
		c2.46-0.06,5.07,0.23,7.38,1.05c6.97,2.46,13.85,5.18,20.71,7.92c10.73,4.28,10.27,6.47,11.45,17.75c0.27,2.59,0.37,5.21,0.8,7.77
		c1.45,8.53-0.18,16.84-2.28,24.97c-0.58,2.23-3.55,4.68-5.92,5.43c-6.65,2.1-13.52,2.89-20.52,0.95c-4.25-1.18-8.7-1.63-12.98-2.71
		c-4.98-1.26-8.19-4.79-9.25-9.61C584.53,343.82,583.7,336.83,582.84,331.53z M585.9,325.7c-0.3,0.05-0.59,0.11-0.89,0.16
		c1.52,8.48,2.82,17.01,4.64,25.42c0.86,3.97,3.15,7.38,7.53,8.54c9.28,2.45,18.61,4.21,28.24,1.99c3.29-0.76,5.35-2.81,5.81-5.95
		c0.66-4.44,1.39-9.01,1.04-13.44c-0.73-9.26-0.19-18.62-2.76-27.79c-1.12-3.99-3.03-6.02-6.54-7.38
		c-6.79-2.61-13.51-5.41-20.31-7.97c-1.54-0.58-3.37-0.87-5-0.69c-6.31,0.69-11.57,6.45-11.75,12.79
		C585.8,316.14,585.9,320.92,585.9,325.7z"/>
	<path class="st0" d="M582.81,167.9c2.98,2.53,5.38,4.43,4.46,7.65c-0.33,1.15-2.09,2.23-3.42,2.69c-3.6,1.25-6.16-0.68-8.08-3.9
		c1.51,0.71,3.05,1.35,4.51,2.13c2.35,1.26,3.14,0.2,3.07-2.02C583.28,172.53,583.04,170.62,582.81,167.9z"/>
	<path class="st0" d="M584.76,139.74c2.61,4.07,2.31,6.06-0.22,8.86c-0.76,0.84-0.72,2.42-1.01,3.52c-2.84-1.9-3.9-1.72-5.31,1.3
		c-0.8-1.12-1.61-2.25-2.81-3.94C584.18,151.96,584.18,145.7,584.76,139.74z"/>
	<path class="st0" d="M574.84,129.69c-5.25,3.85-10.49,7.7-15.74,11.55c3.81-5.75,8.95-9.78,15.21-12.38
		C574.48,129.14,574.66,129.41,574.84,129.69z"/>
	<path class="st0" d="M556.71,179c-3.28-3.19-0.52-6.23,0.18-9.31c1.59,2.04,2.79,4,0.12,6.21
		C556.5,176.32,556.81,177.73,556.71,179z"/>
	<path d="M469.08,357.35c0.79-1.53,1.59-3.05,2.67-5.14c-1.68,1.17-2.89,2.01-4.1,2.84c-0.23-0.27-0.46-0.55-0.69-0.82
		c1.52-1.31,3.04-2.63,4.69-4.06c-1.92-2.2-5.73,4.45-7.2-1.18c2.11-4.37,14.77-15.83,18.96-16.81c-0.15,0.8-0.28,1.48-0.47,2.46
		c1.91-0.73,3.67-1.41,6.14-2.36c-1.14,1.77-1.92,2.97-3.25,5.03c2.84-1.69,4.84-2.88,6.91-4.11c0.14,2.72,3.18,4.51,5.52,3.5
		c2.36-1.03,4.75-1.98,7.48-2.43c-1.27,1.62-2.54,3.24-3.81,4.86c0.11,0.13,0.22,0.26,0.33,0.39c1.16-0.92,2.32-1.84,4.25-3.37
		c-0.82,2.56-1.36,4.25-1.9,5.94c0.24,0.2,0.48,0.4,0.72,0.6c0.6-1.14,1.19-2.29,1.79-3.43c0.37,0.26,0.74,0.52,1.12,0.78
		c-0.69,2.06-1.39,4.12-2.12,6.29c0.57-0.26,1.05-0.48,1.88-0.86c-0.64,1.69-1.18,3.12-1.72,4.55c0.11,0.09,0.22,0.17,0.34,0.26
		c0.91-1.02,1.81-2.04,3.09-3.47c-0.43,4.47-5.11,7.5-2.95,12.77c-1.9,2.63-3.71,6.54-6.74,8.83c-2.13,1.62-6.55,2.33-8.83,1.2
		c-4.59-2.28-8.42-6.1-12.65-9.36c1.97-4.1-2.3-5.45-3.33-7.83c-2.09,1.61-4.16,3.21-6.23,4.8
		C468.99,357.26,469.08,357.35,469.08,357.35z M495.62,357.13c2.59,0.75,5.38,1.55,8.17,2.35c0.1-0.28,0.2-0.56,0.3-0.84
		c-1.6-0.53-3.54-0.67-4.72-1.69c-1.17-1.01-1.59-2.9-2.2-4.12C496.77,353.95,496.25,355.39,495.62,357.13z M484.4,356.2
		c-0.14-0.19-0.28-0.39-0.42-0.58c-1.12,0.89-2.43,1.64-3.24,2.75c-0.29,0.4,0.55,2.36,1.07,2.45c1.42,0.23,2.93-0.16,4.41-0.3
		c-0.04-0.26-0.07-0.52-0.11-0.77c-1.26-0.19-2.53-0.37-4.38-0.65C482.87,357.86,483.64,357.03,484.4,356.2z"/>
	<path d="M512.52,335.53c-2.1-2.53-3.72-4.46-5.73-6.87c2.64-0.58,4.76-1.05,7.71-1.69C513.81,329.98,513.27,332.32,512.52,335.53z"
		/>
	<path d="M458,285.06c3.59-2.48,6.41-4.43,9.62-6.64c0.66,3.14,1.25,5.96,1.98,9.42C465.82,286.93,462.39,286.11,458,285.06z"/>
	<path d="M585.9,325.7c0-4.77-0.11-9.55,0.03-14.32c0.17-6.34,5.44-12.1,11.75-12.79c1.63-0.18,3.45,0.11,5,0.69
		c6.81,2.56,13.52,5.36,20.31,7.97c3.51,1.35,5.42,3.38,6.54,7.38c2.57,9.18,2.03,18.53,2.76,27.79c0.35,4.43-0.38,9-1.04,13.44
		c-0.46,3.14-2.53,5.2-5.81,5.95c-9.63,2.22-18.95,0.47-28.24-1.99c-4.38-1.16-6.67-4.58-7.53-8.54
		c-1.83-8.41-3.13-16.94-4.64-25.42C585.31,325.81,585.61,325.75,585.9,325.7z"/>
	<path class="st0" d="M495.62,357.13c0.63-1.74,1.15-3.18,1.56-4.3c0.61,1.22,1.03,3.11,2.2,4.12c1.18,1.02,3.11,1.16,4.72,1.69
		c-0.1,0.28-0.2,0.56-0.3,0.84C501,358.68,498.21,357.87,495.62,357.13z"/>
	<path class="st0" d="M484.4,356.2c-0.77,0.83-1.53,1.66-2.67,2.9c1.85,0.27,3.11,0.46,4.38,0.65c0.04,0.26,0.07,0.52,0.11,0.77
		c-1.48,0.14-2.99,0.53-4.41,0.3c-0.52-0.08-1.36-2.05-1.07-2.45c0.8-1.11,2.12-1.86,3.24-2.75
		C484.12,355.81,484.26,356,484.4,356.2z"/>
</g>
</svg>
