<?xml version="1.0" encoding="utf-8"?>
<!-- Generator: Adobe Illustrator 15.1.0, SVG Export Plug-In . SVG Version: 6.00 Build 0)  -->
<!DOCTYPE svg PUBLIC "-//W3C//DTD SVG 1.1//EN" "http://www.w3.org/Graphics/SVG/1.1/DTD/svg11.dtd">
<svg version="1.1" id="Layer_1" xmlns="http://www.w3.org/2000/svg" xmlns:xlink="http://www.w3.org/1999/xlink" x="0px" y="0px"
	 width="825px" height="525px" viewBox="0 0 825 525" enable-background="new 0 0 825 525" xml:space="preserve">
<g id="Black">
	<polygon points="-0.001,0 825,0 825.013,525.171 0,525.171 	"/>
</g>
<g>
	<path fill="#FFFFFF" d="M394.234,0c7.408,0,14.817,0,22.228,0c-5.097,8.914-8.619,17.804-9.352,30.38
		C403.46,19.64,398.982,8.796,394.234,0z"/>
	<path fill="#FFFFFF" d="M545.051,43.9c-6.705,3.179-14.188,6.507-19.934,10.021c-29.658,16.985-58.298,34.227-82.196,56.147
		c-0.388-3.035-2.429-6.628-1.767-9.703c0.146-0.671,1.017-0.918,1.588-1.591c5.914-6.934,14.343-14.404,21.696-20.041
		c19.284-14.126,40.601-27.573,69.146-32.925c0.782-0.035,1.585-0.058,1.939-0.479c1.22-0.12,2.589-0.104,3.354-0.637
		C541.18,44.653,542.7,43.903,545.051,43.9z"/>
	<path fill="#FFFFFF" d="M402.174,60.6c-0.679,2.306-1.552,4.435-2.293,6.681c-4.283-4.219-15.914-3.576-17.641,2.227
		c-5.679,0.235-7.514,3.938-8.291,8.591c-3.484,1.628-6.087,4.054-5.819,9.064c-3.535,1.583-5.684,4.419-5.292,9.543
		c-1.053-0.15-1.146,0.559-1.94,0.639c-7.016-11.064-15.518-20.787-23.284-31.178c0.36-0.363,1.465-0.057,2.117-0.158
		c0.392,0.089,0.252-0.304,0.53-0.317c2.163-0.116,4.548-0.035,6.173-0.636c2.987-0.169,5.803-0.494,8.291-1.114
		c13.748-1.186,29.275-4.688,42.157-6.204C399.586,57.42,400.689,59.317,402.174,60.6z"/>
	<path fill="#FFFFFF" d="M807.872,73.008c0.325,1.445,0.062,3.07-0.706,4.296c-0.89,0.099-1.396,0.542-1.764,1.111
		c-1.088,0.132-1.906,0.507-2.469,1.113c-5.121,1.691-11.034,2.67-16.581,3.977c-10.836,0.584-18.422,5.288-27.518,7.953
		c-17.386,2.562-28.316-6.592-44.45-4.294c-3.882,0.553-8.12,1.523-12.524,2.067c-10.331,0.737-18.577-2.722-20.285-8.589
		c-0.21-3,2.042-5.158,3.704-6.999c3.222-1.656,7.666-2.207,11.995-2.863c8.001-0.25,15.021-1.03,20.638-3.658
		c4.788-2.236,8.655-4.991,13.938-5.885c5.206-0.882,10.872-0.411,15.698,0.477c9.082,1.673,17.101,4.973,26.635,6.521
		C785.036,70,802.174,65.799,807.872,73.008z"/>
	<path fill="#FFFFFF" d="M399.526,68.872c-0.39,0.178-0.397,0.7-0.529,1.113c-2.827-3.306-12.464-5.134-14.64,0
		c-0.668,0.229-0.338-0.438-0.882-0.318C386.206,64.688,395.439,64.824,399.526,68.872z"/>
	<path fill="#FFFFFF" d="M400.231,146.333c-11.22-16.339-24.801-30.549-36.866-46.127c0.354,0.056,0.554-0.032,0.529-0.316
		c1.22,2.166,3.455,6.112,7.409,5.406c5.139-0.918,0.893-10.031-4.41-9.385c-0.182-2.071,0.81-3.087,1.764-4.135
		c1.524,1.987,2.647,5.072,5.292,5.885c4.81,1.479,7.265-2.857,4.94-6.521c3.185,2.321,8.65,0.5,7.761-4.138
		c5.059,2.171,8.304-2.121,7.231-6.999c-1.421-4.065-3.324-8.093-8.113-9.542c2.492-4.529,10.082-1.688,12.7,0.795
		c-0.039,0.667,0.028,2.059-0.529,1.75c-2.448,9.204-2.232,19.749-3.351,30.222C392.858,119.41,396.696,134.521,400.231,146.333z"/>
	<path fill="#FFFFFF" d="M377.124,77.619c0.313-1.945,1.534-3.07,3.527-3.499c0.174,1.911,0.243,3.917,0.882,5.408
		C380.399,78.583,377.924,77.902,377.124,77.619z"/>
	<path fill="#FFFFFF" d="M384.005,74.12c3.826,1.172,7.024,5.241,5.646,9.543C385.553,82.48,384.526,78.527,384.005,74.12z"/>
	<path fill="#FFFFFF" d="M377.302,81.278c3.545,0.554,6.186,4.158,4.763,7.635C378.712,87.96,378.207,84.436,377.302,81.278z"/>
	<path fill="#FFFFFF" d="M376.066,96.548c-3.382-0.502-4.86-2.722-5.82-5.406c1.874,1.332,2.3,3.972,5.292,4.294
		c0.348-0.161,0.507-0.479,1.411-0.479c0.922-6.126-11.331-6.705-11.642-0.795c-0.124,0.631,0.307,1.762-0.354,1.909
		c-1.449-4.056,1.709-8.327,6.177-7.794c3.753,0.448,8.521,3.95,6.523,7.794C377.074,96.184,376.32,96.14,376.066,96.548z"/>
	<path fill="#FFFFFF" d="M372.716,91.617c1.215,0.603,2.554,1.09,3,2.386C373.97,93.878,373.346,92.744,372.716,91.617z"/>
	<path fill="#FFFFFF" d="M527.056,113.726c2.299-4.13,5.461-7.483,7.585-11.771c8.438-3.357,18.126-5.554,29.281-4.613
		c18.787,1.587,30.22,11.758,48.684,13.361c10.938,0.95,21.649-1.188,32.28-2.066c18.935-1.563,38.318,0.781,44.979,11.45
		c0.364,3.245-1.383,4.586-2.47,6.522c-12.48,9.575-33.911,5.022-52.388,3.021c-11.589-1.256-23.917-0.082-34.749,1.113
		c-1.986,0.219-4.189,0.471-5.821,0.795C563.802,133.16,551.985,117.64,527.056,113.726z"/>
	<path fill="#FFFFFF" d="M367.599,99.57c1.365,0.518,2.722,1.044,2.646,2.863C368.609,102.159,368.061,100.902,367.599,99.57z"/>
	<path fill="#FFFFFF" d="M347.49,121.36c-16.244,2.056-33.215-0.588-48.152-1.908c-14.662-1.295-33.392,0.429-41.276-6.521
		c-1.143-1.008-2.839-3.387-2.471-5.567c0.783-4.613,7.204-5.711,12.523-6.68c16.68-0.073,32.153,4.271,49.214,1.75
		c9.568-0.357,17.625,0.646,23.813,3.34C343.503,110.781,345.218,116.745,347.49,121.36z"/>
	<path fill="#FFFFFF" d="M152.049,113.726c11.057,1.109,21.118,3.118,31.223,5.089c-4.787,5.927-9.899,10.583-13.055,17.974
		C165.121,128.236,158.33,121.211,152.049,113.726z"/>
	<path fill="#FFFFFF" d="M167.042,137.266c0.92,0.229,0.837,1.365,1.587,1.75c-0.448,0.229-1.183,0.207-1.587,0.477
		C167.042,138.751,167.042,138.01,167.042,137.266z"/>
	<path fill="#FFFFFF" d="M385.944,231.746c-17.346-7.332-36.723-13.322-58.032-18.133c-3.933-0.888-7.825-1.924-11.816-2.546
		c-6.535-1.014-13.277-0.868-20.286-1.748c-3.35,0.798-8.503-0.035-11.643,0.954c-1.433,0.086-3.141-0.075-4.058,0.478
		c-1.395,0.11-2.547,0.091-3.88,0.317c-6.727,1.146-20.57,3.221-18.168,10.817c0.93,2.938,5.038,6.313,8.112,8.109
		c11.807,6.896,26.412,12.683,40.749,16.542c-0.243,0.206-0.177,0.69-0.179,1.113c-2.061,0.204-4.408-0.679-6.878-0.636
		c-12.102-2.559-23.598-7.033-33.691-11.932c-2.842-2.643-8.667-5.109-11.816-9.064c-1.944-2.439-4.534-7.839-2.823-11.135
		c0.696-4.887,3.629-7.757,5.292-11.771c10.799-15.033,25.694-27.183,40.747-37.854c11.507-6.567,23.279-13.342,40.04-15.588
		c0.789-0.668,2.923-0.122,3.705-0.795c7.366-0.415,15.193-0.219,21.167,1.114c-0.054,0.419,0.368,0.41,0.705,0.476
		c2.262,5.063,5.327,8.699,8.114,13.045c0,1.59,0,3.182,0,4.771C370.021,194.052,377.97,213.274,385.944,231.746z"/>
	<path fill="#FFFFFF" d="M645.768,236.359c0-0.689,0-1.379,0-2.067c4.688,0.142,10.627,0.782,15.169,0
		c7.455-0.278,17.387-1.267,22.226-4.296c1.902-1.188,3.805-3.355,2.999-6.52c-5.567-6.209-21.417-5.501-33.515-6.522
		c-2.762-0.231-5.529-0.244-8.29-0.477c-6.894-0.582-15.509-0.266-20.813-0.954c-10.067-0.422-19.392-0.423-29.457-1.273
		c-5.981-0.505-13.876-0.039-19.758,0.479c-5.053-0.155-9.196,0.506-11.993,2.386c-4.05,9.193,10.265,12.506,21.168,13.997
		c5.547,0.759,10.65,0.375,16.228,0.954c-0.131,1.881-3.295,1.171-4.764,1.114c-4.759-0.189-9.469-0.876-13.937-1.434
		c-9.476-1.18-19.757-2.347-23.105-8.589c-0.684-1.795,0.646-4.939-0.705-5.409c6.771-9.319,14.188-18.061,21.344-27.039
		c0.611,0.128,0.678-0.235,1.234-0.159c-0.06-0.585,0.148-1.406-0.177-1.75c-4.143,1.567-8.479,2.957-12.523,4.613
		c13.487-21.929,34.331-37.226,65.794-42.947c11.048-0.792,20.043,0.957,26.988,4.614c5.338,2.812,12.87,10.141,16.229,15.747
		c3.872,6.469,7.879,14.997,9.524,22.27c0.751,3.319,0.885,7.11,1.764,10.18c-0.021,7.333,1.597,15.727,0.705,22.904
		c-0.573,4.62-4.104,6.366-8.995,7.793C670.261,236.552,657.248,236.929,645.768,236.359z"/>
	<path fill="#FFFFFF" d="M51.506,151.581c17.049-1.292,28.014,5.323,46.567,3.817c11.69-0.947,27.813-2.718,34.925,3.659
		c2.269,2.03,3.831,6.521,0.529,8.749c-4.623,1.08-9.549,1.886-13.758,3.339c-3.459,0.511-7.303,1.372-10.938,1.75
		c-12.896,1.34-24.79-1.086-31.574-6.522c-13.586-1.436-34.033,4.025-40.041-5.407C36.781,153.451,44.802,153.179,51.506,151.581z"
		/>
	<path fill="#FFFFFF" d="M526.883,183.074c-0.985-0.142-3.975-4.746-4.939-1.431c-0.615-0.242-0.742-0.921-0.705-1.75
		C523.683,178.885,525.196,181.397,526.883,183.074z"/>
	<path fill="#FFFFFF" d="M231.072,267.376c-3.486,2.849-6.433,6.183-9.349,9.542c-7.723,4.126-17.584,6.021-26.637,9.229
		c-10.402,2.547-20.102,5.729-29.81,8.904c-0.083-1.093-0.188-2.161-0.529-3.021c19.16-5.31,38.422-10.526,55.034-18.133
		c2.669-0.668,4.235-2.331,6.174-3.657c0.099-0.868,0.586-1.382,1.061-1.91c-0.713-7.633-13.994-6.38-22.933-7.157
		c-9.958-0.865-22.055-0.623-30.516,0c-2.414-0.109-4.288,0.269-6.703,0.158c-0.391-0.087-0.25,0.307-0.529,0.318
		c-13.85,0.414-24.611,2.795-36.513,4.771c-0.524,0.426-2.342,0.643-3.88,0.638c-29.26,6.012-54.302,15.283-71.086,32.767
		c-3.833,10.377,13.771,8.3,23.105,7.636c3.786-1.253,8.979-1.233,12.7-2.546c12.712-2.241,23.69-5.198,34.926-8.589
		c0.409,0.69,0.063,2.065,0.178,3.021c-7.028,2.101-16.099,3.717-23.638,5.885c-0.461-0.063-0.491-0.511-1.233-0.317
		c-8.996,3.262-20.028,4.083-29.633,6.521c-13.995,2.036-19.851-3.59-17.992-14.635c2.281-13.567,4.914-26.335,7.23-39.923
		c0.935-5.469,2.655-12.165,4.059-16.542c7.092-31.799,24.904-54.709,62.266-58.69c14.813-0.859,29.374,0.449,38.454,4.771
		c3.21,0.551,5.035,2.354,7.937,3.184c17.698,10.901,32.584,23.425,42.863,40.877c5.625,9.528,10.593,18.82,14.288,29.901
		C231.199,262.17,231.05,264.85,231.072,267.376z"/>
	<path fill="#FFFFFF" d="M519.298,198.344c-0.693,0.146-0.445-0.555-1.234-0.318c-0.833-3.014-1.661-6.031-5.292-6.521
		c-3.775,7.065,13.15,12.589,11.289,3.022c2.244,3.911-1.793,7.204-6.88,5.566c-3.146-1.014-6.143-4.941-5.82-8.271
		c0.526-0.762,1.708-1.543,2.822-1.272C516.697,192.417,518.302,195.105,519.298,198.344z"/>
	<path fill="#FFFFFF" d="M513.651,192.936c0.942,1.271,2.072,2.373,2.646,3.976C514.779,196.16,513.615,195.09,513.651,192.936z"/>
	<path fill="#FFFFFF" d="M512.419,205.344c-1.386-3.685-1.239-8.745-5.646-9.703c-0.575-0.042-0.509,0.495-0.881,0.636
		c-0.484-0.76,0.864-1.231,1.233-1.749C510.698,196.29,512.906,200.975,512.419,205.344z"/>
	<path fill="#FFFFFF" d="M507.125,197.231c2.188,1.209,2.641,3.98,3.354,6.521C508.601,202.215,507.362,199.782,507.125,197.231z"/>
	<path fill="#FFFFFF" d="M505.715,210.433c0.629-3.788-1.068-7.982-4.059-9.544c-3.344,5.455,4.94,16.1,10.407,9.86
		c0-0.371,0-0.742,0-1.111c0.54-0.116,0.519,0.272,1.059,0.157c-0.479,2.166-2.463,2.978-4.407,3.817
		c-6.058-1.413-9.995-7.167-8.291-13.996c0.661-0.188,1.158,0.189,1.938,0.158c0.71,1.057,1.498,2.042,2.47,2.863
		C505.5,204.537,507.709,208.232,505.715,210.433z"/>
	<path fill="#FFFFFF" d="M0,205.661c10.563,1.976,22.479,3.479,34.572,1.75c15.033-2.146,29.171-8.252,44.98-3.815
		c-8.105,10.102-13.062,21.996-16.582,35.786C46.226,243.173,21.151,250.22,0,245.425C0,232.171,0,218.916,0,205.661z"/>
	<path fill="#FFFFFF" d="M502.362,203.115c0.9,1.87,2.056,2.783,2.116,5.568C503.253,207.299,502.312,205.653,502.362,203.115z"/>
	<path fill="#FFFFFF" d="M493.719,205.184c2.401,1.996,4.303,5.869,3.351,9.859C495.011,212.374,491.68,207.894,493.719,205.184z"/>
	<path fill="#FFFFFF" d="M508.009,206.775c1.032,0.499,1.714,1.314,2.646,1.908c0.15,1.988-0.832,2.962-3.175,2.705
		C507.811,209.991,508.174,208.62,508.009,206.775z"/>
	<path fill="#FFFFFF" d="M500.246,218.703c2.6-0.729,4.649-1.956,5.291-4.453c0.315,3.628-4.337,6.267-8.467,4.453
		c-2.919-2.563-4.96-5.919-5.644-10.498C493.884,212.694,494.617,216.783,500.246,218.703z"/>
	<path fill="#FFFFFF" d="M500.246,209.32c1.26,1.146,1.995,2.76,3.703,3.499c0.026,2.622-1.356,3.971-3.88,4.295
		C500.694,214.925,501.221,211.564,500.246,209.32z"/>
	<path fill="#FFFFFF" d="M488.78,211.864c2.532,2.027,3.103,7.767,1.939,11.612c-0.979-0.999,0.292-3.789-0.177-5.888
		C489.968,215.673,489.558,213.602,488.78,211.864z"/>
	<path fill="#FFFFFF" d="M487.547,213.296c1.362,1.806,1.278,5.175,1.765,7.317c-0.641-0.497-0.243,0.958-0.354,1.431
		c-1.632-1.604-2.752-3.668-3.881-5.726C485.716,215.144,486.881,214.445,487.547,213.296z"/>
	<path fill="#FFFFFF" d="M482.606,218.703c1.446,3.911-0.956,8.319-1.94,11.612c-0.559-0.079-0.721-0.519-0.882-0.954
		c1.339-2.579,2.992-6.139,2.116-9.703C481.971,219.191,482.479,219.119,482.606,218.703z"/>
	<path fill="#FFFFFF" d="M480.136,221.09c0.176,0,0.354,0,0.527,0c-0.086,2.733-0.75,4.944-1.764,6.841
		C477.257,225.252,478.114,222.684,480.136,221.09z"/>
	<path fill="#FFFFFF" d="M484.37,221.725c1.164,1.281,1.86,2.987,3.177,4.135c-0.674,2.894-2.205,5.01-5.646,5.409
		C482.713,228.077,484.539,225.802,484.37,221.725z"/>
	<path fill="#FFFFFF" d="M824.982,224.589c0,7.266,0,14.527,0,21.791c-6.652-0.958-14.269-0.458-22.049-1.111
		c-13.481-1.14-31.26,2.089-43.569-1.114c-7.243-1.885-15.93-6.306-12.7-14.474c5.938-5.56,16.668-8.353,28.93-7.316
		C790.577,223.626,808.969,227.933,824.982,224.589z"/>
	<path fill="#FFFFFF" d="M474.844,226.656c1.023,1.729,1.387,4.052,2.999,5.249c-4.09,5.802-9.559,10.363-14.643,15.27
		c0.031-2.444-1.289-5.006-0.705-7.156c0.582-2.146,3.938-4.39,5.47-6.045C470.45,231.285,472.562,228.598,474.844,226.656z"/>
	<path fill="#FFFFFF" d="M317.506,230.633c-1.082,8.694-0.865,18.604-3.883,25.133c-2.175-1.412-0.173-7.03-2.115-9.067
		c-2.438,0.667-2.947,3.071-3.882,5.09c0.937-7.149,2.702-14.486,5.646-20.041C313.738,230.524,315.58,230.542,317.506,230.633z"/>
	<path fill="#FFFFFF" d="M357.898,235.405c18.046,10.287,33.339,25.531,48.684,39.287c-0.501,2.781-1.166,5.417-1.765,8.112
		C387.552,268.422,371.463,252.174,357.898,235.405z"/>
	<path fill="#FFFFFF" d="M622.84,238.268c0.313,1.89,0.167,4.194,0.705,5.885c-1.422-0.063-2.284,0.379-3.705,0.318
		C621.069,242.61,621.787,240.289,622.84,238.268z"/>
	<path fill="#FFFFFF" d="M611.195,239.063c0.849,1.892,0.081,5.709,0.354,7.633c-2.058,0.798-4.3,1.426-6.352,2.229
		C607.102,245.552,609.327,242.469,611.195,239.063z"/>
	<path fill="#FFFFFF" d="M0,300.3c0-18.078,0-36.157,0-54.236c21.894,5.009,45.939-2.153,62.619-5.885
		c-3.553,14.045-5.573,31.19-9.172,46.126c-2.999-1.225-7.506-1.463-11.642-1.113c-16.44,1.387-31.115,8.005-41.275,14.951
		C0.499,300.327,0.25,300.314,0,300.3z"/>
	<path fill="#FFFFFF" d="M616.842,240.177c0.72,1.364,0.108,3.931,1.059,5.091c-1.79-0.078-2.599,0.729-4.231,0.794
		C614.732,244.109,615.84,242.188,616.842,240.177z"/>
	<path fill="#FFFFFF" d="M604.316,240.336c0.339,2.943-1.663,5.675-1.411,9.702c-0.698-0.205-0.358,0.524-1.059,0.318
		C602.787,247.121,602.255,242.557,604.316,240.336z"/>
	<path fill="#FFFFFF" d="M310.625,248.764c0.637,1.281-0.396,4.07,0.528,5.09c-0.982,0.46-1.478-0.892-2.469-0.953
		C309.038,251.26,310.08,250.235,310.625,248.764z"/>
	<path fill="#FFFFFF" d="M394.058,251.47c0.318,0.667,0.5,1.457,1.059,1.906c-1.917,1.523-3.902,2.285-7.23,2.704
		c0.007-0.589-0.663-0.567-0.882-0.953C389.647,253.941,391.58,252.929,394.058,251.47z"/>
	<path fill="#FFFFFF" d="M315.74,253.219c0.246,0.417-0.254,3.809,0.176,4.45c-0.523-0.107-0.644-0.584-1.059-0.794
		C314.837,255.371,315.552,254.534,315.74,253.219z"/>
	<path fill="#FFFFFF" d="M346.432,253.219c6.538,1.525,13.875,2.333,21.343,3.021c0.273,0.867,0.993,1.332,1.235,2.227
		c-7.884-0.686-15.456-1.65-22.755-2.861C346.358,254.848,346.51,254.138,346.432,253.219z"/>
	<path fill="#FFFFFF" d="M527.056,257.99c14.424,3.536,24.199,11.263,34.926,18.133c8.938,6.632,17.032,12.794,22.932,21.631
		c6.59,7.828,12.348,16.187,14.287,27.836c-0.097,0.354,0.338,0.228,0.354,0.479c0.344,3.881,0.515,8.1,0,11.929
		c-0.674-0.13-0.208,0.77-0.882,0.638c-1.255,8.941-10.115,11.024-19.579,12.565c5.104-2.643,14.511-3.431,15.521-9.226
		c0.087-0.502,0.121-0.995,0-1.75c-1.708-10.567-24.177-10.938-37.219-13.521c-5.979-1.185-16.146-1.239-22.578-0.477
		c-2.898,0.088-6.147-0.139-8.467,0.477c-3.385,0.077-6.888,0.047-9.702,0.637c-28.25,1.09-48.792,9.129-69.498,17.021
		c3.157-15.12,7.749-28.894,10.938-43.582C486.84,292.134,513.381,280.348,527.056,257.99z"/>
	<path fill="#FFFFFF" d="M655.116,371.558c4.17-17.792,13.062-31.182,22.578-42.946c2.32-0.507,4.163-1.443,6.527-1.909
		c6.35-3.34,14.346-5.196,16.934-11.929c-0.461-2.703-0.78-3.867-1.059-6.362c11.947-5.615,23.344-9.968,39.512-11.452
		c25.048,0.461,35.829,12.535,40.396,30.223c0.933,3.612,1.681,6.885,2.47,11.135c0.506,2.725,1.114,6.033,1.587,9.225
		c0.118,1.75-0.114,3.814,0.529,5.09c0.005,4.662,0.502,8.881,0.354,13.681c-0.129,0.694,0.35-0.128,0.354,0.316
		c-0.342,9.96-0.337,18.909-1.94,28.313c-0.77,4.51-1.439,8.798-3.705,12.089c-0.718,0.224-2.135,0.221-2.115,0.636
		c-1.165,0.116-2.647-0.056-3.353,0.479c-4.618,0.394-8.704-0.14-12.699-0.795c-12.007-1.979-23.628-4.263-31.927-9.229
		c-0.508-0.02-1.155,0.087-1.412-0.159c-4.512-2.32-9.015-3.603-13.758-5.884c-16.497-5.349-32.817-10.489-48.686-16.383
		C662.113,374.359,658.109,373.917,655.116,371.558z"/>
	<path fill="#FFFFFF" d="M127.177,317.637c2.966-1.516,2.417-6.198,4.057-8.908c0.229,6.627-0.423,13.708,0.177,20.519
		c-3.833,2.854-8.374,4.919-12.7,7.953c-1.688,1.186-5.263,3.831-1.059,4.772c4.188,0.938,10.191,1.041,14.993,1.11
		c0,0.639,0,1.273,0,1.909c-7.924,1.878-19.426,1.043-22.754-4.135c-1.328-10.49-0.672-24.752-0.179-36.106
		c5.663-1.352,10.935-2.387,16.053-3.977C126.823,306.092,125.593,313.15,127.177,317.637z"/>
	<path fill="#FFFFFF" d="M107.951,309.526c-1.453-1.129-2.925-2.242-4.234-3.5c1.625-0.021,2.642-0.589,4.059-0.796
		C108.661,306.166,107.828,308.225,107.951,309.526z"/>
	<path fill="#FFFFFF" d="M398.821,320.818c0.235,0.477,1.551-0.021,1.411,0.795c-0.601-0.492-0.941-0.238-1.411,0.159
		C398.821,321.455,398.821,321.135,398.821,320.818z"/>
	<path fill="#FFFFFF" d="M199.675,325.271c1.806,4.285,2.916,10.952,4.059,16.544c0.932,4.563-2.645,6.561-4.059,10.337
		c-0.5-1.161-0.731-3.213-2.115-3.181c-2.689,0.063-1.445,7.583-2.293,10.021c-1.036-2.207-1.585-4.071-2.646-6.521
		c-0.609-1.41-1.084-4.112-2.999-3.979c-1.469,2.652-1.132,6.934-1.232,10.816c-1.686-2.536-1.062-8.32-4.588-9.702
		c-2.038,1.767-0.935,6.367-1.233,9.702c-2.091-2.688-1.293-9.631-5.821-9.066c-1.846,4.009-1.586,9.915-2.822,14.476
		c-1.297-11.065-2.938-23.197-1.764-35.472C180.277,326.973,189.967,326.114,199.675,325.271z"/>
	<path fill="#FFFFFF" d="M214.139,330.362c-2.957,3.958-6.249,7.926-8.645,11.93c-1.335-2.668-1.18-6.677-2.117-9.703
		C207.212,332.107,210.463,329.51,214.139,330.362z"/>
	<path fill="#FFFFFF" d="M601.494,331.952c2.261,0.614,4.623,1.134,7.058,1.592c0.473,7.155-1.087,16.146,1.232,21.632
		c1.853-0.559,1.557-3.053,2.293-4.612c0.101,13.591,1.423,26.378,3.354,37.854c-6.281,0.729-10.73,2.139-16.757,3.023
		c0.277-11.984-1.429-25.893,0-38.652c0.794-7.103,1.796-13.186,2.82-20.357C601.494,332.269,601.494,332.111,601.494,331.952z"/>
	<path fill="#FFFFFF" d="M609.963,333.702c9.547,0.685,22.633,0.682,32.982,0.159c-0.018,4.947,0.065,9.804,0.529,14.313
		c-1.749-0.251-1.512,1.288-2.115,2.068c-0.729-1.719-0.261-3.655-1.939-4.613c-2.629,0.762-2.032,4.426-3.177,6.521
		c0.673-4.383-2.165-10.14-4.409-4.453c-1.146-1-0.377-3.982-2.293-3.816c-1.721,0.147-1.389,3.521-2.115,5.248
		c-1.158-1.362-0.354-4.794-2.117-5.248c-2.942-0.762-2.672,5.456-4.059,7.156c-0.381-3.103,0.146-7.021-2.293-8.271
		c-2.283,1.278-2.088,4.798-2.82,7.476c-1.196-1.838-0.441-5.434-2.117-6.839c-3.036,0.761-2.319,4.906-3.527,7.316
		C609.797,345.516,609.966,339.532,609.963,333.702z"/>
	<path fill="#FFFFFF" d="M356.31,372.672c-4.035,6.383-7.582,13.204-11.465,19.725c-9.564-5.004-22.673-8.683-36.515-10.182
		c-2.967-0.32-6.716-0.66-8.995,0.798c-0.174,0.527-0.33,1.735,0.177,2.385c2.934,3.748,10.816,7.211,15.875,8.907
		c1.797,1.188,4.33,1.717,6.525,2.545c0.14,0.864-0.362,1.154-0.527,1.749c-9.962-5.308-23.495-7.404-28.224-17.02
		c5.181-0.738,10.333-1.498,15.171-2.545c7.392-0.678,12.072-1.533,13.404-8.907c0.659-3.644-0.226-7.819,0-12.248
		c-1.163-7.381-4.191-13.079-6.351-19.563c5.221,0.244,12.047-0.798,16.934-1.909C339.352,349.364,347.597,361.229,356.31,372.672z"
		/>
	<path fill="#FFFFFF" d="M169.865,338.951c0.979,10.855,1.374,20.562,3.528,30.539c0.432,0.14,0.646,0.478,1.411,0.317
		c1.086-2.014,0.813-4.325,1.058-7.156c2.818,11.794,6.073,23.975,10.407,33.878c-1.155,0.034-1.518-0.647-2.471-0.795
		c-8.483-14.685-14.189-35.579-16.757-55.671C167.118,338.913,169.457,339.802,169.865,338.951z"/>
	<path fill="#FFFFFF" d="M127.884,347.222c1.901-0.144,3.686-0.392,5.115-0.955c2.131,15.148,5.493,29.188,11.818,40.561
		c-5.777-0.031-11.647,0.653-16.757,1.431C129.945,375.786,131.498,359.877,127.884,347.222z"/>
	<path fill="#FFFFFF" d="M197.558,351.199c0.142,0.084,0.286,0.165,0.527,0.158c1.383,6.141-3.315,16.521-0.353,23.382
		c4.312,2.156,9.77,3.278,14.994,4.612c5.609,19.171,13.414,36.485,23.105,51.058c0.032,3.896,0.102,7.756,0.705,11.136
		c-4.432,1.093-8.058,2.912-12.348,4.136c-5.442-22.021-15.195-40.148-36.513-48.194c-0.087-0.502,0.316-0.563,0.177-1.114
		c-4.93-11.832-8.615-24.785-11.289-38.647c0.152-2.195,0.912-3.847,1.058-6.044c2.536,3.86,3.4,9.231,5.116,13.837
		c0.539,0.099,0.502,0.714,1.411,0.478c1.04-4.283-0.942-9.376,0.177-13.839c1.92,3.835,2.112,9.229,4.585,12.565
		c0.771,0.218,0.376-0.615,1.061-0.479c0.023-4.378-0.137-8.924,0.353-12.884c2.372,3.556,2.859,8.518,5.115,12.088
		C198.192,362.234,196.388,354.286,197.558,351.199z"/>
	<path fill="#FFFFFF" d="M362.838,356.288c6.937,1.114,14.229,1.91,21.695,2.545c-0.05,0.257,0.167,0.273,0.177,0.479
		c-6.213,2.832-14.829,4.331-20.64,6.998C362.963,363.246,362.856,360.214,362.838,356.288z"/>
	<path fill="#FFFFFF" d="M372.89,366.627c0.314-0.045,0.362,0.15,0.177,0.158c0.326,0.237,0.837,0.306,1.411,0.319
		c0.031,0.665-0.66,0.676-0.882,1.111c-0.4-0.115-0.386-0.604-0.882-0.636C372.588,367.094,373.019,367.113,372.89,366.627z"/>
	<path fill="#FFFFFF" d="M382.768,383.964c-3.185,15.614-6.808,31.384-11.995,44.695c-2.608-0.031-4.717-0.518-6.703-1.111
		c2.625-13.926,3.658-28.379,4.765-43.74c1.016,0.226,2.011,1.223,3.351,0.636c0.122-1.329-1.302-1.264-2.116-1.75
		c-3.858-3.519-5.377-9.148-6.704-14.951c0.596-0.048,1.205-0.08,1.587-0.317C369.323,373.751,371.267,383.547,382.768,383.964z"/>
	<path fill="#FFFFFF" d="M361.602,367.74c1.56,5.009,2.754,10.347,5.644,14.156c-0.327,17.711-3.403,34.346-4.762,50.104
		c-0.189-0.037-0.121-0.314-0.353-0.316c-0.619,2.783-0.251,5.436-1.235,7.953c-0.576,1.472-3.855,4.438-1.94,5.726
		c3.069,2.063,7.951,4.293,11.113,6.521c-7.685,14.176-14.678,30.347-17.463,49.468c-4.193-28.108-10.377-55.823-22.402-76.983
		c0.181-0.368,0.355-0.739,0.884-0.796c3.842-10.734,9.254-19.383,14.109-28.947c0.599,0.063,0.278-0.705,1.061-0.478
		C350.399,384.468,355.927,376.037,361.602,367.74z"/>
	<path fill="#FFFFFF" d="M375.183,367.74c1.144,0.242,1.455,1.234,2.646,1.432c-0.23,0.586-1.146,0.557-1.41,1.113
		c-0.775-0.468-1.498-0.98-2.294-1.433C374.451,368.459,375.064,368.321,375.183,367.74z"/>
	<path fill="#FFFFFF" d="M493.719,376.806c-0.29,5.257-1.522,11.028-2.473,16.225c-4.602,0.886-10.751,0.377-15.696,0.954
		c-1.296-3.039-0.021-7.255-2.472-9.067c-1.521-1.126-3.708-0.813-6.174-1.11c-6.95-0.846-17.936,0.314-23.46,2.545
		c2.197-4.116,5.569-7.172,7.762-11.293c0.771-0.22,0.375,0.613,1.06,0.477C464.884,372.248,482.406,374.692,493.719,376.806z"/>
	<path fill="#FFFFFF" d="M442.389,387.303c-1.026,1.565-0.573,4.468-0.883,6.682c-3.024-1.125-7.454-0.486-10.938-1.432
		c1.622-2.619,3.002-5.458,4.409-8.271c-0.381-0.188-0.81-0.33-1.234-0.478c-9.959,19.604-24.155,33.935-32.983,54.875
		c-5.485,9.725-10.128,20.558-15.348,30.538c0.568-13.751,0.359-26.303,1.766-39.446c0.329-3.076,1.538-7.874,1.765-11.451
		c0.039-0.608,0.323-1.616-0.706-1.91c-0.71,0.21-0.494,1.252-1.587,1.114c-5.367,9.608-9.675,20.542-14.465,30.38
		c-1.325-1.668-2.568-3.409-4.057-4.932c0.349-0.693,1.253-0.884,1.233-1.908c-0.023-0.561-0.791-0.453-1.233-0.637
		c0.991-3.452,1.987-6.901,2.82-10.497c0.539,0.115,0.644-0.162,1.061-0.159c5.439-14.021,9.151-29.603,12.171-45.811
		c0.807-0.065,1.496-0.24,2.47-0.156c8.655-0.913,17.176-6.789,25.752-8.111c6.644-1.025,10.437,2.991,14.993,4.93
		c3.738,0.814,5.594,2.561,8.819,3.979c-0.029,0.451,0.598,0.311,0.354,0.954C438.655,385.946,440.179,387.536,442.389,387.303z"/>
	<path fill="#FFFFFF" d="M432.158,376.171c2.341,0.91,3.631,2.771,6.174,3.499c0.575,1.588-1.038,2.409-1.232,3.817
		c-2.938-1.302-4.803-2.591-7.762-3.817C430.563,378.366,431.036,377.97,432.158,376.171z"/>
	<path fill="#FFFFFF" d="M273.759,382.85c-0.479,6.936-0.52,14.271-2.469,19.883c-0.198-2.104-0.745-3.888-1.411-5.566
		c-2.752-0.363-2.838,2.918-4.232,4.294c-0.444-1.811,0.299-4.347-1.41-4.611c-1.924-0.3-2.729,2.918-3.706,4.294
		c-0.915-1.463,0.113-4.904-1.94-5.728c-1.783,0.661-2.209,3.81-3.174,5.728c-0.903-1.796-0.208-6.078-2.646-5.728
		c-1.989,0.29-1.981,4.45-3.527,5.728c-0.354-2.239,0.338-6.142-1.411-6.521c-2.163-0.473-2.266,3.528-3.526,4.612
		c-0.556-1.918,0.723-7.252-1.59-7.317c-2.134-0.061-2.434,5.144-2.997,7.317c-0.718-1.21-0.421-3.333-1.411-4.295
		c-2.021-0.021-1.729,2.046-2.293,3.34c-0.473-5.409,0.742-10.676,1.059-15.906C249.516,382.191,261.93,382.119,273.759,382.85z"/>
	<path fill="#FFFFFF" d="M292.28,383.487c1.362,2.06,3.193,3.695,4.939,5.408c-2.166,18.604-3.263,41.63,0,59.965
		c-0.989-0.223-1.569-0.813-2.472-1.114C291.784,428.048,290.529,404.724,292.28,383.487z"/>
	<path fill="#FFFFFF" d="M472.199,385.873c1.763,7.702,4.021,16.614,2.822,25.926c-1.89-4.553-2.872-9.921-5.821-13.52
		c-2.653,3.098-1.87,10.041-2.998,13.997c-1.213-2.566-1.109-6.315-3.526-7.793c-1.865,0.544-1.521,3.083-1.766,5.089
		c-1.152-1.76-0.949-8.094-3.525-7.476c-2.569,0.614-0.936,6.926-1.94,9.7c-1.461-1.445-0.5-5.9-3.352-5.565
		c-0.781,2.16-0.148,5.593-0.354,8.271c-0.512-0.546-0.71-1.374-1.411-1.75c-0.732-0.275-1.085,0.599-1.232,0.319
		c-1.771-3.071-1.139-8.309-3.881-10.498c-1.896,1.152-1.598,4.287-2.117,6.68c-0.691-6.332-0.063-14.12,0-21.152
		C449.983,385.48,462.393,383.213,472.199,385.873z"/>
	<path fill="#FFFFFF" d="M696.392,387.781c10.817,3.571,22.324,7.311,31.75,11.612c-1.058,5.193-2.6,9.954-4.057,14.791
		c-9.332-6.054-19.132-12.091-31.045-16.226C693.824,394.028,695.191,391.008,696.392,387.781z"/>
	<path fill="#FFFFFF" d="M222.958,446.635c-13.097,6.216-24.746,13.736-33.867,23.54c-17.32-9.183-33.957-18.077-57.504-21.634
		c-1.037-0.153-3.274,0.085-3.351-0.478c-8.773-0.852-20.177-1.277-29.281-0.317c-7.646-0.042-19.188,1.723-17.287,9.546
		c0.021,0.079,0.121,0.23,0.179,0.316c6.232,9.514,18.529,17.783,29.279,22.744c0.292,0.529-0.172,0.9-0.176,1.592
		c-2.411-0.478-3.531-2.119-5.998-2.546c-5.309-3.406-12.086-5.396-16.228-10.18c-4.125-4.906-8.085-9.938-11.289-15.271
		c-1.36-4.552-3.35-8.537-4.059-13.678c0.099-0.354-0.336-0.228-0.353-0.477c-0.067-2.665-0.574-6.938,0.353-8.591
		c1.709-9.867,8.021-16.481,14.111-22.746c9.473-9.737,23.206-15.791,38.454-18.608c1.395-0.153,2.979-0.03,4.231-0.638
		c1.918-0.178,4.195-0.032,5.646-0.636c21.457-1.408,36.714,4.101,50.977,9.702c12.983,5.72,21.994,14.056,28.225,25.926
		C218.532,430.898,220.58,438.677,222.958,446.635z"/>
	<path fill="#FFFFFF" d="M298.454,389.69c6.924,3.889,15.354,7.072,22.577,10.18c-1.604,4.119-3.015,8.415-3.704,13.36
		c0.212,0.443,0.533,0.793,1.411,0.637c-3.598,8.551-6.978,16.316-8.996,26.243c-2.071-2.146-3.942-6.781-6.174-9.063
		c-0.506-0.521-1.371-1.054-2.116-0.639c-0.883,8.334,1.854,16.141,4.233,22.587c-2.302-0.471-4.553-2.36-6.879-3.341
		C295.666,430.908,296.72,409.223,298.454,389.69z"/>
	<path fill="#FFFFFF" d="M0,390.326c4.727,0.988,9.81,1.654,14.464,2.705c-1.114,3.665-2.234,8.153-2.469,12.088
		c-0.079,0.603,0.922,0.23,1.06,0.635c-1.766,4.774-2.897,9.106-3.704,14.637c-3.261-0.51-5.889-1.584-9.351-1.909
		C0,409.094,0,399.712,0,390.326z"/>
	<path fill="#FFFFFF" d="M441.509,394.78c0.128,1.121-0.096,1.93-0.354,2.704c-4.164-0.192-9.091-1.313-12.521-1.114
		C429.508,391.631,437.227,395.898,441.509,394.78z"/>
	<path fill="#FFFFFF" d="M490.719,394.622c0,0.37,0,0.741,0,1.112c-4.526,0.743-9.313,1.254-14.464,1.433
		c-0.204-0.61-0.677-0.98-0.528-1.91C480.639,394.767,485.407,395.197,490.719,394.622z"/>
	<path fill="#FFFFFF" d="M242.185,394.939c0.176,0,0.353,0,0.526,0c0.363,2.907-0.611,7.021,1.061,8.747
		c2.149-1.294,1.938-4.722,3.352-6.682c1.227,1.809,0.265,6.272,1.234,7.794c0.294,0,0.588,0,0.882,0
		c1.552-2.241,2.188-4.688,3.527-7.314c1.267,1.537,0.626,5.609,1.939,6.999c2.775-0.732,2.043-4.627,3.705-6.363
		c0.626,2.039,0.077,4.352,1.059,6.203c0.204-0.025,0.313,0.036,0.354,0.16c2.058-1.166,2.293-3.979,3.704-5.729
		c1.325,1.353-0.167,5.24,1.411,6.362c2.764-0.688,1.96-4.596,4.058-5.885c-0.582,13.998-0.907,28.048,0.882,41.194
		c-9.834-1.503-22.983-0.805-31.751,1.112c-1.502-11.892-1.021-28.039-0.176-40.719c0.816,0.431,0.073,2.267,1.234,2.385
		C241.646,401.77,241.119,397.636,242.185,394.939z"/>
	<path fill="#FFFFFF" d="M729.554,400.029c12.72,5.302,27.113,9.883,45.685,9.385c-0.532,2.83-1.397,6.129-0.882,9.384
		c3.545,3.018,13.829,5.522,19.933,6.361c3.641,0.502,6.967,0.739,10.407,1.114c0.009,5.188,0.42,10.014,0.354,15.271
		c1.072,0.492,1.957-0.142,1.588-1.435c1.688,15.977-0.646,32.471-1.766,48.354c-22.938-27.047-49.004-52.615-79.552-73.325
		C727.05,410.386,728.307,405.215,729.554,400.029z"/>
	<path fill="#FFFFFF" d="M469.38,401.461c6.655,9.839,3.45,30.205,3.525,44.06c-0.466-0.048-0.455,0.334-0.528,0.637
		c-10.952-0.104-19.622,3.808-26.459,6.841c-0.303-15.703-1.321-31.551-0.883-47.398c1.792,3.946,2.476,9.578,3.88,13.358
		c1.835,0.116,1.488-1.73,1.59-3.181c0.759,0.694,0.389,2.406,2.115,2.228c0.932-1.651,0.374-4.646,0.529-6.999
		c1.426,1.364,0.783,4.598,2.47,5.728c1.791-0.538,1.071-2.567,1.234-4.135c0.259-2.494,0.717-5.643,0.705-8.111
		c1.721,2.849,1.545,7.408,2.822,10.656c3.111-0.48,1.148-5.537,2.293-7.793c1.523,1.704,1.592,6.089,3.175,8.271
		c1.979,0.117,1.97-2.351,2.117-3.5C468.404,408.702,468.574,404.451,469.38,401.461z"/>
	<path fill="#FFFFFF" d="M779.12,408.459c-0.157,1.557-1.569,3.354-1.765,5.408c2.44,8.736,16.579,6.787,26.988,7.953
		c0,1.113,0,2.229,0,3.339c-4.542-0.612-9.585-1.568-14.288-2.545c-5.104-1.057-12.563-2.156-14.464-4.93
		c-0.028-2.253,0.672-3.851,0.527-6.203c0.508-0.203,0.295-1.799,0.706-2.545C777.677,408.854,778.814,409.031,779.12,408.459z"/>
	<path fill="#FFFFFF" d="M328.089,409.254c0.25,2.082-2.076,5.037-1.06,6.843c0.293,0,0.588,0,0.882,0
		c1.379-1.779,2.423-3.86,3.88-5.567c0.075,2.074-1.35,5.126,0.178,6.521c-0.781,2-1.757,3.823-2.471,5.888
		c-1.957-2.689-3.495-5.754-5.644-8.271C326.052,413.569,326.767,411.139,328.089,409.254z"/>
	<path fill="#FFFFFF" d="M824.982,414.662c0,6.045,0,12.088,0,18.135c-0.138,0.725-0.575,1.177-0.529,2.065
		c-0.45-1.554-0.874-3.136-1.588-4.453c-3.201-0.74-2.772,3.103-3.352,5.248c-0.98-1.659-1.167-4.036-2.822-5.089
		c-2.729,0.081-1.888,3.387-2.822,5.089c-0.18-4.646-4.965-6.394-5.113-0.636c-0.266-0.398-0.655-0.682-0.884-1.113
		c-0.783-0.125-1.173,0.108-1.588,0.319c0.407-5.544-0.864-10.129,0-15.112C810.218,415.556,817.76,415.254,824.982,414.662z"/>
	<path fill="#FFFFFF" d="M323.677,417.207c15.862,21.938,22.767,53.256,27.517,85.732c0.305,3.514,0.076,6.92,0,10.497
		c-0.956-1.369-2.76-4.447-1.232-6.043C339.076,479.464,331.424,447.761,323.677,417.207z"/>
	<path fill="#FFFFFF" d="M364.071,429.136c2.083-0.022,3.197,0.829,5.468,0.636c-0.935,3.717-2.05,7.271-2.998,10.976
		c-1.571-0.063-2.872-0.378-3.88-0.952C362.449,436.26,364.132,433.064,364.071,429.136z"/>
	<path fill="#FFFFFF" d="M824.982,439.952c0,25.979,0,51.959,0,77.938c-5.622-9.576-11.979-19.3-18.698-27.358
		c1.079-15.92,3.402-32.423,1.94-49.146c2.371-1.626,1.275-6.379,2.822-8.748c0.654,1.02,1.555,4.028,1.765,5.09
		c1.379,6.984,3.13-2.621,3.351-5.249c2.032,1.772,1.425,5.929,3.177,7.952c2.235-1.48,1.363-5.769,2.47-8.271
		C823.686,434.016,822.1,438.998,824.982,439.952z"/>
	<path fill="#FFFFFF" d="M302.864,434.547c2.9,7.512,5.834,14.989,8.996,22.268c-1.353-0.795-2.516-1.761-4.232-2.226
		C305.62,448.283,303.32,442.245,302.864,434.547z"/>
	<path fill="#FFFFFF" d="M175.862,490.216c-3.252,2.739-10.266,2.089-15.699,2.861c-1.956-0.566-5.034-0.125-7.055-0.635
		c0.297-0.793,0.492-1.678,1.058-2.229C161.253,490.362,168.923,490.891,175.862,490.216z"/>
	<path fill="#FFFFFF" d="M86.96,48.51c-10.447,1.025-20.597-1.637-31.927-0.318c-7.776,0.906-18.366,3.389-17.11,10.18
		c1.176,6.347,13.553,4.572,20.285,3.978c8.187-0.725,16.358,0.845,24.342,1.907c16.897,2.249,30.257-1.953,37.221-11.293
		c0.486-1.462,0.154-3.273,0.343-4.68c-2.379-0.817-4.467-2.448-6.872-2.956C103.449,43.265,95.33,47.928,86.96,48.51z"/>
	<path fill="#FFFFFF" d="M120.215,48.322c-0.032-0.03-0.064-0.056-0.096-0.085c-0.002,0.015-0.003,0.032-0.005,0.047
		C120.148,48.296,120.18,48.311,120.215,48.322z"/>
	<path fill="#FFFFFF" d="M260.528,33.084c5.416-2.45,11.361-3.151,17.111-4.136c4.933,0.004,10.078-0.529,14.286,0
		c13.776,1.733,23.309,8.168,38.102,7.635c12.757-3.291,26.986-12.085,44.98-7.953C369.804,19.4,365.114,10.318,360.896,0
		C240.597,0,120.299,0,0,0c0,68.293,0,136.575-0.001,204.866c11.638,2.61,24.755,3.314,37.219,1.432
		c5.109-0.77,10.202-2.182,15.17-3.182c3.485-0.701,8.146-1.088,10.406-1.749c6.153-0.379,12.82-0.203,17.11,1.59
		c11.152-12.706,27.197-21.624,51.33-23.063c17.989-0.527,32.67,3.051,43.04,8.588c0.05,0.026-0.424,0.219-0.354,0.317
		c18.641,10.073,33.151,24.39,44.274,41.516c4.813,10.715,11.602,19.65,14.111,32.447c-0.098,0.354,0.337,0.227,0.353,0.477
		c0,0.849,0,1.698,0,2.545c10.405-8.891,24.51-15.299,42.334-17.973c11.456-0.933,23.584-0.184,30.868,3.659
		c0.286-0.646,0.361-1.479,0.354-2.388c-10.839-0.726-18.724-4.113-27.519-6.68c-11.401-5.723-26.435-10.607-29.105-23.7
		c0.03-0.452-0.596-0.31-0.353-0.955c-0.151-0.507,0.154-0.604,0.353-0.795c2.405-13.328,11.315-21.039,18.521-29.584
		c18.756-17.043,37.457-33.06,67.735-39.128c7.869-1.087,19.62-1.377,26.282,0.479c-4.829-8.795-9.966-17.313-14.111-26.723
		c-7.45,0.384-16.444,1.368-24.872,0.636c-9.326-0.811-18.713-1.605-27.693-2.386c-16.404-1.424-35.635,0.192-40.57-10.814
		c-0.349-9.737,14.506-10.386,25.05-9.227c9.819,1.079,22.259,3.509,32.279,1.75c10.715-0.628,21.992-0.476,28.929,3.183
		c-1.874-10.664-4.635-21.906-5.291-34.197c0.377-1.601-0.899-3.755,0.352-4.613c-5.697,0.277-12.882,0.889-19.05,0.318
		c-17.725-1.645-29.047-10.117-46.394-11.931c-6.353-1.886-16.349-3.26-19.577-8.43c-1.085-1.736-0.873-4.665,0-6.203
		C252.84,37.151,257.345,34.525,260.528,33.084z M53.623,47.876c0.949,0.026-0.424-0.25,0.176-0.316
		c10.116-1.519,21.434,1.311,32.456,0.316c12.086-1.09,25.336-7.651,33.864,0.361c0.002-0.014,0.002-0.029,0.004-0.043
		c0.816-0.151,0.148,1.036,0.882,0.955c0.213,5.095-4.327,9.055-7.584,11.134c-4.089,2.611-10.931,4.468-17.639,5.09
		c-9.734,0.903-19.478-1.815-27.87-2.545c-2.221-0.194-4.232-0.073-5.468,0.318c-3.441,0.053-7.771,0.063-10.055,0.637
		c-7.242,0.274-13.618-0.234-15.169-5.09C37.376,50.141,45.059,49.322,53.623,47.876z M135.467,167.17
		c-0.688,0.281-1.16,0.754-1.588,1.273c-9.682,2.136-18.662,4.909-29.984,5.566c-12.971,0.88-20.463-3.18-28.046-7.156
		c-13.577-0.567-34.416,3.918-39.514-5.887c-0.502-7.745,9.139-9.645,17.11-10.021c14.274-0.675,28.923,5.117,43.216,3.818
		c13.134-1.195,31.576-2.879,38.102,5.089C136.303,161.733,136.827,165.084,135.467,167.17z M225.076,138.381
		c-5.147,3.6-9.153,8.835-14.64,12.566c0.102,0.676-0.128,1.051-0.179,1.59c-1.931,1.118-5.632,1.456-7.761,2.862
		c-12.17-4.985-25.729-8.716-37.924-13.678c-0.248-1.315-0.905-2.262-0.705-3.979c-0.605-0.514-0.871-1.336-1.764-1.59
		c0.461-0.484-1.856-1.99-2.472-2.863c-4.356-6.188-9.195-13.579-13.935-19.563c0.008-1.045-0.932-1.432-0.529-2.389
		c15,0.058,28.138,3.675,39.688,5.728c3.769-4.129,7.69-8.12,12.522-11.292c0.334,0.07,1.064-0.217,0.884,0.316
		c0.285-0.22,0.435-0.562,1.059-0.476c14.229,5.778,27.252,13.174,40.217,20.52C235.352,130.787,229.069,133.552,225.076,138.381z"
		/>
	<path fill="#FFFFFF" d="M362.484,0c4.41,0,8.819,0,13.229,0c8.391,25.36,23.735,45.292,36.513,66.167
		C388.612,51.274,373.426,26.629,362.484,0z"/>
	<path fill="#FFFFFF" d="M377.302,0c4.999,0,9.997,0,14.994,0c10.178,17.685,17.308,40.487,20.813,64.577
		C399.977,43.706,386.123,25.319,377.302,0z"/>
	<path fill="#FFFFFF" d="M418.049,0c15.64,0,31.279,0,46.921,0c-4.796,9.581-11.086,19.154-15.17,29.903
		c-3.127,11.833-8.461,24.593-9.878,37.856c-1.117,10.446-0.488,21.689-0.529,32.129c5.372,31.062,13.105,59.55,16.229,92.889
		c1.482,13.35,3.201,26.485,4.409,40.082c0.648,1.325,0.422,3.438,0.529,5.25c0.744,2.563,0.559,5.965,0.706,9.064
		c3.553,38.408-8.669,65.24-15.7,96.39c-2.565,11.366-4.017,23.09-8.995,33.721c-0.948-1.105-3.09-1.137-3.176-3.021
		c-5.563-3.545-11.538-8.208-17.462-11.771c-2.208-1.327-5.215-2.315-8.997-2.066c-6.254,1.145-12.188,1.876-18.167,3.021
		c-0.641-1.012-1.437-1.888-1.766-3.18c0.993-0.325,1.687-0.919,2.646-1.273c1.323-5.496,1.381-11.756,3.88-15.587
		c2.868-4.399,11.613-6.577,15.522-10.181c0.028-0.716-0.668-0.776-0.706-1.434c5.843-4.327,11.419-8.896,16.228-14.153
		c3.938-4.722,7.958-9.367,12.524-13.521c-0.021-1.252,1.937-1.336,1.232-2.704c-1.165-0.304-1.757,0.742-2.293,0.479
		c0.598-0.604,1.533-1.477,1.061-2.545c-0.833-0.444-1.185,0.241-1.766,0.478c0.104-0.573,0.3-1.066,0-1.591
		c-0.961-0.178-1.144,0.347-1.764,0.478c0.214-0.689,0.313-1.611-0.529-1.75c-2.117,0.637-2.333,2.986-3.705,4.295
		c-0.271-1.024-0.052-2.496-1.232-2.703c-0.238,0.051-0.337,0.228-0.706,0.158c-0.444,2.521-0.83,5.924-1.588,7.637
		c-6.168,6.523-13.622,13.271-22.227,18.132c-0.313-0.46-0.47-1.063-1.232-1.112c-0.994,0.11-1.585,0.585-2.117,1.112
		c2.471-3.912,5.906-9.176,3.881-15.588c1.147-4.161,0.091-10.311,1.06-14.634c-0.476-0.21-0.743-0.603-1.06-0.954
		c1.226-6.183,2.717-12.345,4.057-17.975c2.775,4.021,5.735,8.259,8.291,12.884c0.311,0.473,0.939-0.093,1.411,0
		c5.763-10.863,5.076-25.945,4.233-40.399c-0.018-0.251-0.45-0.125-0.354-0.478c0.06-2.064-0.39-3.678-0.353-5.727
		c-0.604-0.729-0.399-2.188-0.528-3.34c-0.854-1.084-0.263-3.478-1.059-4.613c-0.694-8.068-4.821-13.043-5.821-20.836
		c-5.649-15.088-5.62-33.743-8.82-51.216c-1.323-7.236-4.546-21.212-6.701-27.358c-5.259-22.193-2.532-53.396,5.113-72.688
		c3.499,2.625,6.762,5.462,10.938,7.476c0.271-0.229,0.473-0.528,0.882-0.636c-1.013-6.483-2.178-13.45-3.351-19.087
		c-1.317-6.324-5.114-14.534-3.528-20.359c0.071-0.259,0.309-0.128,0.353-0.477C410.363,16.774,413.032,8.374,418.049,0z"/>
	<path fill="#FFFFFF" d="M466.731,0c119.425,0,238.822,0,358.251,0c0,74.653,0,149.298,0,223.953
		c-20.715,3.606-38.391-2.587-58.386-2.227c-8.239,1.255-19.135,2.558-21.344,9.064c-2.466,7.265,6.149,11.503,11.816,13.361
		c8.27,2.712,21.365,1.803,32.633,1.749c0.531-0.77,6.123-0.174,8.468,0c8.866,0.664,18.651,0.095,26.813,1.114
		c0,37.218,0,74.438,0,111.657c-21.87-1.606-31.654,9.042-38.807,21.949c1.073-6.601,0.327-14.807,0.353-21.949
		c-0.696-1.811-0.258-4.645-0.528-6.84c-0.017-0.251-0.448-0.124-0.354-0.478c0.089-2.466-0.424-4.391-0.354-6.839
		c-0.64-2.396-0.867-5.156-1.234-7.794c-0.821-0.956-0.229-3.188-1.061-4.138c-4.102-22.551-16.714-38.258-46.92-36.74
		c-14.351,1.902-26.298,5.977-36.513,11.61c0.137-0.761-0.275-1.022-0.176-1.752c-4.64-18.941-15.4-33.298-27.341-45.33
		c-6.124-6.94-14.606-12.703-24.344-15.429c-1.278-0.119-2.139-0.618-3.352-0.796c1.012-1.58,0.754-4.303,1.411-6.204
		c6.35,0,12.7,0,19.05,0c10.794-2.303,25.235-1.314,24.695-13.838c0.002-0.445,0.479,0.379,0.353-0.318
		c0.015-5.685-0.563-10.836-0.528-16.542c-0.017-0.25-0.449-0.125-0.354-0.477c0.123-2.233-0.359-3.918-0.354-6.044
		c-1.277-7.21-3.07-13.873-5.646-19.726c-4.723-10.736-12.688-22.885-24.342-28.151c-8.913-4.028-21.299-5.011-32.104-2.545
		c-27.995,6.386-49.154,22.298-60.679,42.628c-0.252,0.704,0.597,0.416,0.529,0.954c-4.179,1.225-7.488,3.753-11.645,4.771
		c-6.55,3.272-12.548,6.068-19.4,9.066c-28.694,17.271-52.918,38.853-70.909,66.167c-0.106,1.39-1.202,1.886-1.588,3.021
		c0.604-7.762,0.979-17.045,0.353-25.925c0.425-0.065,0.384,0.291,0.882,0.16c6.107-4.992,11.45-10.672,16.054-17.021
		c5.771,3.388,9.93-2.995,11.816-6.68c4.836-0.252,6.198-3.636,7.762-6.839c4.734,0.081,6.434-2.577,7.586-5.729
		c4.341,0.045,6.235-2.114,7.407-4.931c5.205,0.135,5.598-4.073,5.997-8.271c4.435,0.272,6.135-3.571,5.115-7.156
		c3.438-0.39,4.771-5.021,2.998-8.113c8.656-3.544-0.038-14.593-4.057-17.813c-0.349-0.314-1.01-0.103-1.411,0
		c1.279,4.753,6.645,8.967,4.763,14.475c0.136-2.894-7.609-7.138-8.467-3.34c-0.721,3.194,3.628,5.482,6.174,6.521
		c0.061,1.011,0.756,2.285,0.176,3.342c-2.57-2.613-4.266-7.641-9.699-6.203c-1.956,5.5,3.453,8.137,6.351,10.814
		c0.075,1.979-0.067,3.757-1.764,4.136c-1.717-4.19-2.94-7.845-7.587-9.385c-2.763,0.283-3.74,2.965-3.352,5.568
		c-3.265-3.657-6.975,1.494-6.174,4.931c-0.15-1.158-3.08-0.892-2.822-1.432c-3.893,0.214-2.544,6.352-1.938,8.431
		c-1.059-1.435-2.515-2.506-3.527-3.976c4.642-7.044,8.001-14.444,11.465-23.064c1.731-3.157,3.224-6.532,4.41-10.18
		c4.722-8.625,7.317-19.168,12.347-27.518c2.316-6.494,6.95-11.403,9.525-17.178c-0.646,0-1.293,0-1.94,0
		c-7.579,4.458-15.206,8.874-22.049,13.997c5.854-7.436,11.495-16.325,17.464-24.177c15.74,2.771,26.983,9.68,40.217,14.156
		c2.609,0.883,6.892,2.568,10.762,2.704c4.394,1.227,11.878,1.187,17.992,0.953c11.528-1.126,23.473-3.282,36.336-2.065
		c9.334,0.882,18.979,2.54,28.396,2.861c0.495,0.002-0.42,0.435,0.354,0.317c2.469,0,4.938,0,7.406,0
		c0.278-0.015,0.14-0.406,0.529-0.317c3.666-0.22,5.479-0.208,8.29-0.796c5.866-1.223,15.721-5.84,13.583-12.563
		c-2.019-6.353-12.271-9.25-20.991-10.657c-8.401-1.354-19.555-1.34-29.458-0.795c-1.125,0.576-3.078,0.405-4.762,0.479
		c-0.494,0.002,0.42,0.435-0.354,0.317c-9.761,0.168-16.863,1.986-26.104,0.637c-13.258-1.936-22.375-8.091-33.339-11.134
		c-12.479-3.214-30.704-2.352-40.217,2.545c6.895-11.013,12.705-23.006,18.695-34.834c-0.471,0.001-0.383-0.502-0.882-0.477
		c-38.523,23.152-75.062,46.707-93.487,87.959c-2.479,3.86-4.089,8.509-5.819,13.043c-3.15-17.631-6.287-34.164-9.878-50.421
		c9.879-5.057,21.552-9.108,32.633-13.521c8.795-4.425,16.404-9.256,23.813-14.952c17.94-13.794,30.017-30.265,48.332-43.739
		c0.051-0.539,0.28-0.914,0.178-1.592c-1.514-0.422-3.041,0.123-4.765,0c-10.336,1.655-19.82,4.075-29.104,6.682
		c-10.59,3.65-20.465,7.949-29.28,13.202c-16.269,11.169-32.685,21.891-44.803,35.628c0-1.166,0-2.332,0-3.499
		c0.343-9.738-0.766-20.787,0.882-29.903c1.003-5.559,2.771-10.52,4.057-15.747C450.571,29.912,457.72,15.199,466.731,0z
		 M776.3,67.76c-11.504-1.64-20.634-5.563-30.691-7.158c-4.622-0.733-9.772-0.768-14.112,0c-10.093,1.78-16.481,9.695-29.278,9.064
		c-1.456,0.543-3.727,0.354-5.646,0.479c-5.853,0.554-11.942,2.13-14.465,5.565c-4.199,7.817,3.863,12.759,10.938,13.997
		c7.233,1.27,15.438-1.037,21.872-1.909c16.344-2.215,25.637,6.594,41.451,4.771c10.486-1.626,16.469-7.312,28.047-7.953
		c5.853-1.351,12.08-2.361,17.641-3.976c2.099-1.024,4.39-1.874,5.997-3.34c0.271-1.042,0.744-1.455,1.059-2.704
		c-0.271-0.555-0.39-1.24-0.528-1.909C803.217,65.031,788.169,69.448,776.3,67.76z"/>
	<path fill="#FFFFFF" d="M136.076,525c-0.531,0-1.06,0-1.591,0c-0.025,0.069-0.051,0.14-0.076,0.207"/>
	<path fill="#FFFFFF" d="M397.938,482.579c-6.65,14.023-17.068,23.647-19.022,42.421c3.781,0,7.563,0,11.348,0
		c8.775-21.258,16.9-43.103,24.608-65.322C408.448,466.956,403.803,474.863,397.938,482.579z"/>
	<path fill="#FFFFFF" d="M407.287,509.619c-1.123,5.267-2.559,10.247-3.828,15.381c1.109,0,2.216,0,3.324,0
		c6.549-12.6,13.708-25.412,19.202-38.441C419.574,494.098,413.474,501.599,407.287,509.619z"/>
	<path fill="#FFFFFF" d="M391.963,525c3.362,0,6.72,0,10.086,0c5.101-21.029,10.939-41.395,14.061-64.211
		C408.561,482.636,400.569,503.964,391.963,525z"/>
	<path fill="#FFFFFF" d="M384.18,452.041c0.854-8.015,0.936-16.424,1.764-24.018c-9.708,30.95-18.523,59.779-20.991,96.865
		c-0.063,0.042-0.139,0.075-0.211,0.111c4.193,0,8.396,0,12.595,0c2.885-16.134,4.614-33.504,6.49-50.691
		C384.629,466.986,383.387,459.454,384.18,452.041z"/>
	<path fill="#FFFFFF" d="M408.63,525c2.281,0,4.574,0,6.858,0c5.096-11.902,9.417-24.509,12.261-38.441
		C422.141,499.434,415.062,512.332,408.63,525z"/>
	<path fill="#FFFFFF" d="M802.58,488.467c-22.243-27.241-48.952-51.993-79.198-73.168c-10.594-6.587-21.874-13.438-34.396-17.338
		c-14.061-5.509-29.899-11.104-49.39-10.655c-1.826-0.225-5.371,0.208-8.113,0.158c-0.392-0.088-0.252,0.306-0.529,0.317
		c-2.189-0.119-3.742,0.336-5.819,0.318c-0.394-0.09-0.251,0.305-0.529,0.316c-10.614,1.034-19.632,3.504-29.457,5.249
		c-34.799,7.319-61.047,24.089-84.668,42.786c-17.683,13.778-30.354,31.007-40.747,51.535
		c-6.365,11.299-11.982,23.271-15.639,37.012c122.259,0,245.892,0,370.892,0c0-1.746,0-2.496,0-4.244
		C818.078,509.42,811.407,498.313,802.58,488.467z"/>
	<path fill="#FFFFFF" d="M364.953,509.938c3.438-32.797,12.713-60.325,21.346-88.438c-2.626,4.686-4.915,9.674-6.88,14.951
		c-8.952,19.164-20.671,36.725-24.344,60.604c-0.189-0.041-0.12-0.316-0.352-0.319c-1.456,8.46-2.559,18.094-2.644,28.265
		c3.717,0,7.438,0,11.154,0c1.163-4.814-0.104-10.962,1.366-15.381C364.605,509.607,364.864,509.975,364.953,509.938z"/>
	<path fill="#FFFFFF" d="M473.965,447.428c-30.563,1.766-49.056,17.823-54.151,44.059c2.486-3.018,5.862-6.582,8.29-10.18
		c0.709-0.11,1.007,0.152,1.588,0.159c-1.428,16.382-7.371,30.429-12.506,43.533c11.764,0,23.535,0,35.324,0
		c8.486-28.59,21.802-51.733,39.271-72.959C487.172,449.103,481.168,448.177,473.965,447.428z"/>
	<path fill="#FFFFFF" d="M107.422,482.261c-4.521-3.205-9.621-4.566-14.288-7.316c-4.496-2.648-9.01-8.291-12.522-13.043
		c-2.712-3.667-4.422-7.771-6.352-11.929c-0.24-2.273-1.466-3.662-1.587-6.045c-0.063-0.25-0.311,0.14-0.353-0.158
		c-4.03-16.694,5.358-27.669,13.935-35.948c-11.227-0.227-21.008-3.104-31.221-4.771c-1.667,4.541-3.102,9.291-5.998,12.727
		c-0.703,0.137-1.303-0.236-1.587,0c-1.918,6.967-3.931,13.848-5.292,21.314c17.631,14.289,32.655,32.758,41.981,54.557
		c3.021,9.577,5.839,19.335,8.112,29.585c-0.178,1.622,0.585,2.397,0.688,3.771c0.379,0,0.757,0,1.136,0
		c4.203-15.242,10.331-27.814,16.345-41.468C109.461,483.074,108.71,482.427,107.422,482.261z"/>
	<path fill="#FFFFFF" d="M148.169,489.26c-2.496,2.097-3.965,5.12-5.819,7.795c-0.581,0.007-0.878,0.268-1.587,0.158
		c-0.101-5.323,2.273-9.29,2.997-14.636c-1.643,1.859-2.438,4.481-4.232,6.203c-1.461,2.521-2.421,6.276-5.646,6.683
		c-0.117-6.045,2.224-9.939,2.472-16.541c-4.261,4.431-7.507,9.771-11.644,14.313c-0.527,0-1.058,0-1.587,0
		c-0.261-5.496,2.292-9.801,2.999-14.951c-4.159,2.933-6.355,7.629-10.229,10.816c-0.498,0.214-0.441-0.844-0.705-0.319
		c-0.196-4.63,2.146-8.351,2.82-12.723c-10.547,13.37-16.354,31.229-22.506,48.939c12.978,0,25.979,0,38.986,0
		c4.01-11.242,8.65-21.921,13.683-32.239C148.169,491.594,148.169,490.427,148.169,489.26z"/>
	<path fill="#FFFFFF" d="M43.568,440.428c-7.269-6.277-15.581-11.611-25.752-15.271c-4.801-2.402-11.946-4.389-17.463-5.089
		c-0.191-0.04-0.12-0.315-0.354-0.318C0,455.173,0,489.585,0,525c30.403,0,60.912,0,91.499,0
		c-2.425-11.092-5.273-21.799-8.595-32.08C73.989,471.637,60.573,454.416,43.568,440.428z"/>
	<path fill="#FFFFFF" d="M152.578,493.716c-1.305,1.686-1.629,4.257-3.88,5.09c-0.029-0.188-0.322-0.134-0.529-0.159
		c-0.233-0.477-0.18-1.218-0.177-1.909c-4.432,9.007-8.281,18.538-11.916,28.267c10.253,0,20.516,0,30.79,0
		c-0.166-13.444,3.573-22.589,7.761-32.24C169.365,494.066,159.713,494.972,152.578,493.716z"/>
	<path fill="#FFFFFF" d="M348.02,509.463c-1.935,0.903-3.545,2.104-5.468,3.021c2.349,4.035,4.379,8.359,6.594,12.519
		c0.511,0,1.02,0,1.53,0C351.258,518.334,349.564,513.83,348.02,509.463z"/>
	<path fill="#FFFFFF" d="M323.07,525c8.107,0,16.212,0,24.332,0c-1.681-4.22-4.473-7.75-5.556-12.038
		C335.014,516.539,329.187,520.299,323.07,525z"/>
	<path fill="#FFFFFF" d="M324.56,518.209c4.556-2.994,8.896-6.187,13.583-9.065c2.287-1.019,5.364-2.153,6.35-3.815
		c-4.589-0.939-10.361-1.152-15.875-0.797c-20.838,3.09-35.328,11.902-50.091,20.473c12.639,0,25.287,0,37.956,0
		c2.411-2.393,4.638-4.174,7.549-5.996C324.237,518.766,324.54,518.616,324.56,518.209z"/>
	<path fill="#FFFFFF" d="M345.904,501.03c-1.608-6.757-5.162-12.096-7.938-17.338c-1.401-1.72-2.479-3.543-3.705-5.726
		c-7.615-12.386-22.549-19.907-34.748-26.244c-0.423,0.096-0.808,0.229-1.411,0.158c-0.192-0.621-0.726-0.938-0.882-1.592
		c-6.717-2.781-14.813-6.511-23.106-7.95c-0.542-0.097-2.907-0.01-1.941-0.479c-11.449-1.216-25.836-1.143-35.631,1.434
		c-0.554,0.183-0.429-0.25-0.705-0.319c-9.169,3.094-17.521,6.982-25.398,11.93c-7.869,4.939-16.086,10.563-21.344,17.337
		c-9.045,11.657-16.917,25.271-19.758,42.15c-0.558,3.321-1.049,6.936-1.052,10.609c35.851,0,71.825,0,107.923,0
		c15.357-9.686,31.167-18.959,53.821-22.063c6.419,0.051,13.784,0.013,16.758,2.226c-5.749,5.476-14.638,8.115-20.107,13.841
		c-3.14,1.586-5.503,3.871-8.043,5.996c0.704,0,1.41,0,2.112,0c8.004-7.014,18.528-11.745,27.626-17.77
		C347.473,504.884,347.094,503.007,345.904,501.03z"/>
	<path fill="#FFFFFF" d="M0,385.714c4.14,1.069,10.218,1.918,15.699,3.021c-0.57,0.653-0.436,1.939-0.882,2.706
		C9.583,390.856,4.986,389.7,0,388.895C0,387.834,0,386.774,0,385.714z"/>
	<path fill="#FFFFFF" d="M0,302.05c11.021-7.188,23.351-13.195,40.041-15.271c4.412-0.006,10.111-0.827,12.877,0.797
		c-0.46,5.568-2.5,11.719-1.233,18.291c2.359,4.975,7.281,7.645,15.521,7.316c11.741-1.449,23.467-4.287,34.926-6.521
		c2.02,1.468,3.644,3.291,5.821,4.612c0.063,7.056-0.701,13.366-0.529,20.519c0.018,0.252,0.45,0.125,0.354,0.479
		c-0.078,3.568,0.13,6.883,0.882,9.704c3.197,3.973,10.677,5.727,17.639,5.249c3.47,11.316,2.383,28.652,0,41.354
		c-5.79,0.981-11.256,2.256-16.228,3.979c-3.008-2.489-6.718-3.96-10.76-5.092c-14.419-4.028-28.221-9.655-41.981-13.679
		C38.238,368.756,20.464,363.587,0,359.788C0,340.541,0,321.295,0,302.05z"/>
	<path fill="#FFFFFF" d="M443.624,114.839c0.094-1.354-0.688-1.922-0.527-3.34c20.036-18.287,44.521-33.324,67.732-48.036
		c11.405-5.91,21.192-12.455,33.517-17.654c-13.548,10.211-23.403,21.675-35.455,33.721c-12.529,10.124-26.163,20.094-43.04,25.767
		C458.327,108.374,450.594,111.261,443.624,114.839z"/>
	<path fill="#FFFFFF" d="M337.436,70.144c0.077-0.236,0.226,0.063,0.529,0c2.965,7.043,5.349,14.858,8.818,20.996
		c6.543,20.511,19.113,34.547,30.517,51.853c4.214,6.396,8.337,12.138,12.522,17.814c5.862,6.604,10.923,13.143,16.229,20.041
		c-0.019,0.547-0.09,1.143,0.354,1.271c0.528,8.908,2.445,16.563,4.058,24.496c-6.876-13.259-12.02-29.457-20.64-41.673
		c-4.777-8.627-10.734-16.192-15.696-24.654c-0.354,0-0.705,0-1.06,0c-0.386,6.479-0.83,14.175-1.588,20.837
		C355.385,135.119,338.845,108.888,337.436,70.144z"/>
	<path fill="#FFFFFF" d="M548.756,69.985c-14.318,14.711-26.643,32.602-41.631,47.24c-17.395,19.785-36.11,38.47-51.506,60.76
		c-0.479-0.785,0.006-2.444-0.706-3.021c0.122-2.071-0.66-3.326-0.706-5.249c1.768-3.604,3.034-8.502,4.939-11.451
		c1.09-2.932,2.02-5.333,3.704-7.476c10.261-20.541,23.869-36.71,41.805-50.897c9.326-7.496,19.979-13.796,29.457-21.155
		C539.123,75.935,543.885,72.91,548.756,69.985z"/>
	<path fill="#FFFFFF" d="M549.988,70.94c-14.101,28.864-32.477,56.306-53.271,79.847c-6.097,5.638-11.858,11.574-18.874,16.382
		c-7.485,4.227-15.329,8.127-21.695,13.361c0.397-1.92,2.208-3.946,3.703-5.408c6.178-9.23,13.762-17.83,20.285-26.245
		c5.729-5.596,10.665-11.907,16.581-17.337c3.555-4.323,7.207-8.558,11.289-12.406C522.628,103.418,535.559,86.006,549.988,70.94z"
		/>
	<path fill="#FFFFFF" d="M382.416,73.643c0.073,4.733,3.807,13.998,8.996,10.498c0.918-6.308-2.75-9.809-7.23-11.771
		c-3.998-0.211-6.706,0.74-7.761,3.184c-0.15,0.027-0.167-0.063-0.179-0.159c0.39-1.824,1.742-2.778,2.823-3.978
		c9.207-2.146,16.056,7.29,11.818,14.476C383.59,86.353,382.236,79.167,382.416,73.643z"/>
	<path fill="#FFFFFF" d="M369.718,86.686c-0.337-2.795,1.051-4.036,1.938-5.728c1.749-1.541,5.36-2.699,8.114-1.112
		c0.418,0.697,1.203,1.313,2.293,0.955c0.414,2.275,1.731,3.74,3.175,5.09c0.141,2.038-0.292,4.078-1.938,4.931
		c-5.834,0.223-6.172-4.509-7.938-7.953c-0.045-0.783-0.13-1.602,0.882-1.431c0.274,4.002,1.66,8.356,6.352,8.907
		c3.585-4.229-0.461-11.056-6.703-10.498C372.647,81.059,370.465,83.224,369.718,86.686z"/>
	<path fill="#FFFFFF" d="M371.48,87.004c-0.086-2.25,1.166-3.296,2.293-4.451c1.005,2.273,1.537,4.976,3.175,6.68
		C375.415,88.862,373.688,87.294,371.48,87.004z"/>
	<path fill="#FFFFFF" d="M362.66,99.411c-0.114-0.479-0.808-0.438-0.707-1.113c4.51-3.273,12.803,1.4,8.997,5.728
		c-0.888,0.122-2.066-0.196-0.527-0.159C375.019,100.232,365.24,95.227,362.66,99.411z"/>
	<path fill="#FFFFFF" d="M365.659,99.094c0.8,1.134,1.126,2.692,2.116,3.656C366.881,102.339,365.949,100.581,365.659,99.094z"/>
	<path fill="#FFFFFF" d="M197.558,106.409c0.022,1.402-2.804,2.456-3.177,3.5c-0.114,0.213-0.377,0.296-0.703,0.318
		c-0.528,0.796-1.104,1.551-2.117,1.908c-5.091,5.059-9.034,11.151-13.938,16.383c-0.375,1.085-3.224,4.398-1.232,1.432
		C181.641,122.12,189.354,112.484,197.558,106.409z"/>
	<path fill="#FFFFFF" d="M199.146,106.409c0.333,0.177,0.81,0.224,0.882,0.637c-6.522,4.937-11.665,11.113-17.287,16.86
		C186.962,117.585,193.197,111.702,199.146,106.409z"/>
	<path fill="#FFFFFF" d="M147.286,112.612c2.574,4.042,5.688,7.595,8.29,11.612C152.562,120.58,149.366,117.1,147.286,112.612z"/>
	<path fill="#FFFFFF" d="M149.226,112.612c0.335,0.6,1.77,0.208,2.646,0.319c0.539,0.246-0.765,0.14-1.059,0.156
		c0,0.372,0,0.743,0,1.114c5.375,7.135,10.927,14.112,15.699,21.791C160.253,128.797,154.944,120.571,149.226,112.612z"/>
	<path fill="#FFFFFF" d="M156.459,125.655c2.131,2.001,3.313,4.86,5.47,6.84c0.438,0.981,0.995,1.798,1.409,2.386
		c1.17,1.657,0.142-0.239-1.233-0.953c-0.752-1.22-1.601-2.696-2.472-3.342c0.146-0.447-0.247-0.412-0.176-0.795
		C158.351,128.508,157.438,127.052,156.459,125.655z"/>
	<path fill="#FFFFFF" d="M162.456,127.405c1.624,1.24,3.091,3.999,4.586,5.885C165.186,131.679,164.063,129.22,162.456,127.405z"/>
	<path fill="#FFFFFF" d="M176.92,127.564c-1.63,2.403-4.013,6.877-5.998,10.021C172.221,133.527,174.46,130.808,176.92,127.564z"/>
	<path fill="#FFFFFF" d="M462.498,232.542c0.514-3.878,1.677-10.362,2.822-14.154c0.13-1.368,0.063-2.914,0.705-3.817
		c3.494-20.338,13.396-34.896,21.873-50.739c2.08-5.899,7.146-9.145,11.289-13.521c4.093-4.323,8.178-8.863,12.347-11.771
		c0.377-0.263,1.271-0.146,1.235-0.954c1.045-0.383,2.041-0.811,2.47-1.75c3.506-1.881,8.332-5.312,12.522-7.635
		c-6.684,6.356-15.243,17.604-20.99,27.198c-4.938,8.249-9.889,16.832-14.993,25.45c-0.035,0.06-0.229-0.236-0.176-0.318
		c-1.461,2.259-2.286,4.868-3.704,7.158c-6.987,11.285-13.32,23.663-20.285,34.675C465.616,225.518,464.106,229.866,462.498,232.542
		z"/>
	<path fill="#FFFFFF" d="M528.115,130.267c-6.526,10.224-11.436,22.979-16.581,34.675c-5.056,11.495-8.991,23.557-15.346,34.038
		c-0.036,0.062-0.242-0.245-0.176-0.317c-1.524,1.688-2.638,4.188-4.06,6.203c-8.513,12.089-19.926,21.965-29.457,32.766
		c-0.601-0.2-0.573-0.966-0.527-1.75c0.498,0.134,0.457-0.224,0.882-0.157c7.617-15.504,16.868-31.004,25.398-46.445
		c4.827-8.736,10.273-17.173,15.349-25.449c1.432-2.337,2.688-6.086,4.409-7.636c0.518-2.131,2.231-3.181,2.82-5.248
		C515.938,144.1,521.61,136.385,528.115,130.267z"/>
	<path fill="#FFFFFF" d="M166.865,135.198c0.524-0.202,0.995,1.007,1.235,1.591C167.479,136.448,167.45,135.573,166.865,135.198z"/>
	<path fill="#FFFFFF" d="M164.573,136.312c0.625-0.033,0.349,0.746,1.059,0.636c-0.104,0.328,0.285,1.105-0.353,0.955
		C165.411,137.04,164.829,136.823,164.573,136.312z"/>
	<path fill="#FFFFFF" d="M168.63,137.585c0.451-0.136,0.942,1.057,1.411,1.433C169.074,139.617,169.052,138.004,168.63,137.585z"/>
	<path fill="#FFFFFF" d="M165.631,140.13c0.002-0.684,0.52,0.476,0.706,0.638c2.548-0.566,7.274,0.833,7.058-2.229
		c12.605,3.639,23.625,8.706,35.631,12.884c-2.071,0.567-4.732,2.528-7.055,2.388c-0.908-0.058-2.62-1.258-3.883-1.75
		c-10.21-3.979-22.18-7.188-32.277-11.293C165.883,140.433,165.687,140.344,165.631,140.13z"/>
	<path fill="#FFFFFF" d="M395.116,249.084c-0.148-0.233-0.442-0.342-0.882-0.317c-7.958-21.714-18.878-40.692-21.344-66.962
		c-0.805-12.521,0.585-23.664,1.234-35.313c5.25,21.197,11.459,41.432,19.228,59.966c8.412,24.28,15.224,50,21.519,76.188
		C407.822,271.319,399.967,262.677,395.116,249.084z"/>
	<path fill="#FFFFFF" d="M461.263,228.883c-1.788-15.926-3.479-31.587-5.115-46.922c3.602-2.315,6.781-5.019,10.936-6.839
		c-0.034-0.295,0.45-0.238,0.529-0.796c6.971-3.457,13.57-7.395,19.229-12.406c-7.537,15.3-18.475,31.511-22.401,51.059
		C463.347,218.404,462.727,223.785,461.263,228.883z"/>
	<path fill="#FFFFFF" d="M528.115,174.645c1.89,1.415,5.456,9.773-0.354,10.657c-1.937-0.59-4.05-1.015-4.938-2.547
		c1.16,0.971,2.675,1.617,4.41,2.067C532.51,184.094,529.539,177.114,528.115,174.645z"/>
	<path fill="#FFFFFF" d="M517.532,184.347c4.257,0.646,5.815,3.726,7.058,6.68c-1.602-2.292-3.441-6.655-6.881-5.725
		c0.38,3.614,4.664,8.808,9.174,6.202c1.005-0.641,0.323-5.597,1.232-3.021c0.145,1.508-0.084,2.682-0.527,3.659
		c-0.779,0.305-1.438,0.718-2.117,1.112C520.937,192.318,516.661,188.068,517.532,184.347z"/>
	<path fill="#FFFFFF" d="M521.941,189.596c-0.487-0.516-1.145-0.877-1.411-1.593C519.219,186.71,521.831,188.775,521.941,189.596z"
		/>
	<path fill="#FFFFFF" d="M575.214,192.777c-19.512,23.047-36.662,47.23-54.684,71.735c-13.245,16.543-36.093,26.609-59.62,33.878
		c-0.393,0.493-1.922-0.036-2.116,0.638c-0.284-1.532,0.69-3.3,1.06-4.771c18.146-14.423,38.583-28.299,54.858-43.898
		c3.723-3.854,7.403-7.745,11.466-11.293C541.847,223.076,555.779,205.684,575.214,192.777z"/>
	<path fill="#FFFFFF" d="M572.037,192.936c-15.283,11.028-27.619,24.721-40.218,38.174c-10.389,9.984-19.972,20.694-31.396,29.744
		c-12.599,11.188-26.894,20.22-40.396,31.492c1.156-3.729,1.729-7.982,2.293-12.247c0.409,0.05,0.677-0.025,0.882-0.159
		c0.593-1.282,1.241-3.315,2.117-3.816c11.965-18.982,26.794-36.136,44.979-48.99C526.727,211.992,549.434,202.511,572.037,192.936z
		"/>
	<path fill="#FFFFFF" d="M518.593,201.685c1.723,0.94-0.478,3.505-0.354,5.09c-0.565,0.548-1.03,1.189-1.588,1.75
		c-7.3,0.111-10.515-4.831-11.112-11.293c-0.124-0.742,0.304-0.742,0.178,0c0,0.477,0,0.954,0,1.432
		C505.793,204.791,518.465,212.967,518.593,201.685z"/>
	<path fill="#FFFFFF" d="M512.419,198.504c1.285,0.483,2.565,2.351,4.586,2.704c0.075,2.456-0.265,4.535-2.293,5.089
		C513.33,204.255,514.257,200.133,512.419,198.504z"/>
	<path fill="#FFFFFF" d="M498.305,216.477c1.29-5.04-0.508-9.893-3.354-12.248C498.104,206.114,500.815,212.219,498.305,216.477z"/>
	<path fill="#FFFFFF" d="M492.307,215.523c1.013,0.784,2.047,2.924,3.528,3.815c-0.31,2.274-1.65,4.261-3.528,4.612
		C492.584,221.455,493.032,217.925,492.307,215.523z"/>
	<path fill="#FFFFFF" d="M484.549,218.703c1.916,3.226,6.501,9.169,11.11,5.09c0.374-1.307,1.547-1.893,1.411-3.656
		c0.698-0.205,0.36,0.522,1.061,0.316c-0.651,2.593-2.648,3.976-4.409,5.566C487.543,227.007,486.702,221.867,484.549,218.703z"/>
	<path fill="#FFFFFF" d="M556.34,218.862c-0.934,11.018,10.848,12.268,21.167,13.68c7.227,0.988,13.676,1.95,21.52,2.228
		c-1.673,4.588-3.119,9.382-3.528,15.109c0.256,0.354,0.636,0.598,1.412,0.479c1.618-1.457,2.787-3.317,4.059-5.089
		c0.23,1.641-0.294,3.974-0.529,5.726c-13.609,6.541-25.663,14.911-33.515,27.039c-12.126-8.135-22.446-16.952-38.808-21.153
		C537.22,244.286,546.436,231.177,556.34,218.862z"/>
	<path fill="#FFFFFF" d="M629.718,243.199c0.123-1.217,0.895-1.847,1.234-2.864c0.396,0.837,0.15,3.009,1.766,2.229
		c0.192-1.45-0.021-3.904-1.412-4.454c-1.483,0.91-3.14,3.291-2.469,5.091c-1.229,0.219-2.258,0.615-3.883,0.479
		c0.202-3.424-1.051-10.885-3.702-6.047c-0.94,1.718-1.26,4.189-2.471,5.408c-0.461-1.494,0.101-3.907-0.354-5.408
		c-3.255-0.49-3.563,4.275-5.292,6.203c-0.134-2.138,0.503-9.121-2.47-6.36c-2.051,1.901-3.946,6.961-5.82,8.905
		c0.222-2.738,2.615-6.476,0.882-8.905c-3.862,2.401-5.418,6.885-8.29,10.179c0.951-8.532,4.897-16.917,6.702-26.085
		c13.907-0.507,29.295,1.646,40.923,4.771c-0.056,6.154-1.415,11.978-1.41,17.654C640.312,243.187,634.654,243.094,629.718,243.199z
		"/>
	<path fill="#FFFFFF" d="M476.258,225.066c1.09,2.57,1.929,5.366,3.881,7.157c4.796,1.197,7.631-1.846,8.644-5.092
		c0.611-0.127,0.68,0.237,1.234,0.16c-0.979,3.146-3.132,5.233-5.997,6.681C478.953,233.237,477.234,229.486,476.258,225.066z"/>
	<path fill="#FFFFFF" d="M321.031,225.861c0-0.105,0-0.212,0-0.317c15.047,16.271,29.033,35.005,34.926,60.442
		c4.963,14.904,6.872,33.171,10.938,49.308c0.417,1.654-1.7,4.607-2.293,6.361c-1.675,4.954-2.57,8.968-3.175,14.793
		c-17.425-38.407-29.801-82.349-40.041-127.723C321.363,227.683,321.273,226.704,321.031,225.861z"/>
	<path fill="#FFFFFF" d="M357.546,371.398c-20.502-24.584-35.977-53.953-39.334-94.958c-1.068-16.685-1.137-35.216,1.587-50.261
		c1.04,10.777,3.986,19.838,5.997,29.742c0.148,0.029,0.167-0.062,0.177-0.157c7.329,25.624,15.308,55.638,25.223,80.642
		c2.868,7.231,6.063,14.815,9.173,22.586c0.373,0.354,0.582,0.854,1.06,1.113C363.197,366.005,359.535,367.524,357.546,371.398z"/>
	<path fill="#FFFFFF" d="M328.089,231.27c6.846,1.461,14.147,3.888,20.637,6.203c-0.495,5.607-3.064,10.257-3.703,16.542
		C339.773,246.074,334.399,238.249,328.089,231.27z"/>
	<path fill="#FFFFFF" d="M478.725,233.019c-3.407,6.521-9.74,11.786-15.346,16.857c-0.639,0.151-0.246-0.626-0.354-0.954
		C468.654,243.979,474.469,239.2,478.725,233.019z"/>
	<path fill="#FFFFFF" d="M402.348,294.415c-12.284-11.723-23.908-24.039-32.985-38.649c-3.606-4.491-6.688-10.826-10.054-16.065
		c12.813,14.941,28.625,31.191,45.156,44.695C403.87,287.324,403.07,291.106,402.348,294.415z"/>
	<path fill="#FFFFFF" d="M601.494,330.679c0-0.529,0-1.062,0-1.593c0.1-0.353-0.337-0.226-0.353-0.477
		c-1.741-16.931-11.514-28.314-20.991-39.287c-3.314-3.84-7.737-7.07-11.642-10.021c0.381-0.275,0.765-1.455,0.177-1.273
		c4.418-7.102,11.496-13.04,18.168-17.654c10.613-7.343,23.059-12.937,39.335-15.429c1.455,0.039,2.513-0.281,4.057-0.16
		c0.394,0.088,0.252-0.304,0.529-0.316c21.471-0.099,32.815,8.298,42.863,19.244c8.328,9.071,14.271,17.931,19.401,27.836
		c2.117,5.62,3.839,11.597,5.646,17.496c0.24,1.319,0.051,3.029,0.705,3.979c0.027,1.398,0.107,2.806-0.705,3.814
		c-2.495,3.099-8.539,5.911-12.524,7.637c-8.314,3.599-19.292,5.727-28.223,7c-2.168,0.308-5.886,0.646-7.585,0.953
		c-4.529,0.156-9.559-0.137-13.582,0.478c-8.903,0.021-17.882,0.113-26.105-0.478c-0.396-0.067-0.563-0.343-0.883-0.479
		C606.679,332.34,604.546,330.835,601.494,330.679z"/>
	<path fill="#FFFFFF" d="M389.648,257.513c1.506-0.66,3.995-1.616,6.173-2.545c3.043,6.107,6.446,11.896,10.23,17.338
		C400.863,267.844,395.148,261.702,389.648,257.513z"/>
	<path fill="#FFFFFF" d="M346.432,256.878c7.367,1.312,14.804,2.559,23.284,2.862c9.829,13.257,20.293,25.405,32.278,36.425
		c-0.915,0.396-0.996,1.541-1.765,2.067c-3.914-0.128-6.971-1.031-11.289-0.796c-0.496-1.45-2.21-2.812-3.528-4.612
		c-0.984-1.349-1.7-4.329-3.705-3.816c-1.288,2.76-1.277,6.692-1.938,10.021c-3.253,2.104-4.764,5.777-6.35,9.384
		c-0.902,3.708-1.969,11.659,1.058,14.477c-2.67,3.157-4.42,7.146-6.704,10.655c-1.677-11.96-4.389-22.313-6.525-34.038
		c-0.149-0.028-0.167,0.063-0.177,0.158C357.956,284.446,353.227,269.306,346.432,256.878z"/>
	<path fill="#FFFFFF" d="M166.16,309.207c0.354,0,0.705,0,1.061,0c0.984-4.353-1.134-8.617-1.411-12.883
		c15.622-5.104,31.886-9.634,47.978-14.316c0.316-0.721,3.547-1.274,5.115-2.226c-7.44,10.816-16.429,20.635-22.578,33.083
		c-11.468,1.587-21.384,4.576-30.515,8.271c-1.229-2.158-0.168-7.386-1.235-10.18c0.326-1.445-1.021-5.854,0.354-4.296
		C164.995,307.819,165.778,308.332,166.16,309.207z"/>
	<path fill="#FFFFFF" d="M160.869,311.116c-0.799-1.665-1.668-3.268-2.999-4.454c-3.036,0.372-1.958,4.938-1.764,7.316
		c-1.74-1.62-2.702-8.19-5.997-7.316c-2.313,0.613-1.57,6.953-1.764,9.861c-1.993-5.201-4.126-10.275-7.232-14.476
		c-0.603-0.067-1.586-0.36-2.117,0c-1.349,2.123-0.955,5.818-1.059,9.066c-1.132-2.319-1.825-5.034-3.704-6.681
		c-4.894,0.199-4.393,5.266-5.998,8.43c-0.325-8.365-1.38-17.713-1.234-25.449c8.675-4.188,21.403-6.315,33.69-6.201
		c-0.083,0.339,0.252,0.304,0.529,0.316c0.984,7.723,3.697,16.331,4.408,23.699c-0.976-1.005-1.27-3.25-2.82-3.34
		C159.848,301.72,161.2,308.065,160.869,311.116z"/>
	<path fill="#FFFFFF" d="M432.687,298.232c-0.399,1.601-1.397,2.664-1.764,4.295c1.661,0.595,1.853-1.51,2.646-2.229
		c0.42,1.063-2.088,2.403-1.059,3.5c1.27-0.551,1.701-1.857,2.82-2.545c-0.233,1.246-2.424,2.155-1.41,3.499
		c0.391-0.307,1.389-0.812,1.939-1.432c-8.546,9.366-16.963,20.228-28.223,27.677c-1.003-1.96-2.738-3.258-3.175-5.728
		c6.427-4.377,13.889-9.165,19.227-15.745c2.682-1.771,4.379-4.429,4.232-8.749c0.564,0.541,0.762,2.226,0.883,2.227
		C431.301,302.494,430.923,299.396,432.687,298.232z"/>
	<path fill="#FFFFFF" d="M133.175,305.867c3.208,2.568,3.202,8.034,5.47,11.452c0.353,0,0.706,0,1.058,0
		c0.489-3.657-1.013-9.995,0.354-13.997c3.443,4.527,5.55,10.265,7.585,16.065c0.765-0.107,0.404,0.8,1.232,0.636
		c2.361-2.394,0.124-9.366,1.766-11.932c3.064,3.12,4.39,7.813,5.645,12.565c0.25-0.015,0.5-0.025,0.529,0.159
		c0.729,0.183,0.687-0.334,1.232-0.317c-0.515-3.725-0.572-7.858-0.527-12.089c2.361,1.898,1.715,6.512,4.762,7.794
		c0.948-3.097-0.154-7.06,0.176-10.657c1.255,2.314,0.256,6.661,1.235,9.228c1.236,31.521,6.039,57.991,17.814,80.006
		c-10.189-4.014-21.328-7.17-35.276-7.793c-2.997-6.695-6.019-13.241-7.585-20.838c-2.188-6.646-3.579-15.616-4.765-24.495
		c-0.688-5.169-0.379-11.235-1.233-15.745C132.505,318.941,132.762,312.335,133.175,305.867z"/>
	<path fill="#FFFFFF" d="M397.938,306.026c-2.962,6.351-15.606,7.156-12.7,16.7c-3.9-4.726,2.438-16.632,9.524-17.18
		C396.118,305.441,396.826,305.916,397.938,306.026z"/>
	<path fill="#FFFFFF" d="M199.146,374.42c-2.489-10.543,1.133-21.239,5.468-28.15c0.235-0.267,1-0.056,1.235-0.317
		c0-0.53,0-1.061,0-1.591c11.454-17.296,26.313-32.364,50.446-37.697c8.029-0.394,17.15-0.557,21.872,2.545
		c22.581,6.408,34.754,23.039,41.102,43.899c1.143,3.763,0.398,7.48,1.235,11.294c0.572,2.616-0.764,9.832-2.472,10.975
		c-1.345,0.9-5.708,1.886-7.761,2.229c-8.54,1.427-16.193,2.758-25.047,3.499c-16.985,1.42-32.273-1.677-47.449,0
		c-0.797,0.188-0.396-0.705-1.235-0.479c-0.684,0.648-2.793,0.642-3.705,0.159c-0.34,0.035-5.205-0.023-7.229-0.317
		C215.92,379.069,207.737,376.614,199.146,374.42z"/>
	<path fill="#FFFFFF" d="M399.702,306.662c1.33,0.868,2.667,1.731,3.704,2.864c0.205,3.892,0.208,7.183-1.232,9.861
		C403.456,314.353,399.361,311.86,399.702,306.662z"/>
	<path fill="#FFFFFF" d="M397.938,321.932c1.115-0.027,1.204,0.914,1.941,0c-0.263,2.098-1.309,3.486-2.999,4.294
		c-1.458-0.88-3.729-0.304-5.292,0.315c0.204,0.721,0.867,1.021,1.233,1.591c-4.561,1.703-7.959-1.276-8.643-4.609
		c1.049,0.84,3.099,1.801,4.938,0.953c0-0.213,0-0.425,0-0.638c-6.905-1.437-2.545-11.105,4.234-10.021
		c0.167-0.273,0.651-0.259,0.528-0.794c-0.323-0.345-1.039-0.335-1.765-0.318c2.45-1.555,4.293-3.657,6.703-5.248
		c-0.067,1.492,0.366,2.532,0.354,3.977c0.599-0.639,0.368,1.772,1.058,2.065c-0.682-0.137-0.764,0.269-1.058,0.479
		c0.13,0.626,1.064,0.522,1.765,0.638c0.943,1.534,0.134,2.965,0,4.771c-0.237-0.033-0.329-0.661-0.353,0
		c-0.369-0.843-2.172-0.451-2.822,0.156c0.472,0.729,0.335,0.845,0.528,1.592c-0.5,0.025-0.346-0.537-1.061-0.317
		c-0.376,1.031-0.266,2.996,0.354,3.658c-1.085-0.062-1.223-0.496-2.117,0c-0.229-0.629,0.58-0.325,0.352-0.953
		c-0.114-0.163-0.405-0.166-0.352-0.479c-2.306,1.034,0.033,2.732,1.763,2.546C399.276,325.103,397.946,323.532,397.938,321.932z
		 M388.592,318.274c0.489,1.074,2.84,1.698,4.057,1.113c0.132-0.49-0.607-0.194-0.352-0.799c0.448-0.018,0.905-0.027,0.882-0.477
		C392.14,317.07,389.487,317.133,388.592,318.274z M386.473,320.659c0.238,0.051,0.337,0.229,0.705,0.159c0-0.212,0-0.424,0-0.636
		c-0.176,0-0.354,0-0.528,0C386.657,320.401,386.566,320.531,386.473,320.659z M389.119,321.613c0.235,0,0.473,0,0.705,0
		c0.087-0.502-0.315-0.563-0.176-1.112c-0.235,0-0.47,0-0.706,0C388.998,320.874,389.221,321.097,389.119,321.613z M395.294,321.613
		c0.646-0.116,0.979,0.392,1.41,0c-0.09-0.608-0.888-0.578-1.41-0.795C395.294,321.083,395.294,321.348,395.294,321.613z
		 M391.59,321.772c0-0.212,0-0.424,0-0.637c-0.235,0-0.472,0-0.705,0C390.746,321.683,390.981,321.896,391.59,321.772z
		 M392.296,321.772c0.294,0,0.587,0,0.882,0C393.354,320.987,392.115,320.987,392.296,321.772z M387.531,321.932
		c0.41-0.058,0.827-0.104,0.706-0.64c-0.233,0-0.47,0-0.706,0C387.531,321.507,387.531,321.719,387.531,321.932z M393.353,322.409
		c0.235,0,0.47,0,0.705,0c0-0.213,0-0.425,0-0.637C393.508,321.699,393.27,321.911,393.353,322.409z M390.53,322.726
		c0.076-0.305,0.504-0.286,0.354-0.794c-0.234,0-0.472,0-0.705,0C390.151,322.326,390.268,322.592,390.53,322.726z M391.941,322.886
		c0.41-0.057,0.827-0.104,0.705-0.639c-0.235,0-0.47,0-0.705,0C391.941,322.462,391.941,322.674,391.941,322.886z"/>
	<path fill="#FFFFFF" d="M401.996,324.795c1.897,2.479,3.2,5.491,5.114,7.952c-5.803,4.419-14.709,6.035-16.404,14.157
		c-0.805,1.078-0.931,3.53-1.587,4.931c0.161,2.159-0.758,3.348-0.527,5.566c-9.314-0.03-17.211-1.338-25.4-2.386
		c1.668-12.087,6.108-22.152,11.994-30.857c2.013,2.837,6.714,3.135,9.702,4.136c1.415,0.476,2.272,1.388,3.526,1.593
		C394.332,330.851,397.717,326.802,401.996,324.795z"/>
	<path fill="#FFFFFF" d="M653.53,372.035c0.696,0.873,2.526,1.514,2.821,2.229c12.833,4.388,25.938,8.528,38.63,13.042
		c-1.269,3.203-2.39,6.542-3.528,9.861c-13.061-5.083-26.782-9.566-43.566-11.294c-3.147-8.982-4.365-19.71-4.41-31.493
		c0.24,0.051,0.146,0.398,0.178,0.638c0.245,0.241,0.912,0.449,1.234,0.158c0.815-5.602-0.652-14.259-0.529-21.313
		c10.76,0.045,21.822-1.797,30.692-4.453C666.132,340.842,656.948,355.031,653.53,372.035z"/>
	<path fill="#FFFFFF" d="M501.834,355.81c-3.959-0.22-5.259,6.604-7.231,8.905c0.518-6.234,1.428-13.505,2.293-19.723
		c10.227-5.481,30.722-2.586,39.512,1.909c0.421,7.447,0.466,13.986-0.527,20.678c-0.078,1.254,0.081,2.725-0.528,3.499
		c0.122,1.225-0.298,1.957-0.177,3.183c-0.203,0.515-0.2-0.429-0.178-0.637c-0.599-2.22-0.719-4.868-1.233-7.159
		c-0.422-0.096-0.807-0.229-1.411-0.157c-1.581,2.551-1.769,6.357-2.822,9.386c-0.771-3.389-0.881-7.371-2.116-10.339
		c-3.687-0.34-3.538,4.114-4.587,6.68c-0.594-2.327,0.49-6.167-1.058-7.635c-1.407-0.263-1.301,0.842-2.117,1.113
		c-1.426,3.593-2.486,7.514-3.88,11.134c-0.135-4.544,0.463-9.749-1.06-13.043c-2.185-0.379-2.002,1.376-3.177,1.909
		c-0.812,2.873-2.536,4.923-3.351,7.794c-0.571-2.765,0.669-5.901,0-9.066c-0.369,0.068-0.468-0.109-0.706-0.16
		c-2.741,2.088-3.465,5.996-5.468,8.749C502.489,368.348,503.574,360.385,501.834,355.81z"/>
	<path fill="#FFFFFF" d="M598.142,391.599c-31.438,5.989-54.497,19.037-76.024,34.197c6.011-14.042,8.152-32.943,11.644-49.788
		c0.068,1.367-0.271,3.107,0.882,3.5c2.424-1.905,1.933-5.792,2.47-9.226c0.613-3.917,1.055-6.887,1.06-11.133
		c13.468-0.878,23.937-4.878,37.925-5.886c8.654-1.478,17.268-2.987,21.695-8.271c-0.659,10.823-1.709,27.249-0.705,39.923
		C597.319,387.251,596.675,390.379,598.142,391.599z"/>
	<path fill="#FFFFFF" d="M561.982,353.902c-8.401,1.282-15.476,3.461-23.813,3.977c0-0.478,0-0.954,0-1.432
		C545.475,355.241,554.828,354.186,561.982,353.902z"/>
	<path fill="#FFFFFF" d="M493.719,357.56c0.136,1.234-0.271,1.981-0.179,3.182c-17.907-0.386-32.772-2.1-49.214-3.977
		c-0.012-1.071,0.579-1.601,0.529-2.704C457.952,356.881,476.207,359.243,493.719,357.56z"/>
	<path fill="#FFFFFF" d="M506.771,367.582c-0.363,2.604-0.261,6.423-0.881,8.271c0.071,0.837,0.511,1.342,1.058,1.75
		c3.468-3.463,3.891-8.146,6.703-12.247c0.902,4.116,0.526,9.387,0.882,13.996c0.457,0.172,0.412,0.794,1.235,0.636
		c2.582-3.45,3.052-8.806,4.938-12.883c1.905,2.658-1.797,8.873,1.411,10.656c2.089-2.89,2.282-7.485,4.06-10.656
		c1.881,3.287,0.813,9.232,2.645,12.563c0.558,0.076,0.69-0.228,1.061-0.316c0.96-2.751,2.054-6.02,2.646-9.544
		c0.423-0.063-0.098,0.726,0.529,0.478c-0.458,0.971-0.291,3.157-0.883,3.5c-1.783,12.604-3.908,24.896-6.879,36.424
		c-0.112,1.064-0.105,2.238-0.705,2.863c-0.409,2.65-1.381,5.052-2.117,7.794c-1.604,3.593-3.209,7.182-6.353,9.386
		c-8.993,5.979-16.235,13.099-23.282,20.518c-4.887-2.262-10.978-4.418-18.696-4.612c8.95-15.267,13.126-34.752,18.873-52.17
		c0.214-0.67-0.284-0.698-0.354-1.115c1.925-8.869,3.683-19.2,4.232-29.266c1.438-1.885,2.256-4.328,3.704-6.203
		c2.056,6.105-0.729,13.179-0.354,19.246c0.284-0.044,0.306,0.148,0.528,0.159C504.194,374.328,504.244,370.506,506.771,367.582z"/>
	<path fill="#FFFFFF" d="M444.153,358.038c15.892,2.065,31.146,3.728,49.037,3.978c0.089,1.934-1.459,4.89,0.176,6.204
		c0.999,0,1.343-0.595,1.588-1.272c0.438,2.833-0.854,5.483-0.704,8.589c-12.318-2.434-28.809-4.368-42.336-1.591
		c0.526-0.283,0.665-1.162,0.354-1.749c0.071-0.382-0.803,0.088-0.528-0.479c-4.9,0.883-7.971,3.417-10.937,6.046
		c-0.863-0.138-1.613-0.814-2.293-0.638C441.259,371.102,442.41,365.227,444.153,358.038z"/>
	<path fill="#FFFFFF" d="M385.414,360.742c0.541,0.942,1.056,1.912,1.766,2.703c-1.603,0.571-3.757,0.642-5.646,0.955
		c0,0.265,0,0.531,0,0.795c8.065,0.109,16.556-2.141,24.52-3.182c3.476-0.653,5.99,0.354,7.938,1.432
		c6.027,3.335,12.042,7.386,17.463,11.294c-0.944,1.585-2.174,2.917-3.352,4.295c-5.271-1.932-9.522-6.105-17.64-4.454
		c-6.973,2.412-15.294,5.82-22.933,7.635c-14.476,2.403-16.57-8.438-20.989-15.108C372.138,364.358,379.373,363.087,385.414,360.742
		z M372.89,369.172c1.211,0.128,1.587,1.011,2.47,1.435c-1.196,0.774-2.734,1.243-3.704,2.226c2.634,1.879,4.154,7.084,8.645,6.84
		c2.18-0.117,4.351-1.58,5.998-2.705c-0.609-4.113-3.333-6.322-5.646-8.904c-0.236,0.351-1.346,0.011-0.528,0.478
		c-3.631,0.603-5.073-3.179-9.35-3.021C370.772,367.501,372.837,367.655,372.89,369.172z"/>
	<path fill="#FFFFFF" d="M372.89,372.989c2.155-1.663,5.187-2.533,7.409-4.137c2.004,2.436,4.842,4.118,4.938,8.271
		c-2.569,0.983-5.663,2.633-7.761,1.113C375.726,376.969,374.766,374.475,372.89,372.989z M376.595,371.558
		c1.337,1.071,2.912,1.933,4.41,2.859c0.039-0.123,0.146-0.185,0.353-0.156c-0.979-1.504-2.85-2.202-4.41-3.183
		C377.003,371.392,376.712,371.395,376.595,371.558z"/>
	<path fill="#FFFFFF" d="M441.86,385.873c-1.72-0.039-2.2-1.198-3.881-1.271c0.949-1.688,2.058-3.233,2.293-5.566
		c3.998-1.326,5.811-4.624,10.055-5.727C448.217,378.203,444.538,381.135,441.86,385.873z"/>
	<path fill="#FFFFFF" d="M236.364,402.416c-0.324,6.503-1.26,17.318-0.529,25.288c-9.295-14.592-15.941-30.472-21.694-48.034
		c6.521,1.54,13.435,2.731,21.694,2.703c-1.057,6.688-2.178,14.151-1.588,21.791c0.25-0.014,0.5-0.023,0.529,0.159
		C235.973,404.289,235.734,402.961,236.364,402.416z"/>
	<path fill="#FFFFFF" d="M286.812,444.406c-4.842-1.57-9.66-3.165-15.522-3.816c-1.211-11.154-1.142-23.466-1.059-35.787
		c2.727,5.208,4.016-7.235,4.41-10.341c0.572-4.509,0.098-7.794,0.706-11.609c4.033,0.033,7.604-0.354,11.465-0.479
		c-1.979,11.318-2.479,26.544-1.766,40.721c0.072,1.425-0.148,4.438,0.179,4.454C285.449,432.194,286.144,439.103,286.812,444.406z"
		/>
	<path fill="#FFFFFF" d="M330.733,405.277c-0.178-0.368-0.604-0.513-1.234-0.479c-1.884,1.694-2.635,4.411-4.408,6.203
		c0.939-2.757,2.004-5.401,2.293-8.748c-0.228-0.271-0.705-0.317-0.884-0.637c-3.212,2.089-4.232,6.149-7.055,8.59
		c1.685-7.095,3.662-11.966,6.352-18.132c4.634-1.253,12.244,2.47,16.934,3.978c-2.992,5.687-6.904,12.593-9.526,18.607
		c-0.845-2.688,1.563-6.127,0-8.431c-2.218,0.545-2.12,3.179-3.525,4.455C329.825,409.336,330.813,407.366,330.733,405.277z"/>
	<path fill="#FFFFFF" d="M408.522,505.803c3.649-13.891,7.271-32.218,9.878-47.719c0.176-1.048,0.835-3.448-0.883-3.978
		c-13.896,16.204-25.698,34.3-35.454,54.239c0.031-10.076,1.838-21.115,2.998-30.541c0.177-1.435-0.126-2.942,0.177-4.293
		c0.979-4.36,4.154-7.763,5.468-11.135c4.161-8.188,7.483-16.521,11.644-24.495c7.552-14.481,16.521-27.865,25.576-40.88
		c4.104,1.13,8.601,1.395,13.229,1.75c0.004,6.411,0.339,12.525,0.706,18.609c0.729-0.032,1.729,0.181,1.587-0.637
		c0.385,12.326,0.311,25.064,1.235,36.902c-14.807,8.017-24.107,21.842-26.813,40.239
		C414.747,497.799,411.74,501.371,408.522,505.803z"/>
	<path fill="#FFFFFF" d="M474.315,442.815c0.401-9.313,1.633-18.804,0.529-27.835c0.571,0.092,0.888-0.049,1.059-0.318
		c1.809-4.426,0.959-10.988,0.354-16.542c4.75,0.396,9.856-0.216,13.936-0.953C485.59,413.038,481.603,428.596,474.315,442.815z"/>
	<path fill="#FFFFFF" d="M26.282,401.938c-0.426,2.283-0.436,5.73-0.353,7.952c0.18,0.365,0.811,0.329,1.409,0.316
		c2.07-2.319,3.621-5.111,6.352-6.839c2.076,1.944,0.343,6.609,1.059,9.543c3.245-1.046,3.332-6.042,6.173-7.794
		c1.311,1.623-0.052,5.192,0.529,7.157c2.75-1.125,3.146-4.375,5.292-6.045c1.2,10.101-5.035,19.096-5.821,29.903
		c-8.621-5.875-17.687-11.668-29.984-14.95c1.294-7.53,2.086-16.888,7.937-20.838c1.254,1.944,0.256,5.919,2.117,7.315
		C23.848,406.238,24.201,403.424,26.282,401.938z"/>
	<path fill="#FFFFFF" d="M325.441,404.961c-0.756,2.815-2.011,5.187-2.293,8.431c-0.607,0.066-0.429-0.411-1.234-0.479
		c-0.233,0.159-0.347,0.43-0.707,0.479c1.264,19.274,3.087,38.045,7.059,54.875c-1.772-2.448-5.066-3.315-7.059-5.728
		c-1.696-2.058-2.369-5.376-3.879-8.111c-2.482-4.505-4.708-8.873-7.231-13.2c0.345-0.168,0.705-0.32,1.059-0.479
		c2.176-11.293,6.943-20.25,10.231-30.539C323.027,408.72,323.761,406.415,325.441,404.961z"/>
	<path fill="#FFFFFF" d="M340.26,484.806c-2.019-3.05-3.796-6.385-5.999-9.544c-1.297-1.862-3.518-3.587-4.059-5.248
		c-1.601-4.925-1.526-9.609-3.174-14.477c-0.4-6.781-1.898-11.919-2.117-18.607c-0.92-2.086-0.133-5.713-1.058-7.794
		c0.155-2.527-0.353-4.456-0.53-6.683c4.44,18.848,10.157,37.354,14.994,56.309C338.908,479.737,339.599,482.633,340.26,484.806z"/>
	<path fill="#FFFFFF" d="M304.981,435.975c5.358,7.575,9.323,16.405,13.758,24.813c-1.717-0.73-2.938-1.906-4.586-2.704
		C310.991,450.808,307.89,443.479,304.981,435.975z"/>
	<path fill="#FFFFFF" d="M366.894,442.02c0.513-0.188-0.404,0.698-0.354,1.113c1.603,2.056,3.424,3.913,4.765,6.203
		c0.021,0.654-0.659,0.679-0.53,1.431c-3.516-2.184-6.768-4.606-10.76-6.361c0.005-1.533,1.406-1.809,1.412-3.341
		C363.17,441.351,365.172,442.247,366.894,442.02z"/>
	<path fill="#FFFFFF" d="M145.523,480.352c-0.229-0.273-0.704-0.319-0.882-0.636c-4.402,3.59-5.563,8.354-8.997,12.726
		c0.276-5.152,3.349-10.842,1.765-15.589c-1.186-0.223-2.793,1.357-3.528,2.228c-3.056,3.616-5.848,8.075-8.996,11.771
		c0.264-4.989,2.554-8.55,2.999-13.838c-0.377-0.51-1.01-0.785-2.115-0.637c0.699,0.283-1.241,1.11-1.766,1.591
		c-2.555,2.331-4.594,5.437-7.056,7.793c0.893-4.241,3.151-8.064,2.823-12.883c-0.54,0.114-0.521-0.274-1.061-0.159
		c-2.423,2.058-3.563,5.269-5.645,7.635c0.614-3.494,3.218-8.834,1.058-12.247c-2.875,0.376-3.733,2.569-5.468,3.979
		c2.356-5.775,7.395-10.513,10.584-16.065c10.976,0.553,20.383,3.886,29.104,7c5.271,1.268,9.753,3.696,13.405,6.838
		c0.43,1.239-0.458,1.751-0.882,2.545c-3.925,7.344-7.513,15.845-11.289,23.541c-0.431-2.141,0.979-7.073-1.059-8.271
		c-3.249,0.836-3.998,3.926-5.821,6.045C143.224,489.52,145.431,485.469,145.523,480.352z"/>
	<path fill="#FFFFFF" d="M375.36,29.427c5.98,10.565,13.879,19.399,22.402,27.676c-21.742,2.914-42.802,6.729-65.794,8.907
		c-25.623,2.241-38.446-8.272-57.682-11.612c-9.265-1.891-19.543-2.951-23.105-10.338c0.348-5.495,6.296-9.194,11.289-11.137
		c6.188-2.402,13.38-2.695,19.756-3.499c17.503-0.461,27.785,5.593,41.805,8.271c13.038-1.037,20.435-5.852,32.632-8.43
		C362.082,28.121,370.125,27.637,375.36,29.427z"/>
	<path fill="#FFFFFF" d="M340.787,73.008c14.78,18.484,28.133,38.257,44.274,55.512c5.371,8.485,13.039,14.372,16.581,24.495
		c-0.097,0.352,0.337,0.227,0.354,0.478c0.397,3.617,1.246,6.828,1.94,10.18c0.129,1.155-0.074,2.612,0.529,3.342
		c0.172,1.965,0.031,4.211,0.705,5.726c-0.085,1.826,0.346,3.188,0.354,4.931c-10.604-13.341-21.734-26.211-30.517-41.194
		c-2.532-2.762-4.747-7.167-7.763-10.021C355.925,110.998,348.319,92.368,340.787,73.008z"/>
	<path fill="#FFFFFF" d="M237.422,126.45c-10.538,7.376-18.326,15.326-27.867,23.541c-12.311-4.124-22.889-9.058-35.455-12.725
		c5.924-8.867,13.581-16.171,20.638-24.019c2.483-1.418,3.792-3.896,6.173-5.408C214.076,113.146,225.391,120.121,237.422,126.45z"
		/>
	<path fill="#FFFFFF" d="M375.889,146.333c15.333,19.628,25.521,43.897,36.161,67.757c2.694,6.954,5.34,13.954,6.878,21.951
		c-0.046,1.476,0.396,2.504,0.354,3.979c-0.098,0.353,0.337,0.227,0.354,0.478c0.147,1.296-0.092,2.946,0.527,3.817
		c0.021,2.632,0.36,4.976,0.354,7.635c-0.098,0.353,0.337,0.228,0.354,0.478c0.624,11.95,0.215,24.09-2.999,33.084
		c-5.901-17.235-9.46-37.731-15.17-55.353c-7.152-24.072-17.859-46.861-23.812-72.053
		C377.763,154.92,376.969,150.084,375.889,146.333z"/>
	<path fill="#FFFFFF" d="M382.594,291.234c2.224,2.964,4.261,4.873,5.998,8.589c0.294,0,0.588,0,0.881,0
		c0.745,0.003,0.065-1.276,0.353-1.272c3.02,0.249,6.742,0.707,9.173,0.955c0.069,0.42,0.125,1.086,0.884,1.271
		c1.516-1.07,2.383-2.729,3.352-4.295c0.153,3.161-0.105,7.328,0,10.977c-2.771-3.507-11.333-4.253-14.818-0.797
		c-2.251,2.32-4.084,5.856-5.467,8.431c-0.134,1.101-0.15,2.304-0.706,3.021c-0.156,3.479,0.316,6.396,1.587,8.589
		c-13.188-0.156-11.212-19.718-4.408-25.768c0.32,0.188,0.139,0.83,0.354,1.112c0.293,0,0.588,0,0.881,0
		C381.996,299.073,381.594,294.52,382.594,291.234z"/>
	<path fill="#FFFFFF" d="M331.794,334.974c-5.426,1.39-11.182,2.085-17.287,2.227c-0.069-0.943-0.833-1.263-0.882-2.227
		c-7.95-12.779-20.122-23.17-37.043-28.313c-28.553-6.939-48.514,9.751-61.208,22.586c-8.967-1.758-15.348-5.211-18.168-12.247
		c0.39-5.803,3.623-9.235,6.526-13.358c6.544-9.295,12.881-19.647,20.813-27.2c11.48-14.506,28.443-24.578,52.563-27.198
		c0.393,0.088,0.252-0.304,0.53-0.317c17.825-1.059,30.857,2.856,38.454,11.294C316.306,289.663,322.021,314.147,331.794,334.974z"
		/>
	<path fill="#FFFFFF" d="M618.781,345.153c1.462,2.766,0.371,7.829,1.939,10.499c3.025-1.438,1.9-7.063,4.057-9.702
		c1.308,2.374,0.603,6.563,2.117,8.748c2.424-1.262,1.386-5.644,2.646-7.953c0.906,1.302,0.153,3.771,1.764,3.816
		c1.583,0.048,1.298-2.785,2.822-3.498c0.521,3.346,0.723,6.981,1.41,10.18c3.076-0.03,2.068-6.741,3.527-9.386
		c1.166,2.022,0.021,6.132,1.587,7.795c0.65-0.104,1.081-0.404,1.061-1.113c0.517,1.717-0.158,6.177,0.354,6.839
		c0.528,7.608,1.592,17.419,4.057,24.336c-10.868-0.416-20.491,1.138-29.279,2.067c-1.804-11.907-3.325-25.123-3.177-39.287
		c1.04,1.979,0.739,4.454,1.235,6.684c0.422,0.096,0.804,0.229,1.41,0.156C617.608,352.368,617.843,348.443,618.781,345.153z"/>
	<path fill="#FFFFFF" d="M291.045,381.896c-2.537,20.659-0.772,46.12,2.117,64.896c-1.396-0.017-2.931-1.281-4.586-1.593
		c-2.855-19.045-3.298-43.313-0.354-62.986C289.351,382.277,289.725,381.66,291.045,381.896z"/>
	<path fill="#FFFFFF" d="M824.982,360.105c0,13.096,0,26.189,0,39.288c-16.854-0.781-31.265,0.893-42.511,5.726
		c2.324-6.741,2.771-14.236,3.704-22.106c0.233,0,0.471,0,0.706,0C792.929,369.664,803.822,358.247,824.982,360.105z"/>
	<path fill="#FFFFFF" d="M36.512,408.776c-0.479-2.568,0.14-6.514-2.293-6.838c-2.989-0.4-4.632,3.907-6.526,5.408
		c-0.432-2.151,0.402-5.174-0.176-7.479c-3.679-0.28-3.743,4.036-5.998,5.567c-0.626-2.3-0.151-5.592-2.117-6.683
		c-2.917,0.656-3.46,3.454-5.997,4.452c2.257-8.375,4.181-17.833,7.409-24.812c6.331-0.063,12.577,0.97,18.521,1.749
		c6.237,2.17,14.668,2.358,18.874,6.361c-2.677,9.604-4.962,18.93-9.172,26.881c-0.62-2.148,0.198-4.382,0.529-6.202
		c-0.295-0.21-0.376-0.615-1.06-0.479c-1.125-4.267-4.346,0.188-5.645,1.591c0.299-1.313,0.226-4.896-2.293-4.611
		C38.524,403.92,37.622,407.235,36.512,408.776z"/>
	<path fill="#FFFFFF" d="M111.75,478.625c0,0-25.25-11.875-27.625-22.5c-0.125-3,5.25-6.125,10.25-6.625s35.375-3,59.875,5.625
		c16.875,7,29.375,14,33.125,16.375c-1.25,1.625-7.375,10.125-10.5,16.375c-2.75,1.5-17.625,1.625-22.375,0.875
		c3.25-6.125,8.125-17.25,8.75-18.375s-3.375-3.75-5.625-4.875S137,457,128.75,455.875s-9.25-2.25-11.125,0.125s-6.125,8.25-8,11.5
		s-3.125,6-1.625,5.875s4.5-3.25,4.875-2.5S114.25,473,111.75,478.625z"/>
	<path fill="#FFFFFF" d="M15.875,387.625L0,383.875V360.75c0,0,20.75,4.875,33.625,8.25s48.875,14.25,59,17.875
		s15.125,4.5,15.5,6.625c0,0-12.75,4.375-21,12.875C82.5,406,85.625,408.25,55.25,402c2.125-7.125,4.25-15.5,4.25-16.375
		s-9-4.875-23.75-7c-9.25-1.625-15.125-3.25-16.25-0.5S16.5,386.125,15.875,387.625z"/>
	<path fill="#FFFFFF" d="M125.5,294.834c0,0-36.666,11.333-54.583,12c-5.583,0.25-19.167,0.166-14.583-6.5
		c2.25-2.333,18.083-18.584,47.167-26.5c18.417-4.833,62.583-16.583,119.083-9.416c2.083,0.75,4.416,3.917,2.083,5.75
		s-12.416,6.499-38.333,14.666c-8.917,2.584-20.167,6.334-21.75,6.584c-0.667-3.5-1.833-7.416-2.25-9.5s-0.917-2.334-3.167-1.917
		s-23.5,0.166-33.167,7C125.917,288.085,125.833,293.25,125.5,294.834z"/>
	<path fill="#FFFFFF" d="M131.583,330.583c0,0-12.5,5.833-14.5,10.083c0.167,0.417,11.583,1.751,15.25,1.584
		C131.917,338.166,132,331.833,131.583,330.583z"/>
	<path fill="#FFFFFF" d="M165.667,322.25c0,0,1.083,13.999,1.167,16.416c1.5,0.167,2.083,0.25,3-0.5
		c-0.083-1.75,0.417-8.083,1.417-9.583c1.5-1.25,25-4.75,28.167-4.25c-1.083-1.25-5.084-5.834-3.417-9.917
		C193.167,314.75,184.417,315.917,165.667,322.25z"/>
	<path fill="#FFFFFF" d="M201,325.833c0,0,1.917,3.416,2.25,5.583c5.167-1.416,6.167-1.667,8.333-1.75
		C208.583,328.5,202.666,326,201,325.833z"/>
	<path fill="#FFFFFF" d="M307.166,245.25c0,0-39.417-9.917-47.417-24.25c-0.167-1.833-0.583-6.417,20.167-9
		c12.333-0.417,15.667-3.333,53.417,4.5c16.167,4.25,49.75,12.667,53.417,18.583c1.417,2.833,3.917,11.917,6.083,15.75
		c-2.417,1.417-5.083,3.75-6.5,3.917c-2.167-1.75-19.583-16.583-28.75-20.75c-0.167,1.417-0.25,2.084,0.333,3.417
		s1.417,6.417,9.167,17.75c-9.25-1-18.75-1.833-20.667-2.833c1.833-5.167,3.5-12.5,3.417-15.417
		c-2.417-0.833-17.5-5.667-23.667-7.333c-3.333-3.833-5.417-4.833-5.75-5.583c-1.75,2.25-2.166,3.334-2.833,5.167
		c-1.75,0.083-3.917-0.333-4.917,1.75S308.999,239.333,307.166,245.25z"/>
	<path fill="#FFFFFF" d="M322.187,395.937c0,0-17.75-4.875-21.813-11.063c0-0.813-1.5-2.688,5.438-2.125s26.438,3.438,38.563,10.375
		c-1.188,1.688-1.563,2.313-1.563,2.313s-11.5-6-17.375-4.125c-0.5,1.125-2.188,4.125-2.5,4.688
		C322.687,395.937,322.187,395.937,322.187,395.937z"/>
	<path fill="#FFFFFF" d="M493.75,355.625c0,0-33.75,2.25-48.125-3.25c1-4.875,1.5-6.5,1.5-6.5S487,328,526.5,328
		c17.125-0.25,57.875-0.25,65.625,11c0.625,1.375,4.875,4.875-15.5,12c-8.75,1.125-32.375,3.625-38.375,4.375
		c-0.125-5.875,0.375-7.625-0.25-9.75c-2.375-1.125-13.125-7.125-33-4.5c-4.125,0.375-9.125,1.25-9.75,3.625
		S493.75,354.25,493.75,355.625z"/>
	<path fill="#FFFFFF" d="M599.75,231.062c0,0-28.938,0.938-35.5-7.688c-0.938-1.625-2.75-5.688,0.75-6.438s14.625-2.875,43-1.25
		c14.313,0.813,46.063,2.25,57.813,2.938c9.875,1.188,20.063,2.875,19.875,6.438c-0.375,2.25-4.688,8.813-39.75,8.438
		c0.313-5.688,0.313-7.375,0.313-7.875c-2.25-0.438-22.063-5.938-42.625-4.938C602.875,222.5,601.5,229.062,599.75,231.062z"/>
	<path fill="#FFFFFF" d="M804.333,420.584c0,0-19.499,0.416-23.666-4.167c-1.417-1.75-2.166-3.084-0.5-5.75s3.332-4.75,10.166-6.75
		s21.917-3.75,34.667-3.5c0,5.75,0,13.084,0,13.084S803.666,414.667,804.333,420.584z"/>
</g>
</svg>
