<?xml version="1.0" encoding="utf-8"?>
<!-- Generator: Adobe Illustrator 23.1.0, SVG Export Plug-In . SVG Version: 6.00 Build 0)  -->
<svg version="1.1" id="Capa_1" xmlns="http://www.w3.org/2000/svg" xmlns:xlink="http://www.w3.org/1999/xlink" x="0px" y="0px"
	 viewBox="0 0 1024 768" style="enable-background:new 0 0 1024 768;" xml:space="preserve">
<style type="text/css">
	.st0{fill:#FFFFFF;}
</style>
<g>
	<circle class="st0" cx="515.57" cy="384" r="312.17"/>
	<path d="M515.57,701.17c-84.72,0-164.37-32.99-224.28-92.9c-59.91-59.91-92.9-139.56-92.9-224.28c0-84.72,32.99-164.37,92.9-224.28
		c59.91-59.91,139.56-92.9,224.28-92.9c84.72,0,164.37,32.99,224.28,92.9c59.91,59.91,92.9,139.56,92.9,224.28
		c0,84.72-32.99,164.37-92.9,224.28C679.93,668.18,600.29,701.17,515.57,701.17z"/>
	
		<ellipse transform="matrix(0.7071 -0.7071 0.7071 0.7071 -120.5234 477.0307)" class="st0" cx="515.57" cy="384" rx="307.17" ry="307.17"/>
</g>
</svg>
