<?xml version="1.0" encoding="utf-8"?>
<!-- Generator: Adobe Illustrator 15.1.0, SVG Export Plug-In . SVG Version: 6.00 Build 0)  -->
<!DOCTYPE svg PUBLIC "-//W3C//DTD SVG 1.1//EN" "http://www.w3.org/Graphics/SVG/1.1/DTD/svg11.dtd">
<svg version="1.1" id="Layer_1" xmlns="http://www.w3.org/2000/svg" xmlns:xlink="http://www.w3.org/1999/xlink" x="0px" y="0px"
	 width="825px" height="525px" viewBox="0 0 825 525" enable-background="new 0 0 825 525" xml:space="preserve">
<g id="Black">
	<polygon points="-0.001,0 825,0 825.013,525.169 0,525.169 	"/>
</g>
<g>
	<path fill="#FFFFFF" d="M339.427,525.169c0.003,0.201,0.001,0.4,0.005,0.602c18.728,0,37.456,0,56.185,0
		c0.013-0.199,0.035-0.401,0.049-0.602H339.427z"/>
	<path fill="#FFFFFF" d="M210.249,525.169c-0.022,0.199-0.039,0.402-0.061,0.602c38.415,0,76.827,0,115.242,0
		c0.005-0.201,0.006-0.4,0.01-0.602H210.249z"/>
	<path fill="#FFFFFF" d="M202.277,525.169c-0.057,0.205-0.115,0.41-0.166,0.602c2.453,0,4.906,0,7.359,0
		c0.024-0.197,0.041-0.402,0.063-0.602H202.277z"/>
	<path fill="#FFFFFF" d="M326.002,525.169c-0.015,0.198-0.016,0.404-0.033,0.602c4.248,0,8.496,0,12.744,0
		c-0.012-0.201-0.015-0.4-0.025-0.602H326.002z"/>
	<path d="M325.441,525.169c-0.004,0.201-0.005,0.4-0.01,0.602c0.18,0,0.359,0,0.539,0c0.017-0.197,0.018-0.403,0.033-0.602H325.441z
		"/>
	<path d="M395.666,525.169c-0.015,0.2-0.037,0.402-0.049,0.602c0.239,0,0.479,0,0.718,0c0.025-0.202,0.055-0.4,0.08-0.602H395.666z"
		/>
	<path d="M201.624,525.169c-0.075,0.202-0.148,0.407-0.231,0.602c0.239,0,0.479,0,0.719,0c0.051-0.191,0.109-0.396,0.166-0.602
		H201.624z"/>
	<path d="M209.534,525.169c-0.022,0.199-0.039,0.404-0.063,0.602c0.24,0,0.479,0,0.718,0c0.022-0.199,0.039-0.402,0.061-0.602
		H209.534z"/>
	<path d="M338.688,525.169c0.011,0.201,0.014,0.4,0.025,0.602c0.24,0,0.479,0,0.719,0c-0.003-0.201-0.002-0.4-0.005-0.602H338.688z"
		/>
	<path fill="#FFFFFF" d="M94.049,26.567c-2.286-6.689-3.701-14.25-7-19.925c-4.115,5.699-8.651,12.889-10.771,19.387
		C81.629,26.737,89.11,27.085,94.049,26.567z"/>
	<path fill="#FFFFFF" d="M283.606,29.977c7.073,1.145,7.25-12.738,1.615-12.207c-0.928,0.087-2.325,0.611-2.872,1.077
		C279.764,21.05,279.632,29.334,283.606,29.977z"/>
	<path fill="#FFFFFF" d="M743.498,18.668c-5.301,1.007-7.987,14.89-1.795,15.976C749.529,36.018,751.322,17.181,743.498,18.668z"/>
	<path fill="#FFFFFF" d="M157.594,44.517c3.539,1.736,8.415-0.494,10.052-2.872c3.753-5.452,0.021-15.003-5.923-14.899
		c-2.53,0.044-5.065,1.25-6.463,3.052C152.135,33.825,152.8,42.167,157.594,44.517z"/>
	<path fill="#FFFFFF" d="M94.946,44.517c-1.082-5.359-1.014-10.895-1.077-17.053c-6.043-0.18-12.646,0.2-17.951-0.718
		c0.148,6.853,0.691,13.311,1.974,19.028C82.749,46.056,89.779,45.517,94.946,44.517z M90.997,31.054
		c-0.006,1.678,0.551,2.292,0.18,3.59c-0.537,0.361-1.694,0.102-2.513,0.18c-0.445-1.051-0.332-2.66-0.539-3.949
		C88.925,30.449,90.291,30.809,90.997,31.054z M81.663,31.413c0.261,1.145,0.546,2.71,0.359,3.77c-0.717,0.268-2.155,0.268-2.872,0
		C78.201,33.239,78.694,29.914,81.663,31.413z"/>
	<path fill="#FFFFFF" d="M283.965,30.695c0.208,6.196-0.484,13.19,0.897,18.13c0.261-6.26,0.218-11.457-0.539-18.13
		C284.205,30.695,284.085,30.695,283.965,30.695z"/>
	<path fill="#FFFFFF" d="M90.638,34.106c0.045-1.063-0.274-1.76-0.359-2.692c-0.479,0-0.958,0-1.436,0
		c-0.139,1.096,0.235,1.679,0.18,2.692C89.561,34.106,90.099,34.106,90.638,34.106z"/>
	<path fill="#FFFFFF" d="M81.483,34.644c-0.155-1.599,0.067-3.416-1.975-2.693c0.03,0.927-0.111,2.026,0.179,2.693
		C80.45,34.865,80.655,34.71,81.483,34.644z"/>
	<path fill="#FFFFFF" d="M474.42,40.03c-0.218-2.288-0.507-6.289-2.692-6.462c-3.373-0.268-5.651,9.57-6.462,13.463
		c-3.233,15.516-4.821,34.401-4.488,51.518c0.454,23.276,1.402,44.679,5.744,62.288c1.217-31.986,5.846-66.207,7.359-97.292
		C474.307,54.798,475.072,46.877,474.42,40.03z"/>
	<path fill="#FFFFFF" d="M742.241,35.363c-0.833,5.388-1.019,12.219-0.358,17.771c1.429-0.861,1.049-3.219,1.076-5.026
		c0.063-4.042,0.541-8.843-0.179-12.745C742.6,35.363,742.421,35.363,742.241,35.363z"/>
	<path fill="#FFFFFF" d="M227.241,39.671c-4.732-1.132-8.955-2.773-14.002-3.59c-10.088,15.162-16.472,35.583-22.438,55.467
		c4.989,1.714,9.991,3.414,14.72,5.385C210.933,76.017,220.615,59.371,227.241,39.671z"/>
	<path fill="#FFFFFF" d="M26.734,56.365c9.544,0.97,11.401-20.347,1.436-18.848C20.86,38.616,18.715,55.549,26.734,56.365z"/>
	<path fill="#FFFFFF" d="M564.89,64.262c5.929-5.096,6.753-20.79,0.179-24.771c-2.221-1.346-5.549,0.192-7.18,0
		c-6.649,4.675-7.677,19.342-2.333,24.771C558.08,66.828,562.463,66.349,564.89,64.262z"/>
	<path fill="#FFFFFF" d="M339.97,66.955c1.571,0.851,3.513,1.083,5.026,0.718c10.313-2.482,12.065-29.305-2.154-28.362
		c-0.11,0.01-0.212,0.027-0.18,0.18c-2.239,0.934-4.279,2.347-5.564,3.949C332.26,49.47,333.387,63.391,339.97,66.955z"/>
	<path fill="#FFFFFF" d="M239.628,96.573c-1.807-21.006-5.062-39.197-12.027-55.826c-6.588,19.381-16.242,35.695-21.362,56.544
		C216.471,95.921,229.698,97.098,239.628,96.573z"/>
	<path fill="#FFFFFF" d="M159.927,45.594c0.047,9.103-0.065,17.358,0.718,26.208c0.734-8.666,1.995-18.649,0-26.208
		C160.406,45.594,160.166,45.594,159.927,45.594z"/>
	<path fill="#FFFFFF" d="M6.989,64.801c8.045,0.715,8.935-18.3,0.359-18.13C-0.204,47.717-0.202,64.162,6.989,64.801z"/>
	<path fill="#FFFFFF" d="M696.468,72.879c1.425-6.971,1.335-15.73,1.615-23.335c-0.249,0.072-2.016-0.208-2.333,0
		C696.087,57.365,695.186,66.248,696.468,72.879z"/>
	<path fill="#FFFFFF" d="M185.057,77.905c7.098-3.473,11.142-27.661-1.974-26.567c-12.263,1.023-12.27,22.977-3.59,26.746
		C181.394,78.91,183.591,78.623,185.057,77.905z"/>
	<path fill="#FFFFFF" d="M27.811,56.903c-0.212,0.087-0.407,0.191-0.539,0.359c0.771,7.773,0.791,15.301,2.692,21.541
		c-0.062-7.736-0.765-14.626-1.795-21.899C28.051,56.903,27.931,56.903,27.811,56.903z"/>
	<path fill="#FFFFFF" d="M51.326,80.418c10.35,3.018,11.617-21.905,1.436-20.104c-1.945,0.344-3.381,1.613-4.128,2.872
		C46.122,67.414,46.457,78.998,51.326,80.418z"/>
	<path fill="#FFFFFF" d="M421.287,91.727c0.534,0.042,1.469,0.075,2.333-0.18c9.241-2.724,11.124-28.882-1.257-29.08
		c-0.192-0.003-0.29,0.167-0.358,0.179c-2.419,0.417-4.968,2.404-6.104,4.129C411.337,73.707,412.641,91.05,421.287,91.727z"/>
	<path fill="#FFFFFF" d="M143.951,95.137c-4.769-9.892-9.298-21.09-14.899-30.695c-10.899,10.104-23.745,19.216-32.85,30.516
		C111.653,94.479,125.754,95.915,143.951,95.137z"/>
	<path fill="#FFFFFF" d="M8.066,65.519c-0.419,0-0.838,0-1.257,0c0.297,8.438-0.644,15.005,1.257,23.694
		c0.986-0.948,0.6-2.954,0.539-4.308C8.291,78.016,7.718,71.753,8.066,65.519z"/>
	<path fill="#FFFFFF" d="M558.427,66.417c-1.078,10.52-1.222,22.426-0.718,32.67c2.678-9.096,2.431-22.093,2.872-32.49
		C559.39,66.641,559.286,66.706,558.427,66.417z"/>
	<path fill="#FFFFFF" d="M583.559,97.292c1.695,0.99,5.766,0.562,7.18-0.539c8.355-6.501,8.507-28.686-3.052-29.259
		C575.796,69.521,574.219,91.837,583.559,97.292z"/>
	<path fill="#FFFFFF" d="M253.808,67.852c-0.11,0.01-0.212,0.027-0.18,0.18c-1.039,0.58-2.623,1.126-3.589,1.975
		c-6.104,5.353-4.983,23.022,3.052,24.413C263.853,96.281,268.945,65.872,253.808,67.852z"/>
	<path fill="#FFFFFF" d="M342.483,68.391c-0.354,10.507-1.071,19.773,1.437,28.541c2.18-0.402,1.16-3.321,1.077-4.846
		c-0.446-8.086-0.46-15.7-0.898-23.695C343.561,68.391,343.022,68.391,342.483,68.391z"/>
	<path fill="#FFFFFF" d="M279.657,110.216c9.065-4.49,10.138-28.061-0.897-31.054c-0.979-0.265-2.145-0.075-2.513,0
		c-6.065,1.24-9.344,9.729-9.515,17.232C266.555,104.191,271.249,114.38,279.657,110.216z"/>
	<path fill="#FFFFFF" d="M180.211,79.161c0.812,9.25-0.446,19.557,0.897,28.362c1.148-1.313,0.524-3.471,0.539-5.206
		c0.068-8.163,0.055-15.248,0.179-22.977C181.132,79.437,180.95,79.02,180.211,79.161z"/>
	<path fill="#FFFFFF" d="M52.224,81.136c0.527,5.154,0.153,14.264,1.616,20.463c0.369-6.081-0.275-14.167-1.257-20.463
		C52.463,81.136,52.344,81.136,52.224,81.136z"/>
	<path fill="#FFFFFF" d="M327.047,92.086c-3.744-3.676-7.45-7.39-12.027-10.232c-4.271,3.328-8.803,6.396-12.206,10.591
		C311.003,92.052,319.486,92.479,327.047,92.086z"/>
	<path fill="#FFFFFF" d="M206.059,114.344c-0.525-5.505-0.432-11.583-0.718-16.874c-4.989-1.772-9.884-3.639-14.899-5.385
		c0.272,5.292,0.756,10.373,1.257,15.437C196.629,109.655,200.497,112.846,206.059,114.344z"/>
	<path fill="#FFFFFF" d="M420.388,92.804c-0.062,8.382-0.813,18.096,2.154,25.31c1.388-8.188-0.222-18.358-0.359-25.849
		C421.516,92.375,420.289,91.926,420.388,92.804z"/>
	<path fill="#FFFFFF" d="M252.731,95.497c-0.11,7.795,0.257,14.491,0.538,21.181c0.047,1.117-0.555,3.656,0.718,4.129
		c1.941-7.302,0.667-17.315,0.539-25.669C253.684,95.407,252.693,94.537,252.731,95.497z"/>
	<path fill="#FFFFFF" d="M205.88,98.01c0.452,5.728,0.446,10.806,0.719,16.694c12.28-0.571,23.534,0.168,34.465-2.513
		c-0.504-4.896-0.98-10.73-1.436-15.079C229.709,97.979,215.523,96.501,205.88,98.01z M208.931,105.728
		c-0.343-1.179-0.532-2.378-0.18-3.77c0.849-0.159,2.314-0.491,3.052-0.18c0.044,1.235,0.101,2.303,0.18,3.77
		C210.797,105.439,210.143,105.863,208.931,105.728z M236.934,105.19c-0.754,0.437-2.086,0.75-2.872,0.18
		c-0.727-2.399-0.638-5.225,2.872-4.308C237.424,102.254,236.908,103.874,236.934,105.19z"/>
	<path fill="#FFFFFF" d="M26.914,110.934c7.73-1.963,17.142-2.244,24.771-4.308c-3.181-3.042-6.287-6.159-9.873-8.796
		C37.392,102.505,30.425,106.546,26.914,110.934z"/>
	<path fill="#FFFFFF" d="M321.302,100.523c-0.108,1.485,0.14,2.613,0.18,3.949c0.849,0.071,1.498-0.058,2.154-0.18
		c0-1.197,0-2.393,0-3.59C322.807,100.692,321.881,100.782,321.302,100.523z"/>
	<path fill="#FFFFFF" d="M306.941,100.882c-0.434-0.344-1.441-0.113-2.153-0.179c0.139,1.575-0.264,2.608-0.18,4.128
		c0.656,0.122,1.305,0.25,2.153,0.179C306.718,103.53,307.079,102.454,306.941,100.882z"/>
	<path fill="#FFFFFF" d="M234.601,105.01c0.792,0.074,1.388-0.048,1.795-0.359c0.003-1.411,0.056-1.675,0.18-2.872
		c-0.719,0-1.436,0-2.155,0C234.378,102.96,234.43,104.045,234.601,105.01z"/>
	<path fill="#FFFFFF" d="M209.47,105.19c0.472-0.186,1.102-0.214,1.795-0.18c0-0.897,0-1.795,0-2.692
		c-1.164-0.016-0.992,0.196-2.155,0.18C209.344,103.364,209.105,104.181,209.47,105.19z"/>
	<path fill="#FFFFFF" d="M824.095,125.654c0.3-0.008,0.615-0.022,0.918-0.032v-7.915c-0.608-3.769-1.196-7.585-0.918-11.62
		c0.293-0.069,0.609-0.129,0.918-0.192v-1.746c-1.096,0.177-2.139,0.39-3.072,0.682
		C822.137,112.294,823.046,119.045,824.095,125.654z"/>
	<path fill="#FFFFFF" d="M801.657,125.294c-0.857-5.778-1.074-11.413-1.077-17.771c4.008-0.623,8.965-0.874,13.463-0.718
		c-0.002,5.962,1.358,12.903,1.616,18.13c-1.884,0.012-2.74-0.015-4.129,0.359c2.546-0.09,3.668,2.001,5.924,0.718
		c-1.25-6.408-1.835-13.483-2.334-20.643c-5.231,0.014-10.563,0.416-15.616,1.077c-0.574,6.359,0.143,14.426,0.718,20.823
		c2.093-0.062,3.305-1.002,4.667-1.795C803.505,125.472,802.385,125.826,801.657,125.294z"/>
	<path fill="#FFFFFF" d="M825.013,113.438v-7.067c-0.186,0.025-0.378,0.049-0.56,0.075
		C824.516,108.756,824.732,111.097,825.013,113.438z"/>
	<path fill="#FFFFFF" d="M780.117,107.344c-0.112,7.942,0.47,14.109,1.436,21.002c5.115-0.21,10.102-0.549,15.079-0.897
		c-0.141-6.445-1.113-13.122-1.077-20.823C790.229,106.689,785.779,106.962,780.117,107.344z M794.476,126.192
		c-3.747,0.698-7.51,0.354-11.487,0.897c-0.76-5.237-1.877-12.366-1.077-18.489c3.324-0.46,8.026-0.435,11.668-0.359
		C793.72,113.57,794.877,120.327,794.476,126.192z"/>
	<path fill="#FFFFFF" d="M113.974,111.472c0.791,0.046,1.388,0.287,2.333,0.179c-0.106-1.688-0.189-3.401-0.359-5.026
		c-0.899-0.121-1.39,0.167-2.154,0.179C113.942,108.116,114.007,109.58,113.974,111.472z"/>
	<path fill="#FFFFFF" d="M122.41,106.626c-0.676-0.138-0.858,0.219-1.436,0.179c0,1.078,0,2.155,0,3.231c0.419,0,0.838,0,1.256,0
		C122.615,109.224,122.315,107.728,122.41,106.626z"/>
	<path fill="#FFFFFF" d="M124.924,110.216c-0.133-1.231-0.136-1.595-0.18-3.411c-0.34-0.318-1.186-0.13-1.795-0.179
		c0,1.137,0,2.274,0,3.411C123.578,110.125,124.117,110.304,124.924,110.216z"/>
	<path fill="#FFFFFF" d="M113.256,111.472c-0.384-1.074,1.048-4.906-1.077-4.308c0.101,1.597-0.316,2.676-0.18,4.308
		C112.418,111.472,112.837,111.472,113.256,111.472z"/>
	<path fill="#FFFFFF" d="M813.325,107.164c-0.119,0-0.239,0-0.358,0c-3.78,0.539-7.586,0.284-11.669,0.718
		c-0.094,5.721,0.081,11.922,0.898,17.053c4.385-0.282,9.015-0.319,13.104-0.897C814.133,118.972,813.831,112.319,813.325,107.164z"
		/>
	<path fill="#FFFFFF" d="M25.477,111.831c-0.974,33.124-4.154,67.434-2.872,100.882c11.9,0.865,25.556,1.242,38.953,0.538
		c-5.018-33.53-8.497-69.356-9.873-105.729C43.417,109.129,33.958,109.978,25.477,111.831z M36.069,122.063
		c1.079-0.153,2.746-0.556,3.77-0.18c-0.079,1.613,0.314,5.208-0.359,6.821c-1.317-0.146-2.188,0.375-3.231,0
		C35.961,126.77,36.006,123.774,36.069,122.063z M41.094,144.142c-1.453-0.026-2.967-0.179-3.949-0.18
		c-0.411-2.221-0.065-5.2-0.179-7.718c1.316,0,2.633,0,3.949,0C41.343,138.651,41.439,141.413,41.094,144.142z"/>
	<path fill="#FFFFFF" d="M724.291,142.886c4.41-0.023,7.411-0.734,10.95,0.359c3.179,0.981,6.275,4.149,8.975,4.308
		c1.246,0.073,3.388-1.122,4.847-1.616c5.049-1.707,10.05-3.013,15.438-4.128c-3.215-11.744-6.54-23.378-11.488-33.388
		c-22.51,2.811-44.437,8.138-63.007,16.335c2.033,12.682,4.317,24.359,6.821,36.081c3.362-0.946,6.297-2.319,9.873-3.051
		C710.863,151.118,717.254,146.679,724.291,142.886z M750.677,110.934c1.081-0.358,2.15,3.521,2.514,4.667
		c1.673,5.288,3.497,10.442,4.487,16.155c-4.813,2.067-10.243,3.519-15.616,5.026c-2.052-6.521-3.94-13.949-5.745-20.463
		C740.183,113.399,746.067,112.463,750.677,110.934z M732.01,116.139c3.86,5.93,4.863,13.619,6.821,21.361
		c-5.531,1.531-12.048,3.029-17.053,4.487c-2.068-6.607-3.854-13.499-4.668-21.361C721.912,118.967,726.697,117.29,732.01,116.139z
		 M693.955,127.089c5.331-2.087,10.54-4.298,16.334-5.923c3.015,6.32,3.182,15.487,6.283,21.72
		c-6.017,1.642-11.382,3.936-17.412,5.564C696.632,142.124,695.427,134.473,693.955,127.089z"/>
	<path fill="#FFFFFF" d="M782.271,109.139c-0.092,6.194,0.489,11.716,1.076,17.232c3.619-0.21,7.321-0.338,10.771-0.718
		c-0.235-6.099-0.817-11.078-1.077-16.874C789.063,109.177,786.065,108.638,782.271,109.139z"/>
	<path fill="#FFFFFF" d="M120.974,110.575c-0.065,2.801-0.07,2.963,0,5.744c0.438,0.16,0.778,0.418,1.436,0.359
		c0.029-2.081,0.004-4.804-0.18-6.103C121.812,110.575,121.393,110.575,120.974,110.575z"/>
	<path fill="#FFFFFF" d="M124.744,110.934c-0.327-0.391-1.468,0.032-1.795-0.359c-0.072,2.166,0.061,4.128,0.179,6.103
		C125.734,116.434,124.093,112.967,124.744,110.934z"/>
	<path fill="#FFFFFF" d="M274.81,111.831c0.783,8.611-1.258,17.71-0.18,25.131c0.539,3.709,3.679,6.532,4.309,9.693
		c-0.777-11.573-1.528-24.112-2.514-35.004C276.129,111.952,275.372,111.795,274.81,111.831z"/>
	<path fill="#FFFFFF" d="M756.961,131.577c-1.568-7.167-3.443-14.029-6.283-19.925c-4.946,1.216-9.557,2.77-13.821,4.667
		c2.039,6.517,3.668,13.445,5.744,19.925C747.192,134.494,752.336,133.295,756.961,131.577z M749.601,113.447
		c2.877,4.669,4.299,11.727,5.744,17.232c-3.196,1.711-7.567,2.246-11.489,3.231c-1.773-5.706-3.953-11.005-5.385-17.053
		C741.926,115.465,745.573,114.266,749.601,113.447z"/>
	<path fill="#FFFFFF" d="M113.435,117.037c0.401-1.448-0.019-3.549-0.179-5.026C111.066,111.419,111.853,116.991,113.435,117.037z"
		/>
	<path fill="#FFFFFF" d="M113.974,112.191c0.04,1.864,0.33,3.203,0.359,4.667c0.736-0.018,1.471-0.035,1.975,0.179
		c0.162-1.82-0.014-2.877,0-4.846C115.53,112.191,114.752,112.191,113.974,112.191z"/>
	<path fill="#FFFFFF" d="M321.123,115.96c1,0.022,1.713-0.076,2.153-0.18c0.042-1.357-0.048-2.585-0.358-3.59
		C319.885,111.524,321.06,114.124,321.123,115.96z"/>
	<path fill="#FFFFFF" d="M304.967,112.729c0,1.197,0,2.394,0,3.59c0.979,0.081,1.475-0.32,2.514-0.18
		c-0.23-1.026-0.036-2.477-0.359-3.411C306.188,112.615,305.682,113.125,304.967,112.729z"/>
	<path fill="#FFFFFF" d="M754.806,130.321c-0.956-2.485-1.562-5.419-2.513-8.437c-0.62-1.967-1.467-7.255-3.231-7.718
		c-2.693-0.707-7.536,2.92-10.052,3.231c1.819,5.181,3.624,10.377,5.205,15.796C747.922,132.411,751.612,131.614,754.806,130.321z"
		/>
	<path fill="#FFFFFF" d="M263.68,116.139c-7.224,12.342-14.024,25.107-17.771,40.927c10.518-3.125,22.083-5.202,33.209-7.719
		C274.167,138.084,269.952,126.084,263.68,116.139z"/>
	<path fill="#FFFFFF" d="M738.113,136.962c-0.729-3.459-1.633-6.752-2.692-10.411c-0.475-1.635-2.197-10.13-3.949-9.693
		c-4.434,1.105-9.355,2.795-13.822,4.128c1.057,7.2,2.708,13.807,4.487,20.284C727.236,139.745,732.691,138.555,738.113,136.962z
		 M730.932,118.294c2.777,5.24,4.327,11.708,5.744,18.31c-4.599,0.847-8.874,2.016-13.283,3.051
		c-2.164-5.136-2.49-12.11-4.129-17.771C722.858,120.391,726.997,119.445,730.932,118.294z"/>
	<path fill="#FFFFFF" d="M735.959,136.065c-1.378-6.042-3.001-11.838-5.206-17.053c-3.558,1.109-7.453,1.88-10.771,3.231
		c1.503,5.379,2.049,11.714,3.77,16.873C727.568,137.845,731.683,136.875,735.959,136.065z"/>
	<path fill="#FFFFFF" d="M709.571,121.884c-5.057,1.824-10.01,3.752-15.078,5.565c1.574,6.802,2.899,13.854,4.847,20.284
		c5.175-1.304,10.56-3.746,16.155-5.206C712.871,136.295,712.862,127.449,709.571,121.884z M696.826,127.807
		c3.642-1.445,7.818-2.354,11.848-3.411c1.619,5.621,2.614,11.866,4.309,17.412c-3.372,2.073-8.359,2.531-12.386,3.949
		C699.185,139.929,697.866,134.009,696.826,127.807z"/>
	<path fill="#FFFFFF" d="M39.3,122.423c-1.077-0.12-1.752,0.162-2.692,0.179c-0.091,2.005,0.098,3.731,0.179,5.564
		c0.893,0.055,1.647-0.028,2.333-0.179C39.081,126.033,39.435,124.472,39.3,122.423z"/>
	<path fill="#FFFFFF" d="M121.333,128.525c0.566,0.088,0.634-0.323,1.257-0.179c-0.233-2.155-0.12-3.571-0.18-5.923
		c-0.359,0-0.718,0-1.077,0C121.1,124.346,121.392,125.802,121.333,128.525z"/>
	<path fill="#FFFFFF" d="M123.308,128.525c0.539,0,1.077,0,1.616,0c0-2.034,0-4.068,0-6.103c-0.659,0-1.316,0-1.975,0
		C123.129,124.396,123.094,126.584,123.308,128.525z"/>
	<path fill="#FFFFFF" d="M114.333,122.781c-0.139,1.395,0.275,2.238,0.179,3.59c0.629,0.088,1.168,0.268,1.975,0.18
		c0.134-1.451-0.213-2.419-0.179-3.77C115.649,122.781,114.991,122.781,114.333,122.781z"/>
	<path fill="#FFFFFF" d="M113.794,122.961c-0.419,0-0.837,0-1.256,0c0,1.077,0,2.154,0,3.231c0.419,0,0.837,0,1.256,0
		C113.915,125.644,113.712,124.05,113.794,122.961z"/>
	<path fill="#FFFFFF" d="M708.135,125.115c-3.489,0.999-6.981,1.994-10.591,2.873c0.912,5.909,2.38,11.262,3.411,17.053
		c3.619-1.287,7.864-1.949,11.308-3.411C710.681,136.331,709.707,130.424,708.135,125.115z"/>
	<path fill="#FFFFFF" d="M112.717,126.91c-0.033,1.489,0.227,4.187,0.539,5.924c0.583-0.104,0.835,0.122,1.256,0.179
		c-0.308-1.966-0.366-4.181-0.718-6.103C113.435,126.91,113.076,126.91,112.717,126.91z"/>
	<path fill="#FFFFFF" d="M116.487,127.269c-0.629-0.088-1.168-0.268-1.975-0.18c0.469,1.865-0.087,4.755,1.077,5.924
		C117.441,132.651,116.06,129.056,116.487,127.269z"/>
	<path fill="#FFFFFF" d="M122.769,129.064c-0.543,0.056-1.396-0.199-1.436,0.359c0.448,0.808,0.204,2.309,0.718,3.051
		c0.433,0.074,0.391-0.328,0.898-0.179C123.041,131.066,122.631,130.34,122.769,129.064z"/>
	<path fill="#FFFFFF" d="M123.308,129.243c0.51,0.867-0.453,3.206,1.077,3.052c0.403-0.66,0.453-2.477,0.359-3.052
		C124.265,129.243,123.787,129.243,123.308,129.243z"/>
	<path fill="#FFFFFF" d="M674.748,131.398c-21.469,4.202-44.245,7.093-61.75,15.258c1.926,12.585,3.513,24.402,6.821,35.542
		c21.36-6.882,44.229-12.254,68.032-16.694C683.795,153.823,680.37,141.512,674.748,131.398z M620.896,170.35
		c-2.373-6.303-3.6-13.752-5.026-21.002c4.683-1.659,9.691-2.993,15.258-3.77c2.308,6.548,3.812,13.899,5.564,21.002
		C631.656,168.067,626.263,169.196,620.896,170.35z M639.744,166.221c-2.582-6.273-4.547-14.122-5.924-21.002
		c4.689-3.089,12.241-3.316,18.13-5.206c3.051,6.164,4.766,13.663,6.821,20.822C652.445,163.011,646.168,164.404,639.744,166.221z
		 M656.437,138.398c5.158-2.022,10.854-3.506,17.413-4.128c2.173,6.622,4.593,13.955,5.743,21.002
		c-4.761,2.419-11.231,3.129-16.873,4.667C659.648,153.736,658.205,145.906,656.437,138.398z"/>
	<path fill="#FFFFFF" d="M672.952,134.808c-5.49,1.031-10.925,2.119-15.796,3.769c1.527,7.328,3.345,14.366,5.743,20.823
		c5.347-1.416,10.753-2.771,16.156-4.128C677.51,148.413,675.94,140.955,672.952,134.808z M659.131,140.014
		c4.101-1.644,8.37-3.118,13.642-3.59c1.878,5.306,2.943,12.37,4.309,17.591c-4.145,1.062-8.43,1.982-12.565,3.052
		C662.562,151.659,660.31,145.597,659.131,140.014z"/>
	<path fill="#FFFFFF" d="M40.377,136.962c-1.192-0.104-1.534,0.008-2.873,0c0.038,2.255-0.115,4.975,0.18,6.462
		c1.031,0.046,2.289-0.134,3.052,0.18C40.359,141.647,40.79,138.882,40.377,136.962z"/>
	<path fill="#FFFFFF" d="M674.388,145.219c-0.334-1.581-1.164-8.397-2.692-8.078c-3.752,0.784-8.415,1.627-11.848,3.231
		c1.376,5.625,3.152,10.849,5.026,15.976c3.8-0.928,7.376-2.079,11.487-2.693C675.899,150.849,675.061,148.406,674.388,145.219z"/>
	<path fill="#FFFFFF" d="M634.359,145.219c1.608,7.127,3.353,14.119,5.744,20.463c5.704-2.074,12.376-3.18,17.95-5.385
		c-1.918-6.041-3.731-13.74-6.462-19.566C646.009,142.39,639.426,143.046,634.359,145.219z M641.001,163.708
		c-1.839-6.188-3.764-11.435-4.848-18.13c4.676-1.488,9.623-2.704,14.899-3.59c2.36,5.418,3.39,12.167,5.564,17.771
		C651.743,161.406,645.848,162.034,641.001,163.708z"/>
	<path fill="#FFFFFF" d="M747.626,150.425c5.427-2.173,11.586-3.613,17.951-4.847c-0.115-1.261-0.474-2.279-0.897-3.231
		c-6.92,1.637-13.678,3.436-19.925,5.745C745.494,149.087,746.617,149.699,747.626,150.425z"/>
	<path fill="#FFFFFF" d="M636.692,146.117c1.597,5.703,2.68,11.92,5.026,16.874c4.264-1.66,9.529-2.318,14.181-3.59
		c-1.979-5.261-3.275-11.205-5.025-16.694C645.901,143.599,641.021,144.582,636.692,146.117z"/>
	<path fill="#FFFFFF" d="M714.239,216.483c10.698,6.256,22.688,3.431,30.695-3.589c7.832-6.869,16.007-24.756,13.821-38.594
		c-1.146-7.264-4.854-16.24-8.437-20.463c-4.736-5.584-14.057-11.492-24.054-10.412c-2.711,0.293-4.728,1.653-6.642,2.873
		c-5.891,3.75-10.444,8.311-13.463,13.822c-3.828,6.987-8.492,18.133-7.719,28.182C699.437,201.223,705.518,211.384,714.239,216.483
		z"/>
	<path fill="#FFFFFF" d="M752.652,155.99c5.327-3.542,11.378,1.01,11.848,6.283c1.912-0.063,2.999-0.95,4.847-1.077
		c-0.938-5.166-2.59-9.616-3.41-14.899c-5.858,0.906-12.58,2.497-17.771,4.667C750.108,152.191,751.205,154.265,752.652,155.99z"/>
	<path fill="#FFFFFF" d="M616.588,149.707c1.485,6.832,2.516,14.119,4.847,20.104c4.583-1.46,9.679-2.408,14.54-3.59
		c-1.777-6.659-3.099-13.775-5.385-19.925C625.647,147.158,620.984,148.3,616.588,149.707z M622.691,167.657
		c-2.146-5.273-3.089-10.982-4.668-17.412c3.39-1.305,8.136-1.498,11.488-2.333c2.118,5.003,2.916,11.325,3.95,17.412
		C629.95,166.061,625.734,167.051,622.691,167.657z"/>
	<path fill="#FFFFFF" d="M777.065,147.014c-2.693,0.067-7.949,0.336-9.873,2.333c1.408,0.057,3.151-0.553,5.026-0.897
		C773.885,148.144,776.333,148.433,777.065,147.014z"/>
	<path fill="#FFFFFF" d="M604.202,185.608c-1.349-8.184-1.863-19.773-2.334-29.08c-0.107-2.132-0.11-8.342-1.256-8.795
		c-0.777-0.308-4.976,0.153-6.821,0.179c-19.086,0.274-40.973,2.439-58.339,6.103c-0.347,13.551,0.57,27.558,0.538,41.646
		C558.194,191.414,581.316,188.912,604.202,185.608z M597.381,152.04c2.041,7.289,2.529,17.036,3.231,24.233
		c-4.848,1.019-10.785,1.897-15.617,2.333c-1.436-7.481-2.602-16.186-2.513-24.592C587.165,152.836,592.683,152.801,597.381,152.04z
		 M561.121,156.349c5.212-1.31,11.539-1.505,17.411-2.154c1.441,8.277,1.689,16.636,3.052,24.951
		c-6.306,0.994-13.281,1.318-19.745,2.154C561.095,172.881,560.718,164.379,561.121,156.349z M556.634,156.528
		c0.416,8.241,1.156,15.836,1.436,24.054c-5.136,1.506-11.886,1.398-17.592,2.333c-1.508-7.1-1.183-17.696-1.436-24.592
		C544.385,157.598,551.181,156.557,556.634,156.528z"/>
	<path fill="#FFFFFF" d="M768.449,154.733c3.318-0.246,5.5-0.684,8.975-0.897c0.194-1.356-0.189-3.62-0.179-5.385
		c-3.566,0.323-7.021,0.758-9.873,1.795C767.689,151.783,768.206,153.122,768.449,154.733z"/>
	<path fill="#FFFFFF" d="M618.921,150.604c1.052,5.83,2.455,11.307,4.129,16.515c2.982-0.967,6.17-1.729,9.693-2.154
		c-0.884-5.757-1.92-11.364-3.59-16.335C625.83,149.376,621.971,149.586,618.921,150.604z"/>
	<path fill="#FFFFFF" d="M9.143,183.634c11.017,0.702,12.94-23.291,6.462-31.055c-1.749-2.095-5.173-3.387-7.18-3.411
		c-2.426-0.028-3.993,1.374-5.026,2.693c-1.299,1.659-2.664,4.352-3.399,7.443v10.102C1.19,176.077,4.303,183.325,9.143,183.634z"/>
	<path fill="#FFFFFF" d="M245.73,158.144c-2.741,43.662-4.921,94.004,0.718,135.706c5.136-0.888,10.465-0.624,15.797-1.436
		c1.878-3.986,3.34-8.389,5.744-11.848c1.694,3.751,3.377,7.513,5.386,10.949c3.684-1.401,8.813-1.358,12.924-2.333
		c-4.798-44.31-2.837-96.112-10.95-138.219C265.379,152.97,254.868,154.848,245.73,158.144z M249.679,177.171
		c-0.909-3.056-0.805-7.98-0.539-10.77c1.591,0.444,4.285-0.215,5.565,0.539c0.655,3.301,0.246,6.974,0.539,9.873
		C253.201,177.54,251.388,176.854,249.679,177.171z M270.323,175.376c-1.068-2.686-0.786-7.431-0.719-10.232
		c2.038,0.041,3.406-0.415,5.026-0.359c0.957,2.753,0.999,6.42,1.437,9.693C274.286,175.037,272.025,175.222,270.323,175.376z"/>
	<path fill="#FFFFFF" d="M433.312,202.123c2.921-9.402,3.998-21.992,1.078-31.773c-1.605-5.373-4.917-9.769-7.898-12.565
		c-3.187-2.989-10.426-7.491-16.515-6.462c-4.798,0.81-8.863,4.608-11.488,8.437c-8.4,12.251-10.223,38.218-0.897,51.876
		c2.782,4.075,8.146,9.58,14.36,9.514C422.689,221.036,430.615,210.81,433.312,202.123z"/>
	<path fill="#FFFFFF" d="M600.073,175.915c-0.706-7.289-1.541-15.448-3.051-23.156c-4.634,0.767-9.809,0.846-14.002,1.616
		c0.257,8.492,1.188,15.839,2.333,23.695C590.317,177.408,595.067,176.533,600.073,175.915z M595.945,154.195
		c1.324,6.131,1.857,13.787,1.974,20.104c-2.922,0.908-7.323,1.086-11.129,1.616c-1.114-6.545-1.996-13.322-2.513-20.464
		C587.565,154.432,591.998,154.556,595.945,154.195z"/>
	<path fill="#FFFFFF" d="M783.347,160.836c-1.258,0.083-3.454,0.232-5.205,0.359c-0.043-2.411-0.588-4.319-0.539-6.821
		c-3.032,0.258-5.694,0.888-8.975,0.897c0.521,2.052,1.09,4.055,1.615,6.103c-1.969,0.484-3.647,1.259-5.744,1.616
		c-0.197,0.879-0.429,1.725-0.718,2.513c2.387,1.132,2.371,5.589,4.847,6.283c2.262,0.633,8.184-2.039,10.949-1.616
		c-2.861-5.037-6.101-9.696-9.154-14.54c4.296,3.901,6.377,10.017,10.052,14.54c1.406-0.03,2.732-0.14,3.949-0.359
		C784.019,166.866,783.142,164.393,783.347,160.836z"/>
	<path fill="#FFFFFF" d="M580.866,178.787c-1.179-8.096-1.664-16.072-2.872-23.874c-5.747,0.555-10.851,0.837-16.335,1.795
		c-0.083,7.417-0.009,15.841,0.719,23.874C568.52,179.963,574.512,179.195,580.866,178.787z M577.276,156.528
		c0.79,6.451,1.802,13.633,1.615,20.464c-4.634,0.691-9.645,1.005-14.898,1.077c-0.912-6.029-0.791-13.091-0.897-19.925
		C567.431,157.214,572.395,156.913,577.276,156.528z"/>
	<path fill="#FFFFFF" d="M597.56,173.76c-0.68-6.531-0.98-12.503-1.975-18.848c-3.541,0.058-6.799,0.505-10.591,0.718
		c0.295,6.262,1.282,13.482,2.334,19.746C590.567,174.667,594.58,174.729,597.56,173.76z"/>
	<path fill="#FFFFFF" d="M752.652,156.528c0.615,0.522,0.987,1.288,1.257,2.154c6.158-2.204,8.397,6.019,3.41,7.898
		c0.348,1.029,0.432,2.32,1.078,3.051C768.287,167.537,762.183,150.396,752.652,156.528z"/>
	<path fill="#FFFFFF" d="M491.473,187.942c2.214,4.699,3.407,9.309,5.563,14.001c1.759-5.741,7.437-8.79,14.002-6.462
		c1.793,0.635,3.12,2.366,4.847,2.692c3.594,0.68,7.34-1.735,10.591-1.436c-0.679-14.017-0.053-28.139-2.154-41.107
		c-14.591,1.864-28.998,3.911-42.184,7.18c0.085,10.003-0.061,19.95,1.615,28.003C486.444,189.974,488.425,188.423,491.473,187.942z
		 M521.989,159.4c1.443,6.335,0.573,14.983,1.256,22.079c-11.135,2.81-23.985,4.036-36.619,4.488
		c-1.289-6.011-1.576-13.023-2.153-19.746C496.026,162.997,509.681,161.872,521.989,159.4z"/>
	<path fill="#FFFFFF" d="M557.351,180.403c-0.29-7.98-0.612-15.671-1.615-23.516c-5.037,1.007-11.055,1.033-16.156,1.975
		c0.491,7.983,0.266,15.622,1.257,23.515C546.031,181.408,551.933,181.148,557.351,180.403z M541.375,159.939
		c4.356-0.55,8.591-1.222,13.104-1.615c0.212,6.794,0.42,14.533,0.719,20.643c-4.696,0.035-8.676,1.731-13.104,1.437
		C541.465,173.574,541.335,167.281,541.375,159.939z"/>
	<path fill="#FFFFFF" d="M578.532,176.453c-0.27-6.67-1.233-12.647-1.615-19.207c-4.511,0.276-8.869,0.704-13.104,1.256
		c-0.111,4.762,0.103,12.645,0.538,19.027C569.268,177.259,573.687,177.057,578.532,176.453z"/>
	<path fill="#FFFFFF" d="M705.981,158.503c-2.943,1.065-6.068,1.95-8.976,3.052c0.201,0.816,0.17,1.865,0.539,2.513
		C700.474,162.45,705.744,162.215,705.981,158.503z"/>
	<path fill="#FFFFFF" d="M554.658,178.248c-0.498-5.519-0.479-13.564-0.897-19.207c-3.936,0.492-8.016,0.839-11.847,1.436
		c0.32,5.921,0.132,13.606,0.718,19.387C546.962,179.647,550.409,178.546,554.658,178.248z"/>
	<path fill="#FFFFFF" d="M754.447,159.22c1.136,2.106,1.427,5.147,2.872,6.462C761.281,164.205,759.428,157.621,754.447,159.22z"/>
	<path fill="#FFFFFF" d="M522.527,181.3c-0.615-6.809,0.369-14.363-1.257-21.182c-12.078,2.496-24.539,3.606-36.08,6.462
		c0.514,6.486,0.91,13.09,1.974,19.027C498.695,184.614,511.556,183.447,522.527,181.3z M519.655,161.734
		c1.438,4.904,0.75,11.935,1.256,17.771c-10.099,1.928-21.37,3.64-32.31,4.129c-0.98-4.891-1.92-10.757-1.796-16.156
		C497.275,165.083,508.595,163.54,519.655,161.734z"/>
	<path fill="#FFFFFF" d="M703.827,162.272c-1.967,0.905-4.203,1.542-6.282,2.334c0.929,3.219,0.677,6.511,2.153,9.154
		C700.376,169.469,703.135,165.354,703.827,162.272z"/>
	<path fill="#FFFFFF" d="M520.373,178.966c-0.71-5.214,0.066-11.914-1.256-16.514c-10.995,1.732-20.948,3.439-31.773,5.385
		c0.143,4.677,0.928,10.161,1.616,15.258C499.276,182.259,510.532,180.871,520.373,178.966z"/>
	<path fill="#FFFFFF" d="M269.964,165.862c0.22,2.487,0.27,5.858,0.538,8.796c1.837,0.041,3.132-0.459,4.847-0.539
		c-0.27-2.961-0.568-5.893-1.077-8.616C272.642,165.43,271.448,165.791,269.964,165.862z"/>
	<path fill="#FFFFFF" d="M468.676,188.48c0.745-7.018,1.343-15.639,1.077-22.618c-1.633-0.102-3.166-0.304-4.847-0.359
		c-0.678,6.503-0.787,16.479,0,23.875C465.918,188.833,467.483,188.844,468.676,188.48z"/>
	<path fill="#FFFFFF" d="M688.211,166.221c-21.827,3.872-46.819,9.545-68.032,16.694c0.027,0.99,0.389,1.645,0.538,2.513
		c21.144-7.58,44.04-12.656,67.853-17.771C688.542,167.087,688.162,166.868,688.211,166.221z"/>
	<path fill="#FFFFFF" d="M767.73,171.786c-1.551-1.799-2.569-4.132-4.308-5.745c-0.631,2.421-2.782,3.321-5.025,4.129
		c0.247,1.129,0.621,2.131,0.718,3.411C761.991,172.988,765.215,172.74,767.73,171.786z"/>
	<path fill="#FFFFFF" d="M249.679,167.119c-0.101,2.659-0.023,6.531,0.359,9.514c1.135-0.36,2.89-0.103,4.308-0.18
		c0.386-3.176-0.046-5.952-0.18-9.155C252.593,167.053,251.357,167.412,249.679,167.119z"/>
	<path fill="#FFFFFF" d="M697.545,168.196c-2.393,0.798-6.471,0.804-7.36,2.513c2.167-0.228,5.581-0.761,7.54-1.795
		C697.458,168.881,697.559,168.48,697.545,168.196z"/>
	<path fill="#FFFFFF" d="M199.059,174.119c-1.584,1.095-6.746,3.39-7.181,5.206c-0.589,2.464,0.64,6.226,0.897,9.155
		c0.281,3.188,0.834,6.115,1.077,9.155c2.526-9.082,7.142-16.075,14.002-20.823c-0.453-2.719-0.517-5.826-1.256-8.257
		C204.023,170.243,202.247,171.916,199.059,174.119z"/>
	<path fill="#FFFFFF" d="M690.544,171.427c-0.061,0.898,0.42,1.255,0.359,2.154c2.248-0.744,4.95-1.033,7.18-1.795
		C698.131,167.899,692.981,171.693,690.544,171.427z"/>
	<path fill="#FFFFFF" d="M787.297,178.428c-0.539-1.208-2.178-7.495-3.231-7.898c-1.108-0.425-2.508,0.608-3.41,0.539
		c0.779,1.018,1.93,2.616,1.796,3.949c-1.423-0.994-1.025-3.408-2.693-3.949c-3.094-1.003-7.786,1.499-10.77,1.436
		c0.721,2.052,3.341,4.049,3.052,5.924c-1.368-1.924-2.516-4.067-3.95-5.924c-2.76,0.771-5.896,1.164-8.795,1.795
		c0.235,23.106-8.656,41.551-28.542,46.313c-0.582,16.566,1.246,32.706,0.898,47.928c27.218,1.118,51.729,6.08,73.597,13.104
		c-0.113-30.204-1.677-53.385-1.975-85.804C795.943,192.54,790.813,186.297,787.297,178.428z"/>
	<path fill="#FFFFFF" d="M698.442,172.504c-1.895,0.38-3.784,0.763-5.565,1.256c1.596,3.312,3.123,6.691,5.206,9.514
		C698.011,179.223,700.077,175.546,698.442,172.504z"/>
	<path fill="#FFFFFF" d="M689.287,189.916c2.757-0.954,5.528-1.892,8.438-2.693c0.221-5.805-3.993-8.515-5.386-13.283
		c-0.549-0.13-0.528,0.31-1.076,0.179c0.598,3.052,1.431,5.869,1.974,8.976c-1.771,0.921-3.839,1.546-6.103,1.975
		c-0.369,0.648-0.397,1.637-0.719,2.333C687.907,187.707,687.927,189.482,689.287,189.916z"/>
	<path fill="#FFFFFF" d="M333.329,184.531c-6.083-3.67-12.497-7.009-19.207-10.052c-6.359,5.847-11.768,12.646-16.515,20.104
		c5.816,4.117,10.89,8.976,17.232,12.565C320.369,198.975,327.213,192.118,333.329,184.531z"/>
	<path fill="#FFFFFF" d="M191.699,212.534c-0.546,12.435,1.225,25.244,7,32.49c3.05,3.826,9.876,8.021,15.976,8.258
		c14.183,0.55,16.323-12.969,18.309-25.131c1.722-10.541,2.457-21.04,1.256-31.055c-2.775-7.717-6.676-16.038-13.463-19.745
		c-3.791-2.071-8.76-1.833-12.385,0C198.354,182.428,192.326,198.264,191.699,212.534z"/>
	<path fill="#FFFFFF" d="M683.363,179.146c-5.864-3.227-13.026,3.026-10.949,9.693C677.795,199.277,693.145,184.528,683.363,179.146
		z M675.466,186.685c-0.545-2.841,0.784-4.701,2.692-5.206c3.287-0.87,5.198,1.582,5.205,4.129
		C683.378,190.3,676.282,190.943,675.466,186.685z"/>
	<path fill="#FFFFFF" d="M162.799,196.198c10.438-3.764,18.116,5.419,20.822,13.643c2.573,0,5.146,0,7.719,0
		c2.643-9.799,1.34-20.655-0.359-31.055c-19.53,3.414-41.426,4.295-62.647,4.128c-0.018,10.777,0.941,20.042,1.975,29.978
		c6.436,0.122,12.308-0.881,17.592-0.539C150.772,205.648,155.82,198.716,162.799,196.198z M182.724,187.223
		c1.188-0.45,3.203-0.956,4.667-0.538c0.309,1.765,0.28,4.692,0,6.462c-1.31,0.246-2.976,0.135-4.308,0.359
		C182.374,192.001,182.873,189.289,182.724,187.223z M139.104,195.481c-1.286,0.33-2.785,0.446-4.308,0.539
		c-0.567-1.826-0.606-4.181-0.897-6.283c1.572-0.191,3.971-0.758,5.206-0.18C138.974,191.588,139.626,193.64,139.104,195.481z"/>
	<path fill="#FFFFFF" d="M677.978,182.198c-6.463,3.86,4.084,10.486,4.667,3.77C682.854,183.56,680.861,181.353,677.978,182.198z"/>
	<path fill="#FFFFFF" d="M12.733,218.817c-0.331-11.401-0.313-24.79-1.437-34.824c-0.646,0.251-1.61,0.185-2.154,0.539
		c0.303,10.165,0.2,23.269,0.718,34.286C11.052,218.921,11.395,218.809,12.733,218.817z"/>
	<path fill="#FFFFFF" d="M358.638,204.815c-6.674-8.104-14.741-14.816-24.592-19.745c-6.407,7.175-12.998,14.167-18.489,22.259
		C329.904,205.894,343.066,205.053,358.638,204.815z"/>
	<path fill="#FFFFFF" d="M535.99,196.378c0,1.017,0,2.034,0,3.052c22.779-3.429,44.564-7.851,68.93-9.694
		c-0.137-1.3-0.151-2.721-0.897-3.411C580.775,189.692,558.726,191.976,535.99,196.378z"/>
	<path fill="#FFFFFF" d="M183.442,192.788c1.433-0.149,1.893-0.156,3.411-0.179c0.002-1.409,0.403-3.149,0-5.385
		c-1.374-0.117-2.334,0.179-3.411,0.359C183.505,189.479,183.044,191.056,183.442,192.788z"/>
	<path fill="#FFFFFF" d="M686.235,187.582c-1.012,3.297-4.074,4.542-7.18,5.745c3.233-0.123,5.923-2.33,9.334-2.872
		C687.997,189.172,686.956,188.538,686.235,187.582z"/>
	<path fill="#FFFFFF" d="M467.419,203.02c0.521-2.111,1.886-3.38,2.154-5.744c3.524-1.622,6.863-3.429,10.591-4.847
		c-0.004-1.625-0.218-2.541-0.359-4.308c-11.033,0.016-21.612,2.814-28.72,8.257c0.202,2.772,0.093,4.87,0,8.257
		C456.894,204.044,461.77,203.38,467.419,203.02z"/>
	<path fill="#FFFFFF" d="M723.214,220.432c-15.886-3.382-23.545-14.99-25.31-32.491c-3.011,0.579-5.397,1.783-8.258,2.513
		c-0.07,0.735,1.108,1.155,0.538,1.795c-0.999,0.042-0.567-1.347-1.436-1.436c-2.808,1.142-5.716,2.182-8.616,3.231
		c0.034,0.924,0.979,0.937,0.897,1.975c-1.065-0.132-0.933-1.461-1.975-1.616c-1.957,0.855-4.103,1.522-6.104,2.334
		c-0.011,0.972,1.575,1.291,1.078,2.154c-1.031-0.286-1.046-1.587-2.155-1.795c-2.08,0.792-3.999,1.745-6.462,2.155
		c-0.374,0.661,1.431,1.333,0.718,2.333c-0.796-0.46-0.769-1.744-1.794-1.975c-1.929,0.765-3.941,1.444-6.104,1.975
		c-0.307,0.887,1.59,1.968,1.256,2.872c-0.999-0.496-1.427-1.563-1.974-2.512c-3.298,0.771-5.884,2.254-9.335,2.872
		c0.067,1.515,3.104,2.494,3.231,3.95c-1.842-0.731-2.63-2.517-4.308-3.411c-3.127,1.182-6.647,1.969-9.335,3.589
		c1.322,1.261,3.598,2.492,3.77,4.309c-2.064-0.905-2.555-3.932-4.847-4.129c-2.297-0.197-4.566,2.396-7.181,2.693
		c0.548,1.548,2.97,2.175,2.693,3.95c-1.38-1.074-2.157-2.751-3.77-3.591c-4.232,1.931-9.088,3.239-13.104,5.385
		c0.907,1.607,3.273,2.71,3.231,4.667c-1.699-1.172-2.389-3.355-4.129-4.488c-3.751,1.574-8.062,2.589-11.667,4.308
		c0.487,0.89,1.976,1.73,1.615,2.873c-1.014-0.782-1.508-2.083-2.514-2.873c-3.19,1.238-7.424,1.431-10.231,3.051
		c0.866,1.528,3.015,2.729,3.052,4.488c-1.468-1.285-2.533-2.972-3.77-4.488c-3.412,1.196-7.46,1.755-10.591,3.231
		c0.972,1.363,2.461,2.206,2.872,4.129c-1.688-1.005-2.255-3.13-3.949-4.129c-3.55,1.417-8.18,1.754-11.848,3.051
		c0.725,1.325,2.854,2.153,2.693,3.771c-1.547-0.907-2.237-2.67-3.591-3.771c-3.694,0.913-7.687,1.529-11.309,2.514
		c0.879,1.347,2.722,2.646,2.692,4.308c-1.518-1.116-2.131-3.135-3.59-4.308c-3.251,0.758-6.837,1.182-10.053,1.974
		c0.299,1.439,2.932,3.051,3.052,4.667c-1.914-0.957-2.485-3.258-4.128-4.488c-2.943,0.588-6.173,0.888-8.976,1.616
		c1.022,2.164,2.284,3.033,2.872,4.667c-1.482-1.21-2.453-2.932-3.59-4.488c-2.561,0.433-4.937,1.047-7.36,1.616
		c0.735,1.837,2.655,2.491,3.231,4.487c-1.994-0.878-2.59-3.154-4.309-4.308c-3.069,0.638-5.973,1.357-8.616,1.974
		c0.701,1.634,3.048,2.576,3.231,4.129c-1.626-1.007-2.792-2.474-3.949-3.95c-1.662,0.347-2.532,0.489-4.129,0.719
		c2.853,11.762,7.355,23.146,9.334,36.08c1.565,10.229,3.408,20.676,5.386,30.695c6.988-4.082,14.605-7.29,22.438-10.231
		c27.632-10.38,57.642-19.539,91.009-24.233c26.751-3.764,54.556-6.418,83.828-6.282
		C723.499,251.766,722.885,236.865,723.214,220.432z"/>
	<path fill="#FFFFFF" d="M498.295,277.694c6.358-3.155,13.347-7.235,19.206-11.488c-7.042-27.661-16.323-53.085-26.566-77.546
		c-7.152,2.78-14.167,5.699-20.644,9.155C480.699,223.755,489.061,250.78,498.295,277.694z"/>
	<path fill="#FFFFFF" d="M637.231,189.198c-10.519,0.581-8.928,16.165,1.256,14.899
		C647.824,202.936,646.322,188.696,637.231,189.198z M637.411,200.507c-4.722,0.051-5.155-7.542-0.719-8.257
		C641.623,191.454,642.366,200.453,637.411,200.507z"/>
	<path fill="#FFFFFF" d="M134.617,190.275c0.049,2.046,0.569,3.3,0.538,5.026c1.194-0.063,2.368-0.146,3.411-0.359
		c0.11-1.845-0.141-3.329-0.179-5.026C137.005,189.911,135.934,190.217,134.617,190.275z"/>
	<path fill="#FFFFFF" d="M537.246,217.381c4.7-0.566,9.785-0.748,14.002-1.795c-4.352-14.113,17.002-16.24,14.36-1.078
		c6.959-0.999,14.049-1.868,20.464-3.41c-1.23-11.454,15.479-14.646,15.796-2.155c2.04-0.832,4.335-1.41,6.283-2.333
		c-1.249-5.154-1.993-10.812-3.052-16.155c-23.861,1.688-46.525,6.129-69.109,9.693
		C536.176,206.125,536.708,211.756,537.246,217.381z"/>
	<path fill="#FFFFFF" d="M606.716,195.84c0.633-0.025,0.803-0.513,1.436-0.538c3.432-0.349,6.869-1.972,9.872-2.873
		c1.144-0.342,3.243-0.018,3.411-1.795c-5.067,1.411-10.771,2.679-14.898,4.488C606.802,195.156,606.7,195.555,606.716,195.84z"/>
	<path fill="#FFFFFF" d="M621.434,192.25c-4.919,1.199-10.189,3.501-14.54,4.128c-0.141,0.74,0.275,0.921,0.18,1.616
		c5.01-1.573,10.408-2.756,15.078-4.667C621.738,193.143,622.158,192.125,621.434,192.25z"/>
	<path fill="#FFFFFF" d="M636.512,192.968c-3.193,0.793-3.101,6.441,0.359,6.821C641.937,200.346,640.684,191.931,636.512,192.968z"
		/>
	<path fill="#FFFFFF" d="M664.157,198.891c-1.678-1.673-2.895-3.807-4.309-5.744c-2.059,0.873-4.409,1.455-6.821,1.975
		c1.414,2.176,3.01,4.17,4.847,5.923C659.929,200.289,662.344,199.89,664.157,198.891z"/>
	<path fill="#FFFFFF" d="M636.416,208.585c-2.025-1.107-5.447-6.959-7.897-7.36c-1.488-0.243-2.772,1.407-4.487,0.898
		c-0.756-2.476-1.069-5.394-1.796-7.898c-2.478,0.873-5.153,1.548-7.897,2.154c4.747,5.185,9.625,10.239,14.719,15.079
		C631.335,210.323,633.849,209.428,636.416,208.585z"/>
	<path fill="#FFFFFF" d="M314.122,207.687c-5.815-3.758-10.957-8.189-16.515-12.206c1.164,28.468-3.314,54.004-1.257,80.239
		c5.494,4.38,11.525,10.134,16.874,13.463C311.92,260.603,312.554,234.367,314.122,207.687z"/>
	<path fill="#FFFFFF" d="M514.09,197.635c-5.426-4.107-16.382-2.226-16.514,5.206c-0.035,1.995,1.415,4.335,2.154,6.282
		c2.238,5.897,4.742,12.294,7,18.31C522.876,228.232,522.851,204.266,514.09,197.635z M509.424,220.253
		c-7.028,0.934-9.995-14.923-2.154-16.156C515.861,202.746,515.28,219.474,509.424,220.253z"/>
	<path fill="#FFFFFF" d="M647.642,204.455c3.176-1.012,6.301-2.075,9.334-3.23c-2.131-1.299-2.66-5.363-5.026-5.744
		c-2.009-0.323-3.563,1.995-6.282,1.615c0.012,1.927-0.989,2.841-1.437,4.308C645.492,202.298,646.229,203.715,647.642,204.455z"/>
	<path fill="#FFFFFF" d="M144.49,233.536c0.474,11.736,7.54,21.832,15.079,25.849c6.43,3.426,12.75,0.615,16.694-3.77
		c10.306-11.455,12.957-36.765,4.667-50.8c-2.443-4.136-8.309-9.519-15.079-8.616c-4.635,0.619-9.255,4.241-11.847,7.181
		C148.344,209.798,144.016,221.814,144.49,233.536z"/>
	<path fill="#FFFFFF" d="M804.171,196.198c-0.21,0.03-0.195,0.284-0.18,0.539c0.12,28.582,1.824,56.923,1.795,85.085
		c2.464,0.826,4.602,1.98,7.181,2.692c-1.374-29.983-2.093-57.255-3.052-88.317C808.164,196.415,805.776,196.894,804.171,196.198z"
		/>
	<path fill="#FFFFFF" d="M627.896,211.816c-2.908-3.303-6.924-7.451-10.231-10.949c-0.966-1.022-3.177-3.796-4.487-3.95
		c-1.943-0.227-3.651,1.692-5.924,1.616c0.305,3.046,1.244,5.458,1.436,8.617c-0.464,0.434-1.49,0.305-1.795,0.897
		c2.892,2.732,4.986,6.263,8.078,8.796C619.214,215.1,623.41,213.312,627.896,211.816z"/>
	<path fill="#FFFFFF" d="M526.117,197.276c-3.097,0.793-6.8,0.978-9.872,1.795c1.085,3.921,6.525,1.812,10.231,1.436
		C526.263,199.522,526.918,197.672,526.117,197.276z"/>
	<path fill="#FFFFFF" d="M469.931,198.532c-10.769,27.228-21.828,54.162-30.516,83.471c19.803-1.429,39.655-2.592,58.34-3.95
		C488.538,251.488,480.161,224.085,469.931,198.532z"/>
	<path fill="#FFFFFF" d="M447.674,218.996c-0.368-6.752,0.058-13.484,0-20.284C442.467,202.531,438.953,216.411,447.674,218.996z"/>
	<path fill="#FFFFFF" d="M525.579,218.098c0.16-5.707,1.248-10.905,0.359-16.873c-2.307,0.626-5.396,0.468-7.54,1.257
		c2.463,4.254,2.586,11.396,1.616,16.334C521.87,218.241,523.67,218.671,525.579,218.098z"/>
	<path fill="#FFFFFF" d="M598.636,215.406c5.162-4.893,2.097-14.6-4.846-14.002c-5.436,0.469-9.85,9.453-5.386,14.182
		C591.282,218.633,596.168,217.746,598.636,215.406z M593.253,205.354c5.748-1.843,6.097,8.043,0.896,8.077
		C589.801,213.46,589.885,206.432,593.253,205.354z"/>
	<path fill="#FFFFFF" d="M450.905,207.687c5.123-0.692,10.879-1.669,15.616-2.154c0.111-0.667,0.429-1.128,0.538-1.794
		c-5.859,0.301-10.155,1.076-15.975,1.436C450.722,205.71,450.983,206.867,450.905,207.687z"/>
	<path fill="#FFFFFF" d="M561.3,219.534c6.103-2.554,4.518-15.746-3.23-15.079C547.348,205.38,550.847,223.911,561.3,219.534z
		 M556.992,208.585c0.308-0.412,1.37-0.066,1.975-0.179c4.799,1.578,1.878,10.718-3.051,7.718
		C553.683,214.766,554.104,209.181,556.992,208.585z"/>
	<path fill="#FFFFFF" d="M507.09,204.815c-6.406,1.438-3.957,15.233,1.975,14.899C514.327,219.417,515.162,203.004,507.09,204.815z"
		/>
	<path fill="#FFFFFF" d="M314.66,208.046c-1.383,28.093-2.226,57.289-0.718,81.675c16.84-1.428,31.447-1.523,48.466-2.514
		c-0.065-27.247-1.724-54.98-3.23-81.675C344.234,205.574,329.727,206.634,314.66,208.046z M341.048,230.305
		c-1.076,0.718-3.507,0.084-4.847,0.539c-1.211-2.938-1.537-7.333-0.898-11.13c1.87-0.099,4.171-0.438,5.745,0.18
		C341.225,223.681,341.24,227.081,341.048,230.305z"/>
	<path fill="#FFFFFF" d="M526.835,207.866c2.959,0.206,5.657-1.403,8.797-1.616C533.509,206.172,528.782,206.577,526.835,207.866z"
		/>
	<path fill="#FFFFFF" d="M597.381,209.842c0.28-2.498-1.479-4.854-4.487-3.591C587.349,210.357,596.693,215.969,597.381,209.842z"/>
	<path fill="#FFFFFF" d="M464.368,210.739c0.435-1.318,1.82-3.541,1.436-4.488c-4.966,0.719-10.089,1.28-14.898,2.155
		c0.196,4.857-1.009,8.539,0.718,12.027C452.253,213.809,457.497,209.377,464.368,210.739z"/>
	<path fill="#FFFFFF" d="M529.348,215.586c-0.169-0.969-1.327-0.947-1.257-2.155c1.115,0.261,1.127,1.626,2.154,1.975
		c2.243-0.21,3.961-0.945,6.104-1.256c-0.142-2.433-0.54-4.606-0.539-7.18c-3.204,0.297-6.375,1.481-8.976,1.795
		c-0.122,2.597-0.326,5.566-0.538,7.539C527.393,216.143,528.312,215.806,529.348,215.586z"/>
	<path fill="#FFFFFF" d="M614.075,217.022c-2.858-2.827-5.115-6.254-8.078-8.976c-1.264,0.652-2.676,1.153-4.309,1.436
		c-0.178,3.412-1.644,5.537-3.59,7.18c1.616,1.256,2.845,2.899,3.949,4.667C606.136,219.972,610.307,218.698,614.075,217.022z"/>
	<path fill="#FFFFFF" d="M556.274,215.586c4.392,2.784,6.551-6.568,1.795-6.643C554.995,208.727,554.218,214.281,556.274,215.586z"
		/>
	<path fill="#FFFFFF" d="M184.16,210.559c1.24,3.905,2.583,7.708,2.513,12.925c1.691-0.016,3.054,0.297,4.667,0.358
		c0.368-3.024-3.148-4.001-2.512-6.103c0.955,1.019,1.386,2.562,2.512,3.41c-0.111-2.723-0.657-7.313,0-10.591
		C188.825,210.74,186.216,210.263,184.16,210.559z"/>
	<path fill="#FFFFFF" d="M464.009,211.278c-10.725-2.996-15.555,12.982-5.744,15.257c0.22-1.216,0.873-1.998,1.077-3.23
		c-5.954-1.081-2.472-11.07,3.23-7.898C462.973,213.952,463.814,212.939,464.009,211.278z"/>
	<path fill="#FFFFFF" d="M601.51,221.329c-1.325-1.488-2.496-3.128-3.949-4.487c-4.533,2.958-11.342,0.089-11.488-5.206
		c-1.338,0.518-2.836,0.875-4.488,1.078c3.293,3.827,6.544,7.697,9.693,11.667C594.364,223.04,598.362,222.611,601.51,221.329z"/>
	<path fill="#FFFFFF" d="M590.38,224.561c-2.813-4.247-6.254-7.867-9.514-11.667c-4.015,0.771-8.335,1.238-12.386,1.974
		c1.635,1.955,3.516,3.875,5.744,6.283c1.007,1.088,4.209,5.992,5.744,6.283C582.803,227.969,587.594,224.431,590.38,224.561z"/>
	<path fill="#FFFFFF" d="M543.709,235.152c2.966,0.855,6.629-2.133,10.231-1.795c-3.922-5.173-7.581-10.608-11.487-15.796
		c-1.782,0.252-3.772,0.297-5.565,0.538c-0.642-0.734-0.132-2.621-0.897-3.231c-1.689,0.585-3.861,0.687-5.386,1.437
		c2.789,3.958,6.812,9.319,9.873,14.001C541.209,231.422,542.482,234.798,543.709,235.152z"/>
	<path fill="#FFFFFF" d="M579.071,227.613c-3.55-4.468-7.598-8.439-11.309-12.746c-0.88-0.042-1.359,0.317-2.334,0.18
		c-0.896,3.173-2.729,5.409-6.642,5.565c2.602,3.382,5.282,6.686,7.898,10.052C570.839,229.671,575.404,229.091,579.071,227.613z"/>
	<path fill="#FFFFFF" d="M459.7,222.765c0.8-2.312,1.866-4.356,2.514-6.82C456.969,213.515,454.576,221.934,459.7,222.765z"/>
	<path fill="#FFFFFF" d="M565.788,230.844c-2.05-3.216-5.336-6.751-7.719-10.232c-3.9,0.19-5.329-2.091-6.642-4.488
		c-2.1,0.606-5.121,1.166-8.257,1.257c3.939,5.273,7.388,11.041,11.847,15.795C558.573,232.364,562.247,231.671,565.788,230.844z"/>
	<path fill="#FFFFFF" d="M514.629,225.817c3.633,4.385,7.577,8.459,10.95,13.104c2.281-0.83,5.344-0.879,7.359-1.974
		c-3.663-5.867-8.701-12.235-12.256-17.673c-0.4,0.028-0.802,0.057-1.207,0.081C518.392,222.041,517.058,224.477,514.629,225.817z"
		/>
	<path fill="#FFFFFF" d="M542.811,235.51c-2.523-4.483-6.441-9.886-9.514-14.719c-1.466-2.306-3.338-5.784-6.821-3.949
		c-0.29,0.488-0.115,1.44-0.538,1.795c-1.631,0.32-3.396,0.503-5.215,0.633c4.901,5.063,8.75,12.098,13.112,17.676
		C536.897,236.537,539.634,235.803,542.811,235.51z"/>
	<path fill="#FFFFFF" d="M520.562,219.094c0.038,0.059,0.082,0.121,0.12,0.18c0.014-0.001,0.027-0.002,0.041-0.003
		C520.669,219.214,520.618,219.15,520.562,219.094z"/>
	<path fill="#FFFFFF" d="M335.662,224.381c0.785,0.125,1.012-0.305,1.796-0.18c0-1.316,0-2.632,0-3.949
		c-0.723-0.124-1.025,0.172-1.616,0.18C335.449,221.416,335.763,223.106,335.662,224.381z"/>
	<path fill="#FFFFFF" d="M338.175,224.022c0.862-0.036,1.52-0.276,2.335-0.358c-0.014-1.184,0.084-2.479-0.18-3.411
		c-0.778,0-1.556,0-2.334,0C337.962,221.603,338.31,222.571,338.175,224.022z"/>
	<path fill="#FFFFFF" d="M730.214,220.791c-2.146-0.008-4.384,0.076-6.282-0.18c-0.458,15.964,0.243,32.749,0.18,47.928
		c2.664-0.054,4.628,0.13,7.001,0C731.332,252.854,729.485,238.075,730.214,220.791z"/>
	<path fill="#FFFFFF" d="M409.08,221.329c-0.209,0.031-0.195,0.284-0.18,0.539c-2.101,26.818-1.638,59.302,2.154,85.264
		c1.657-0.377,4.03-0.038,5.564-0.538c-3.669-27.209-3.46-55.717-1.975-85.265C412.951,221.722,410.743,221.827,409.08,221.329z"/>
	<path fill="#FFFFFF" d="M451.981,243.05c-5.632-6.515-10.413-13.88-15.438-21.002c-3.31,0.331-8.968,0.022-12.206,0.358
		c5.004,8.639,10.133,18.708,16.155,26.926c3.058,0.062,6.643-0.09,9.155,0C450.275,247.088,451.175,245.115,451.981,243.05z"/>
	<path fill="#FFFFFF" d="M456.648,230.125c-2.938-1.411-3.404-6.758-6.642-7.898c-3.283-1.156-7.551,0.5-12.206-0.18
		c3.951,6.82,8.801,14.294,14.54,19.925C453.664,237.91,455.067,233.929,456.648,230.125z"/>
	<path fill="#FFFFFF" d="M415.183,222.765c-0.305,4.266-0.593,7.752-0.539,12.566c2.359,2.487,4.305,6.632,6.643,9.513
		c0.857,1.058,3.402,4.172,4.487,4.488c4.285,1.246,9.88-1.022,13.821,0.18c-5.744-8.368-10.522-18.741-16.515-27.105
		C420.737,221.988,417.513,223.169,415.183,222.765z"/>
	<path fill="#FFFFFF" d="M457.008,229.408c0.045-1.033,0.756-1.4,0.898-2.334c-2.732-0.678-4.408-2.414-5.386-4.846
		c-0.43,0.109-1.303-0.226-1.436,0.179C453.275,224.523,454.477,227.629,457.008,229.408z"/>
	<path fill="#FFFFFF" d="M90.279,240.177c2.956,1.774,3.296,7.111,7.719,6.821c-4.154-8.172-8.321-16.331-12.565-24.413
		c-8.407-0.065-15.965-0.296-23.335,0.18c4.492,6.159,9.307,13.551,14.001,20.105C80.529,241.676,85.765,241.288,90.279,240.177z"/>
	<path fill="#FFFFFF" d="M115.589,246.28c-3.751-7.438-8.04-15.894-12.386-23.335c-5.598,0.047-12.013-0.306-17.232-0.18
		c4.733,7.653,8.42,16.351,12.924,24.233C104.417,246.511,108.937,246.76,115.589,246.28z"/>
	<path fill="#FFFFFF" d="M75.2,243.05c-4.396-6.434-9.027-14.188-14.36-20.284c-6.838,0.001-12.146,0.389-17.95,0.539
		c4.678,8.066,8.088,17.4,13.104,25.13C62.168,246.412,68.328,244.374,75.2,243.05z"/>
	<path fill="#FFFFFF" d="M392.745,222.945c-4.927-0.371-11.167-0.074-15.796-0.18c6.085,8.873,11.626,18.292,18.848,26.029
		c3.683-0.277,7.225,0.736,11.309,0c0.293-2.921-1.834-4.991-3.051-7.001C400.168,235.38,396.431,229.448,392.745,222.945z"/>
	<path fill="#FFFFFF" d="M404.413,223.125c-3.127-0.685-8.344-0.232-10.949,0c4.58,7.086,8.714,15.578,13.642,21.719
		C406.349,237.13,409.889,226.105,404.413,223.125z"/>
	<path fill="#FFFFFF" d="M408.182,222.765c-1.018,0-2.034,0-3.052,0c0.868,1.345,1.724,2.704,2.872,3.77
		C407.885,225.101,408.162,224.061,408.182,222.765z"/>
	<path fill="#FFFFFF" d="M135.335,246.639c-2.939-5.755-6.113-12.331-9.514-18.13c-0.838-1.429-2.709-4.881-3.949-5.385
		c-3.816-1.55-13.199,1.104-17.771-0.18c4.133,7.774,8.25,15.563,12.386,23.335C123.751,246.121,127.779,246.434,135.335,246.639z"
		/>
	<path fill="#FFFFFF" d="M367.614,223.125c3.528,8.32,7.997,17.253,12.745,24.951c4.913,0.243,8.913,0.386,14.002,0.539
		c-6.291-7.711-12.147-17.412-18.49-25.669C373.046,222.866,370.338,223.388,367.614,223.125z"/>
	<path fill="#FFFFFF" d="M147.721,247.358c-2.622-5.017-4.271-10.867-3.59-18.489c-1.447-1.546-2.447-3.537-3.77-5.206
		c-6.578-0.045-10.783-0.832-17.412-0.359c5.17,7.096,9.023,15.509,13.283,23.515C139.716,246.65,144.465,247.798,147.721,247.358z"
		/>
	<path fill="#FFFFFF" d="M296.35,232.638c-0.662-3.313-4.257-5.804-5.205-8.796c-2.737-0.254-5.424-0.56-8.258-0.717
		c0,0.18,0,0.359,0,0.539c-0.995,8.232,2.667,12.654,5.565,17.771c1.691,2.987,2.909,7.404,6.821,7.54
		C294.74,243.124,297.378,237.777,296.35,232.638z"/>
	<path fill="#FFFFFF" d="M55.096,248.615c-4.851-8.014-8.073-17.657-13.283-25.31c-5.718,0.216-13.132,0.716-19.566,1.256
		c4.124,5.942,9.535,13.188,14.181,19.566c1.222,1.678,3.049,6.172,4.667,6.641C45.043,251.913,52.245,249.069,55.096,248.615z"/>
	<path fill="#FFFFFF" d="M360.972,223.663c0.307,5.078,0.363,10.407,0.539,15.617c2.823,1.125,4.137,7.735,7,8.616
		c3.543,1.091,7.114-0.928,10.95,0c-4.7-7.745-8.604-16.287-12.745-24.591C364.582,223.204,362.904,223.56,360.972,223.663z"/>
	<path fill="#FFFFFF" d="M144.848,223.842c-1.411,0.023-2.825-0.035-3.59-0.179c0.569,1.31,1.774,2.829,2.872,4.129
		C144.332,226.438,144.535,225.084,144.848,223.842z"/>
	<path fill="#FFFFFF" d="M296.71,224.381c-1.265,0.032-3.08-0.841-4.667-0.359c1.373,2.397,2.587,4.952,4.308,7.001
		C296.746,229.021,296.355,225.906,296.71,224.381z"/>
	<path fill="#FFFFFF" d="M192.238,248.435c2.581-0.029,5.349-0.254,8.795-0.18c-5.569-4.842-8.573-13.805-9.693-23.694
		c-1.341-0.334-3.012-0.339-4.487-0.539c-0.211,4.971-0.38,10.235-1.795,14.002C187.557,241.388,189.905,244.904,192.238,248.435z"
		/>
	<path fill="#FFFFFF" d="M340.51,224.381c-0.901-0.003-1.657,0.139-2.335,0.359c-0.123,1.858,0.305,3.167,0.18,5.026
		c0.412,0.28,1.743,0.28,2.155,0C340.325,228.112,340.606,226.419,340.51,224.381z"/>
	<path fill="#FFFFFF" d="M335.662,225.099c0.18,1.795,0.477,3.473,0.898,5.026c0.565,0.087,0.633-0.323,1.256-0.18
		c-0.22-1.575-0.285-3.305-0.358-5.025C336.659,224.779,336.38,225.158,335.662,225.099z"/>
	<path fill="#FFFFFF" d="M231.369,239.998c3.532,2.925,3.695,10.229,11.13,9.155c-0.022-6.209-0.133-11.682,0-18.13
		c-1.479-1.394-2.069-3.675-3.591-5.026c-1.632-0.464-3.299-0.57-4.846-0.718C233.309,230.329,232.602,235.427,231.369,239.998z"/>
	<path fill="#FFFFFF" d="M242.32,226.356c-0.606-0.062-1.81-0.455-2.334,0c0.839,0.955,1.505,2.084,2.334,3.052
		C242.32,228.389,242.32,227.373,242.32,226.356z"/>
	<path fill="#FFFFFF" d="M516.065,241.075c2.803-0.728,5.544-1.517,8.615-1.975c-3.075-4.822-6.931-8.864-10.77-12.924
		c-1.884,0.877-4.552,1.898-7.181,1.436C507.833,234.11,512.367,237.174,516.065,241.075z"/>
	<path fill="#FFFFFF" d="M509.244,234.972c0.421,2.51,1.569,4.294,1.975,6.821c1.46,0.025,2.541-0.331,3.77-0.538
		C513.219,239.015,511.349,236.875,509.244,234.972z"/>
	<path fill="#FFFFFF" d="M414.286,249.332c3.011,0.543,6.998,0.424,10.052,0c-2.726-4.154-6.706-8.611-9.872-12.924
		C414.471,241.235,414.263,244.168,414.286,249.332z"/>
	<path fill="#FFFFFF" d="M181.468,248.973c2.786-0.039,6.161-0.499,9.873-0.539c-1.928-3.397-4.157-6.493-6.462-9.514
		C184.094,242.624,182.73,245.748,181.468,248.973z"/>
	<path fill="#FFFFFF" d="M361.87,247.896c1.795,0,3.59,0,5.386,0c-1.722-2.646-3.554-5.182-5.565-7.539
		C361.481,242.497,361.959,245.3,361.87,247.896z"/>
	<path fill="#FFFFFF" d="M236.755,248.794c-1.802-2.805-3.54-5.674-5.744-8.078c-0.746,3.083-2.121,5.539-3.59,7.898
		C230.833,248.848,233.637,248.641,236.755,248.794z"/>
	<path fill="#FFFFFF" d="M89.92,240.896c-20.239,3.216-38.045,8.865-54.569,15.796c10.269,12.05,16.654,27.983,25.49,41.465
		c17.502-5.235,35.59-9.884,52.954-15.257C108.539,266.196,100.031,252.743,89.92,240.896z"/>
	<path fill="#FFFFFF" d="M136.771,346.803c-0.484-0.053-3.772,1.177-4.128,0c-0.11-0.362,2.562-2.568,3.231-3.23
		c7.646-7.564,16.927-15.092,24.592-21.361c-0.432-20.481,0.055-41.39,0.18-61.57c-5.555-2.703-9.326-7.188-12.386-12.386
		c-4.05-0.139-7.804-0.573-11.668-0.897c0.307,1.563,2.207,3.194,1.616,4.488c-0.992-1.283-1.617-2.931-2.333-4.488
		c-6.514-0.224-12.934-0.761-18.848-0.359c-0.071,1.33,2.179,2.844,1.795,4.488c-1.25-1.144-1.767-3.02-2.692-4.488
		c-5.792-0.048-11.136,0.352-16.694,0.539c-0.5,0.338,1,1.135,0.359,1.616c-0.973-0.584-1.179-1.933-3.231-1.436
		c6.996,10.835,14.174,21.488,17.951,35.542c-0.076,0.569-1.442,0.442-0.897,1.077c4.832,42.541,3.341,90.533,1.436,132.475
		c-1.371,30.179-5.802,60.309-8.078,89.035c0.058,0.42,0.783,0.174,0.897,0.538c2.354-2.014,3.489-5.247,5.564-7.539
		c-0.417,3.06-3.535,4.956-4.487,8.077c5.524,2.075,11.56,3.639,17.591,5.206c1.6-2.35,2.656-5.242,4.488-7.359
		c-0.694,3.017-2.622,4.798-3.77,7.359c4.884,1.159,9.806,2.281,15.617,2.513c0.97-1.603,1.205-3.94,2.692-5.025
		c-0.525,1.928-1.431,3.475-2.154,5.205c4.25,0.6,9.634,1.013,13.822,1.077c0.624-0.753,0.076-2.677,1.077-3.052
		c0.427,0.962-0.473,1.998-0.359,3.231c4.654,0.302,10.355,0.468,15.438,0.538c0.507-0.749,0.269-2.244,0.897-2.872
		c0.516,0.891-0.113,1.986-0.18,2.872c5.466,0.126,9.302,0.412,14.72,0.359c0.573-0.503-0.094-2.247,0.897-2.334
		c0.137,0.975-0.222,1.454-0.18,2.334c5.251,0,9.748,0.399,14.002,0.18c0.482-0.534,0.023-2.012,0.717-2.334
		c0.455,0.63,0,1.591,0,2.334c2.284,0.155,3.686-0.024,5.924-0.18c0.626-11.283,2.681-21.589,2.872-33.029
		c-27.044-1.893-54.787-3.055-80.957-5.923C133.318,436.287,135.163,390.126,136.771,346.803z"/>
	<path fill="#FFFFFF" d="M-0.001,253.648v2.771c0.651-0.126,1.307-0.228,1.963-0.265C1.291,255.336,0.642,254.494-0.001,253.648z"/>
	<path fill="#FFFFFF" d="M168.363,315.749c9.332-6.106,17.547-14.885,27.285-21.182c6.352,4.54,12.641,11.054,18.31,15.079
		c-1.112-19.289-1.15-38.928-2.692-56.544c-3.626,0.145-6.095-3.452-9.155-4.129c-3.091-0.684-5.731,0.282-9.515,0
		c1.549,2.763,3.944,5.624,4.847,8.437c-2.624-1.281-3.302-7.638-6.104-8.437c-2.964-0.845-6.389,1.197-10.231,0.538
		c-3.044,5.154-6.387,10.009-12.746,11.847C168.419,278.448,168.326,297.189,168.363,315.749z"/>
	<path fill="#FFFFFF" d="M293.658,249.871c0.637,0.501,0.825,1.448,1.437,1.975c0.205-0.34-0.215-1.57,0.18-2.155
		C294.787,249.802,293.849,249.463,293.658,249.871z"/>
	<path fill="#FFFFFF" d="M48.454,250.768c-1.82,0.046-4.232,0.667-7.18,0.539c-0.049,0.947,0.795,1,0.897,1.795
		C44.427,252.485,46.467,251.653,48.454,250.768z"/>
	<path fill="#FFFFFF" d="M34.453,256.334c2.479-0.873,4.577-2.125,7.18-2.873c-0.284-0.793-0.894-1.26-1.256-1.974
		c-5.906,0.557-11.887,1.037-17.771,1.616c0.52,1.575,1.771,2.417,2.154,4.128c-2.014-0.596-1.466-3.319-3.231-3.948
		c-1.942-0.694-6.154,0.879-8.975,1.436c-3.413,0.672-6.642,1.12-9.155,1.616c0.333,1.598,2.39,2.374,2.154,3.948
		c-1.353-0.98-1.997-2.67-3.231-3.77c-0.749,0.209-1.53,0.385-2.323,0.549v56.007c2.026,1.449,4.038,2.802,6.092,3.938
		C9.367,290.604,22.958,274.515,34.453,256.334z"/>
	<path fill="#FFFFFF" d="M9.502,302.825c17.515-1.031,34.671-0.259,50.441-4.488c-8.662-13.849-14.633-29.284-25.31-41.106
		C25.211,271.405,15.255,285.52,9.502,302.825z"/>
	<path fill="#FFFFFF" d="M160.824,321.673c2.318-1.033,4.686-3.57,7.001-5.205c-0.232-13.019,0.136-33.274,0-54.929
		c-2.453,0.535-4.54-0.356-6.642-0.717c0,0.179,0,0.359,0,0.538c0.114,11.591-0.18,19.098-0.18,29.259
		C161.004,302.062,160.996,311.606,160.824,321.673z"/>
	<path fill="#FFFFFF" d="M498.295,278.771c1.979,14.255,3.347,30.775,4.846,45.594c6.865-4.862,14.771-10.241,22.438-14.898
		c-2.887-13.648-4.327-28.819-7.539-42.543C511.697,271.113,504.939,274.885,498.295,278.771z"/>
	<path fill="#FFFFFF" d="M497.756,278.771c-19.623,1.171-38.348,2.557-58.34,3.77c-1.238,37.533-2.213,79.746-3.41,115.422
		c9.002-13.826,17.85-27.212,29.798-39.851c5.423-5.736,11.013-12.062,17.591-17.412c4.61-3.749,9.645-7.983,14.361-12.026
		c1.415-1.214,4.595-2.836,4.847-3.949c0.277-1.227-0.572-3.834-0.718-5.564C500.692,305.045,499.353,292.056,497.756,278.771z
		 M463.649,317.544c-3.964,0.46-7.37-0.01-10.591-0.718c-0.687-6.307-0.073-14.273,1.437-19.565
		c3.324-0.098,7.946-0.572,10.949,0.179C464.617,303.912,464.627,311.221,463.649,317.544z M487.703,315.749
		c-2.344,0.298-5.912,0.298-8.257,0c-1.341-5.799-1.458-13.228-1.257-18.848c2.221-1.097,5.277-0.366,8.078-0.18
		C487.248,302.416,488.028,309.588,487.703,315.749z"/>
	<path fill="#FFFFFF" d="M227.78,371.934c23.576-5.018,48.096-9.559,73.238-9.335c-7.839-30.215-20.873-55.236-33.388-80.776
		C254.17,311.873,241.342,342.426,227.78,371.934z"/>
	<path fill="#FFFFFF" d="M116.128,328.852c0.023-15.047-1.893-29.959-3.231-44.696c-17.662,4.598-34.538,9.98-52.236,14.54
		c6.951,24.888,13.058,53.69,16.874,81.854c3.449,25.454,8.839,51.147,10.771,77.367c0.668,9.073,0.951,18.183,1.256,27.284
		c0.447,13.311,2.465,26.104,2.164,39.967h12.088c3.91-32.045,6.909-64.258,9.801-96.69
		C116.56,395.451,116.077,361.84,116.128,328.852z"/>
	<path fill="#FFFFFF" d="M374.615,293.849c-11.609,7.238-22.345,15.352-33.029,23.516c4.246,2.994,7.563,6.917,11.848,9.872
		c10.601-8.727,21.958-16.695,32.67-25.31C382.402,299.107,378.672,296.315,374.615,293.849z"/>
	<path fill="#FFFFFF" d="M134.078,346.625c36.022-3.794,66.171-11.977,102.318-15.438c-13.261-12.289-26.837-24.262-40.748-35.9
		c-15.16,11.925-32.304,25.291-47.568,37.876C143,337.348,138.045,341.8,134.078,346.625z"/>
	<path fill="#FFFFFF" d="M482.856,304.081c-0.096-2.417-0.18-4.846-0.538-7c-1.65,0.063-2.313-0.19-3.411,0
		c-0.418,1.915-0.06,4.606-0.179,6.821C479.743,304.344,481.639,304.382,482.856,304.081z"/>
	<path fill="#FFFFFF" d="M483.036,297.081c0.24,2.481,0.463,4.78,0.538,7c1.018,0,2.034,0,3.052,0
		c-0.325-2.188-0.548-4.478-0.718-6.82C484.803,297.347,484.193,296.94,483.036,297.081z"/>
	<path fill="#FFFFFF" d="M459.162,309.467c0.648-3.54,0.335-8.042,0.718-11.848c-1.632,0.224-3.592,0.118-5.205,0.359
		c-0.854,3.394-0.591,7.906-1.257,11.488C455.571,309.493,457.625,309.098,459.162,309.467z"/>
	<path fill="#FFFFFF" d="M460.059,309.287c1.282-0.106,3.02,0.159,3.77,0c0.11-4.019,0.763-7.495,0.897-11.488
		c-1.432-0.004-2.569-0.303-4.129-0.18C460.242,301.332,460.187,305.346,460.059,309.287z"/>
	<path fill="#FFFFFF" d="M59.943,299.235c-16.189,3.743-34.925,3.539-50.441,4.128C2.2,336.4,3.857,376.526-0.001,411.677v43.056
		c0.055,0.104,0.117,0.213,0.168,0.313c8.224,16.065,16.474,32.059,24.592,47.748c-0.068,7.248,0.257,14.56,0.687,22.375h65.537
		c-0.753-39.03-4.066-79.689-9.859-117.333C75.275,369.824,69.95,332.704,59.943,299.235z M26.196,328.674
		c4.066-1.189,8.602-1.672,13.642-1.257c-0.113,8.057-0.062,20.532-2.334,28.183c-2.586,0.618-5.091,0.321-8.077,0.358
		C27.034,348.178,25.994,337.951,26.196,328.674z M41.454,404.964c-3.418,0.411-7.109,0.549-10.591,0.896
		c-0.632-8.187-0.983-19.419-0.539-28.361c4.027-0.018,8.179-0.16,10.771,1.257C41.478,387.269,42.597,397.048,41.454,404.964z"/>
	<path fill="#FFFFFF" d="M354.689,327.417c19.211,0.921,37.782,0.779,54.57,0.897c-6.974-9.241-15.106-17.323-22.617-26.027
		C376.52,310.802,363.807,319.131,354.689,327.417z"/>
	<path fill="#FFFFFF" d="M5.912,318.083c-2.034-1.342-3.983-2.77-5.913-4.217v27.357c1.313-0.054,2.629-0.119,3.938-0.164
		C4.17,332.578,4.674,325.408,5.912,318.083z"/>
	<path fill="#FFFFFF" d="M478.907,304.62c0.016,3.632,0.394,7.037,0.897,10.591c1.853-0.103,2.317,0.342,3.411,0
		c-0.1-3.49-0.137-7.044-0.359-10.412C481.581,304.699,479.89,305.012,478.907,304.62z"/>
	<path fill="#FFFFFF" d="M483.574,304.799c-0.1,3.957,0.312,7.069,0.359,10.412c1.223-0.086,2.187,0.087,3.23,0.18
		c0.216-3.525-0.446-6.561-0.358-10.412C486.005,304.393,484.666,304.699,483.574,304.799z"/>
	<path fill="#FFFFFF" d="M459.88,310.006c0.079,2.898-0.162,4.777,0,7c1.137,0,2.274,0,3.41,0c0.356-2.097,0.421-4.486,0.359-7
		C462.063,310.053,461.169,309.887,459.88,310.006z"/>
	<path fill="#FFFFFF" d="M459.162,310.006c-2.059-0.085-3.864,0.084-5.744,0.179c-0.084,1.601,0.052,3.836,0,5.924
		c1.604,0.822,3.323,0.712,5.744,0.897C459.096,314.706,459.258,311.197,459.162,310.006z"/>
	<path fill="#FFFFFF" d="M36.966,355.06c2.237-7.574,1.868-17.899,2.333-27.104c-4.302-0.168-8.756,0.248-12.565,1.076
		c-0.022,9.776,1.085,18.421,3.052,26.208C31.5,355.577,34.862,355.423,36.966,355.06z"/>
	<path fill="#FFFFFF" d="M403.695,465.995c2.084-19.727,2.008-39.633,3.23-59.236c1.635-26.192,2.617-52.354,2.513-77.727
		c-21.371-0.306-38.422,0.059-55.646-1.076c-4.007,32.317-5.664,66.49-9.155,98.188c-0.855,7.771-1.98,15.932-2.334,24.054
		c-0.355,8.211-1.93,16.234-1.974,24.413c-0.091,16.853-1.171,33.503-0.902,50.558h56.239c0.914-12.558,5.679-26.829,7.13-39.607
		C403.52,479.2,403.003,472.546,403.695,465.995z M362.049,374.447c-1.356,0.059-4.191,0.372-5.743,0.18
		c-0.236-3.445-0.246-7.339,0-9.514c1.737,0.008,3.476-0.378,5.743,0C362.049,368.224,362.049,371.336,362.049,374.447z
		 M362.947,351.112c-1.628,0.406-3.999,0.068-5.923,0.179c-0.773-2.757-0.468-6.593-0.539-10.052
		c2.161,0.292,4.918-0.013,7.001,0.358C363.511,344.427,363.309,347.856,362.947,351.112z M397.053,342.136
		c2.659,0.016,3.424-0.11,5.743,0c0.591,2.707,0.943,6.588,0.898,9.334c-2.102,0.138-4.379-0.074-6.462-0.358
		C396.866,348.182,396.878,345.088,397.053,342.136z M398.13,373.371c-0.334-2.897-0.977-6.442-0.896-9.155
		c1.139-0.557,4.7-0.312,6.642-0.358c0.538,2.572,0.535,5.686,0.538,8.795C402.342,372.83,399.886,373.464,398.13,373.371z"/>
	<path fill="#FFFFFF" d="M235.499,352.907c0.399-3.26-1.054-6.984-1.436-10.412c-0.393-3.525-0.801-6.903-1.436-10.231
		c-33.266,3.313-61.529,11.123-95.317,14.54c-1.363,44.446-3.284,87.429-4.667,130.68c26.316,2.795,54.719,3.875,80.597,5.924
		c0.814-39.863,7.015-75.6,13.104-110.755c1.599-2.993,3.106-6.212,4.667-9.693C232.166,360.381,235.187,355.443,235.499,352.907z
		 M180.749,359.01c0.595,4.596,1.264,8.322,1.256,13.822c-2.84,0.37-5.584,0.736-8.975,0.359c-0.71-4.074-1.195-8.725-1.256-12.925
		C174.464,359.451,177.782,358.523,180.749,359.01z M175.185,392.936c-1.65-4.063-1.788-10.087-2.872-14.181
		c2.565-0.764,6.777-1.166,10.052-1.077c1.025,4.6,1.598,9.65,2.333,14.54C182.324,393.153,177.613,392.649,175.185,392.936z
		 M188.469,357.574c2.457-0.063,5.823-0.127,8.436,0.18c0.712,4.874,0.075,10.616-0.358,15.438c-2.029,0.188-6.226-0.12-8.437-0.898
		C187.399,368.608,187.936,362.147,188.469,357.574z M190.084,391.141c-0.904-4.148-1.397-9.168-1.256-13.463
		c3.272-0.018,5.354-0.518,8.616-0.718c1.358,4.445,2.171,9.438,2.692,14.719C197.09,392.499,193.084,391.528,190.084,391.141z"/>
	<path fill="#FFFFFF" d="M-0.001,342.05v59.401c1.647-19.999,3.155-40.4,3.759-59.494C2.497,341.973,1.253,342.021-0.001,342.05z"/>
	<path fill="#FFFFFF" d="M362.408,350.573c0.246-2.253,0.267-5.679,0.539-8.437c-1.752-0.282-3.915-0.154-5.923-0.18
		c0.302,2.336-0.063,5.903,0.537,8.796C358.906,350.422,360.791,350.631,362.408,350.573z"/>
	<path fill="#FFFFFF" d="M403.156,350.932c-0.183-1.819-0.423-5.65-0.897-8.258c-1.736,0-3.649-0.052-4.667,0.18
		c-0.02,2.048-0.104,5.407,0.18,7.719C399.378,350.882,401.487,350.687,403.156,350.932z"/>
	<path fill="#FFFFFF" d="M196.366,358.292c-1.935,0.037-4.793-0.403-7.36,0c-0.509,4.256-0.941,9.318-0.358,13.643
		c2.285,0.407,4.875,0.51,7.359,0.718C196.465,368.287,196.697,362.312,196.366,358.292z"/>
	<path fill="#FFFFFF" d="M181.288,372.472c0.184-4.967-0.71-8.748-1.077-12.924c-3.149-0.098-5.565,0.539-7.898,1.257
		c0.309,4.718,0.478,7.506,1.256,11.847C176.333,372.783,178.634,372.452,181.288,372.472z"/>
	<path fill="#FFFFFF" d="M301.017,363.138c-27.541,0.241-51.705,4.753-73.956,9.693c-4.043,24.048-9.036,49.388-11.129,75.393
		c-2.066,25.668-2.96,52.064-5.683,76.944h115.191C326.739,466.938,315.13,411.724,301.017,363.138z M273.733,410.528
		c-2.706,0.015-5.632,0.173-8.616,0.359c-1.729-5.711-2.848-13.135-2.872-19.746c3.671-0.227,9.313-0.532,12.565,0.718
		C274.215,397.805,272.947,404.307,273.733,410.528z"/>
	<path fill="#FFFFFF" d="M397.771,364.575c0.125,2.927,0.699,5.402,0.897,8.257c1.518-0.457,3.532-0.417,5.206-0.719
		c-0.342-2.41-0.168-5.337-0.539-7.718C401.084,364.334,399.556,364.539,397.771,364.575z"/>
	<path fill="#FFFFFF" d="M356.844,365.651c0.027,3.167-0.078,5.535,0,8.438c1.628-0.047,3.253-0.098,4.667-0.359
		c0.001-3.619-0.189-5.56,0-8.078C359.956,365.651,358.4,365.651,356.844,365.651z"/>
	<path fill="#FFFFFF" d="M189.365,378.396c0.001,4.547,0.53,8.564,1.257,12.387c3.112-0.062,5.291,0.812,8.617,0.538
		c0.156-4.708-1.411-9.237-2.155-13.643C194.332,377.738,192.002,378.221,189.365,378.396z"/>
	<path fill="#FFFFFF" d="M30.504,378.038c0.42,9.018,0.204,18.102,0.898,27.104c3.244-0.259,6.865-0.575,9.693-0.718
		c0.49-7.939-0.188-16.742-0.539-25.311C37.854,377.922,33.263,378.173,30.504,378.038z"/>
	<path fill="#FFFFFF" d="M173.031,379.114c0.803,4.462,1.312,9.22,2.513,13.283c2.99-0.455,5.158-0.14,8.437-0.538
		c-0.772-4.493-1.234-9.297-2.155-13.643C178.907,378.529,175.713,378.565,173.031,379.114z"/>
	<path fill="#FFFFFF" d="M267.63,398.321c0.046-2.212-0.063-5.183,0-6.82c-1.897,0.128-2.773,0.197-4.846,0.179
		c0.396,2.058,0.089,4.817,0.717,6.642C264.877,398.321,266.254,398.321,267.63,398.321z"/>
	<path fill="#FFFFFF" d="M268.169,391.501c0.008,2.614,0.207,3.399,0.18,6.642c1.822-0.089,3.377,0.092,5.026,0.179
		c0.262-2.011,0.412-4.135,0.717-6.103C272.155,391.942,270.374,391.51,268.169,391.501z"/>
	<path fill="#FFFFFF" d="M263.321,398.86c0.509,3.979,1.398,7.578,2.155,11.309c0.875-0.082,2.102,0.188,2.692-0.18
		c0.258-3.335-0.554-8.581-0.539-11.129C265.819,399.001,264.758,399.042,263.321,398.86z"/>
	<path fill="#FFFFFF" d="M268.348,398.86c0.006,3.943,0.495,7.402,0.718,11.129c1.611-0.087,2.264-0.023,3.949,0
		c-0.488-3.599,0.007-7.608,0.359-10.95C272.041,398.637,269.976,398.968,268.348,398.86z"/>
	<path fill="#FFFFFF" d="M-0.001,503.21v21.959h24.874c-0.777-6.959-0.297-15.757-1.011-22.195
		C15.897,503.066,7.952,503.134-0.001,503.21z M16.861,522.36c-2.164-0.316-4.968,0.765-7.18,0.358
		c0.284-3.213,0.169-6.635,0.718-9.155c2.303,0.076,4.774-0.593,6.642-0.358C17.15,516.274,16.923,519.587,16.861,522.36z"/>
	<path fill="#FFFFFF" d="M108.589,507.281c-3.673,3.616-2.552,12.026-3.98,17.888h13.366c2.779-4.089,6.097-8.392,8.026-12.682
		C119.824,511.124,113.965,509.444,108.589,507.281z"/>
	<path fill="#FFFFFF" d="M126.898,512.845c-2.618,4.17-5.359,8.217-8.041,12.323h19.377c1.208-3.546,3.102-6.805,4.281-9.81
		C136.695,515.136,132.138,513.649,126.898,512.845z"/>
	<path fill="#FFFFFF" d="M10.758,514.102c0.036,3.23-0.514,4.765-0.359,8.078c2.025-0.01,3.495-0.575,5.744-0.359
		c0.413-3.138,0.119-5.076,0.359-8.078C14.527,513.802,12.919,514.229,10.758,514.102z"/>
	<path fill="#FFFFFF" d="M143.233,515.359c-1.54,3.199-3.034,6.445-4.41,9.81h15.392c1.188-3.382,2.372-5.08,2.839-8.554
		C151.971,516.209,148.032,516.306,143.233,515.359z"/>
	<path fill="#FFFFFF" d="M157.594,516.795c-0.555,3.128-1.75,5.614-2.672,8.374h15.983c0.892-2.548,1.683-5.197,2.306-8.015
		C168.265,517.472,162.812,516.797,157.594,516.795z"/>
	<path fill="#FFFFFF" d="M173.749,517.333c-0.514,2.817-1.407,5.254-2.156,7.836h15.22c0.607-2.565,1.657-5.33,1.835-7.656
		C184.605,517.681,178.7,517.368,173.749,517.333z"/>
	<path fill="#FFFFFF" d="M189.365,517.692c-0.66,2.491-1.24,5.062-1.975,7.477h14.233c0.832-2.241,1.204-4.942,1.923-7.297
		C198.101,517.971,194.835,517.651,189.365,517.692z"/>
	<path fill="#FFFFFF" d="M204.085,517.872c-0.421,2.535-1.235,5.236-1.808,7.297h7.257c0.268-2.383,0.384-4.917,0.475-7.477
		C208.125,517.844,206.174,517.927,204.085,517.872z"/>
	<path fill="#FFFFFF" d="M825.013,0C549.986,0,275.009,0-0.001,0v157.178c1.102-4.083,3.214-7.34,6.451-8.548
		c0.247-0.092,0.436-0.181,0.718-0.179c10.803,0.054,12.882,11.145,12.566,21.72c-0.174,5.806-3.022,11.645-7.36,13.642
		c0.106,10.806,1.12,24.143,0.897,35.542c-0.663,0.114-2.688,0.396-3.77,0c-1.017-11.162-0.581-22.454-0.897-35.003
		c-4.278-1.296-7.216-6.195-8.605-11.988v50.667c0.719,0.924,1.314,1.972,2.143,2.786c5.614-0.769,13.074-1.188,18.489-1.616
		c-0.294-1.63-3.183-3.146-3.051-5.206c1.787,1.302,2.096,4.455,4.308,5.026c1.755,0.454,4.956-0.561,7.719-0.717
		c4.322-0.246,7.656-0.611,12.027-0.539c-0.361-1.914-2.353-3.151-2.333-4.847c1.452,1.242,2.126,3.259,3.231,4.847
		c6.147-0.387,12.204-0.579,17.771-0.718c-0.152-1.178-2.599-2.527-2.333-4.129c1.461,1.112,2.068,3.078,3.59,4.129
		c7.192-0.467,15.749,0.017,23.335-0.359c-0.74-1.902-2.588-3.623-2.513-5.744c1.283,1.887,2.246,4.096,3.411,6.103
		c5.36-0.097,11.048,0.236,16.874,0.18c-0.265-1.785-2.219-2.787-1.795-4.667c1.22,1.413,1.63,3.635,3.052,4.846
		c6.694,0.048,11.217-0.183,17.591,0c-0.43-1.522-2.761-2.932-1.975-4.488c1.229,1.368,1.216,3.902,3.231,4.488
		c4.55,1.324,12.258-0.725,17.053,0.719c-0.225-1.759-3.238-3.212-3.231-5.207c1.739,1.493,2.741,3.722,4.488,5.207
		c1.58,0.181,2.983-0.405,3.949,0.18c0.569-3.739,1.41-7.207,2.513-10.411c-6.632-0.06-11.868,1.033-17.771,0.538
		c-0.493-2.444-0.799-5.811-0.898-8.077c-10.772,0.266-23.835,0.885-35.003,0.717c0.422-37.214,0.877-73.989,1.256-111.293
		c10.355-11.544,22.45-21.349,34.465-31.233c2.271,5.459,5.827,10.689,8.437,16.874c2.348,5.563,6.801,11.758,7.18,18.13
		c0.906,15.226,2.022,31.105,1.436,47.209c7.946-10.603,15.66-22.993,24.234-33.567c2.98-0.875,6.537-2.659,9.154-4.488
		c-0.206-7.858-0.175-20.319-0.359-28.721c-9.545-4.803-9.738-27.162,2.872-28.362c14.814-1.411,11.609,27.734-0.18,28.541
		c0.031,8.431-0.163,18.6,0,27.464c1.754-0.4,2.833-1.475,4.488-1.975c9.059,19.567,14.207,41.088,20.643,63.186
		c0.005,2.577,0.62,6.076,1.078,8.796c8.859-4.577,15.961,2.162,20.104,7.539c7.241,9.398,8.15,25.68,5.564,40.389
		c1.247,0.191,3.149,0.676,4.309,0.359c-0.787-1.56-2.504-3.106-2.693-4.667c2.505,1.443,1.925,5.972,6.463,5.385
		c-0.251-20.527,1.588-41.545,2.512-61.929c0.484-10.661,3.462-18.575,7.181-26.567c3.649-7.844,6.927-15.678,11.847-21.899
		c4.581,5.65,6.711,13.753,10.231,20.463c-0.499-8.593,0.258-15.389,0.18-23.874c-12.001-4.416-9.566-29.471,1.437-33.208
		c0.907-0.309,2.954-0.18,3.411,0c11.551,4.535,11.017,29.763-1.796,32.849c0.126,12.659,2.437,24.566,1.796,36.081
		c0.269,0.748,0.778,1.255,0.717,2.333c-1.001,0.375-2.09,0.663-3.41,0.718c3.186,22.665,5.711,46.68,6.462,71.802
		c2.646,0.288,5.417,0.449,8.078,0.719c-0.359-1.796-2.221-3.043-2.154-4.667c1.206,1.308,2.007,3.02,2.872,4.667
		c1.781,0.074,3.412,0.297,5.026,0.539c0.237-10.487,0.406-20.264,0.18-29.08c3.832-5.883,7.317-11.161,12.206-16.155
		c1.1-1.124,3.706-4.377,5.026-4.488c1.204-0.101,5.084,2.086,6.642,2.872c11.013,5.562,20.665,10.728,29.438,18.31
		c2.386,2.062,8.515,6.816,9.515,9.693c1.98,5.706,0.14,13.064,1.256,18.13c1.767-0.028,3.329-0.261,5.026-0.359
		c0.671-0.51-0.851-1.286-0.18-1.794c0.942,3.007,6.715,1.26,9.514,1.436c0.065-1.219-2.285-2.479-1.974-3.95
		c1.75,0.677,1.419,3.379,3.41,3.95c0.808,0.231,1.999-0.145,2.872-0.18c4.152-0.166,9.209,0.163,12.564,0.18
		c-0.922-2.86-3.788-5.648-3.59-8.437c1.699,2.729,2.638,6.218,4.848,8.437c3.39-0.151,6.552,0.239,9.872-0.18
		c0.555-0.519-1.161-1.003-0.539-1.615c0.831,1.399,4.231,2.753,5.565,1.077c-4.387-2.145-8.663-5.417-11.488-9.873
		c-11.165-17.608-7.003-52.505,9.514-59.955c6.783-3.059,15.13,1.166,19.565,4.847c17.641,14.641,12.22,55.157-6.821,63.545
		c-1.22,0.538-3.381,0.231-3.948,1.975c1.767,0.497,5.165-0.449,7.718-0.359c0.463-0.076-0.683-0.959,0-1.256
		c0.809,0.029,0.364,1.312,1.258,1.256c4.854,0.05,7.641-0.196,12.026-0.18c-0.009-1.205-2.193-2.692-1.975-4.128
		c1.823,0.656,1.288,3.524,3.231,4.128c3.323,1.033,11.487-1.021,14.719,0c-0.024-0.753-1.437-0.119-1.795-0.539
		c-0.541-8.28,0.307-16.179,0.18-24.771c3.365-3.396,8.373-5.149,13.643-6.642c-0.773-8.295-0.48-16.748,0-24.771
		c2.073,0.2,4.503,0.044,6.103,0.718c0.499,7.879-0.083,15.226-1.077,22.797c4.013-0.229,7.093-1.546,10.95-0.718
		c0.387,1.29,0.562,2.791,0.538,4.488c0.855-0.222,1.454-0.7,2.334-0.897c-1.508-8.9-1.557-18.503-1.615-28.542
		c12.936-3.881,29.304-6.029,43.439-7.539c2.224,16.725,2.315,34.736,1.975,51.518c3.03-0.38,5.931-0.891,8.797-1.436
		c-0.258-15.952-1.005-35.164-0.898-51.518c20.191-4.34,46.358-7.288,66.955-6.283c1.524,15.317,1.391,32.022,4.668,46.671
		c5.191-1.091,9.703-2.862,14.719-4.128c-3.955-14.075-6.868-28.279-8.796-44.159c18.584-7.324,40.514-11.304,62.827-14.898
		c6.301,11.469,10.228,25.314,14.719,38.593c2.447-0.725,5.021-1.322,7.54-1.975c-2.637-14.972-5.973-27.792-7.898-42.901
		c18.57-8.72,40.223-13.786,64.083-16.874c5.494,12.397,9.758,26.023,13.284,40.389c3.271-0.799,6.461-1.677,10.231-1.975
		c-0.911-14.79-0.229-28.573-1.256-41.825c14.684-3.318,31.699-4.773,49.204-4.68V0z M8.604,65.519
		c0.026,5.527,0.183,11.903,0.539,17.95c0.143,2.439,1.172,6.288-1.795,6.642C5.993,82.319,6.106,73.397,6.45,65.519
		c-6.922-2.486-7.151-14.697-1.615-18.668C14.043,40.243,17.73,63.499,8.604,65.519z M52.942,59.416
		c9.901-0.903,10.005,20.598,0.718,21.541c0.403,4.293,0.353,9.016,0.718,13.642c0.216,2.73,1.727,6.626-0.897,7.898
		c-1.799-5.758-1.33-14.683-1.795-21.182C44.248,78.742,44.438,60.192,52.942,59.416z M33.555,38.773
		c3.8,5.578,1.792,16.416-4.488,17.771c0.047,7.466,2.65,16.476,0.897,23.156c-1.873-1.208-1.52-4.117-1.795-6.462
		c-0.608-5.186-1.313-11.367-1.436-15.976C15.449,54.714,22.346,29.508,33.555,38.773z M21.887,213.431
		c-0.925-29.477,1.059-59.441,2.513-89.752c0.188-3.908-0.239-8.261,0.539-11.847c0.438-2.019,5.547-5.433,7.719-7.18
		c3.218-2.59,6.283-4.922,8.975-7.359c4.483,2.397,7.553,6.208,11.129,9.513c0.305,37.559,5.031,73.8,9.334,106.806
		C49.028,215.161,34.632,213.835,21.887,213.431z M77.355,46.492c-0.503-6.544-3.455-14.034-1.975-20.644
		c0.763-3.408,3.27-7.27,5.026-10.411c1.922-3.438,4.21-6.448,6.103-9.155c0.132-0.167,0.327-0.272,0.539-0.359
		c0.119,0,0.239,0,0.359,0c1.725,2.737,2.933,6.229,4.128,9.873c1.09,3.324,2.851,7.367,3.231,10.771
		c0.719,6.429-1.049,12.276,0.898,18.31C90.608,46.462,83.924,46.419,77.355,46.492z M161.722,45.594
		c1.065,6.718,0.299,15.076,0,21.9c-0.072,1.612,0.893,4.45-1.436,5.026c-1.352-8.342-0.849-18.034-0.898-26.926
		c-10.488-2.193-8.046-20.754,3.231-19.566C171.713,26.986,172.481,45.554,161.722,45.594z M224.369,114.883
		c-6,0.279-13.202,1.219-18.13,0.359c-2.809-0.49-5.292-2.23-7.898-3.59c-1.897-0.99-6.247-2.458-7.18-4.128
		c-2.178-3.9-0.015-11.165-1.436-15.796c6.666-19.933,12.43-39.661,22.618-56.006c0.131-0.167,0.326-0.271,0.538-0.358
		c5.46,0.822,9.901,2.665,15.079,3.769c8.671,21.494,12.022,46.68,13.643,73.597C237.092,114.206,230.749,114.586,224.369,114.883z
		 M255.244,95.137c0.292,8.958,0.853,16.873-0.179,26.208c-0.872-0.131-1.666,0.493-2.154,0.179
		c-0.653-8.375-1.058-19.21-0.719-26.387c-9.193-3.969-9.474-26.493,1.795-28.003C268.885,65.138,264.978,93.422,255.244,95.137z
		 M285.221,30.515c0.436,4.016,0.165,9.784,0.359,14.181c0.069,1.574,1.017,4.467-1.078,4.847
		c-1.856-4.922-1.056-12.082-1.076-18.668c-5.715-1.535-4.244-15.554,2.872-13.643C291.7,18.683,290.962,29.885,285.221,30.515z
		 M300.838,123.499c-0.484-7.162-0.238-15.338,0.359-23.336c0.185-2.461,0-5.719,0.718-7.539c0.864-2.188,4.351-4.729,6.104-6.283
		c2.274-2.016,4.84-3.192,6.821-5.385c4.951,3.067,8.991,7.044,13.104,10.95c-0.379,0.768,0.267,1.452-0.18,2.154
		c1.057,9.279,0.562,19.246,1.616,29.798C320.409,124.865,311.147,124.531,300.838,123.499z M344.637,68.391
		c0.214,8.276,1.6,19.893,0.718,28.9c-0.678-0.072-1.541,0.601-1.974,0.179c-2.479-7.543-1.822-19.461-1.437-29.08
		c-11.829-4.771-10.835-24.32,0.358-29.439c1.769-0.809,5.521,0.257,7.181,1.616C356.914,46.643,354.2,66.728,344.637,68.391z
		 M422.901,92.265c0.291,7.1,0.893,15.026,0.898,22.438c0.001,1.742,0.288,4.363-1.975,3.949
		c-2.449-7.605-2.474-17.105-1.796-26.387c-7.751-2.753-9.792-18.744-4.487-26.208c3.684-5.183,10.479-5.049,14.001,0.359
		C434.716,74.359,431.155,90.022,422.901,92.265z M448.213,219.714c-10.668-1.938-6.531-19.446,0.358-21.899
		C447.961,204.343,448.292,213.806,448.213,219.714z M474.24,68.93c-2.097,30.466-5.648,63.253-7.359,94.419
		c-6.421-25.052-8.17-60.893-6.104-91.727c0.605-9.02,2.357-21.85,5.386-30.696c0.995-2.909,2.683-8.169,5.564-8.077
		c3.031,0.097,3.431,5.796,3.59,7.898C476.002,49.781,474.889,59.496,474.24,68.93z M561.121,66.596
		c0.426,8.621-0.729,20.297-1.975,28.9c-0.325,2.246,0.451,4.278-2.154,4.308c-0.048-11.305-0.358-22.836,0.897-33.388
		c-8.792-4.228-8.07-22.381,0-27.644C574.98,34.294,573.408,64.081,561.121,66.596z M588.225,98.189
		c-0.527,11.223,0.01,20.719,0,32.132c-1.259,0.313-1.712,0.406-3.23,0.539c-1.359-10.145-0.77-21.66-0.573-32.841
		c-10.088-3.389-9.32-22.33-2.479-28.729c1.495-1.399,4.827-2.871,7.36-2.333C601.227,69.483,599.682,95.221,588.225,98.189z
		 M698.622,49.364c0.305,4.096-0.141,8.48-0.359,13.463c-0.181,4.118,0.138,8.7-1.975,10.771
		c-1.896-5.947-1.087-16.779-0.718-24.233c-5.501-1.271-7.115-12.208-3.221-16.549c0.27-1.644,2.677-3.894,5.375-3.914
		C707.02,28.83,706.706,47.36,698.622,49.364z M743.677,35.363c0.144,5.353,0.299,11.91-0.538,17.95
		c-0.734,0.043-1.011,0.545-1.795,0.539c-0.766-6.41-0.359-11.881,0.18-18.31c-6.531-2.617-4.342-17.29,2.333-17.771
		C752.037,17.181,749.929,34.499,743.677,35.363z"/>
	<path fill="#FFFFFF" d="M696.288,48.825c9.145,1.09,10.488-17.662,2.692-19.207c-3.656-0.725-4.965,1.99-6.547,3.159
		C689.638,37.892,690.436,48.128,696.288,48.825z"/>
	<path fill="#FFFFFF" d="M692.433,32.777c0.026-0.048,0.051-0.098,0.077-0.145c-0.057,0.058-0.107,0.122-0.161,0.182
		c-0.002,0.011-0.009,0.024-0.011,0.035C692.371,32.827,692.402,32.801,692.433,32.777z"/>
	<path fill="#FFFFFF" d="M585.353,129.961c0.527,0.396,1.253-0.209,2.154,0c0.06-10.633-0.392-21.073,0-31.413
		c-1.123-0.024-2.143-0.214-3.076-0.527C585.415,108.369,584.226,120.503,585.353,129.961z"/>
	<path fill="#FFFFFF" d="M584.424,97.926c-0.001,0.031-0.001,0.062-0.002,0.092c0.003,0.001,0.007,0.002,0.01,0.003
		C584.428,97.99,584.427,97.957,584.424,97.926z"/>
	<path fill="#FFFFFF" d="M807.76,125.474c-7.098,0.697-12.478,8.021-15.796,13.104c-3.651,5.591-7.329,12.715-7.899,21.182
		c-0.566,8.438,2.395,15.701,5.925,22.258c2.96,5.5,8.665,12.759,15.258,13.822c3.85,0.621,9.057-1.644,11.847-3.411
		c3.217-2.037,5.858-5.084,7.919-8.773V137.11c-1.713-3.032-3.94-5.947-6.477-7.921c-0.003,0.018,0,0.036-0.006,0.055
		C815.262,127.517,812.888,124.97,807.76,125.474z"/>
	<path fill="#FFFFFF" d="M818.537,129.189c0.003-0.015,0.005-0.031,0.006-0.045c-0.041-0.016-0.08-0.036-0.121-0.05
		C818.461,129.123,818.498,129.158,818.537,129.189z"/>
	<path fill="#FFFFFF" d="M825.013,103.679v-3.378c-16.894-0.064-33.547,1.054-48.308,4.351c0.217,10.258,0.249,23.185,0.718,35.183
		c3.847-0.151,8.207-0.485,12.925-0.539c3.098-4.262,6.299-8.421,10.591-11.488c-1.232,0.163-0.989-0.311-1.256-0.897
		c-0.994-2.185-0.777-6.912-0.897-10.412c-0.137-3.928-0.1-7.637,0.179-10.411c4.866-0.764,10.455-1.583,16.694-1.077
		c0.231,4.629,1.073,11.056,1.615,15.797c0.277,2.426,1.688,6.225-0.718,6.103c-0.173,0.752,2.04,1.418,1.986,2.233
		c2.739,1.027,4.496,4.574,6.471,7.006v-9.85c-0.425,0.025-0.857,0.042-1.277,0.071c-1.204-6.755-2.473-14.399-2.154-22.079
		C822.723,104.066,823.868,103.865,825.013,103.679z M781.014,128.705c-0.96-6.946-2.129-14.386-1.257-21.9
		c5.063-0.501,10.192-0.635,16.156-0.897c0.358,7.612,1.142,15.156,1.256,22.079C792.153,128.477,786.232,129.012,781.014,128.705z"
		/>
	<path fill="#FFFFFF" d="M327.047,92.624c-7.311,0.729-16.721,0.053-24.772,0.539c-0.696,10.714-1.442,20.164-0.897,29.619
		c8.86,1.142,18.351,1.392,27.464,0.538c-0.846-8.559-1.333-19.562-1.077-29.259C326.874,94.233,327.463,92.926,327.047,92.624z
		 M307.121,100.163c0.935,1.037,0.4,4.029,0,5.386c-1.182,0.31-2.007,0.105-3.052-0.359
		C303.926,103.072,303.489,98.777,307.121,100.163z M308.018,116.678c-1.188,0.069-2.223,0.291-3.41,0.359
		c-0.725-1.751,0.003-2.479-0.18-4.846c1.242,0.234,2.347-0.458,3.231,0C308.093,113.318,308.082,115.628,308.018,116.678z
		 M323.635,116.498c-1.222-0.188-2.194,0.367-3.052,0c-0.401-2.331-0.907-6.118,2.872-4.847
		C323.78,112.992,324.356,115.209,323.635,116.498z M324.175,104.831c-0.923,0.274-1.996,0.397-3.231,0.359
		c-0.546-2.757-0.878-6.669,3.052-5.026C324.303,101.356,324.559,103.204,324.175,104.831z"/>
	<path fill="#FFFFFF" d="M-0.001,224.03v1.873c0.333-0.028,0.682-0.056,1.066-0.086C1.002,225.245,0.529,224.642-0.001,224.03z"/>
	<path fill="#FFFFFF" d="M337.309,339.586c-0.04,0.207-0.073,0.422-0.112,0.63c0.013-0.037,0.024-0.076,0.037-0.113
		C337.26,339.93,337.283,339.757,337.309,339.586z"/>
	<path fill="#FFFFFF" d="M449.289,249.871c-2.785,0.197-4.95,0.158-8.077,0.18c-0.091,0.694,1.844,1.86,1.436,2.872
		c-1.476-4.9-10.575-2.191-16.335-2.872c-0.1,0.703,1.461,1.289,1.437,2.513c-1.799-4.149-8.693-1.408-13.463-2.513
		c0.226,19.598,0.395,40.333,2.692,57.082c-1.694,0.533-4.603,0.766-6.642,0.359c-2.777-17.658-3.117-39.329-3.231-57.801
		c-4.061,0.029-7.35-0.111-10.591-0.359c-0.482,1.053,1.914,1.636,1.437,2.693c-2.432-4.33-11.097-2.427-17.053-3.23
		c0.444,1.59,2.132,2.893,1.974,4.488c-1.282-1.291-1.77-3.377-3.051-4.667c-3.695,0.007-6.941-0.437-10.771,0
		c0.449,1.646,2.833,2.912,3.411,5.026c-1.971-1.261-2.816-3.646-4.667-5.026c-2.207,0.158-4.367-0.319-5.924,0.18
		c0.727,12.065,1.771,26.128,1.077,38.773c-12.411,1.246-25.288,1.351-38.235,2.154c-3.347,0.207-8.725,1.464-11.847,0.358
		c-0.839-0.297-1.838-1.631-2.692-2.334c-2.18-1.791-4.48-3.601-7.359-5.923c-1.497-1.208-6.647-4.353-7.181-6.104
		c-0.682-2.237-0.362-6.41-0.538-9.514c-0.265-4.679,0.852-9.254,0-12.924c-1.15-4.959-6.292-3.392-10.95-3.591
		c0.538,13.045,1.729,26.417,2.872,40.03c-4.651,1.012-9.429,0.853-13.463,2.333c9.142,19.188,18.925,39.749,25.669,61.032
		c2.332,7.357,3.449,15.231,5.744,23.155c4.23,14.602,8.585,29.761,11.489,45.954c3.706,20.667,7.139,44.379,9.154,66.058
		c2.216-48.81,3.146-103.117,11.587-148.038c-0.034,0.1-0.063,0.207-0.099,0.306c0.65-7.127,2.137-16.446,3.59-23.516
		c8.336-6.038,16.342-12.228,25.131-18.13c2.179-1.463,6.431-5.623,8.976-5.564c1.292,0.029,4.174,2.468,5.385,3.41
		c1.965,1.528,3.435,2.601,5.026,3.77c7.269,5.34,11.2,11.89,17.053,18.13c2.338,2.493,7.166,6.772,7.898,9.873
		c0.864,3.661-0.126,9.506-0.18,14.001c-0.3,25.305-1.428,53.086-2.872,78.444c-1.113,19.547-2.727,41.882-3.41,61.57
		c6.369-26.848,14.819-52.937,26.746-74.674c1.451-2.646,4.755-6.805,5.205-9.335c0.752-4.212,0.131-9.518,0.18-14.181
		c0.051-4.896,0.135-9.951,0.359-14.899c0.893-19.649,0.872-38.129,1.795-57.979c0.499-10.737-0.76-23.64,1.795-32.311
		C442.629,269.445,446.069,259.224,449.289,249.871z"/>
	<path fill="#FFFFFF" d="M325.79,495.075c-0.577,9.785,0.911,20.613,0.212,30.094h12.686c-0.512-9.682,0.291-19.07,0.744-28.658
		c0.42-8.895-0.021-17.793,0.358-26.388c0.733-16.664,3.32-32.988,4.847-48.286c3.097-31.035,4.569-62.741,8.437-93.881
		c-4.029-2.913-8.119-7.676-11.848-9.694c-1.987,6.494-2.009,15.86-3.992,21.841c-6.135,40.755-8.904,86.024-9.829,130.38
		C327.235,478.642,326.268,486.93,325.79,495.075z"/>
	<path fill="#FFFFFF" d="M186.673,105.549c-5.534,2.279-9.657,4.964-15.079,7.18c8.753,18.85,17.869,39.147,20.032,63.66
		c0.065-0.058,0.144-0.102,0.252-0.115c-0.055,0.654,0.028,1.168,0.18,1.616c5.219-2.978,9.663-6.733,14.54-10.052
		C200.914,146.117,195.122,124.504,186.673,105.549z"/>
	<path fill="#FFFFFF" d="M130.529,174.054c-0.661,2.59-1.962,5.152-2.195,8.143c19.968,0.343,43.479-0.704,62.827-4.128
		c0.338-0.368,0.096-1.315,0.452-1.664c-3.688-24.102-11.051-44.724-20.735-63.317C156.795,132.777,141.913,151.667,130.529,174.054
		z"/>
	<path fill="#FFFFFF" d="M146.105,146.476c0.306-1.541-0.074-3.177,0-4.847c0.652-14.846-1.264-28.978-1.795-45.594
		c-14.446,0.321-32.229-0.739-48.467-0.538c-0.491,36.933-0.893,73.33-1.256,110.036c11.25-0.107,22.302-0.609,34.105-0.718
		c0.008-10.124-3.451-23.669,1.812-30.815c2.926-7.378,6.845-14.476,11.292-20.882C143.196,151.103,145.707,148.48,146.105,146.476z
		 M111.64,106.626c1.48-0.255,2.764-0.707,4.488-0.718c1.135,3.922,0.937,7.034,0.718,11.668c-1.616,0-3.231,0-4.847,0
		C111.198,114.128,111.144,110.518,111.64,106.626z M117.025,133.372c-1.298,0.444-3.022,0.276-4.308-0.179
		c-0.705-3.184-0.752-7.026-0.718-10.95c1.163,0.149,3.132,0.024,4.488-0.18C117.583,124.795,117.238,130.16,117.025,133.372z
		 M120.436,106.267c1.451-0.386,2.963-0.508,4.667-0.18c0.728,3.236,0.282,8.097-0.359,11.129c-1.575,0-2.712,0.215-4.128-0.18
		C119.864,114.077,120.357,109.004,120.436,106.267z M125.282,132.654c-1.123,0.253-2.432,0.32-3.77,0.359
		c-0.979-2.804-0.902-7.576-0.718-10.95c0.961-0.521,3.844-0.317,4.308,0.18C126.145,125.369,125.289,128.936,125.282,132.654z"/>
	<path fill="#FFFFFF" d="M777.603,144.502c0.241,5.304,0.51,10.279,1.078,16.155c1.521-0.153,2.902-0.447,4.666-0.359
		c0.396-6.786,2.555-11.806,4.847-16.694c-1.24,0.062-3.445,0.388-4.519,0.081c0.059,0.044,0.117,0.087,0.168,0.143
		C781.733,143.939,779.524,144.608,777.603,144.502z"/>
	<path fill="#FFFFFF" d="M788.553,142.886c0.649-0.906,1.226-1.886,1.615-3.052c-3.934,0.342-8.439,0.007-12.745,0.718
		c0.058,1.139-0.151,2.545,0.18,3.411c1.978,0.292,4.316-0.875,5.645-0.487c-0.022-0.019-0.061-0.03-0.079-0.051
		C784.743,143.06,787.394,143.101,788.553,142.886z"/>
	<path fill="#FFFFFF" d="M688.569,168.196c-23.543,5.411-46.589,10.138-67.673,17.771c1.226,5.176,2.516,10.289,3.59,15.617
		c1.833-0.396,3.848-1.002,5.606-1.487c-2.1-5.2,0.817-12.702,8.754-11.617c3.935,0.538,6.536,3.452,6.821,8.078
		c9.156-2.271,17.591-5.267,26.028-8.257c-2.997-10.834,14.854-14.764,15.258-3.77c1.907-0.546,3.896-1.01,5.564-1.795
		C691.347,177.348,690.346,172.808,688.569,168.196z"/>
	<path fill="#FFFFFF" d="M629.511,201.225c2.771,2.557,4.933,4.908,7.899,7.001c2.816-1.372,6.08-2.296,9.154-3.411
		c-0.361-0.897-1.891-2.176-2.872-3.051c-1.867,2.194-4.975,3.55-8.258,2.872c-2.574-0.532-4.317-2.201-5.237-4.278
		C630.072,200.724,629.44,200.761,629.511,201.225z"/>
	<path fill="#FFFFFF" d="M667.029,190.634c-2.258,0.794-4.604,1.5-6.642,2.513c1.617,1.733,2.602,4.099,4.487,5.564
		c2.436-0.497,4.484-1.379,6.642-2.154c0.053-0.708-1.111-0.949-0.977-1.448C669.588,193.573,667.644,192.49,667.029,190.634z"/>
	<path fill="#FFFFFF" d="M672.234,188.839c-1.839,0.314-3.134,1.175-4.847,1.616c0.478,1.657,3.502,2.929,3.262,4.492
		c0.95,0.056,1.012,0.999,1.765,1.251c2.08-0.791,4.194-1.55,6.282-2.333C676.646,192.086,672.578,192.324,672.234,188.839z"/>
	<path fill="#FFFFFF" d="M12.374,239.639c-1.343-1.567-3.511-4.105-5.385-6.643c-1.252-1.696-3.935-6.234-5.564-6.641
		c-0.467-0.117-0.943-0.124-1.425-0.083v26.58c0.959,1.3,2.13,2.747,3.041,2.941c2.393,0.51,6.25-1.075,8.975-1.616
		c3.051-0.605,5.877-1.408,9.155-1.436c-1.319-3.431-5.203-6.625-6.509-10.222C13.548,242.052,13.003,240.374,12.374,239.639z"/>
	<path fill="#FFFFFF" d="M39.838,250.589c-4.412-7.054-9.387-13.378-14.001-19.925c-1.02-1.447-3.231-5.521-4.847-5.923
		c-3.071-0.764-7.67,0.816-11.488,1.077c-2.334,0.159-4.468,0.115-6.821,0.359c3.203,5.054,8.866,10.853,12.116,16.285
		c2.797,3.114,4.725,7.095,7.63,10.102C27.888,251.564,34.666,251.879,39.838,250.589z"/>
	<path fill="#FFFFFF" d="M14.661,242.521c0.077,0.032,0.148,0.075,0.23,0.095c-0.03-0.051-0.064-0.104-0.095-0.155
		c-0.091-0.102-0.175-0.209-0.268-0.309C14.567,242.276,14.616,242.398,14.661,242.521z"/>
	<path fill="#FFFFFF" d="M283.965,249.153c2.876,0.063,5.307-0.319,8.258-0.18c-3.414-5.285-5.715-9.653-8.976-15.258
		C283.225,239.123,284.01,243.724,283.965,249.153z"/>
	<path fill="#FFFFFF" d="M211.803,253.64c1.921,18.863,1.569,37.294,2.873,57.083c2.204,1.868,5.061,4.985,7.001,5.924
		c0.146-9.119-1.992-22.77-0.991-32.573c-0.926-9.19-0.904-20.144-1.344-30.613C216.826,254.065,214.002,253.792,211.803,253.64z"/>
	<path fill="#FFFFFF" d="M245.73,294.029c-1.956-13.961-2.804-29.027-3.41-44.338c-1.515,0.255-2.95-0.518-4.128,0
		c0.888,1.576,2.482,3.367,2.692,5.027c-1.565-1.309-2.208-3.537-3.411-5.207c-3.399-0.311-7.527,0.108-10.591-0.538
		c-2.137,1.572-4.085,3.334-7,4.129c0.071,10.534,1.366,22.556,0.912,31.61c0.443,11.137,1.241,21.568,1.601,32.831
		c4.837,4.856,10.834,8.554,15.079,14.002c-1.161,0.395-2.859,0.253-4.128,0.538c0.788,5.55,1.635,14.64,2.872,19.028
		c8.854-17.539,16.878-39.005,25.49-57.98C255.797,293.514,251.497,294.222,245.73,294.029z"/>
	<path fill="#FFFFFF" d="M-0.001,456.16v46.416c8.1-0.048,16.037-0.096,23.684-0.142C15.784,486.821,7.875,471.462-0.001,456.16z"/>
	<path fill="#FFFFFF" d="M106.614,506.384c0.078,0.862-0.111,2.394,0,2.692c0.428-0.77,0.997-1.397,1.257-2.334
		C107.126,506.948,107.171,506.365,106.614,506.384z"/>
	<path fill="#FFFFFF" d="M810.453,196.019c0.413,15.551,1.616,34.298,1.257,48.825c1.385,13.489,0.7,25.795,1.975,39.85
		c3.849,1.786,7.619,3.649,11.329,5.573V185.534C821.661,190.53,816.869,194.087,810.453,196.019z"/>
	<path fill="#FFFFFF" d="M768.629,273.207c-6.412-1.271-13.05-1.93-19.925-2.693c-25.123-2.789-56.54-0.82-80.06,1.257
		c-37.484,3.31-71.384,11.057-101.959,21.541c-13.225,4.534-25.232,8.819-36.439,14.539c-10.833,5.529-20.978,12.629-30.695,20.105
		c-29.15,22.427-51.487,50.016-70.187,82.932c-2.563,4.511-4.845,9.346-6.821,14.359c-11.776,29.871-21.496,63.073-26.128,99.922
		h428.599V291.191c-11.549-6.033-23.84-11.244-37.717-13.856C781.081,276.166,774.985,274.467,768.629,273.207z"/>
</g>
</svg>
